<?xml version="1.0" encoding="UTF-8" standalone="no"?>
<!DOCTYPE svg PUBLIC "-//W3C//DTD SVG 1.1//EN"
 "http://www.w3.org/Graphics/SVG/1.1/DTD/svg11.dtd">
<!-- Generated by graphviz version 2.43.0 (0)
 -->
<!-- Title: fernotron/pos/commands.h Pages: 1 -->
<svg width="797pt" height="352pt"
 viewBox="0.00 0.00 797.00 352.00" xmlns="http://www.w3.org/2000/svg" xmlns:xlink="http://www.w3.org/1999/xlink">
<g id="graph0" class="graph" transform="scale(1 1) rotate(0) translate(4 348)">
<title>fernotron/pos/commands.h</title>
<!-- Node1 -->
<g id="node1" class="node">
<title>Node1</title>
<g id="a_node1"><a xlink:title="commands to move or stop a shutter with position support">
<polygon fill="#bfbfbf" stroke="black" points="325,-324.5 325,-343.5 473,-343.5 473,-324.5 325,-324.5"/>
<text text-anchor="middle" x="399" y="-331.5" font-family="Helvetica,sans-Serif" font-size="10.00">fernotron/pos/commands.h</text>
</a>
</g>
</g>
<!-- Node2 -->
<g id="node2" class="node">
<title>Node2</title>
<g id="a_node2"><a xlink:href="fer__msg__plain_8h.html" target="_top" xlink:title="Data structure of plain messages or header of extended messages.">
<polygon fill="none" stroke="black" points="238,-201.5 238,-231.5 356,-231.5 356,-201.5 238,-201.5"/>
<text text-anchor="start" x="246" y="-219.5" font-family="Helvetica,sans-Serif" font-size="10.00">fernotron_trx/raw/fer</text>
<text text-anchor="middle" x="297" y="-208.5" font-family="Helvetica,sans-Serif" font-size="10.00">_msg_plain.h</text>
</a>
</g>
</g>
<!-- Node1&#45;&gt;Node2 -->
<g id="edge1" class="edge">
<title>Node1&#45;&gt;Node2</title>
<path fill="none" stroke="midnightblue" d="M391.33,-324.32C375.53,-306.42 338.92,-264.97 316.23,-239.28"/>
<polygon fill="midnightblue" stroke="midnightblue" points="318.65,-236.72 309.4,-231.55 313.4,-241.36 318.65,-236.72"/>
</g>
<!-- Node4 -->
<g id="node4" class="node">
<title>Node4</title>
<g id="a_node4"><a xlink:title=" ">
<polygon fill="none" stroke="#bfbfbf" points="161.5,-6 161.5,-25 214.5,-25 214.5,-6 161.5,-6"/>
<text text-anchor="middle" x="188" y="-13" font-family="Helvetica,sans-Serif" font-size="10.00">stdint.h</text>
</a>
</g>
</g>
<!-- Node1&#45;&gt;Node4 -->
<g id="edge17" class="edge">
<title>Node1&#45;&gt;Node4</title>
<path fill="none" stroke="midnightblue" d="M324.89,-326.76C209.5,-314.98 0,-284.39 0,-217.5 0,-217.5 0,-217.5 0,-148.5 0,-75.25 96.77,-39.16 151.45,-24.62"/>
<polygon fill="midnightblue" stroke="midnightblue" points="152.64,-27.93 161.46,-22.07 150.91,-21.14 152.64,-27.93"/>
</g>
<!-- Node9 -->
<g id="node9" class="node">
<title>Node9</title>
<g id="a_node9"><a xlink:title=" ">
<polygon fill="none" stroke="#bfbfbf" points="727,-6 727,-25 789,-25 789,-6 727,-6"/>
<text text-anchor="middle" x="758" y="-13" font-family="Helvetica,sans-Serif" font-size="10.00">stdbool.h</text>
</a>
</g>
</g>
<!-- Node1&#45;&gt;Node9 -->
<g id="edge18" class="edge">
<title>Node1&#45;&gt;Node9</title>
<path fill="none" stroke="midnightblue" d="M472.52,-324.44C577.55,-310.14 758,-276.92 758,-217.5 758,-217.5 758,-217.5 758,-148.5 758,-108.16 758,-60.88 758,-35.28"/>
<polygon fill="midnightblue" stroke="midnightblue" points="761.5,-35.15 758,-25.15 754.5,-35.15 761.5,-35.15"/>
</g>
<!-- Node17 -->
<g id="node17" class="node">
<title>Node17</title>
<g id="a_node17"><a xlink:href="shutter__pct_8h.html" target="_top" xlink:title="include positions_static.h and positions_dynamic.h">
<polygon fill="none" stroke="black" points="393,-268.5 393,-287.5 473,-287.5 473,-268.5 393,-268.5"/>
<text text-anchor="middle" x="433" y="-275.5" font-family="Helvetica,sans-Serif" font-size="10.00">shutter_pct.h</text>
</a>
</g>
</g>
<!-- Node1&#45;&gt;Node17 -->
<g id="edge19" class="edge">
<title>Node1&#45;&gt;Node17</title>
<path fill="none" stroke="midnightblue" d="M404.61,-324.08C409.37,-316.53 416.32,-305.49 422.15,-296.23"/>
<polygon fill="midnightblue" stroke="midnightblue" points="425.12,-298.08 427.49,-287.75 419.2,-294.35 425.12,-298.08"/>
</g>
<!-- Node3 -->
<g id="node3" class="node">
<title>Node3</title>
<g id="a_node3"><a xlink:href="fer__msg__type_8h.html" target="_top" xlink:title="kinds of messages">
<polygon fill="none" stroke="black" points="174,-140 174,-159 266,-159 266,-140 174,-140"/>
<text text-anchor="middle" x="220" y="-147" font-family="Helvetica,sans-Serif" font-size="10.00">fer_msg_type.h</text>
</a>
</g>
</g>
<!-- Node2&#45;&gt;Node3 -->
<g id="edge2" class="edge">
<title>Node2&#45;&gt;Node3</title>
<path fill="none" stroke="midnightblue" d="M280.29,-201.4C267.81,-190.86 250.77,-176.48 237.99,-165.69"/>
<polygon fill="midnightblue" stroke="midnightblue" points="240.2,-162.97 230.3,-159.19 235.68,-168.32 240.2,-162.97"/>
</g>
<!-- Node5 -->
<g id="node5" class="node">
<title>Node5</title>
<g id="a_node5"><a xlink:href="fer__msg__plain__enum_8h.html" target="_top" xlink:title="Raw message for plain commands.">
<polygon fill="none" stroke="black" points="28,-140 28,-159 156,-159 156,-140 28,-140"/>
<text text-anchor="middle" x="92" y="-147" font-family="Helvetica,sans-Serif" font-size="10.00">fer_msg_plain_enum.h</text>
</a>
</g>
</g>
<!-- Node2&#45;&gt;Node5 -->
<g id="edge4" class="edge">
<title>Node2&#45;&gt;Node5</title>
<path fill="none" stroke="midnightblue" d="M252.77,-201.48C215.7,-189.72 163.41,-173.14 128.65,-162.12"/>
<polygon fill="midnightblue" stroke="midnightblue" points="129.49,-158.71 118.9,-159.03 127.37,-165.39 129.49,-158.71"/>
</g>
<!-- Node6 -->
<g id="node6" class="node">
<title>Node6</title>
<g id="a_node6"><a xlink:href="fer__trx__c__api_8h.html" target="_top" xlink:title="C&#45;API for sending and receiving Fernotron RF messages.">
<polygon fill="none" stroke="black" points="284,-134.5 284,-164.5 400,-164.5 400,-134.5 284,-134.5"/>
<text text-anchor="start" x="292" y="-152.5" font-family="Helvetica,sans-Serif" font-size="10.00">fernotron_trx/fer_trx</text>
<text text-anchor="middle" x="342" y="-141.5" font-family="Helvetica,sans-Serif" font-size="10.00">_c_api.h</text>
</a>
</g>
</g>
<!-- Node2&#45;&gt;Node6 -->
<g id="edge5" class="edge">
<title>Node2&#45;&gt;Node6</title>
<path fill="none" stroke="midnightblue" d="M306.76,-201.4C312.54,-193.05 319.99,-182.29 326.55,-172.81"/>
<polygon fill="midnightblue" stroke="midnightblue" points="329.44,-174.79 332.25,-164.58 323.68,-170.81 329.44,-174.79"/>
</g>
<!-- Node16 -->
<g id="node16" class="node">
<title>Node16</title>
<g id="a_node16"><a xlink:title=" ">
<polygon fill="none" stroke="#bfbfbf" points="356,-73 356,-92 488,-92 488,-73 356,-73"/>
<text text-anchor="middle" x="422" y="-80" font-family="Helvetica,sans-Serif" font-size="10.00">utils_misc/int_macros.h</text>
</a>
</g>
</g>
<!-- Node2&#45;&gt;Node16 -->
<g id="edge16" class="edge">
<title>Node2&#45;&gt;Node16</title>
<path fill="none" stroke="midnightblue" d="M355.48,-201.43C375.32,-193.81 395.79,-182.28 409,-165 422.77,-146.99 424.48,-120.1 423.78,-102.19"/>
<polygon fill="midnightblue" stroke="midnightblue" points="427.27,-101.88 423.1,-92.14 420.29,-102.35 427.27,-101.88"/>
</g>
<!-- Node3&#45;&gt;Node4 -->
<g id="edge3" class="edge">
<title>Node3&#45;&gt;Node4</title>
<path fill="none" stroke="midnightblue" d="M193.7,-139.94C174.76,-132.24 150.58,-118.87 139,-98 132.31,-85.95 133.82,-79.77 139,-67 144.72,-52.89 156.49,-40.54 167.06,-31.59"/>
<polygon fill="midnightblue" stroke="midnightblue" points="169.49,-34.13 175.14,-25.17 165.14,-28.65 169.49,-34.13"/>
</g>
<!-- Node7 -->
<g id="node7" class="node">
<title>Node7</title>
<g id="a_node7"><a xlink:title=" ">
<polygon fill="none" stroke="#bfbfbf" points="148.5,-73 148.5,-92 271.5,-92 271.5,-73 148.5,-73"/>
<text text-anchor="middle" x="210" y="-80" font-family="Helvetica,sans-Serif" font-size="10.00">utils_misc/int_types.h</text>
</a>
</g>
</g>
<!-- Node6&#45;&gt;Node7 -->
<g id="edge6" class="edge">
<title>Node6&#45;&gt;Node7</title>
<path fill="none" stroke="midnightblue" d="M313.36,-134.4C290.5,-123.14 258.74,-107.5 236.48,-96.54"/>
<polygon fill="midnightblue" stroke="midnightblue" points="237.79,-93.28 227.28,-92.01 234.7,-99.56 237.79,-93.28"/>
</g>
<!-- Node8 -->
<g id="node8" class="node">
<title>Node8</title>
<g id="a_node8"><a xlink:href="timer__data_8h.html" target="_top" xlink:title="vocabulary types to program Fernotron automatic (timers)">
<polygon fill="none" stroke="black" points="544,-67.5 544,-97.5 654,-97.5 654,-67.5 544,-67.5"/>
<text text-anchor="start" x="552" y="-85.5" font-family="Helvetica,sans-Serif" font-size="10.00">fernotron_trx/timer</text>
<text text-anchor="middle" x="599" y="-74.5" font-family="Helvetica,sans-Serif" font-size="10.00">_data.h</text>
</a>
</g>
</g>
<!-- Node6&#45;&gt;Node8 -->
<g id="edge7" class="edge">
<title>Node6&#45;&gt;Node8</title>
<path fill="none" stroke="midnightblue" d="M397.45,-134.48C437.48,-124.35 491.66,-110.65 533.77,-100"/>
<polygon fill="midnightblue" stroke="midnightblue" points="534.81,-103.34 543.65,-97.5 533.1,-96.56 534.81,-103.34"/>
</g>
<!-- Node15 -->
<g id="node15" class="node">
<title>Node15</title>
<g id="a_node15"><a xlink:title=" ">
<polygon fill="none" stroke="#bfbfbf" points="290,-73 290,-92 338,-92 338,-73 290,-73"/>
<text text-anchor="middle" x="314" y="-80" font-family="Helvetica,sans-Serif" font-size="10.00">time.h</text>
</a>
</g>
</g>
<!-- Node6&#45;&gt;Node15 -->
<g id="edge15" class="edge">
<title>Node6&#45;&gt;Node15</title>
<path fill="none" stroke="midnightblue" d="M335.92,-134.4C331.77,-124.76 326.24,-111.91 321.77,-101.54"/>
<polygon fill="midnightblue" stroke="midnightblue" points="324.92,-99.99 317.75,-92.19 318.49,-102.76 324.92,-99.99"/>
</g>
<!-- Node8&#45;&gt;Node4 -->
<g id="edge8" class="edge">
<title>Node8&#45;&gt;Node4</title>
<path fill="none" stroke="midnightblue" d="M543.7,-69.57C539.07,-68.67 534.46,-67.8 530,-67 471.74,-56.59 300.26,-32.25 224.59,-21.62"/>
<polygon fill="midnightblue" stroke="midnightblue" points="224.96,-18.13 214.57,-20.21 223.99,-25.07 224.96,-18.13"/>
</g>
<!-- Node8&#45;&gt;Node9 -->
<g id="edge9" class="edge">
<title>Node8&#45;&gt;Node9</title>
<path fill="none" stroke="midnightblue" d="M633.5,-67.4C661.65,-55.89 701.01,-39.8 727.89,-28.81"/>
<polygon fill="midnightblue" stroke="midnightblue" points="729.26,-32.03 737.19,-25.01 726.61,-25.55 729.26,-32.03"/>
</g>
<!-- Node10 -->
<g id="node10" class="node">
<title>Node10</title>
<g id="a_node10"><a xlink:title=" ">
<polygon fill="none" stroke="#bfbfbf" points="655.5,-6 655.5,-25 708.5,-25 708.5,-6 655.5,-6"/>
<text text-anchor="middle" x="682" y="-13" font-family="Helvetica,sans-Serif" font-size="10.00">string.h</text>
</a>
</g>
</g>
<!-- Node8&#45;&gt;Node10 -->
<g id="edge10" class="edge">
<title>Node8&#45;&gt;Node10</title>
<path fill="none" stroke="midnightblue" d="M617.01,-67.4C630.59,-56.76 649.18,-42.2 663,-31.38"/>
<polygon fill="midnightblue" stroke="midnightblue" points="665.18,-34.12 670.9,-25.19 660.87,-28.6 665.18,-34.12"/>
</g>
<!-- Node11 -->
<g id="node11" class="node">
<title>Node11</title>
<g id="a_node11"><a xlink:title=" ">
<polygon fill="none" stroke="#bfbfbf" points="300.5,-6 300.5,-25 353.5,-25 353.5,-6 300.5,-6"/>
<text text-anchor="middle" x="327" y="-13" font-family="Helvetica,sans-Serif" font-size="10.00">ctype.h</text>
</a>
</g>
</g>
<!-- Node8&#45;&gt;Node11 -->
<g id="edge11" class="edge">
<title>Node8&#45;&gt;Node11</title>
<path fill="none" stroke="midnightblue" d="M543.8,-69.81C475.44,-55.32 367.37,-32.34 363,-31 360.72,-30.3 358.38,-29.52 356.04,-28.69"/>
<polygon fill="midnightblue" stroke="midnightblue" points="357.18,-25.38 346.59,-25.1 354.69,-31.92 357.18,-25.38"/>
</g>
<!-- Node12 -->
<g id="node12" class="node">
<title>Node12</title>
<g id="a_node12"><a xlink:title=" ">
<polygon fill="none" stroke="#bfbfbf" points="372,-6 372,-25 422,-25 422,-6 372,-6"/>
<text text-anchor="middle" x="397" y="-13" font-family="Helvetica,sans-Serif" font-size="10.00">stdio.h</text>
</a>
</g>
</g>
<!-- Node8&#45;&gt;Node12 -->
<g id="edge12" class="edge">
<title>Node8&#45;&gt;Node12</title>
<path fill="none" stroke="midnightblue" d="M547.05,-67.49C513.6,-58.09 469.37,-44.9 431,-31 429.14,-30.33 427.24,-29.61 425.34,-28.86"/>
<polygon fill="midnightblue" stroke="midnightblue" points="426.49,-25.55 415.91,-25.01 423.84,-32.03 426.49,-25.55"/>
</g>
<!-- Node13 -->
<g id="node13" class="node">
<title>Node13</title>
<g id="a_node13"><a xlink:title=" ">
<polygon fill="none" stroke="#bfbfbf" points="440,-0.5 440,-30.5 542,-30.5 542,-0.5 440,-0.5"/>
<text text-anchor="start" x="448" y="-18.5" font-family="Helvetica,sans-Serif" font-size="10.00">utils_misc/cstring</text>
<text text-anchor="middle" x="491" y="-7.5" font-family="Helvetica,sans-Serif" font-size="10.00">_utils.hh</text>
</a>
</g>
</g>
<!-- Node8&#45;&gt;Node13 -->
<g id="edge13" class="edge">
<title>Node8&#45;&gt;Node13</title>
<path fill="none" stroke="midnightblue" d="M575.57,-67.4C560.28,-58.2 540.12,-46.07 523.32,-35.95"/>
<polygon fill="midnightblue" stroke="midnightblue" points="524.76,-32.73 514.39,-30.58 521.15,-38.73 524.76,-32.73"/>
</g>
<!-- Node14 -->
<g id="node14" class="node">
<title>Node14</title>
<g id="a_node14"><a xlink:title=" ">
<polygon fill="none" stroke="#bfbfbf" points="560.5,-6 560.5,-25 637.5,-25 637.5,-6 560.5,-6"/>
<text text-anchor="middle" x="599" y="-13" font-family="Helvetica,sans-Serif" font-size="10.00">debug/dbg.h</text>
</a>
</g>
</g>
<!-- Node8&#45;&gt;Node14 -->
<g id="edge14" class="edge">
<title>Node8&#45;&gt;Node14</title>
<path fill="none" stroke="midnightblue" d="M599,-67.4C599,-58.06 599,-45.71 599,-35.52"/>
<polygon fill="midnightblue" stroke="midnightblue" points="602.5,-35.19 599,-25.19 595.5,-35.19 602.5,-35.19"/>
</g>
<!-- Node18 -->
<g id="node18" class="node">
<title>Node18</title>
<g id="a_node18"><a xlink:href="positions__static_8h.html" target="_top" xlink:title="Store and retrieve shutter positions (persistently)">
<polygon fill="none" stroke="black" points="510,-207 510,-226 612,-226 612,-207 510,-207"/>
<text text-anchor="middle" x="561" y="-214" font-family="Helvetica,sans-Serif" font-size="10.00">positions_static.h</text>
</a>
</g>
</g>
<!-- Node17&#45;&gt;Node18 -->
<g id="edge20" class="edge">
<title>Node17&#45;&gt;Node18</title>
<path fill="none" stroke="midnightblue" d="M451.34,-268.48C472.82,-258.49 508.62,-241.85 533.45,-230.31"/>
<polygon fill="midnightblue" stroke="midnightblue" points="535.1,-233.4 542.69,-226.01 532.15,-227.05 535.1,-233.4"/>
</g>
<!-- Node20 -->
<g id="node20" class="node">
<title>Node20</title>
<g id="a_node20"><a xlink:href="positions__dynamic_8h.html" target="_top" xlink:title="Keep track of positions for a currently moving shutter.">
<polygon fill="none" stroke="black" points="374.5,-207 374.5,-226 491.5,-226 491.5,-207 374.5,-207"/>
<text text-anchor="middle" x="433" y="-214" font-family="Helvetica,sans-Serif" font-size="10.00">positions_dynamic.h</text>
</a>
</g>
</g>
<!-- Node17&#45;&gt;Node20 -->
<g id="edge26" class="edge">
<title>Node17&#45;&gt;Node20</title>
<path fill="none" stroke="midnightblue" d="M433,-268.48C433,-260.08 433,-246.98 433,-236.16"/>
<polygon fill="midnightblue" stroke="midnightblue" points="436.5,-236.01 433,-226.01 429.5,-236.01 436.5,-236.01"/>
</g>
<!-- Node18&#45;&gt;Node9 -->
<g id="edge25" class="edge">
<title>Node18&#45;&gt;Node9</title>
<path fill="none" stroke="midnightblue" d="M572.54,-206.77C596.77,-188.18 654.17,-142.68 696,-98 715.48,-77.19 734.87,-50.49 746.65,-33.43"/>
<polygon fill="midnightblue" stroke="midnightblue" points="749.63,-35.28 752.37,-25.04 743.84,-31.34 749.63,-35.28"/>
</g>
<!-- Node19 -->
<g id="node19" class="node">
<title>Node19</title>
<g id="a_node19"><a xlink:href="fer__pct_8h.html" target="_top" xlink:title="class Pct to represent shutter opening percentage">
<polygon fill="none" stroke="black" points="462.5,-140 462.5,-159 569.5,-159 569.5,-140 462.5,-140"/>
<text text-anchor="middle" x="516" y="-147" font-family="Helvetica,sans-Serif" font-size="10.00">fernotron/fer_pct.h</text>
</a>
</g>
</g>
<!-- Node18&#45;&gt;Node19 -->
<g id="edge21" class="edge">
<title>Node18&#45;&gt;Node19</title>
<path fill="none" stroke="midnightblue" d="M554.93,-206.73C547.98,-196.7 536.43,-180.01 527.71,-167.42"/>
<polygon fill="midnightblue" stroke="midnightblue" points="530.54,-165.36 521.97,-159.13 524.79,-169.34 530.54,-165.36"/>
</g>
<!-- Node19&#45;&gt;Node4 -->
<g id="edge22" class="edge">
<title>Node19&#45;&gt;Node4</title>
<path fill="none" stroke="midnightblue" d="M516.82,-139.86C517.88,-123.13 517.59,-86.25 497,-67 492.03,-62.35 305.75,-34.07 224.86,-21.98"/>
<polygon fill="midnightblue" stroke="midnightblue" points="225.04,-18.47 214.63,-20.45 224,-25.39 225.04,-18.47"/>
</g>
<!-- Node19&#45;&gt;Node9 -->
<g id="edge23" class="edge">
<title>Node19&#45;&gt;Node9</title>
<path fill="none" stroke="midnightblue" d="M552.98,-139.96C583.74,-131.9 627.99,-118.04 663,-98 679.71,-88.43 718.82,-53.05 741.3,-32.18"/>
<polygon fill="midnightblue" stroke="midnightblue" points="743.83,-34.6 748.76,-25.22 739.06,-29.49 743.83,-34.6"/>
</g>
<!-- Node19&#45;&gt;Node16 -->
<g id="edge24" class="edge">
<title>Node19&#45;&gt;Node16</title>
<path fill="none" stroke="midnightblue" d="M503.32,-139.73C487.82,-129.01 461.36,-110.72 442.84,-97.91"/>
<polygon fill="midnightblue" stroke="midnightblue" points="444.69,-94.94 434.48,-92.13 440.71,-100.69 444.69,-94.94"/>
</g>
<!-- Node20&#45;&gt;Node6 -->
<g id="edge28" class="edge">
<title>Node20&#45;&gt;Node6</title>
<path fill="none" stroke="midnightblue" d="M420.73,-206.73C407.84,-197.53 387.13,-182.73 370.18,-170.63"/>
<polygon fill="midnightblue" stroke="midnightblue" points="371.9,-167.55 361.72,-164.59 367.83,-173.25 371.9,-167.55"/>
</g>
<!-- Node20&#45;&gt;Node19 -->
<g id="edge27" class="edge">
<title>Node20&#45;&gt;Node19</title>
<path fill="none" stroke="midnightblue" d="M444.19,-206.73C457.63,-196.21 480.4,-178.38 496.7,-165.62"/>
<polygon fill="midnightblue" stroke="midnightblue" points="499.27,-168.05 504.98,-159.13 494.95,-162.54 499.27,-168.05"/>
</g>
</g>
</svg>
