<?xml version="1.0" encoding="UTF-8" standalone="no"?>
<!DOCTYPE svg PUBLIC "-//W3C//DTD SVG 1.1//EN"
 "http://www.w3.org/Graphics/SVG/1.1/DTD/svg11.dtd">
<!-- Generated by graphviz version 2.43.0 (0)
 -->
<!-- Title: fernotron Pages: 1 -->
<!--zoomable 132 -->
<svg id="main" version="1.1" xmlns="http://www.w3.org/2000/svg" xmlns:xlink="http://www.w3.org/1999/xlink" xml:space="preserve" onload="init(evt)">
<style type="text/css"><![CDATA[
.edge:hover path { stroke: red; }
.edge:hover polygon { stroke: red; fill: red; }
]]></style>
<script type="text/javascript"><![CDATA[
var edges = document.getElementsByTagName('g');
if (edges && edges.length) {
  for (var i=0;i<edges.length;i++) {
    if (edges[i].id.substr(0,4)=='edge') {
      edges[i].setAttribute('class','edge');
    }
  }
}
]]></script>
        <defs>
                <circle id="rim" cx="0" cy="0" r="7"/>
                <circle id="rim2" cx="0" cy="0" r="3.5"/>
                <g id="zoomPlus">
                        <use xlink:href="#rim" fill="#404040">
                                <set attributeName="fill" to="#808080" begin="zoomplus.mouseover" end="zoomplus.mouseout"/>
                        </use>
                        <path d="M-4,0h8M0,-4v8" fill="none" stroke="white" stroke-width="1.5" pointer-events="none"/>
                </g>
                <g id="zoomMin">
                        <use xlink:href="#rim" fill="#404040">
                                <set attributeName="fill" to="#808080" begin="zoomminus.mouseover" end="zoomminus.mouseout"/>
                        </use>
                        <path d="M-4,0h8" fill="none" stroke="white" stroke-width="1.5" pointer-events="none"/>
                </g>
                <g id="dirArrow">
                        <path fill="none" stroke="white" stroke-width="1.5" d="M0,-3.0v7 M-2.5,-0.5L0,-3.0L2.5,-0.5"/>
                </g>
               <g id="resetDef">
                       <use xlink:href="#rim2" fill="#404040">
                               <set attributeName="fill" to="#808080" begin="reset.mouseover" end="reset.mouseout"/>
                       </use>
               </g>
        </defs>

<script type="text/javascript">
var viewWidth = 534;
var viewHeight = 132;
var sectionId = 'dynsection-0';
</script>
<script xlink:href="svgpan.js"/>
<svg id="graph" class="graph">
<g id="viewport">
<title>fernotron</title>
<g id="clust1" class="cluster">
<title>clusterdir_fc9b7e6f56cf85e0307f78cd124bf25c</title>
<g id="a_clust1"><a xlink:href="dir_fc9b7e6f56cf85e0307f78cd124bf25c.html" target="_top">
<polygon fill="#eeeeff" stroke="black" points="8,-64 8,-116 518,-116 518,-64 8,-64"/>
</a>
</g>
</g>
<!-- dir_fc9b7e6f56cf85e0307f78cd124bf25c -->
<g id="node1" class="node">
<title>dir_fc9b7e6f56cf85e0307f78cd124bf25c</title>
<text text-anchor="middle" x="479" y="-87.5" font-family="Helvetica,sans-Serif" font-size="10.00">fernotron</text>
</g>
<!-- dir_277b83383fc59a89deb60d2012c62c77 -->
<g id="node2" class="node">
<title>dir_277b83383fc59a89deb60d2012c62c77</title>
<g id="a_node2"><a xlink:href="dir_277b83383fc59a89deb60d2012c62c77.html" target="_top" xlink:title="alias">
<polygon fill="white" stroke="black" points="430,-108 376,-108 376,-72 430,-72 430,-108"/>
<text text-anchor="middle" x="403" y="-87.5" font-family="Helvetica,sans-Serif" font-size="10.00">alias</text>
</a>
</g>
</g>
<!-- dir_81d9fc5001093dc1e3da8a60288665a8 -->
<g id="node3" class="node">
<title>dir_81d9fc5001093dc1e3da8a60288665a8</title>
<g id="a_node3"><a xlink:href="dir_81d9fc5001093dc1e3da8a60288665a8.html" target="_top" xlink:title="auto">
<polygon fill="white" stroke="black" points="358,-108 304,-108 304,-72 358,-72 358,-108"/>
<text text-anchor="middle" x="331" y="-87.5" font-family="Helvetica,sans-Serif" font-size="10.00">auto</text>
</a>
</g>
</g>
<!-- dir_e5d9e94bf22f4bf842600a7957b831f7 -->
<g id="node8" class="node">
<title>dir_e5d9e94bf22f4bf842600a7957b831f7</title>
<g id="a_node8"><a xlink:href="dir_e5d9e94bf22f4bf842600a7957b831f7.html" target="_top" xlink:title="fernotron_trx">
<polygon fill="none" stroke="red" points="191,-36 111,-36 111,0 191,0 191,-36"/>
<text text-anchor="middle" x="151" y="-15.5" font-family="Helvetica,sans-Serif" font-size="10.00">fernotron_trx</text>
</a>
</g>
</g>
<!-- dir_81d9fc5001093dc1e3da8a60288665a8&#45;&gt;dir_e5d9e94bf22f4bf842600a7957b831f7 -->
<g id="edge2" class="edge">
<title>dir_81d9fc5001093dc1e3da8a60288665a8&#45;&gt;dir_e5d9e94bf22f4bf842600a7957b831f7</title>
<path fill="none" stroke="black" d="M308.4,-71.77C304.09,-68.94 299.51,-66.21 295,-64 265.01,-49.33 229.18,-38.11 200.77,-30.55"/>
<polygon fill="black" stroke="black" points="201.61,-27.15 191.05,-28.02 199.85,-33.92 201.61,-27.15"/>
<g id="a_edge2&#45;headlabel"><a xlink:href="dir_000002_000007.html" target="_top" xlink:title="2">
<text text-anchor="middle" x="205.8" y="-22.8" font-family="Helvetica,sans-Serif" font-size="10.00">2</text>
</a>
</g>
</g>
<!-- dir_663129a2af50b25be863fe483831a288 -->
<g id="node4" class="node">
<title>dir_663129a2af50b25be863fe483831a288</title>
<g id="a_node4"><a xlink:href="dir_663129a2af50b25be863fe483831a288.html" target="_top" xlink:title="cuas">
<polygon fill="white" stroke="black" points="286,-108 232,-108 232,-72 286,-72 286,-108"/>
<text text-anchor="middle" x="259" y="-87.5" font-family="Helvetica,sans-Serif" font-size="10.00">cuas</text>
</a>
</g>
</g>
<!-- dir_d46cbdd3280b200cd090d2d56c2cc281 -->
<g id="node5" class="node">
<title>dir_d46cbdd3280b200cd090d2d56c2cc281</title>
<g id="a_node5"><a xlink:href="dir_d46cbdd3280b200cd090d2d56c2cc281.html" target="_top" xlink:title="pos">
<polygon fill="white" stroke="black" points="214,-108 160,-108 160,-72 214,-72 214,-108"/>
<text text-anchor="middle" x="187" y="-87.5" font-family="Helvetica,sans-Serif" font-size="10.00">pos</text>
</a>
</g>
</g>
<!-- dir_d46cbdd3280b200cd090d2d56c2cc281&#45;&gt;dir_e5d9e94bf22f4bf842600a7957b831f7 -->
<g id="edge1" class="edge">
<title>dir_d46cbdd3280b200cd090d2d56c2cc281&#45;&gt;dir_e5d9e94bf22f4bf842600a7957b831f7</title>
<path fill="none" stroke="black" d="M178.1,-71.7C174,-63.73 169.05,-54.1 164.51,-45.26"/>
<polygon fill="black" stroke="black" points="167.48,-43.4 159.8,-36.1 161.26,-46.6 167.48,-43.4"/>
<g id="a_edge1&#45;headlabel"><a xlink:href="dir_000004_000007.html" target="_top" xlink:title="2">
<text text-anchor="middle" x="171.65" y="-42.79" font-family="Helvetica,sans-Serif" font-size="10.00">2</text>
</a>
</g>
</g>
<!-- dir_c41bbe23a17c33c2ddbdb864c2b96590 -->
<g id="node6" class="node">
<title>dir_c41bbe23a17c33c2ddbdb864c2b96590</title>
<g id="a_node6"><a xlink:href="dir_c41bbe23a17c33c2ddbdb864c2b96590.html" target="_top" xlink:title="sep">
<polygon fill="white" stroke="black" points="142,-108 88,-108 88,-72 142,-72 142,-108"/>
<text text-anchor="middle" x="115" y="-87.5" font-family="Helvetica,sans-Serif" font-size="10.00">sep</text>
</a>
</g>
</g>
<!-- dir_c41bbe23a17c33c2ddbdb864c2b96590&#45;&gt;dir_e5d9e94bf22f4bf842600a7957b831f7 -->
<g id="edge3" class="edge">
<title>dir_c41bbe23a17c33c2ddbdb864c2b96590&#45;&gt;dir_e5d9e94bf22f4bf842600a7957b831f7</title>
<path fill="none" stroke="black" d="M123.9,-71.7C128,-63.73 132.95,-54.1 137.49,-45.26"/>
<polygon fill="black" stroke="black" points="140.74,-46.6 142.2,-36.1 134.52,-43.4 140.74,-46.6"/>
<g id="a_edge3&#45;headlabel"><a xlink:href="dir_000005_000007.html" target="_top" xlink:title="1">
<text text-anchor="middle" x="141.62" y="-48.59" font-family="Helvetica,sans-Serif" font-size="10.00">1</text>
</a>
</g>
</g>
<!-- dir_151cb4c7204e45842f6f3ee963856392 -->
<g id="node7" class="node">
<title>dir_151cb4c7204e45842f6f3ee963856392</title>
<g id="a_node7"><a xlink:href="dir_151cb4c7204e45842f6f3ee963856392.html" target="_top" xlink:title="txtio">
<polygon fill="white" stroke="black" points="70,-108 16,-108 16,-72 70,-72 70,-108"/>
<text text-anchor="middle" x="43" y="-87.5" font-family="Helvetica,sans-Serif" font-size="10.00">txtio</text>
</a>
</g>
</g>
<!-- dir_151cb4c7204e45842f6f3ee963856392&#45;&gt;dir_e5d9e94bf22f4bf842600a7957b831f7 -->
<g id="edge4" class="edge">
<title>dir_151cb4c7204e45842f6f3ee963856392&#45;&gt;dir_e5d9e94bf22f4bf842600a7957b831f7</title>
<path fill="none" stroke="black" d="M67.29,-71.89C71.19,-69.22 75.19,-66.51 79,-64 90.27,-56.57 102.68,-48.71 113.98,-41.66"/>
<polygon fill="black" stroke="black" points="116.11,-44.46 122.76,-36.21 112.42,-38.51 116.11,-44.46"/>
<g id="a_edge4&#45;headlabel"><a xlink:href="dir_000006_000007.html" target="_top" xlink:title="2">
<text text-anchor="middle" x="114.55" y="-46.27" font-family="Helvetica,sans-Serif" font-size="10.00">2</text>
</a>
</g>
</g>
</g>
</svg>
        <g id="navigator" transform="translate(0 0)" fill="#404254">
                <rect fill="#f2f5e9" fill-opacity="0.5" stroke="#606060" stroke-width=".5" x="0" y="0" width="60" height="60"/>
                <use id="zoomplus" xlink:href="#zoomPlus" x="17" y="9" onmousedown="handleZoom(evt,'in')"/>
                <use id="zoomminus" xlink:href="#zoomMin" x="42" y="9" onmousedown="handleZoom(evt,'out')"/>
                <use id="reset" xlink:href="#resetDef" x="30" y="36" onmousedown="handleReset()"/>
                <g id="arrowUp" xlink:href="#dirArrow" transform="translate(30 24)" onmousedown="handlePan(0,-1)">
                  <use xlink:href="#rim" fill="#404040">
                        <set attributeName="fill" to="#808080" begin="arrowUp.mouseover" end="arrowUp.mouseout"/>
                  </use>
                  <path fill="none" stroke="white" stroke-width="1.5" d="M0,-3.0v7 M-2.5,-0.5L0,-3.0L2.5,-0.5"/>
                </g>
                <g id="arrowRight" xlink:href="#dirArrow" transform="rotate(90) translate(36 -43)" onmousedown="handlePan(1,0)">
                  <use xlink:href="#rim" fill="#404040">
                        <set attributeName="fill" to="#808080" begin="arrowRight.mouseover" end="arrowRight.mouseout"/>
                  </use>
                  <path fill="none" stroke="white" stroke-width="1.5" d="M0,-3.0v7 M-2.5,-0.5L0,-3.0L2.5,-0.5"/>
                </g>
                <g id="arrowDown" xlink:href="#dirArrow" transform="rotate(180) translate(-30 -48)" onmousedown="handlePan(0,1)">
                  <use xlink:href="#rim" fill="#404040">
                        <set attributeName="fill" to="#808080" begin="arrowDown.mouseover" end="arrowDown.mouseout"/>
                  </use>
                  <path fill="none" stroke="white" stroke-width="1.5" d="M0,-3.0v7 M-2.5,-0.5L0,-3.0L2.5,-0.5"/>
                </g>
                <g id="arrowLeft" xlink:href="#dirArrow" transform="rotate(270) translate(-36 17)" onmousedown="handlePan(-1,0)">
                  <use xlink:href="#rim" fill="#404040">
                        <set attributeName="fill" to="#808080" begin="arrowLeft.mouseover" end="arrowLeft.mouseout"/>
                  </use>
                  <path fill="none" stroke="white" stroke-width="1.5" d="M0,-3.0v7 M-2.5,-0.5L0,-3.0L2.5,-0.5"/>
                </g>
        </g>
        <svg viewBox="0 0 15 15" width="100%" height="30px" preserveAspectRatio="xMaxYMin meet">
         <g id="arrow_out" transform="scale(0.3 0.3)">
          <a xlink:href="dir_fc9b7e6f56cf85e0307f78cd124bf25c_dep_org.svg" target="_base">
           <rect id="button" ry="5" rx="5" y="6" x="6" height="38" width="38"
                fill="#f2f5e9" fill-opacity="0.5" stroke="#606060" stroke-width="1.0"/>
           <path id="arrow"
             d="M 11.500037,31.436501 C 11.940474,20.09759 22.043105,11.32322 32.158766,21.979434 L 37.068811,17.246167 C 37.068811,17.246167 37.088388,32 37.088388,32 L 22.160133,31.978069 C 22.160133,31.978069 26.997745,27.140456 26.997745,27.140456 C 18.528582,18.264221 13.291696,25.230495 11.500037,31.436501 z"
             style="fill:#404040;"/>
          </a>
         </g>
        </svg>
</svg>
