<?xml version="1.0" encoding="UTF-8" standalone="no"?>
<!DOCTYPE svg PUBLIC "-//W3C//DTD SVG 1.1//EN"
 "http://www.w3.org/Graphics/SVG/1.1/DTD/svg11.dtd">
<!-- Generated by graphviz version 2.43.0 (0)
 -->
<!-- Title: fernotron/pos Pages: 1 -->
<svg width="94pt" height="151pt"
 viewBox="0.00 0.00 94.00 151.00" xmlns="http://www.w3.org/2000/svg" xmlns:xlink="http://www.w3.org/1999/xlink">
<g id="graph0" class="graph" transform="scale(1 1) rotate(0) translate(4 147)">
<title>fernotron/pos</title>
<g id="clust1" class="cluster">
<title>clusterdir_fc9b7e6f56cf85e0307f78cd124bf25c</title>
<g id="a_clust1"><a xlink:href="dir_fc9b7e6f56cf85e0307f78cd124bf25c.html" target="_top" xlink:title="fernotron">
<polygon fill="#ddddee" stroke="black" points="8,-64 8,-135 78,-135 78,-64 8,-64"/>
<text text-anchor="middle" x="43" y="-123" font-family="Helvetica,sans-Serif" font-size="10.00">fernotron</text>
</a>
</g>
</g>
<!-- dir_d46cbdd3280b200cd090d2d56c2cc281 -->
<g id="node1" class="node">
<title>dir_d46cbdd3280b200cd090d2d56c2cc281</title>
<g id="a_node1"><a xlink:href="dir_d46cbdd3280b200cd090d2d56c2cc281.html" target="_top" xlink:title="pos">
<polygon fill="#eeeeff" stroke="black" points="70,-108 16,-108 16,-72 70,-72 70,-108"/>
<text text-anchor="middle" x="43" y="-87.5" font-family="Helvetica,sans-Serif" font-size="10.00">pos</text>
</a>
</g>
</g>
<!-- dir_e5d9e94bf22f4bf842600a7957b831f7 -->
<g id="node2" class="node">
<title>dir_e5d9e94bf22f4bf842600a7957b831f7</title>
<g id="a_node2"><a xlink:href="dir_e5d9e94bf22f4bf842600a7957b831f7.html" target="_top" xlink:title="fernotron_trx">
<polygon fill="none" stroke="red" points="83,-36 3,-36 3,0 83,0 83,-36"/>
<text text-anchor="middle" x="43" y="-15.5" font-family="Helvetica,sans-Serif" font-size="10.00">fernotron_trx</text>
</a>
</g>
</g>
<!-- dir_d46cbdd3280b200cd090d2d56c2cc281&#45;&gt;dir_e5d9e94bf22f4bf842600a7957b831f7 -->
<g id="edge1" class="edge">
<title>dir_d46cbdd3280b200cd090d2d56c2cc281&#45;&gt;dir_e5d9e94bf22f4bf842600a7957b831f7</title>
<path fill="none" stroke="black" d="M43,-71.7C43,-63.98 43,-54.71 43,-46.11"/>
<polygon fill="black" stroke="black" points="46.5,-46.1 43,-36.1 39.5,-46.1 46.5,-46.1"/>
<g id="a_edge1&#45;headlabel"><a xlink:href="dir_000004_000007.html" target="_top" xlink:title="2">
<text text-anchor="middle" x="49.34" y="-47.2" font-family="Helvetica,sans-Serif" font-size="10.00">2</text>
</a>
</g>
</g>
</g>
</svg>
