<?xml version="1.0" encoding="UTF-8" standalone="no"?>
<!DOCTYPE svg PUBLIC "-//W3C//DTD SVG 1.1//EN"
 "http://www.w3.org/Graphics/SVG/1.1/DTD/svg11.dtd">
<!-- Generated by graphviz version 2.43.0 (0)
 -->
<!-- Title: fernotron Pages: 1 -->
<svg width="534pt" height="132pt"
 viewBox="0.00 0.00 534.00 132.00" xmlns="http://www.w3.org/2000/svg" xmlns:xlink="http://www.w3.org/1999/xlink">
<g id="graph0" class="graph" transform="scale(1 1) rotate(0) translate(4 128)">
<title>fernotron</title>
<g id="clust1" class="cluster">
<title>clusterdir_fc9b7e6f56cf85e0307f78cd124bf25c</title>
<g id="a_clust1"><a xlink:href="dir_fc9b7e6f56cf85e0307f78cd124bf25c.html" target="_top">
<polygon fill="#eeeeff" stroke="black" points="8,-64 8,-116 518,-116 518,-64 8,-64"/>
</a>
</g>
</g>
<!-- dir_fc9b7e6f56cf85e0307f78cd124bf25c -->
<g id="node1" class="node">
<title>dir_fc9b7e6f56cf85e0307f78cd124bf25c</title>
<text text-anchor="middle" x="479" y="-87.5" font-family="Helvetica,sans-Serif" font-size="10.00">fernotron</text>
</g>
<!-- dir_277b83383fc59a89deb60d2012c62c77 -->
<g id="node2" class="node">
<title>dir_277b83383fc59a89deb60d2012c62c77</title>
<g id="a_node2"><a xlink:href="dir_277b83383fc59a89deb60d2012c62c77.html" target="_top" xlink:title="alias">
<polygon fill="white" stroke="black" points="430,-108 376,-108 376,-72 430,-72 430,-108"/>
<text text-anchor="middle" x="403" y="-87.5" font-family="Helvetica,sans-Serif" font-size="10.00">alias</text>
</a>
</g>
</g>
<!-- dir_81d9fc5001093dc1e3da8a60288665a8 -->
<g id="node3" class="node">
<title>dir_81d9fc5001093dc1e3da8a60288665a8</title>
<g id="a_node3"><a xlink:href="dir_81d9fc5001093dc1e3da8a60288665a8.html" target="_top" xlink:title="auto">
<polygon fill="white" stroke="black" points="358,-108 304,-108 304,-72 358,-72 358,-108"/>
<text text-anchor="middle" x="331" y="-87.5" font-family="Helvetica,sans-Serif" font-size="10.00">auto</text>
</a>
</g>
</g>
<!-- dir_e5d9e94bf22f4bf842600a7957b831f7 -->
<g id="node8" class="node">
<title>dir_e5d9e94bf22f4bf842600a7957b831f7</title>
<g id="a_node8"><a xlink:href="dir_e5d9e94bf22f4bf842600a7957b831f7.html" target="_top" xlink:title="fernotron_trx">
<polygon fill="none" stroke="red" points="191,-36 111,-36 111,0 191,0 191,-36"/>
<text text-anchor="middle" x="151" y="-15.5" font-family="Helvetica,sans-Serif" font-size="10.00">fernotron_trx</text>
</a>
</g>
</g>
<!-- dir_81d9fc5001093dc1e3da8a60288665a8&#45;&gt;dir_e5d9e94bf22f4bf842600a7957b831f7 -->
<g id="edge2" class="edge">
<title>dir_81d9fc5001093dc1e3da8a60288665a8&#45;&gt;dir_e5d9e94bf22f4bf842600a7957b831f7</title>
<path fill="none" stroke="black" d="M308.4,-71.77C304.09,-68.94 299.51,-66.21 295,-64 265.01,-49.33 229.18,-38.11 200.77,-30.55"/>
<polygon fill="black" stroke="black" points="201.61,-27.15 191.05,-28.02 199.85,-33.92 201.61,-27.15"/>
<g id="a_edge2&#45;headlabel"><a xlink:href="dir_000002_000007.html" target="_top" xlink:title="2">
<text text-anchor="middle" x="205.8" y="-22.8" font-family="Helvetica,sans-Serif" font-size="10.00">2</text>
</a>
</g>
</g>
<!-- dir_663129a2af50b25be863fe483831a288 -->
<g id="node4" class="node">
<title>dir_663129a2af50b25be863fe483831a288</title>
<g id="a_node4"><a xlink:href="dir_663129a2af50b25be863fe483831a288.html" target="_top" xlink:title="cuas">
<polygon fill="white" stroke="black" points="286,-108 232,-108 232,-72 286,-72 286,-108"/>
<text text-anchor="middle" x="259" y="-87.5" font-family="Helvetica,sans-Serif" font-size="10.00">cuas</text>
</a>
</g>
</g>
<!-- dir_d46cbdd3280b200cd090d2d56c2cc281 -->
<g id="node5" class="node">
<title>dir_d46cbdd3280b200cd090d2d56c2cc281</title>
<g id="a_node5"><a xlink:href="dir_d46cbdd3280b200cd090d2d56c2cc281.html" target="_top" xlink:title="pos">
<polygon fill="white" stroke="black" points="214,-108 160,-108 160,-72 214,-72 214,-108"/>
<text text-anchor="middle" x="187" y="-87.5" font-family="Helvetica,sans-Serif" font-size="10.00">pos</text>
</a>
</g>
</g>
<!-- dir_d46cbdd3280b200cd090d2d56c2cc281&#45;&gt;dir_e5d9e94bf22f4bf842600a7957b831f7 -->
<g id="edge1" class="edge">
<title>dir_d46cbdd3280b200cd090d2d56c2cc281&#45;&gt;dir_e5d9e94bf22f4bf842600a7957b831f7</title>
<path fill="none" stroke="black" d="M178.1,-71.7C174,-63.73 169.05,-54.1 164.51,-45.26"/>
<polygon fill="black" stroke="black" points="167.48,-43.4 159.8,-36.1 161.26,-46.6 167.48,-43.4"/>
<g id="a_edge1&#45;headlabel"><a xlink:href="dir_000004_000007.html" target="_top" xlink:title="2">
<text text-anchor="middle" x="171.65" y="-42.79" font-family="Helvetica,sans-Serif" font-size="10.00">2</text>
</a>
</g>
</g>
<!-- dir_c41bbe23a17c33c2ddbdb864c2b96590 -->
<g id="node6" class="node">
<title>dir_c41bbe23a17c33c2ddbdb864c2b96590</title>
<g id="a_node6"><a xlink:href="dir_c41bbe23a17c33c2ddbdb864c2b96590.html" target="_top" xlink:title="sep">
<polygon fill="white" stroke="black" points="142,-108 88,-108 88,-72 142,-72 142,-108"/>
<text text-anchor="middle" x="115" y="-87.5" font-family="Helvetica,sans-Serif" font-size="10.00">sep</text>
</a>
</g>
</g>
<!-- dir_c41bbe23a17c33c2ddbdb864c2b96590&#45;&gt;dir_e5d9e94bf22f4bf842600a7957b831f7 -->
<g id="edge3" class="edge">
<title>dir_c41bbe23a17c33c2ddbdb864c2b96590&#45;&gt;dir_e5d9e94bf22f4bf842600a7957b831f7</title>
<path fill="none" stroke="black" d="M123.9,-71.7C128,-63.73 132.95,-54.1 137.49,-45.26"/>
<polygon fill="black" stroke="black" points="140.74,-46.6 142.2,-36.1 134.52,-43.4 140.74,-46.6"/>
<g id="a_edge3&#45;headlabel"><a xlink:href="dir_000005_000007.html" target="_top" xlink:title="1">
<text text-anchor="middle" x="141.62" y="-48.59" font-family="Helvetica,sans-Serif" font-size="10.00">1</text>
</a>
</g>
</g>
<!-- dir_151cb4c7204e45842f6f3ee963856392 -->
<g id="node7" class="node">
<title>dir_151cb4c7204e45842f6f3ee963856392</title>
<g id="a_node7"><a xlink:href="dir_151cb4c7204e45842f6f3ee963856392.html" target="_top" xlink:title="txtio">
<polygon fill="white" stroke="black" points="70,-108 16,-108 16,-72 70,-72 70,-108"/>
<text text-anchor="middle" x="43" y="-87.5" font-family="Helvetica,sans-Serif" font-size="10.00">txtio</text>
</a>
</g>
</g>
<!-- dir_151cb4c7204e45842f6f3ee963856392&#45;&gt;dir_e5d9e94bf22f4bf842600a7957b831f7 -->
<g id="edge4" class="edge">
<title>dir_151cb4c7204e45842f6f3ee963856392&#45;&gt;dir_e5d9e94bf22f4bf842600a7957b831f7</title>
<path fill="none" stroke="black" d="M67.29,-71.89C71.19,-69.22 75.19,-66.51 79,-64 90.27,-56.57 102.68,-48.71 113.98,-41.66"/>
<polygon fill="black" stroke="black" points="116.11,-44.46 122.76,-36.21 112.42,-38.51 116.11,-44.46"/>
<g id="a_edge4&#45;headlabel"><a xlink:href="dir_000006_000007.html" target="_top" xlink:title="2">
<text text-anchor="middle" x="114.55" y="-46.27" font-family="Helvetica,sans-Serif" font-size="10.00">2</text>
</a>
</g>
</g>
</g>
</svg>
