<?xml version="1.0" encoding="UTF-8" standalone="no"?>
<!DOCTYPE svg PUBLIC "-//W3C//DTD SVG 1.1//EN"
 "http://www.w3.org/Graphics/SVG/1.1/DTD/svg11.dtd">
<!-- Generated by graphviz version 2.43.0 (0)
 -->
<!-- Title: fernotron/auto/fau_tevent.hh Pages: 1 -->
<svg width="718pt" height="229pt"
 viewBox="0.00 0.00 718.00 229.00" xmlns="http://www.w3.org/2000/svg" xmlns:xlink="http://www.w3.org/1999/xlink">
<g id="graph0" class="graph" transform="scale(1 1) rotate(0) translate(4 225)">
<title>fernotron/auto/fau_tevent.hh</title>
<!-- Node1 -->
<g id="node1" class="node">
<title>Node1</title>
<g id="a_node1"><a xlink:title="Keep track about when the next automatic movement is been scheduled.">
<polygon fill="#bfbfbf" stroke="black" points="273,-190.5 273,-220.5 378,-220.5 378,-190.5 273,-190.5"/>
<text text-anchor="start" x="281" y="-208.5" font-family="Helvetica,sans-Serif" font-size="10.00">fernotron/auto/fau</text>
<text text-anchor="middle" x="325.5" y="-197.5" font-family="Helvetica,sans-Serif" font-size="10.00">_tevent.hh</text>
</a>
</g>
</g>
<!-- Node2 -->
<g id="node2" class="node">
<title>Node2</title>
<g id="a_node2"><a xlink:href="fau__tminutes_8h.html" target="_top" xlink:title="Represent when each kind of timer will be scheduled for a given day and g/m. Calculate the next event...">
<polygon fill="none" stroke="black" points="244.5,-134.5 244.5,-153.5 334.5,-153.5 334.5,-134.5 244.5,-134.5"/>
<text text-anchor="middle" x="289.5" y="-141.5" font-family="Helvetica,sans-Serif" font-size="10.00">fau_tminutes.h</text>
</a>
</g>
</g>
<!-- Node1&#45;&gt;Node2 -->
<g id="edge1" class="edge">
<title>Node1&#45;&gt;Node2</title>
<path fill="none" stroke="midnightblue" d="M316.97,-190.4C311.9,-182.02 305.43,-171.33 300.04,-162.42"/>
<polygon fill="midnightblue" stroke="midnightblue" points="302.91,-160.4 294.74,-153.66 296.92,-164.03 302.91,-160.4"/>
</g>
<!-- Node13 -->
<g id="node13" class="node">
<title>Node13</title>
<g id="a_node13"><a xlink:title=" ">
<polygon fill="none" stroke="#bfbfbf" points="404.5,-73 404.5,-92 452.5,-92 452.5,-73 404.5,-73"/>
<text text-anchor="middle" x="428.5" y="-80" font-family="Helvetica,sans-Serif" font-size="10.00">time.h</text>
</a>
</g>
</g>
<!-- Node1&#45;&gt;Node13 -->
<g id="edge17" class="edge">
<title>Node1&#45;&gt;Node13</title>
<path fill="none" stroke="midnightblue" d="M337.72,-190.14C356.99,-167.51 394.32,-123.65 414.59,-99.84"/>
<polygon fill="midnightblue" stroke="midnightblue" points="417.4,-101.94 421.22,-92.05 412.07,-97.4 417.4,-101.94"/>
</g>
<!-- Node3 -->
<g id="node3" class="node">
<title>Node3</title>
<g id="a_node3"><a xlink:href="fer__pct_8h.html" target="_top" xlink:title="class Pct to represent shutter opening percentage">
<polygon fill="none" stroke="black" points="97,-73 97,-92 204,-92 204,-73 97,-73"/>
<text text-anchor="middle" x="150.5" y="-80" font-family="Helvetica,sans-Serif" font-size="10.00">fernotron/fer_pct.h</text>
</a>
</g>
</g>
<!-- Node2&#45;&gt;Node3 -->
<g id="edge2" class="edge">
<title>Node2&#45;&gt;Node3</title>
<path fill="none" stroke="midnightblue" d="M269.58,-134.48C246.05,-124.4 206.69,-107.55 179.71,-96"/>
<polygon fill="midnightblue" stroke="midnightblue" points="180.95,-92.73 170.38,-92.01 178.19,-99.16 180.95,-92.73"/>
</g>
<!-- Node4 -->
<g id="node4" class="node">
<title>Node4</title>
<g id="a_node4"><a xlink:title=" ">
<polygon fill="none" stroke="#bfbfbf" points="0,-6 0,-25 53,-25 53,-6 0,-6"/>
<text text-anchor="middle" x="26.5" y="-13" font-family="Helvetica,sans-Serif" font-size="10.00">stdint.h</text>
</a>
</g>
</g>
<!-- Node2&#45;&gt;Node4 -->
<g id="edge14" class="edge">
<title>Node2&#45;&gt;Node4</title>
<path fill="none" stroke="midnightblue" d="M244.32,-141.81C200.95,-138.73 135.18,-128.81 87.5,-98 63.09,-82.23 44.87,-53.09 34.96,-34.26"/>
<polygon fill="midnightblue" stroke="midnightblue" points="38.05,-32.62 30.43,-25.25 31.79,-35.76 38.05,-32.62"/>
</g>
<!-- Node5 -->
<g id="node5" class="node">
<title>Node5</title>
<g id="a_node5"><a xlink:title=" ">
<polygon fill="none" stroke="#bfbfbf" points="221.5,-6 221.5,-25 283.5,-25 283.5,-6 221.5,-6"/>
<text text-anchor="middle" x="252.5" y="-13" font-family="Helvetica,sans-Serif" font-size="10.00">stdbool.h</text>
</a>
</g>
</g>
<!-- Node2&#45;&gt;Node5 -->
<g id="edge15" class="edge">
<title>Node2&#45;&gt;Node5</title>
<path fill="none" stroke="midnightblue" d="M284.38,-134.34C279.36,-125.49 271.86,-111.21 267.5,-98 260.62,-77.13 256.61,-52.15 254.49,-35.39"/>
<polygon fill="midnightblue" stroke="midnightblue" points="257.95,-34.79 253.32,-25.26 251,-35.6 257.95,-34.79"/>
</g>
<!-- Node7 -->
<g id="node7" class="node">
<title>Node7</title>
<g id="a_node7"><a xlink:href="timer__data_8h.html" target="_top" xlink:title="vocabulary types to program Fernotron automatic (timers)">
<polygon fill="none" stroke="black" points="276.5,-67.5 276.5,-97.5 386.5,-97.5 386.5,-67.5 276.5,-67.5"/>
<text text-anchor="start" x="284.5" y="-85.5" font-family="Helvetica,sans-Serif" font-size="10.00">fernotron_trx/timer</text>
<text text-anchor="middle" x="331.5" y="-74.5" font-family="Helvetica,sans-Serif" font-size="10.00">_data.h</text>
</a>
</g>
</g>
<!-- Node2&#45;&gt;Node7 -->
<g id="edge6" class="edge">
<title>Node2&#45;&gt;Node7</title>
<path fill="none" stroke="midnightblue" d="M295.52,-134.48C300.78,-127.02 308.66,-115.85 315.71,-105.87"/>
<polygon fill="midnightblue" stroke="midnightblue" points="318.69,-107.71 321.6,-97.52 312.98,-103.67 318.69,-107.71"/>
</g>
<!-- Node2&#45;&gt;Node13 -->
<g id="edge16" class="edge">
<title>Node2&#45;&gt;Node13</title>
<path fill="none" stroke="midnightblue" d="M309.85,-134.45C331.22,-125.45 365.77,-110.84 395.5,-98 396.86,-97.41 398.26,-96.81 399.67,-96.19"/>
<polygon fill="midnightblue" stroke="midnightblue" points="401.21,-99.34 408.97,-92.13 398.41,-92.92 401.21,-99.34"/>
</g>
<!-- Node3&#45;&gt;Node4 -->
<g id="edge3" class="edge">
<title>Node3&#45;&gt;Node4</title>
<path fill="none" stroke="midnightblue" d="M134.03,-72.87C113.1,-61.89 76.72,-42.82 52.14,-29.94"/>
<polygon fill="midnightblue" stroke="midnightblue" points="53.52,-26.71 43.03,-25.17 50.27,-32.91 53.52,-26.71"/>
</g>
<!-- Node3&#45;&gt;Node5 -->
<g id="edge4" class="edge">
<title>Node3&#45;&gt;Node5</title>
<path fill="none" stroke="midnightblue" d="M164.26,-72.73C181.23,-61.92 210.31,-43.38 230.43,-30.57"/>
<polygon fill="midnightblue" stroke="midnightblue" points="232.41,-33.45 238.96,-25.13 228.65,-27.55 232.41,-33.45"/>
</g>
<!-- Node6 -->
<g id="node6" class="node">
<title>Node6</title>
<g id="a_node6"><a xlink:title=" ">
<polygon fill="none" stroke="#bfbfbf" points="71.5,-6 71.5,-25 203.5,-25 203.5,-6 71.5,-6"/>
<text text-anchor="middle" x="137.5" y="-13" font-family="Helvetica,sans-Serif" font-size="10.00">utils_misc/int_macros.h</text>
</a>
</g>
</g>
<!-- Node3&#45;&gt;Node6 -->
<g id="edge5" class="edge">
<title>Node3&#45;&gt;Node6</title>
<path fill="none" stroke="midnightblue" d="M148.75,-72.73C146.84,-63.18 143.72,-47.62 141.26,-35.28"/>
<polygon fill="midnightblue" stroke="midnightblue" points="144.62,-34.25 139.23,-25.13 137.75,-35.62 144.62,-34.25"/>
</g>
<!-- Node7&#45;&gt;Node4 -->
<g id="edge7" class="edge">
<title>Node7&#45;&gt;Node4</title>
<path fill="none" stroke="midnightblue" d="M276.4,-74.41C221.5,-66.58 135.13,-52.22 62.5,-31 60.07,-30.29 57.57,-29.47 55.08,-28.6"/>
<polygon fill="midnightblue" stroke="midnightblue" points="56.27,-25.31 45.68,-25.04 53.8,-31.86 56.27,-25.31"/>
</g>
<!-- Node7&#45;&gt;Node5 -->
<g id="edge8" class="edge">
<title>Node7&#45;&gt;Node5</title>
<path fill="none" stroke="midnightblue" d="M314.36,-67.4C301.55,-56.86 284.07,-42.48 270.96,-31.69"/>
<polygon fill="midnightblue" stroke="midnightblue" points="273.01,-28.85 263.07,-25.19 268.57,-34.25 273.01,-28.85"/>
</g>
<!-- Node8 -->
<g id="node8" class="node">
<title>Node8</title>
<g id="a_node8"><a xlink:title=" ">
<polygon fill="none" stroke="#bfbfbf" points="302,-6 302,-25 355,-25 355,-6 302,-6"/>
<text text-anchor="middle" x="328.5" y="-13" font-family="Helvetica,sans-Serif" font-size="10.00">string.h</text>
</a>
</g>
</g>
<!-- Node7&#45;&gt;Node8 -->
<g id="edge9" class="edge">
<title>Node7&#45;&gt;Node8</title>
<path fill="none" stroke="midnightblue" d="M330.85,-67.4C330.41,-57.96 329.84,-45.45 329.36,-35.19"/>
<polygon fill="midnightblue" stroke="midnightblue" points="332.86,-35.02 328.9,-25.19 325.87,-35.35 332.86,-35.02"/>
</g>
<!-- Node9 -->
<g id="node9" class="node">
<title>Node9</title>
<g id="a_node9"><a xlink:title=" ">
<polygon fill="none" stroke="#bfbfbf" points="373,-6 373,-25 426,-25 426,-6 373,-6"/>
<text text-anchor="middle" x="399.5" y="-13" font-family="Helvetica,sans-Serif" font-size="10.00">ctype.h</text>
</a>
</g>
</g>
<!-- Node7&#45;&gt;Node9 -->
<g id="edge10" class="edge">
<title>Node7&#45;&gt;Node9</title>
<path fill="none" stroke="midnightblue" d="M346.25,-67.4C357.07,-57.06 371.75,-43.02 382.96,-32.31"/>
<polygon fill="midnightblue" stroke="midnightblue" points="385.59,-34.63 390.4,-25.19 380.76,-29.57 385.59,-34.63"/>
</g>
<!-- Node10 -->
<g id="node10" class="node">
<title>Node10</title>
<g id="a_node10"><a xlink:title=" ">
<polygon fill="none" stroke="#bfbfbf" points="444.5,-6 444.5,-25 494.5,-25 494.5,-6 444.5,-6"/>
<text text-anchor="middle" x="469.5" y="-13" font-family="Helvetica,sans-Serif" font-size="10.00">stdio.h</text>
</a>
</g>
</g>
<!-- Node7&#45;&gt;Node10 -->
<g id="edge11" class="edge">
<title>Node7&#45;&gt;Node10</title>
<path fill="none" stroke="midnightblue" d="M361.44,-67.4C385.44,-56.09 418.84,-40.36 442.13,-29.39"/>
<polygon fill="midnightblue" stroke="midnightblue" points="443.88,-32.43 451.44,-25.01 440.9,-26.1 443.88,-32.43"/>
</g>
<!-- Node11 -->
<g id="node11" class="node">
<title>Node11</title>
<g id="a_node11"><a xlink:title=" ">
<polygon fill="none" stroke="#bfbfbf" points="512.5,-0.5 512.5,-30.5 614.5,-30.5 614.5,-0.5 512.5,-0.5"/>
<text text-anchor="start" x="520.5" y="-18.5" font-family="Helvetica,sans-Serif" font-size="10.00">utils_misc/cstring</text>
<text text-anchor="middle" x="563.5" y="-7.5" font-family="Helvetica,sans-Serif" font-size="10.00">_utils.hh</text>
</a>
</g>
</g>
<!-- Node7&#45;&gt;Node11 -->
<g id="edge12" class="edge">
<title>Node7&#45;&gt;Node11</title>
<path fill="none" stroke="midnightblue" d="M381.55,-67.48C417.26,-57.47 465.45,-43.97 503.26,-33.38"/>
<polygon fill="midnightblue" stroke="midnightblue" points="504.45,-36.68 513.13,-30.61 502.56,-29.94 504.45,-36.68"/>
</g>
<!-- Node12 -->
<g id="node12" class="node">
<title>Node12</title>
<g id="a_node12"><a xlink:title=" ">
<polygon fill="none" stroke="#bfbfbf" points="633,-6 633,-25 710,-25 710,-6 633,-6"/>
<text text-anchor="middle" x="671.5" y="-13" font-family="Helvetica,sans-Serif" font-size="10.00">debug/dbg.h</text>
</a>
</g>
</g>
<!-- Node7&#45;&gt;Node12 -->
<g id="edge13" class="edge">
<title>Node7&#45;&gt;Node12</title>
<path fill="none" stroke="midnightblue" d="M386.61,-68.77C389.61,-68.15 392.59,-67.56 395.5,-67 496.25,-47.66 523.5,-53.89 623.5,-31 627.44,-30.1 631.54,-29.04 635.6,-27.93"/>
<polygon fill="midnightblue" stroke="midnightblue" points="636.88,-31.2 645.52,-25.06 634.94,-24.47 636.88,-31.2"/>
</g>
</g>
</svg>
