<?xml version="1.0" encoding="UTF-8" standalone="no"?>
<!DOCTYPE svg PUBLIC "-//W3C//DTD SVG 1.1//EN"
 "http://www.w3.org/Graphics/SVG/1.1/DTD/svg11.dtd">
<!-- Generated by graphviz version 2.43.0 (0)
 -->
<!-- Title: fernotron_trx/raw/fer_radio_trx.h Pages: 1 -->
<svg width="583pt" height="363pt"
 viewBox="0.00 0.00 583.00 363.00" xmlns="http://www.w3.org/2000/svg" xmlns:xlink="http://www.w3.org/1999/xlink">
<g id="graph0" class="graph" transform="scale(1 1) rotate(0) translate(4 359)">
<title>fernotron_trx/raw/fer_radio_trx.h</title>
<!-- Node1 -->
<g id="node1" class="node">
<title>Node1</title>
<g id="a_node1"><a xlink:title="RF transceiver.">
<polygon fill="#bfbfbf" stroke="black" points="292,-324.5 292,-354.5 410,-354.5 410,-324.5 292,-324.5"/>
<text text-anchor="start" x="300" y="-342.5" font-family="Helvetica,sans-Serif" font-size="10.00">fernotron_trx/raw/fer</text>
<text text-anchor="middle" x="351" y="-331.5" font-family="Helvetica,sans-Serif" font-size="10.00">_radio_trx.h</text>
</a>
</g>
</g>
<!-- Node2 -->
<g id="node2" class="node">
<title>Node2</title>
<g id="a_node2"><a xlink:title=" ">
<polygon fill="none" stroke="#bfbfbf" points="11.5,-6 11.5,-25 64.5,-25 64.5,-6 11.5,-6"/>
<text text-anchor="middle" x="38" y="-13" font-family="Helvetica,sans-Serif" font-size="10.00">stdint.h</text>
</a>
</g>
</g>
<!-- Node1&#45;&gt;Node2 -->
<g id="edge1" class="edge">
<title>Node1&#45;&gt;Node2</title>
<path fill="none" stroke="midnightblue" d="M291.85,-330.55C191.82,-315.43 0,-278.49 0,-217.5 0,-217.5 0,-217.5 0,-148.5 0,-106.35 18.11,-59.48 29.33,-34.5"/>
<polygon fill="midnightblue" stroke="midnightblue" points="32.61,-35.76 33.64,-25.21 26.26,-32.81 32.61,-35.76"/>
</g>
<!-- Node3 -->
<g id="node3" class="node">
<title>Node3</title>
<g id="a_node3"><a xlink:title=" ">
<polygon fill="none" stroke="#bfbfbf" points="513,-6 513,-25 575,-25 575,-6 513,-6"/>
<text text-anchor="middle" x="544" y="-13" font-family="Helvetica,sans-Serif" font-size="10.00">stdbool.h</text>
</a>
</g>
</g>
<!-- Node1&#45;&gt;Node3 -->
<g id="edge2" class="edge">
<title>Node1&#45;&gt;Node3</title>
<path fill="none" stroke="midnightblue" d="M410.17,-331.96C476.24,-321 574,-292.16 574,-217.5 574,-217.5 574,-217.5 574,-148.5 574,-107.15 559.83,-60.28 550.96,-35.01"/>
<polygon fill="midnightblue" stroke="midnightblue" points="554.14,-33.51 547.44,-25.31 547.56,-35.9 554.14,-33.51"/>
</g>
<!-- Node4 -->
<g id="node4" class="node">
<title>Node4</title>
<g id="a_node4"><a xlink:href="fer__msg__attachment_8h.html" target="_top" xlink:title="Extended messages.">
<polygon fill="none" stroke="black" points="172.5,-268.5 172.5,-287.5 299.5,-287.5 299.5,-268.5 172.5,-268.5"/>
<text text-anchor="middle" x="236" y="-275.5" font-family="Helvetica,sans-Serif" font-size="10.00">fer_msg_attachment.h</text>
</a>
</g>
</g>
<!-- Node1&#45;&gt;Node4 -->
<g id="edge3" class="edge">
<title>Node1&#45;&gt;Node4</title>
<path fill="none" stroke="midnightblue" d="M323.75,-324.4C304.97,-314.68 280.17,-301.86 261.73,-292.31"/>
<polygon fill="midnightblue" stroke="midnightblue" points="263.22,-289.14 252.73,-287.66 260.01,-295.36 263.22,-289.14"/>
</g>
<!-- Node8 -->
<g id="node8" class="node">
<title>Node8</title>
<g id="a_node8"><a xlink:href="fer__trx__c__api_8h.html" target="_top" xlink:title="C&#45;API for sending and receiving Fernotron RF messages.">
<polygon fill="none" stroke="black" points="400,-134.5 400,-164.5 516,-164.5 516,-134.5 400,-134.5"/>
<text text-anchor="start" x="408" y="-152.5" font-family="Helvetica,sans-Serif" font-size="10.00">fernotron_trx/fer_trx</text>
<text text-anchor="middle" x="458" y="-141.5" font-family="Helvetica,sans-Serif" font-size="10.00">_c_api.h</text>
</a>
</g>
</g>
<!-- Node1&#45;&gt;Node8 -->
<g id="edge23" class="edge">
<title>Node1&#45;&gt;Node8</title>
<path fill="none" stroke="midnightblue" d="M363.56,-324.24C380.34,-304.62 410.12,-267.65 429,-232 438.74,-213.6 446.44,-191.23 451.45,-174.58"/>
<polygon fill="midnightblue" stroke="midnightblue" points="454.93,-175.15 454.34,-164.57 448.2,-173.2 454.93,-175.15"/>
</g>
<!-- Node4&#45;&gt;Node2 -->
<g id="edge4" class="edge">
<title>Node4&#45;&gt;Node2</title>
<path fill="none" stroke="midnightblue" d="M176.96,-268.49C133.93,-261.03 80.71,-248.75 66,-232 16.39,-175.51 27.05,-76.4 34.21,-35.24"/>
<polygon fill="midnightblue" stroke="midnightblue" points="37.68,-35.72 36.08,-25.25 30.8,-34.43 37.68,-35.72"/>
</g>
<!-- Node5 -->
<g id="node5" class="node">
<title>Node5</title>
<g id="a_node5"><a xlink:href="fer__msg__plain_8h.html" target="_top" xlink:title="Data structure of plain messages or header of extended messages.">
<polygon fill="none" stroke="black" points="188.5,-207 188.5,-226 283.5,-226 283.5,-207 188.5,-207"/>
<text text-anchor="middle" x="236" y="-214" font-family="Helvetica,sans-Serif" font-size="10.00">fer_msg_plain.h</text>
</a>
</g>
</g>
<!-- Node4&#45;&gt;Node5 -->
<g id="edge5" class="edge">
<title>Node4&#45;&gt;Node5</title>
<path fill="none" stroke="midnightblue" d="M236,-268.48C236,-260.08 236,-246.98 236,-236.16"/>
<polygon fill="midnightblue" stroke="midnightblue" points="239.5,-236.01 236,-226.01 232.5,-236.01 239.5,-236.01"/>
</g>
<!-- Node18 -->
<g id="node18" class="node">
<title>Node18</title>
<g id="a_node18"><a xlink:href="fer__msg__attachment__enum_8h.html" target="_top" xlink:title="Enums for extended messages.">
<polygon fill="none" stroke="black" points="302,-201.5 302,-231.5 420,-231.5 420,-201.5 302,-201.5"/>
<text text-anchor="start" x="310" y="-219.5" font-family="Helvetica,sans-Serif" font-size="10.00">fer_msg_attachment</text>
<text text-anchor="middle" x="361" y="-208.5" font-family="Helvetica,sans-Serif" font-size="10.00">_enum.h</text>
</a>
</g>
</g>
<!-- Node4&#45;&gt;Node18 -->
<g id="edge21" class="edge">
<title>Node4&#45;&gt;Node18</title>
<path fill="none" stroke="midnightblue" d="M253.91,-268.48C271.71,-260 299.58,-246.74 322.42,-235.86"/>
<polygon fill="midnightblue" stroke="midnightblue" points="324.01,-238.98 331.54,-231.52 321.01,-232.66 324.01,-238.98"/>
</g>
<!-- Node19 -->
<g id="node19" class="node">
<title>Node19</title>
<g id="a_node19"><a xlink:title=" ">
<polygon fill="none" stroke="#bfbfbf" points="75.5,-207 75.5,-226 170.5,-226 170.5,-207 75.5,-207"/>
<text text-anchor="middle" x="123" y="-214" font-family="Helvetica,sans-Serif" font-size="10.00">utils_misc/bcd.h</text>
</a>
</g>
</g>
<!-- Node4&#45;&gt;Node19 -->
<g id="edge22" class="edge">
<title>Node4&#45;&gt;Node19</title>
<path fill="none" stroke="midnightblue" d="M219.81,-268.48C201.1,-258.62 170.08,-242.29 148.2,-230.77"/>
<polygon fill="midnightblue" stroke="midnightblue" points="149.64,-227.57 139.16,-226.01 146.38,-233.77 149.64,-227.57"/>
</g>
<!-- Node6 -->
<g id="node6" class="node">
<title>Node6</title>
<g id="a_node6"><a xlink:href="fer__msg__type_8h.html" target="_top" xlink:title="kinds of messages">
<polygon fill="none" stroke="black" points="66,-73 66,-92 158,-92 158,-73 66,-73"/>
<text text-anchor="middle" x="112" y="-80" font-family="Helvetica,sans-Serif" font-size="10.00">fer_msg_type.h</text>
</a>
</g>
</g>
<!-- Node5&#45;&gt;Node6 -->
<g id="edge6" class="edge">
<title>Node5&#45;&gt;Node6</title>
<path fill="none" stroke="midnightblue" d="M206.56,-206.93C167.23,-195.18 101.66,-174.46 95,-165 81.59,-145.95 91.8,-118.59 101.21,-100.93"/>
<polygon fill="midnightblue" stroke="midnightblue" points="104.26,-102.64 106.19,-92.23 98.18,-99.16 104.26,-102.64"/>
</g>
<!-- Node7 -->
<g id="node7" class="node">
<title>Node7</title>
<g id="a_node7"><a xlink:href="fer__msg__plain__enum_8h.html" target="_top" xlink:title="Raw message for plain commands.">
<polygon fill="none" stroke="black" points="104,-140 104,-159 232,-159 232,-140 104,-140"/>
<text text-anchor="middle" x="168" y="-147" font-family="Helvetica,sans-Serif" font-size="10.00">fer_msg_plain_enum.h</text>
</a>
</g>
</g>
<!-- Node5&#45;&gt;Node7 -->
<g id="edge8" class="edge">
<title>Node5&#45;&gt;Node7</title>
<path fill="none" stroke="midnightblue" d="M226.83,-206.73C216.02,-196.4 197.85,-179.04 184.56,-166.33"/>
<polygon fill="midnightblue" stroke="midnightblue" points="186.67,-163.51 177.03,-159.13 181.84,-168.57 186.67,-163.51"/>
</g>
<!-- Node5&#45;&gt;Node8 -->
<g id="edge9" class="edge">
<title>Node5&#45;&gt;Node8</title>
<path fill="none" stroke="midnightblue" d="M265.48,-206.87C299.73,-196.84 357.06,-180.06 400.27,-167.4"/>
<polygon fill="midnightblue" stroke="midnightblue" points="401.48,-170.7 410.09,-164.53 399.51,-163.98 401.48,-170.7"/>
</g>
<!-- Node17 -->
<g id="node17" class="node">
<title>Node17</title>
<g id="a_node17"><a xlink:title=" ">
<polygon fill="none" stroke="#bfbfbf" points="250,-140 250,-159 382,-159 382,-140 250,-140"/>
<text text-anchor="middle" x="316" y="-147" font-family="Helvetica,sans-Serif" font-size="10.00">utils_misc/int_macros.h</text>
</a>
</g>
</g>
<!-- Node5&#45;&gt;Node17 -->
<g id="edge20" class="edge">
<title>Node5&#45;&gt;Node17</title>
<path fill="none" stroke="midnightblue" d="M246.79,-206.73C259.74,-196.21 281.69,-178.38 297.39,-165.62"/>
<polygon fill="midnightblue" stroke="midnightblue" points="299.83,-168.15 305.38,-159.13 295.41,-162.72 299.83,-168.15"/>
</g>
<!-- Node6&#45;&gt;Node2 -->
<g id="edge7" class="edge">
<title>Node6&#45;&gt;Node2</title>
<path fill="none" stroke="midnightblue" d="M102.02,-72.73C90.15,-62.31 70.11,-44.71 55.62,-31.97"/>
<polygon fill="midnightblue" stroke="midnightblue" points="57.64,-29.1 47.82,-25.13 53.03,-34.36 57.64,-29.1"/>
</g>
<!-- Node9 -->
<g id="node9" class="node">
<title>Node9</title>
<g id="a_node9"><a xlink:title=" ">
<polygon fill="none" stroke="#bfbfbf" points="422.5,-73 422.5,-92 545.5,-92 545.5,-73 422.5,-73"/>
<text text-anchor="middle" x="484" y="-80" font-family="Helvetica,sans-Serif" font-size="10.00">utils_misc/int_types.h</text>
</a>
</g>
</g>
<!-- Node8&#45;&gt;Node9 -->
<g id="edge10" class="edge">
<title>Node8&#45;&gt;Node9</title>
<path fill="none" stroke="midnightblue" d="M463.64,-134.4C467.49,-124.76 472.63,-111.91 476.79,-101.54"/>
<polygon fill="midnightblue" stroke="midnightblue" points="480.06,-102.78 480.52,-92.19 473.56,-100.18 480.06,-102.78"/>
</g>
<!-- Node10 -->
<g id="node10" class="node">
<title>Node10</title>
<g id="a_node10"><a xlink:href="timer__data_8h.html" target="_top" xlink:title="vocabulary types to program Fernotron automatic (timers)">
<polygon fill="none" stroke="black" points="228,-67.5 228,-97.5 338,-97.5 338,-67.5 228,-67.5"/>
<text text-anchor="start" x="236" y="-85.5" font-family="Helvetica,sans-Serif" font-size="10.00">fernotron_trx/timer</text>
<text text-anchor="middle" x="283" y="-74.5" font-family="Helvetica,sans-Serif" font-size="10.00">_data.h</text>
</a>
</g>
</g>
<!-- Node8&#45;&gt;Node10 -->
<g id="edge11" class="edge">
<title>Node8&#45;&gt;Node10</title>
<path fill="none" stroke="midnightblue" d="M420.03,-134.4C393.77,-124.64 358.64,-111.59 330.52,-101.15"/>
<polygon fill="midnightblue" stroke="midnightblue" points="331.49,-97.78 320.9,-97.58 329.05,-104.34 331.49,-97.78"/>
</g>
<!-- Node16 -->
<g id="node16" class="node">
<title>Node16</title>
<g id="a_node16"><a xlink:title=" ">
<polygon fill="none" stroke="#bfbfbf" points="356,-73 356,-92 404,-92 404,-73 356,-73"/>
<text text-anchor="middle" x="380" y="-80" font-family="Helvetica,sans-Serif" font-size="10.00">time.h</text>
</a>
</g>
</g>
<!-- Node8&#45;&gt;Node16 -->
<g id="edge19" class="edge">
<title>Node8&#45;&gt;Node16</title>
<path fill="none" stroke="midnightblue" d="M441.08,-134.4C428.43,-123.86 411.17,-109.48 398.23,-98.69"/>
<polygon fill="midnightblue" stroke="midnightblue" points="400.36,-95.91 390.43,-92.19 395.88,-101.29 400.36,-95.91"/>
</g>
<!-- Node10&#45;&gt;Node2 -->
<g id="edge12" class="edge">
<title>Node10&#45;&gt;Node2</title>
<path fill="none" stroke="midnightblue" d="M227.83,-70.47C185.34,-61.42 125.37,-47.45 74,-31 71.73,-30.27 69.39,-29.47 67.06,-28.62"/>
<polygon fill="midnightblue" stroke="midnightblue" points="68.21,-25.31 57.62,-25 65.7,-31.85 68.21,-25.31"/>
</g>
<!-- Node10&#45;&gt;Node3 -->
<g id="edge13" class="edge">
<title>Node10&#45;&gt;Node3</title>
<path fill="none" stroke="midnightblue" d="M338.08,-68.87C396.83,-55.36 483.55,-35.29 499,-31 502.16,-30.12 505.44,-29.16 508.71,-28.17"/>
<polygon fill="midnightblue" stroke="midnightblue" points="509.91,-31.47 518.41,-25.15 507.82,-24.78 509.91,-31.47"/>
</g>
<!-- Node11 -->
<g id="node11" class="node">
<title>Node11</title>
<g id="a_node11"><a xlink:title=" ">
<polygon fill="none" stroke="#bfbfbf" points="366.5,-6 366.5,-25 419.5,-25 419.5,-6 366.5,-6"/>
<text text-anchor="middle" x="393" y="-13" font-family="Helvetica,sans-Serif" font-size="10.00">string.h</text>
</a>
</g>
</g>
<!-- Node10&#45;&gt;Node11 -->
<g id="edge14" class="edge">
<title>Node10&#45;&gt;Node11</title>
<path fill="none" stroke="midnightblue" d="M306.87,-67.4C325.57,-56.34 351.44,-41.06 369.93,-30.13"/>
<polygon fill="midnightblue" stroke="midnightblue" points="371.77,-33.11 378.6,-25.01 368.21,-27.08 371.77,-33.11"/>
</g>
<!-- Node12 -->
<g id="node12" class="node">
<title>Node12</title>
<g id="a_node12"><a xlink:title=" ">
<polygon fill="none" stroke="#bfbfbf" points="437.5,-6 437.5,-25 490.5,-25 490.5,-6 437.5,-6"/>
<text text-anchor="middle" x="464" y="-13" font-family="Helvetica,sans-Serif" font-size="10.00">ctype.h</text>
</a>
</g>
</g>
<!-- Node10&#45;&gt;Node12 -->
<g id="edge15" class="edge">
<title>Node10&#45;&gt;Node12</title>
<path fill="none" stroke="midnightblue" d="M325.07,-67.44C354.11,-57.59 393.56,-43.93 428,-31 429.85,-30.31 431.74,-29.58 433.65,-28.85"/>
<polygon fill="midnightblue" stroke="midnightblue" points="435.11,-32.03 443.13,-25.1 432.54,-25.52 435.11,-32.03"/>
</g>
<!-- Node13 -->
<g id="node13" class="node">
<title>Node13</title>
<g id="a_node13"><a xlink:title=" ">
<polygon fill="none" stroke="#bfbfbf" points="83,-6 83,-25 133,-25 133,-6 83,-6"/>
<text text-anchor="middle" x="108" y="-13" font-family="Helvetica,sans-Serif" font-size="10.00">stdio.h</text>
</a>
</g>
</g>
<!-- Node10&#45;&gt;Node13 -->
<g id="edge16" class="edge">
<title>Node10&#45;&gt;Node13</title>
<path fill="none" stroke="midnightblue" d="M241.73,-67.44C213.49,-57.65 175.29,-44.05 142,-31 140.4,-30.37 138.76,-29.72 137.11,-29.05"/>
<polygon fill="midnightblue" stroke="midnightblue" points="138.27,-25.74 127.7,-25.13 135.59,-32.2 138.27,-25.74"/>
</g>
<!-- Node14 -->
<g id="node14" class="node">
<title>Node14</title>
<g id="a_node14"><a xlink:title=" ">
<polygon fill="none" stroke="#bfbfbf" points="151,-0.5 151,-30.5 253,-30.5 253,-0.5 151,-0.5"/>
<text text-anchor="start" x="159" y="-18.5" font-family="Helvetica,sans-Serif" font-size="10.00">utils_misc/cstring</text>
<text text-anchor="middle" x="202" y="-7.5" font-family="Helvetica,sans-Serif" font-size="10.00">_utils.hh</text>
</a>
</g>
</g>
<!-- Node10&#45;&gt;Node14 -->
<g id="edge17" class="edge">
<title>Node10&#45;&gt;Node14</title>
<path fill="none" stroke="midnightblue" d="M265.42,-67.4C254.39,-58.54 239.96,-46.96 227.65,-37.09"/>
<polygon fill="midnightblue" stroke="midnightblue" points="229.53,-34.11 219.54,-30.58 225.15,-39.56 229.53,-34.11"/>
</g>
<!-- Node15 -->
<g id="node15" class="node">
<title>Node15</title>
<g id="a_node15"><a xlink:title=" ">
<polygon fill="none" stroke="#bfbfbf" points="271.5,-6 271.5,-25 348.5,-25 348.5,-6 271.5,-6"/>
<text text-anchor="middle" x="310" y="-13" font-family="Helvetica,sans-Serif" font-size="10.00">debug/dbg.h</text>
</a>
</g>
</g>
<!-- Node10&#45;&gt;Node15 -->
<g id="edge18" class="edge">
<title>Node10&#45;&gt;Node15</title>
<path fill="none" stroke="midnightblue" d="M288.86,-67.4C292.86,-57.76 298.2,-44.91 302.51,-34.54"/>
<polygon fill="midnightblue" stroke="midnightblue" points="305.78,-35.77 306.39,-25.19 299.32,-33.09 305.78,-35.77"/>
</g>
</g>
</svg>
