<?xml version="1.0" encoding="UTF-8" standalone="no"?>
<!DOCTYPE svg PUBLIC "-//W3C//DTD SVG 1.1//EN"
 "http://www.w3.org/Graphics/SVG/1.1/DTD/svg11.dtd">
<!-- Generated by graphviz version 2.43.0 (0)
 -->
<!-- Title: fernotron/txtio/fer_print.h Pages: 1 -->
<svg width="877pt" height="374pt"
 viewBox="0.00 0.00 877.17 374.00" xmlns="http://www.w3.org/2000/svg" xmlns:xlink="http://www.w3.org/1999/xlink">
<g id="graph0" class="graph" transform="scale(1 1) rotate(0) translate(4 370)">
<title>fernotron/txtio/fer_print.h</title>
<!-- Node1 -->
<g id="node1" class="node">
<title>Node1</title>
<g id="a_node1"><a xlink:title="Print raw message as formatted text to standard output (for debug purposes).">
<polygon fill="#bfbfbf" stroke="black" points="359.17,-335.5 359.17,-365.5 463.17,-365.5 463.17,-335.5 359.17,-335.5"/>
<text text-anchor="start" x="367.17" y="-353.5" font-family="Helvetica,sans-Serif" font-size="10.00">fernotron/txtio/fer</text>
<text text-anchor="middle" x="411.17" y="-342.5" font-family="Helvetica,sans-Serif" font-size="10.00">_print.h</text>
</a>
</g>
</g>
<!-- Node2 -->
<g id="node2" class="node">
<title>Node2</title>
<g id="a_node2"><a xlink:href="fer__msg__attachment_8h.html" target="_top" xlink:title="Extended messages.">
<polygon fill="none" stroke="black" points="151.17,-268.5 151.17,-298.5 269.17,-298.5 269.17,-268.5 151.17,-268.5"/>
<text text-anchor="start" x="159.17" y="-286.5" font-family="Helvetica,sans-Serif" font-size="10.00">fernotron_trx/raw/fer</text>
<text text-anchor="middle" x="210.17" y="-275.5" font-family="Helvetica,sans-Serif" font-size="10.00">_msg_attachment.h</text>
</a>
</g>
</g>
<!-- Node1&#45;&gt;Node2 -->
<g id="edge1" class="edge">
<title>Node1&#45;&gt;Node2</title>
<path fill="none" stroke="midnightblue" d="M367.56,-335.4C337,-325.52 295.99,-312.25 263.49,-301.74"/>
<polygon fill="midnightblue" stroke="midnightblue" points="264.29,-298.32 253.7,-298.58 262.14,-304.98 264.29,-298.32"/>
</g>
<!-- Node8 -->
<g id="node8" class="node">
<title>Node8</title>
<g id="a_node8"><a xlink:title=" ">
<polygon fill="none" stroke="#bfbfbf" points="349.67,-73 349.67,-92 472.67,-92 472.67,-73 349.67,-73"/>
<text text-anchor="middle" x="411.17" y="-80" font-family="Helvetica,sans-Serif" font-size="10.00">utils_misc/int_types.h</text>
</a>
</g>
</g>
<!-- Node1&#45;&gt;Node8 -->
<g id="edge27" class="edge">
<title>Node1&#45;&gt;Node8</title>
<path fill="none" stroke="midnightblue" d="M411.17,-335.2C411.17,-290.35 411.17,-152.45 411.17,-102.13"/>
<polygon fill="midnightblue" stroke="midnightblue" points="414.67,-102.05 411.17,-92.05 407.67,-102.05 414.67,-102.05"/>
</g>
<!-- Node20 -->
<g id="node20" class="node">
<title>Node20</title>
<g id="a_node20"><a xlink:href="fer__trx__api_8hh.html" target="_top" xlink:title="C++&#45;API for sending and receiving Fernotron RF messages.">
<polygon fill="none" stroke="black" points="477.17,-201.5 477.17,-231.5 593.17,-231.5 593.17,-201.5 477.17,-201.5"/>
<text text-anchor="start" x="485.17" y="-219.5" font-family="Helvetica,sans-Serif" font-size="10.00">fernotron_trx/fer_trx</text>
<text text-anchor="middle" x="535.17" y="-208.5" font-family="Helvetica,sans-Serif" font-size="10.00">_api.hh</text>
</a>
</g>
</g>
<!-- Node1&#45;&gt;Node20 -->
<g id="edge21" class="edge">
<title>Node1&#45;&gt;Node20</title>
<path fill="none" stroke="midnightblue" d="M424.44,-335.37C446.16,-312.25 489.45,-266.18 514.99,-238.99"/>
<polygon fill="midnightblue" stroke="midnightblue" points="517.7,-241.21 522,-231.52 512.6,-236.42 517.7,-241.21"/>
</g>
<!-- Node3 -->
<g id="node3" class="node">
<title>Node3</title>
<g id="a_node3"><a xlink:title=" ">
<polygon fill="none" stroke="#bfbfbf" points="56.67,-6 56.67,-25 109.67,-25 109.67,-6 56.67,-6"/>
<text text-anchor="middle" x="83.17" y="-13" font-family="Helvetica,sans-Serif" font-size="10.00">stdint.h</text>
</a>
</g>
</g>
<!-- Node2&#45;&gt;Node3 -->
<g id="edge2" class="edge">
<title>Node2&#45;&gt;Node3</title>
<path fill="none" stroke="midnightblue" d="M151,-273.93C103.78,-265.74 43.16,-251.71 28.17,-232 -16.21,-173.62 -1.33,-134.14 28.17,-67 34.72,-52.1 48.07,-39.67 59.98,-30.87"/>
<polygon fill="midnightblue" stroke="midnightblue" points="62.05,-33.69 68.28,-25.12 58.06,-27.94 62.05,-33.69"/>
</g>
<!-- Node4 -->
<g id="node4" class="node">
<title>Node4</title>
<g id="a_node4"><a xlink:href="fer__msg__plain_8h.html" target="_top" xlink:title="Data structure of plain messages or header of extended messages.">
<polygon fill="none" stroke="black" points="37.67,-207 37.67,-226 132.67,-226 132.67,-207 37.67,-207"/>
<text text-anchor="middle" x="85.17" y="-214" font-family="Helvetica,sans-Serif" font-size="10.00">fer_msg_plain.h</text>
</a>
</g>
</g>
<!-- Node2&#45;&gt;Node4 -->
<g id="edge3" class="edge">
<title>Node2&#45;&gt;Node4</title>
<path fill="none" stroke="midnightblue" d="M183.05,-268.4C161.5,-257.19 131.6,-241.64 110.53,-230.69"/>
<polygon fill="midnightblue" stroke="midnightblue" points="112.02,-227.52 101.53,-226.01 108.79,-233.73 112.02,-227.52"/>
</g>
<!-- Node18 -->
<g id="node18" class="node">
<title>Node18</title>
<g id="a_node18"><a xlink:href="fer__msg__attachment__enum_8h.html" target="_top" xlink:title="Enums for extended messages.">
<polygon fill="none" stroke="black" points="151.17,-201.5 151.17,-231.5 269.17,-231.5 269.17,-201.5 151.17,-201.5"/>
<text text-anchor="start" x="159.17" y="-219.5" font-family="Helvetica,sans-Serif" font-size="10.00">fer_msg_attachment</text>
<text text-anchor="middle" x="210.17" y="-208.5" font-family="Helvetica,sans-Serif" font-size="10.00">_enum.h</text>
</a>
</g>
</g>
<!-- Node2&#45;&gt;Node18 -->
<g id="edge19" class="edge">
<title>Node2&#45;&gt;Node18</title>
<path fill="none" stroke="midnightblue" d="M210.17,-268.4C210.17,-260.64 210.17,-250.81 210.17,-241.86"/>
<polygon fill="midnightblue" stroke="midnightblue" points="213.67,-241.58 210.17,-231.58 206.67,-241.58 213.67,-241.58"/>
</g>
<!-- Node19 -->
<g id="node19" class="node">
<title>Node19</title>
<g id="a_node19"><a xlink:title=" ">
<polygon fill="none" stroke="#bfbfbf" points="287.67,-207 287.67,-226 382.67,-226 382.67,-207 287.67,-207"/>
<text text-anchor="middle" x="335.17" y="-214" font-family="Helvetica,sans-Serif" font-size="10.00">utils_misc/bcd.h</text>
</a>
</g>
</g>
<!-- Node2&#45;&gt;Node19 -->
<g id="edge20" class="edge">
<title>Node2&#45;&gt;Node19</title>
<path fill="none" stroke="midnightblue" d="M237.3,-268.4C258.84,-257.19 288.75,-241.64 309.82,-230.69"/>
<polygon fill="midnightblue" stroke="midnightblue" points="311.56,-233.73 318.81,-226.01 308.33,-227.52 311.56,-233.73"/>
</g>
<!-- Node5 -->
<g id="node5" class="node">
<title>Node5</title>
<g id="a_node5"><a xlink:href="fer__msg__type_8h.html" target="_top" xlink:title="kinds of messages">
<polygon fill="none" stroke="black" points="37.17,-73 37.17,-92 129.17,-92 129.17,-73 37.17,-73"/>
<text text-anchor="middle" x="83.17" y="-80" font-family="Helvetica,sans-Serif" font-size="10.00">fer_msg_type.h</text>
</a>
</g>
</g>
<!-- Node4&#45;&gt;Node5 -->
<g id="edge4" class="edge">
<title>Node4&#45;&gt;Node5</title>
<path fill="none" stroke="midnightblue" d="M84.29,-206.93C83.3,-196.9 81.76,-179.76 81.17,-165 80.33,-143.61 81.18,-119.04 82.02,-102.51"/>
<polygon fill="midnightblue" stroke="midnightblue" points="85.54,-102.25 82.6,-92.07 78.55,-101.86 85.54,-102.25"/>
</g>
<!-- Node6 -->
<g id="node6" class="node">
<title>Node6</title>
<g id="a_node6"><a xlink:href="fer__msg__plain__enum_8h.html" target="_top" xlink:title="Raw message for plain commands.">
<polygon fill="none" stroke="black" points="90.17,-140 90.17,-159 218.17,-159 218.17,-140 90.17,-140"/>
<text text-anchor="middle" x="154.17" y="-147" font-family="Helvetica,sans-Serif" font-size="10.00">fer_msg_plain_enum.h</text>
</a>
</g>
</g>
<!-- Node4&#45;&gt;Node6 -->
<g id="edge6" class="edge">
<title>Node4&#45;&gt;Node6</title>
<path fill="none" stroke="midnightblue" d="M94.48,-206.73C105.44,-196.4 123.88,-179.04 137.37,-166.33"/>
<polygon fill="midnightblue" stroke="midnightblue" points="140.13,-168.53 145.01,-159.13 135.33,-163.44 140.13,-168.53"/>
</g>
<!-- Node7 -->
<g id="node7" class="node">
<title>Node7</title>
<g id="a_node7"><a xlink:href="fer__trx__c__api_8h.html" target="_top" xlink:title="C&#45;API for sending and receiving Fernotron RF messages.">
<polygon fill="none" stroke="black" points="477.17,-134.5 477.17,-164.5 593.17,-164.5 593.17,-134.5 477.17,-134.5"/>
<text text-anchor="start" x="485.17" y="-152.5" font-family="Helvetica,sans-Serif" font-size="10.00">fernotron_trx/fer_trx</text>
<text text-anchor="middle" x="535.17" y="-141.5" font-family="Helvetica,sans-Serif" font-size="10.00">_c_api.h</text>
</a>
</g>
</g>
<!-- Node4&#45;&gt;Node7 -->
<g id="edge7" class="edge">
<title>Node4&#45;&gt;Node7</title>
<path fill="none" stroke="midnightblue" d="M115.78,-206.99C124.28,-204.82 133.55,-202.65 142.17,-201 255.02,-179.48 387.88,-164.55 466.62,-156.76"/>
<polygon fill="midnightblue" stroke="midnightblue" points="467.28,-160.22 476.89,-155.76 466.6,-153.25 467.28,-160.22"/>
</g>
<!-- Node17 -->
<g id="node17" class="node">
<title>Node17</title>
<g id="a_node17"><a xlink:title=" ">
<polygon fill="none" stroke="#bfbfbf" points="236.17,-140 236.17,-159 368.17,-159 368.17,-140 236.17,-140"/>
<text text-anchor="middle" x="302.17" y="-147" font-family="Helvetica,sans-Serif" font-size="10.00">utils_misc/int_macros.h</text>
</a>
</g>
</g>
<!-- Node4&#45;&gt;Node17 -->
<g id="edge18" class="edge">
<title>Node4&#45;&gt;Node17</title>
<path fill="none" stroke="midnightblue" d="M113.99,-206.87C152.52,-195.33 220.93,-174.84 263.79,-162"/>
<polygon fill="midnightblue" stroke="midnightblue" points="265.01,-165.29 273.58,-159.06 263,-158.58 265.01,-165.29"/>
</g>
<!-- Node5&#45;&gt;Node3 -->
<g id="edge5" class="edge">
<title>Node5&#45;&gt;Node3</title>
<path fill="none" stroke="midnightblue" d="M83.17,-72.73C83.17,-63.18 83.17,-47.62 83.17,-35.28"/>
<polygon fill="midnightblue" stroke="midnightblue" points="86.67,-35.13 83.17,-25.13 79.67,-35.13 86.67,-35.13"/>
</g>
<!-- Node7&#45;&gt;Node8 -->
<g id="edge8" class="edge">
<title>Node7&#45;&gt;Node8</title>
<path fill="none" stroke="midnightblue" d="M508.27,-134.4C486.89,-123.19 457.23,-107.64 436.33,-96.69"/>
<polygon fill="midnightblue" stroke="midnightblue" points="437.88,-93.55 427.4,-92.01 434.63,-99.75 437.88,-93.55"/>
</g>
<!-- Node9 -->
<g id="node9" class="node">
<title>Node9</title>
<g id="a_node9"><a xlink:href="timer__data_8h.html" target="_top" xlink:title="vocabulary types to program Fernotron automatic (timers)">
<polygon fill="none" stroke="black" points="491.17,-67.5 491.17,-97.5 601.17,-97.5 601.17,-67.5 491.17,-67.5"/>
<text text-anchor="start" x="499.17" y="-85.5" font-family="Helvetica,sans-Serif" font-size="10.00">fernotron_trx/timer</text>
<text text-anchor="middle" x="546.17" y="-74.5" font-family="Helvetica,sans-Serif" font-size="10.00">_data.h</text>
</a>
</g>
</g>
<!-- Node7&#45;&gt;Node9 -->
<g id="edge9" class="edge">
<title>Node7&#45;&gt;Node9</title>
<path fill="none" stroke="midnightblue" d="M537.56,-134.4C538.89,-126.56 540.57,-116.6 542.1,-107.57"/>
<polygon fill="midnightblue" stroke="midnightblue" points="545.57,-108.02 543.79,-97.58 538.67,-106.85 545.57,-108.02"/>
</g>
<!-- Node16 -->
<g id="node16" class="node">
<title>Node16</title>
<g id="a_node16"><a xlink:title=" ">
<polygon fill="none" stroke="#bfbfbf" points="632.17,-73 632.17,-92 680.17,-92 680.17,-73 632.17,-73"/>
<text text-anchor="middle" x="656.17" y="-80" font-family="Helvetica,sans-Serif" font-size="10.00">time.h</text>
</a>
</g>
</g>
<!-- Node7&#45;&gt;Node16 -->
<g id="edge17" class="edge">
<title>Node7&#45;&gt;Node16</title>
<path fill="none" stroke="midnightblue" d="M561.43,-134.4C582.19,-123.24 610.97,-107.78 631.35,-96.83"/>
<polygon fill="midnightblue" stroke="midnightblue" points="633.18,-99.82 640.34,-92.01 629.87,-93.66 633.18,-99.82"/>
</g>
<!-- Node9&#45;&gt;Node3 -->
<g id="edge10" class="edge">
<title>Node9&#45;&gt;Node3</title>
<path fill="none" stroke="midnightblue" d="M491.08,-68.66C488.07,-68.07 485.09,-67.51 482.17,-67 349.72,-43.67 190.71,-26.86 120.08,-19.96"/>
<polygon fill="midnightblue" stroke="midnightblue" points="120.21,-16.46 109.92,-18.98 119.54,-23.43 120.21,-16.46"/>
</g>
<!-- Node10 -->
<g id="node10" class="node">
<title>Node10</title>
<g id="a_node10"><a xlink:title=" ">
<polygon fill="none" stroke="#bfbfbf" points="657.17,-6 657.17,-25 719.17,-25 719.17,-6 657.17,-6"/>
<text text-anchor="middle" x="688.17" y="-13" font-family="Helvetica,sans-Serif" font-size="10.00">stdbool.h</text>
</a>
</g>
</g>
<!-- Node9&#45;&gt;Node10 -->
<g id="edge11" class="edge">
<title>Node9&#45;&gt;Node10</title>
<path fill="none" stroke="midnightblue" d="M576.98,-67.4C601.79,-56.04 636.35,-40.22 660.33,-29.24"/>
<polygon fill="midnightblue" stroke="midnightblue" points="661.95,-32.35 669.59,-25.01 659.04,-25.99 661.95,-32.35"/>
</g>
<!-- Node11 -->
<g id="node11" class="node">
<title>Node11</title>
<g id="a_node11"><a xlink:title=" ">
<polygon fill="none" stroke="#bfbfbf" points="737.67,-6 737.67,-25 790.67,-25 790.67,-6 737.67,-6"/>
<text text-anchor="middle" x="764.17" y="-13" font-family="Helvetica,sans-Serif" font-size="10.00">string.h</text>
</a>
</g>
</g>
<!-- Node9&#45;&gt;Node11 -->
<g id="edge12" class="edge">
<title>Node9&#45;&gt;Node11</title>
<path fill="none" stroke="midnightblue" d="M601.21,-67.95C637.57,-58.57 686.09,-45.26 728.17,-31 730.3,-30.28 732.48,-29.5 734.67,-28.69"/>
<polygon fill="midnightblue" stroke="midnightblue" points="736.07,-31.9 744.14,-25.03 733.55,-25.37 736.07,-31.9"/>
</g>
<!-- Node12 -->
<g id="node12" class="node">
<title>Node12</title>
<g id="a_node12"><a xlink:title=" ">
<polygon fill="none" stroke="#bfbfbf" points="301.67,-6 301.67,-25 354.67,-25 354.67,-6 301.67,-6"/>
<text text-anchor="middle" x="328.17" y="-13" font-family="Helvetica,sans-Serif" font-size="10.00">ctype.h</text>
</a>
</g>
</g>
<!-- Node9&#45;&gt;Node12 -->
<g id="edge13" class="edge">
<title>Node9&#45;&gt;Node12</title>
<path fill="none" stroke="midnightblue" d="M491.13,-67.95C454.78,-58.57 406.25,-45.26 364.17,-31 362.05,-30.28 359.86,-29.5 357.68,-28.69"/>
<polygon fill="midnightblue" stroke="midnightblue" points="358.79,-25.37 348.21,-25.03 356.27,-31.9 358.79,-25.37"/>
</g>
<!-- Node13 -->
<g id="node13" class="node">
<title>Node13</title>
<g id="a_node13"><a xlink:title=" ">
<polygon fill="none" stroke="#bfbfbf" points="373.17,-6 373.17,-25 423.17,-25 423.17,-6 373.17,-6"/>
<text text-anchor="middle" x="398.17" y="-13" font-family="Helvetica,sans-Serif" font-size="10.00">stdio.h</text>
</a>
</g>
</g>
<!-- Node9&#45;&gt;Node13 -->
<g id="edge14" class="edge">
<title>Node9&#45;&gt;Node13</title>
<path fill="none" stroke="midnightblue" d="M514.06,-67.4C488.09,-55.99 451.86,-40.08 426.86,-29.1"/>
<polygon fill="midnightblue" stroke="midnightblue" points="428.11,-25.82 417.54,-25.01 425.29,-32.23 428.11,-25.82"/>
</g>
<!-- Node14 -->
<g id="node14" class="node">
<title>Node14</title>
<g id="a_node14"><a xlink:title=" ">
<polygon fill="none" stroke="#bfbfbf" points="441.17,-0.5 441.17,-30.5 543.17,-30.5 543.17,-0.5 441.17,-0.5"/>
<text text-anchor="start" x="449.17" y="-18.5" font-family="Helvetica,sans-Serif" font-size="10.00">utils_misc/cstring</text>
<text text-anchor="middle" x="492.17" y="-7.5" font-family="Helvetica,sans-Serif" font-size="10.00">_utils.hh</text>
</a>
</g>
</g>
<!-- Node9&#45;&gt;Node14 -->
<g id="edge15" class="edge">
<title>Node9&#45;&gt;Node14</title>
<path fill="none" stroke="midnightblue" d="M534.45,-67.4C527.45,-58.96 518.4,-48.07 510.47,-38.52"/>
<polygon fill="midnightblue" stroke="midnightblue" points="512.95,-36.03 503.87,-30.58 507.56,-40.51 512.95,-36.03"/>
</g>
<!-- Node15 -->
<g id="node15" class="node">
<title>Node15</title>
<g id="a_node15"><a xlink:title=" ">
<polygon fill="none" stroke="#bfbfbf" points="561.67,-6 561.67,-25 638.67,-25 638.67,-6 561.67,-6"/>
<text text-anchor="middle" x="600.17" y="-13" font-family="Helvetica,sans-Serif" font-size="10.00">debug/dbg.h</text>
</a>
</g>
</g>
<!-- Node9&#45;&gt;Node15 -->
<g id="edge16" class="edge">
<title>Node9&#45;&gt;Node15</title>
<path fill="none" stroke="midnightblue" d="M557.89,-67.4C566.31,-57.26 577.69,-43.57 586.52,-32.94"/>
<polygon fill="midnightblue" stroke="midnightblue" points="589.25,-35.12 592.95,-25.19 583.87,-30.65 589.25,-35.12"/>
</g>
<!-- Node20&#45;&gt;Node7 -->
<g id="edge23" class="edge">
<title>Node20&#45;&gt;Node7</title>
<path fill="none" stroke="midnightblue" d="M535.17,-201.4C535.17,-193.64 535.17,-183.81 535.17,-174.86"/>
<polygon fill="midnightblue" stroke="midnightblue" points="538.67,-174.58 535.17,-164.58 531.67,-174.58 538.67,-174.58"/>
</g>
<!-- Node20&#45;&gt;Node8 -->
<g id="edge22" class="edge">
<title>Node20&#45;&gt;Node8</title>
<path fill="none" stroke="midnightblue" d="M512.95,-201.38C499.18,-192.03 481.62,-178.94 468.17,-165 449.03,-145.16 431.59,-118.37 421.18,-101.01"/>
<polygon fill="midnightblue" stroke="midnightblue" points="423.98,-98.86 415.9,-92 417.94,-102.4 423.98,-98.86"/>
</g>
<!-- Node21 -->
<g id="node21" class="node">
<title>Node21</title>
<g id="a_node21"><a xlink:href="astro_8h.html" target="_top" xlink:title="civil dusk timer calculations">
<polygon fill="none" stroke="black" points="611.67,-140 611.67,-159 728.67,-159 728.67,-140 611.67,-140"/>
<text text-anchor="middle" x="670.17" y="-147" font-family="Helvetica,sans-Serif" font-size="10.00">fernotron_trx/astro.h</text>
</a>
</g>
</g>
<!-- Node20&#45;&gt;Node21 -->
<g id="edge24" class="edge">
<title>Node20&#45;&gt;Node21</title>
<path fill="none" stroke="midnightblue" d="M564.47,-201.4C587.94,-190.09 620.62,-174.36 643.4,-163.39"/>
<polygon fill="midnightblue" stroke="midnightblue" points="645.01,-166.5 652.5,-159.01 641.98,-160.19 645.01,-166.5"/>
</g>
<!-- Node22 -->
<g id="node22" class="node">
<title>Node22</title>
<g id="a_node22"><a xlink:href="fer__trx__api____inline_8hh.html" target="_top" xlink:title="Private implementation.">
<polygon fill="none" stroke="black" points="747.17,-140 747.17,-159 869.17,-159 869.17,-140 747.17,-140"/>
<text text-anchor="middle" x="808.17" y="-147" font-family="Helvetica,sans-Serif" font-size="10.00">fer_trx_api__inline.hh</text>
</a>
</g>
</g>
<!-- Node20&#45;&gt;Node22 -->
<g id="edge26" class="edge">
<title>Node20&#45;&gt;Node22</title>
<path fill="none" stroke="midnightblue" d="M593.4,-201.64C643.88,-189.62 715.93,-172.46 762.38,-161.4"/>
<polygon fill="midnightblue" stroke="midnightblue" points="763.25,-164.79 772.17,-159.07 761.63,-157.98 763.25,-164.79"/>
</g>
<!-- Node21&#45;&gt;Node16 -->
<g id="edge25" class="edge">
<title>Node21&#45;&gt;Node16</title>
<path fill="none" stroke="midnightblue" d="M668.28,-139.73C666.21,-130.09 662.81,-114.3 660.14,-101.91"/>
<polygon fill="midnightblue" stroke="midnightblue" points="663.56,-101.17 658.03,-92.13 656.71,-102.64 663.56,-101.17"/>
</g>
</g>
</svg>
