<?xml version="1.0" encoding="UTF-8" standalone="no"?>
<!DOCTYPE svg PUBLIC "-//W3C//DTD SVG 1.1//EN"
 "http://www.w3.org/Graphics/SVG/1.1/DTD/svg11.dtd">
<!-- Generated by graphviz version 2.43.0 (0)
 -->
<!-- Title: fernotron_uout/fer_uo_publish.h Pages: 1 -->
<svg width="435pt" height="95pt"
 viewBox="0.00 0.00 435.00 95.00" xmlns="http://www.w3.org/2000/svg" xmlns:xlink="http://www.w3.org/1999/xlink">
<g id="graph0" class="graph" transform="scale(1 1) rotate(0) translate(4 91)">
<title>fernotron_uout/fer_uo_publish.h</title>
<!-- Node1 -->
<g id="node1" class="node">
<title>Node1</title>
<g id="a_node1"><a xlink:title="publish fernotron_app state">
<polygon fill="#bfbfbf" stroke="black" points="192,-56.5 192,-86.5 297,-86.5 297,-56.5 192,-56.5"/>
<text text-anchor="start" x="200" y="-74.5" font-family="Helvetica,sans-Serif" font-size="10.00">fernotron_uout/fer</text>
<text text-anchor="middle" x="244.5" y="-63.5" font-family="Helvetica,sans-Serif" font-size="10.00">_uo_publish.h</text>
</a>
</g>
</g>
<!-- Node2 -->
<g id="node2" class="node">
<title>Node2</title>
<g id="a_node2"><a xlink:title=" ">
<polygon fill="none" stroke="#bfbfbf" points="0,-0.5 0,-19.5 113,-19.5 113,-0.5 0,-0.5"/>
<text text-anchor="middle" x="56.5" y="-7.5" font-family="Helvetica,sans-Serif" font-size="10.00">uout/uo_callbacks.h</text>
</a>
</g>
</g>
<!-- Node1&#45;&gt;Node2 -->
<g id="edge1" class="edge">
<title>Node1&#45;&gt;Node2</title>
<path fill="none" stroke="midnightblue" d="M199.95,-56.4C167.46,-46.12 123.96,-32.35 93.41,-22.68"/>
<polygon fill="midnightblue" stroke="midnightblue" points="94.17,-19.25 83.58,-19.57 92.06,-25.93 94.17,-19.25"/>
</g>
<!-- Node3 -->
<g id="node3" class="node">
<title>Node3</title>
<g id="a_node3"><a xlink:title=" ">
<polygon fill="none" stroke="#bfbfbf" points="131,-0.5 131,-19.5 200,-19.5 200,-0.5 131,-0.5"/>
<text text-anchor="middle" x="165.5" y="-7.5" font-family="Helvetica,sans-Serif" font-size="10.00">type_traits</text>
</a>
</g>
</g>
<!-- Node1&#45;&gt;Node3 -->
<g id="edge2" class="edge">
<title>Node1&#45;&gt;Node3</title>
<path fill="none" stroke="midnightblue" d="M225.78,-56.4C213.59,-47.22 197.71,-35.26 185.31,-25.92"/>
<polygon fill="midnightblue" stroke="midnightblue" points="187.09,-22.88 177,-19.66 182.88,-28.47 187.09,-22.88"/>
</g>
<!-- Node4 -->
<g id="node4" class="node">
<title>Node4</title>
<g id="a_node4"><a xlink:title=" ">
<polygon fill="none" stroke="#bfbfbf" points="218,-0.5 218,-19.5 271,-19.5 271,-0.5 218,-0.5"/>
<text text-anchor="middle" x="244.5" y="-7.5" font-family="Helvetica,sans-Serif" font-size="10.00">stdint.h</text>
</a>
</g>
</g>
<!-- Node1&#45;&gt;Node4 -->
<g id="edge3" class="edge">
<title>Node1&#45;&gt;Node4</title>
<path fill="none" stroke="midnightblue" d="M244.5,-56.4C244.5,-48.47 244.5,-38.46 244.5,-29.86"/>
<polygon fill="midnightblue" stroke="midnightblue" points="248,-29.66 244.5,-19.66 241,-29.66 248,-29.66"/>
</g>
<!-- Node5 -->
<g id="node5" class="node">
<title>Node5</title>
<g id="a_node5"><a xlink:title=" ">
<polygon fill="none" stroke="#bfbfbf" points="289.5,-0.5 289.5,-19.5 345.5,-19.5 345.5,-0.5 289.5,-0.5"/>
<text text-anchor="middle" x="317.5" y="-7.5" font-family="Helvetica,sans-Serif" font-size="10.00">stddef.h</text>
</a>
</g>
</g>
<!-- Node1&#45;&gt;Node5 -->
<g id="edge4" class="edge">
<title>Node1&#45;&gt;Node5</title>
<path fill="none" stroke="midnightblue" d="M261.8,-56.4C272.95,-47.31 287.45,-35.49 298.86,-26.19"/>
<polygon fill="midnightblue" stroke="midnightblue" points="301.34,-28.69 306.88,-19.66 296.92,-23.26 301.34,-28.69"/>
</g>
<!-- Node6 -->
<g id="node6" class="node">
<title>Node6</title>
<g id="a_node6"><a xlink:href="so__msg_8h_source.html" target="_top" xlink:title=" ">
<polygon fill="none" stroke="black" points="364,-0.5 364,-19.5 427,-19.5 427,-0.5 364,-0.5"/>
<text text-anchor="middle" x="395.5" y="-7.5" font-family="Helvetica,sans-Serif" font-size="10.00">so_msg.h</text>
</a>
</g>
</g>
<!-- Node1&#45;&gt;Node6 -->
<g id="edge5" class="edge">
<title>Node1&#45;&gt;Node6</title>
<path fill="none" stroke="midnightblue" d="M280.28,-56.4C305.73,-46.37 339.6,-33.03 364.02,-23.4"/>
<polygon fill="midnightblue" stroke="midnightblue" points="365.51,-26.58 373.53,-19.66 362.94,-20.07 365.51,-26.58"/>
</g>
</g>
</svg>
