<?xml version="1.0" encoding="UTF-8" standalone="no"?>
<!DOCTYPE svg PUBLIC "-//W3C//DTD SVG 1.1//EN"
 "http://www.w3.org/Graphics/SVG/1.1/DTD/svg11.dtd">
<!-- Generated by graphviz version 2.43.0 (0)
 -->
<!-- Title: fernotron_trx/fer_trx_c_api.h Pages: 1 -->
<!--zoomable 262 -->
<svg id="main" version="1.1" xmlns="http://www.w3.org/2000/svg" xmlns:xlink="http://www.w3.org/1999/xlink" xml:space="preserve" onload="init(evt)">
<style type="text/css"><![CDATA[
.edge:hover path { stroke: red; }
.edge:hover polygon { stroke: red; fill: red; }
]]></style>
<script type="text/javascript"><![CDATA[
var edges = document.getElementsByTagName('g');
if (edges && edges.length) {
  for (var i=0;i<edges.length;i++) {
    if (edges[i].id.substr(0,4)=='edge') {
      edges[i].setAttribute('class','edge');
    }
  }
}
]]></script>
        <defs>
                <circle id="rim" cx="0" cy="0" r="7"/>
                <circle id="rim2" cx="0" cy="0" r="3.5"/>
                <g id="zoomPlus">
                        <use xlink:href="#rim" fill="#404040">
                                <set attributeName="fill" to="#808080" begin="zoomplus.mouseover" end="zoomplus.mouseout"/>
                        </use>
                        <path d="M-4,0h8M0,-4v8" fill="none" stroke="white" stroke-width="1.5" pointer-events="none"/>
                </g>
                <g id="zoomMin">
                        <use xlink:href="#rim" fill="#404040">
                                <set attributeName="fill" to="#808080" begin="zoomminus.mouseover" end="zoomminus.mouseout"/>
                        </use>
                        <path d="M-4,0h8" fill="none" stroke="white" stroke-width="1.5" pointer-events="none"/>
                </g>
                <g id="dirArrow">
                        <path fill="none" stroke="white" stroke-width="1.5" d="M0,-3.0v7 M-2.5,-0.5L0,-3.0L2.5,-0.5"/>
                </g>
               <g id="resetDef">
                       <use xlink:href="#rim2" fill="#404040">
                               <set attributeName="fill" to="#808080" begin="reset.mouseover" end="reset.mouseout"/>
                       </use>
               </g>
        </defs>

<script type="text/javascript">
var viewWidth = 1385;
var viewHeight = 262;
var sectionId = 'dynsection-1';
</script>
<script xlink:href="svgpan.js"/>
<svg id="graph" class="graph">
<g id="viewport">
<title>fernotron_trx/fer_trx_c_api.h</title>
<!-- Node1 -->
<g id="node1" class="node">
<title>Node1</title>
<g id="a_node1"><a xlink:title="C&#45;API for sending and receiving Fernotron RF messages.">
<polygon fill="#bfbfbf" stroke="black" points="827,-223.5 827,-253.5 943,-253.5 943,-223.5 827,-223.5"/>
<text text-anchor="start" x="835" y="-241.5" font-family="Helvetica,sans-Serif" font-size="10.00">fernotron_trx/fer_trx</text>
<text text-anchor="middle" x="885" y="-230.5" font-family="Helvetica,sans-Serif" font-size="10.00">_c_api.h</text>
</a>
</g>
</g>
<!-- Node2 -->
<g id="node2" class="node">
<title>Node2</title>
<g id="a_node2"><a xlink:href="positions__dynamic_8h.html" target="_top" xlink:title="Keep track of positions for a currently moving shutter.">
<polygon fill="none" stroke="black" points="1080.5,-156.5 1080.5,-186.5 1209.5,-186.5 1209.5,-156.5 1080.5,-156.5"/>
<text text-anchor="start" x="1088.5" y="-174.5" font-family="Helvetica,sans-Serif" font-size="10.00">fernotron/pos/positions</text>
<text text-anchor="middle" x="1145" y="-163.5" font-family="Helvetica,sans-Serif" font-size="10.00">_dynamic.h</text>
</a>
</g>
</g>
<!-- Node1&#45;&gt;Node2 -->
<g id="edge1" class="edge">
<title>Node1&#45;&gt;Node2</title>
<path fill="none" stroke="midnightblue" d="M951.06,-220.98C993.53,-210.37 1048.12,-196.72 1088.56,-186.61"/>
<polygon fill="midnightblue" stroke="midnightblue" points="949.95,-217.66 941.1,-223.48 951.65,-224.45 949.95,-217.66"/>
</g>
<!-- Node5 -->
<g id="node5" class="node">
<title>Node5</title>
<g id="a_node5"><a xlink:href="set__endpos_8h.html" target="_top" xlink:title="Mode for setting shutter end positions.">
<polygon fill="none" stroke="black" points="1227.5,-162 1227.5,-181 1376.5,-181 1376.5,-162 1227.5,-162"/>
<text text-anchor="middle" x="1302" y="-169" font-family="Helvetica,sans-Serif" font-size="10.00">fernotron/sep/set_endpos.h</text>
</a>
</g>
</g>
<!-- Node1&#45;&gt;Node5 -->
<g id="edge4" class="edge">
<title>Node1&#45;&gt;Node5</title>
<path fill="none" stroke="midnightblue" d="M953.38,-227.63C1020.94,-217.77 1127.19,-201.96 1219,-187 1230.41,-185.14 1242.68,-183.05 1254.19,-181.04"/>
<polygon fill="midnightblue" stroke="midnightblue" points="952.68,-224.19 943.29,-229.1 953.69,-231.12 952.68,-224.19"/>
</g>
<!-- Node6 -->
<g id="node6" class="node">
<title>Node6</title>
<g id="a_node6"><a xlink:href="fer__trx__api_8hh.html" target="_top" xlink:title="C++&#45;API for sending and receiving Fernotron RF messages.">
<polygon fill="none" stroke="black" points="434,-156.5 434,-186.5 550,-186.5 550,-156.5 434,-156.5"/>
<text text-anchor="start" x="442" y="-174.5" font-family="Helvetica,sans-Serif" font-size="10.00">fernotron_trx/fer_trx</text>
<text text-anchor="middle" x="492" y="-163.5" font-family="Helvetica,sans-Serif" font-size="10.00">_api.hh</text>
</a>
</g>
</g>
<!-- Node1&#45;&gt;Node6 -->
<g id="edge5" class="edge">
<title>Node1&#45;&gt;Node6</title>
<path fill="none" stroke="midnightblue" d="M816.71,-226.21C741.29,-213.73 621.16,-193.86 550.09,-182.11"/>
<polygon fill="midnightblue" stroke="midnightblue" points="816.15,-229.66 826.59,-227.84 817.29,-222.75 816.15,-229.66"/>
</g>
<!-- Node8 -->
<g id="node8" class="node">
<title>Node8</title>
<g id="a_node8"><a xlink:href="fer__fsb_8h.html" target="_top" xlink:title="Plain raw message.">
<polygon fill="none" stroke="black" points="550,-89.5 550,-119.5 668,-119.5 668,-89.5 550,-89.5"/>
<text text-anchor="start" x="558" y="-107.5" font-family="Helvetica,sans-Serif" font-size="10.00">fernotron_trx/raw/fer</text>
<text text-anchor="middle" x="609" y="-96.5" font-family="Helvetica,sans-Serif" font-size="10.00">_fsb.h</text>
</a>
</g>
</g>
<!-- Node1&#45;&gt;Node8 -->
<g id="edge7" class="edge">
<title>Node1&#45;&gt;Node8</title>
<path fill="none" stroke="midnightblue" d="M846.53,-219.1C790.73,-192.42 688.57,-143.55 638.39,-119.56"/>
<polygon fill="midnightblue" stroke="midnightblue" points="845.19,-222.34 855.72,-223.5 848.21,-216.03 845.19,-222.34"/>
</g>
<!-- Node9 -->
<g id="node9" class="node">
<title>Node9</title>
<g id="a_node9"><a xlink:href="fer__msg__tx_8h.html" target="_top" xlink:title="Send raw messages.">
<polygon fill="none" stroke="black" points="0,-11.5 0,-41.5 118,-41.5 118,-11.5 0,-11.5"/>
<text text-anchor="start" x="8" y="-29.5" font-family="Helvetica,sans-Serif" font-size="10.00">fernotron_trx/raw/fer</text>
<text text-anchor="middle" x="59" y="-18.5" font-family="Helvetica,sans-Serif" font-size="10.00">_msg_tx.h</text>
</a>
</g>
</g>
<!-- Node1&#45;&gt;Node9 -->
<g id="edge25" class="edge">
<title>Node1&#45;&gt;Node9</title>
<path fill="none" stroke="midnightblue" d="M816.8,-236.39C725.95,-233.49 560.87,-223.17 425,-187 290.7,-151.25 142.26,-73.66 84.21,-41.7"/>
<polygon fill="midnightblue" stroke="midnightblue" points="816.87,-239.9 826.97,-236.7 817.08,-232.9 816.87,-239.9"/>
</g>
<!-- Node14 -->
<g id="node14" class="node">
<title>Node14</title>
<g id="a_node14"><a xlink:href="fer__msg__plain_8h.html" target="_top" xlink:title="Data structure of plain messages or header of extended messages.">
<polygon fill="none" stroke="black" points="826,-156.5 826,-186.5 944,-186.5 944,-156.5 826,-156.5"/>
<text text-anchor="start" x="834" y="-174.5" font-family="Helvetica,sans-Serif" font-size="10.00">fernotron_trx/raw/fer</text>
<text text-anchor="middle" x="885" y="-163.5" font-family="Helvetica,sans-Serif" font-size="10.00">_msg_plain.h</text>
</a>
</g>
</g>
<!-- Node1&#45;&gt;Node14 -->
<g id="edge13" class="edge">
<title>Node1&#45;&gt;Node14</title>
<path fill="none" stroke="midnightblue" d="M885,-213.11C885,-204.15 885,-194.32 885,-186.58"/>
<polygon fill="midnightblue" stroke="midnightblue" points="881.5,-213.4 885,-223.4 888.5,-213.4 881.5,-213.4"/>
</g>
<!-- Node16 -->
<g id="node16" class="node">
<title>Node16</title>
<g id="a_node16"><a xlink:href="fer__radio__trx_8h.html" target="_top" xlink:title="RF transceiver.">
<polygon fill="none" stroke="black" points="1076,-11.5 1076,-41.5 1194,-41.5 1194,-11.5 1076,-11.5"/>
<text text-anchor="start" x="1084" y="-29.5" font-family="Helvetica,sans-Serif" font-size="10.00">fernotron_trx/raw/fer</text>
<text text-anchor="middle" x="1135" y="-18.5" font-family="Helvetica,sans-Serif" font-size="10.00">_radio_trx.h</text>
</a>
</g>
</g>
<!-- Node1&#45;&gt;Node16 -->
<g id="edge26" class="edge">
<title>Node1&#45;&gt;Node16</title>
<path fill="none" stroke="midnightblue" d="M913.14,-217.39C925.54,-208.33 940.17,-197.36 953,-187 1016.75,-135.54 1088.98,-69.93 1119.78,-41.59"/>
<polygon fill="midnightblue" stroke="midnightblue" points="911,-214.62 904.96,-223.33 915.11,-220.28 911,-214.62"/>
</g>
<!-- Node3 -->
<g id="node3" class="node">
<title>Node3</title>
<g id="a_node3"><a xlink:href="shutter__pct_8h.html" target="_top" xlink:title="include positions_static.h and positions_dynamic.h">
<polygon fill="none" stroke="black" points="1155.5,-89.5 1155.5,-119.5 1274.5,-119.5 1274.5,-89.5 1155.5,-89.5"/>
<text text-anchor="start" x="1163.5" y="-107.5" font-family="Helvetica,sans-Serif" font-size="10.00">fernotron/pos/shutter</text>
<text text-anchor="middle" x="1215" y="-96.5" font-family="Helvetica,sans-Serif" font-size="10.00">_pct.h</text>
</a>
</g>
</g>
<!-- Node2&#45;&gt;Node3 -->
<g id="edge2" class="edge">
<title>Node2&#45;&gt;Node3</title>
<path fill="none" stroke="midnightblue" d="M1167.82,-149.31C1178.32,-139.56 1190.49,-128.26 1199.84,-119.58"/>
<polygon fill="midnightblue" stroke="midnightblue" points="1165.14,-147.03 1160.19,-156.4 1169.9,-152.16 1165.14,-147.03"/>
</g>
<!-- Node4 -->
<g id="node4" class="node">
<title>Node4</title>
<g id="a_node4"><a xlink:href="commands_8h.html" target="_top" xlink:title="commands to move or stop a shutter with position support">
<polygon fill="none" stroke="black" points="1212,-17 1212,-36 1360,-36 1360,-17 1212,-17"/>
<text text-anchor="middle" x="1286" y="-24" font-family="Helvetica,sans-Serif" font-size="10.00">fernotron/pos/commands.h</text>
</a>
</g>
</g>
<!-- Node3&#45;&gt;Node4 -->
<g id="edge3" class="edge">
<title>Node3&#45;&gt;Node4</title>
<path fill="none" stroke="midnightblue" d="M1235.35,-81.71C1249.55,-66.51 1267.73,-47.05 1278,-36.06"/>
<polygon fill="midnightblue" stroke="midnightblue" points="1232.62,-79.51 1228.35,-89.2 1237.74,-84.29 1232.62,-79.51"/>
</g>
<!-- Node7 -->
<g id="node7" class="node">
<title>Node7</title>
<g id="a_node7"><a xlink:href="fer__print_8h.html" target="_top" xlink:title="Print raw message as formatted text to standard output (for debug purposes).">
<polygon fill="none" stroke="black" points="318,-11.5 318,-41.5 422,-41.5 422,-11.5 318,-11.5"/>
<text text-anchor="start" x="326" y="-29.5" font-family="Helvetica,sans-Serif" font-size="10.00">fernotron/txtio/fer</text>
<text text-anchor="middle" x="370" y="-18.5" font-family="Helvetica,sans-Serif" font-size="10.00">_print.h</text>
</a>
</g>
</g>
<!-- Node6&#45;&gt;Node7 -->
<g id="edge6" class="edge">
<title>Node6&#45;&gt;Node7</title>
<path fill="none" stroke="midnightblue" d="M473.25,-148.52C447.9,-118.81 403.43,-66.69 382.09,-41.68"/>
<polygon fill="midnightblue" stroke="midnightblue" points="470.7,-150.93 479.86,-156.27 476.03,-146.39 470.7,-150.93"/>
</g>
<!-- Node8&#45;&gt;Node9 -->
<g id="edge8" class="edge">
<title>Node8&#45;&gt;Node9</title>
<path fill="none" stroke="midnightblue" d="M539.96,-101.76C445.54,-98.15 271.4,-87.05 127,-53 115.1,-50.19 102.45,-45.85 91.33,-41.54"/>
<polygon fill="midnightblue" stroke="midnightblue" points="539.83,-105.26 549.95,-102.13 540.09,-98.27 539.83,-105.26"/>
</g>
<!-- Node10 -->
<g id="node10" class="node">
<title>Node10</title>
<g id="a_node10"><a xlink:href="fer__rawmsg__build_8h.html" target="_top" xlink:title="builder functions to construct (extended) raw messages">
<polygon fill="none" stroke="black" points="622,-11.5 622,-41.5 740,-41.5 740,-11.5 622,-11.5"/>
<text text-anchor="start" x="630" y="-29.5" font-family="Helvetica,sans-Serif" font-size="10.00">fernotron_trx/raw/fer</text>
<text text-anchor="middle" x="681" y="-18.5" font-family="Helvetica,sans-Serif" font-size="10.00">_rawmsg_build.h</text>
</a>
</g>
</g>
<!-- Node8&#45;&gt;Node10 -->
<g id="edge9" class="edge">
<title>Node8&#45;&gt;Node10</title>
<path fill="none" stroke="midnightblue" d="M629.68,-81.67C641.84,-68.83 656.87,-52.97 667.52,-41.73"/>
<polygon fill="midnightblue" stroke="midnightblue" points="626.88,-79.54 622.54,-89.2 631.96,-84.35 626.88,-79.54"/>
</g>
<!-- Node11 -->
<g id="node11" class="node">
<title>Node11</title>
<g id="a_node11"><a xlink:href="fer__api_8h_source.html" target="_top" xlink:title=" ">
<polygon fill="none" stroke="black" points="894,-0.5 894,-52.5 1058,-52.5 1058,-0.5 894,-0.5"/>
<text text-anchor="start" x="902" y="-40.5" font-family="Helvetica,sans-Serif" font-size="10.00">/home/bertw/proj/mcu</text>
<text text-anchor="start" x="902" y="-29.5" font-family="Helvetica,sans-Serif" font-size="10.00">/libs/tronferno&#45;lib/components</text>
<text text-anchor="start" x="902" y="-18.5" font-family="Helvetica,sans-Serif" font-size="10.00">/fernotron_trx/priv_include</text>
<text text-anchor="middle" x="976" y="-7.5" font-family="Helvetica,sans-Serif" font-size="10.00">/fer_api.h</text>
</a>
</g>
</g>
<!-- Node8&#45;&gt;Node11 -->
<g id="edge10" class="edge">
<title>Node8&#45;&gt;Node11</title>
<path fill="none" stroke="midnightblue" d="M678.39,-88.79C770.86,-71.36 796.62,-72.98 885,-53 887.88,-52.35 890.81,-51.66 893.76,-50.95"/>
<polygon fill="midnightblue" stroke="midnightblue" points="677.48,-85.4 668.31,-90.71 678.79,-92.27 677.48,-85.4"/>
</g>
<!-- Node12 -->
<g id="node12" class="node">
<title>Node12</title>
<g id="a_node12"><a xlink:href="fer__msg__tx__queue_8h_source.html" target="_top" xlink:title=" ">
<polygon fill="none" stroke="black" points="136,-0.5 136,-52.5 300,-52.5 300,-0.5 136,-0.5"/>
<text text-anchor="start" x="144" y="-40.5" font-family="Helvetica,sans-Serif" font-size="10.00">/home/bertw/proj/mcu</text>
<text text-anchor="start" x="144" y="-29.5" font-family="Helvetica,sans-Serif" font-size="10.00">/libs/tronferno&#45;lib/components</text>
<text text-anchor="start" x="144" y="-18.5" font-family="Helvetica,sans-Serif" font-size="10.00">/fernotron_trx/priv_include</text>
<text text-anchor="middle" x="218" y="-7.5" font-family="Helvetica,sans-Serif" font-size="10.00">/fer_msg_tx_queue.h</text>
</a>
</g>
</g>
<!-- Node8&#45;&gt;Node12 -->
<g id="edge11" class="edge">
<title>Node8&#45;&gt;Node12</title>
<path fill="none" stroke="midnightblue" d="M539.81,-93.99C478.74,-85.09 387.49,-70.55 309,-53 306.12,-52.36 303.19,-51.68 300.24,-50.97"/>
<polygon fill="midnightblue" stroke="midnightblue" points="539.32,-97.46 549.72,-95.42 540.33,-90.53 539.32,-97.46"/>
</g>
<!-- Node13 -->
<g id="node13" class="node">
<title>Node13</title>
<g id="a_node13"><a xlink:href="fer__trx__incoming__event_8hh_source.html" target="_top" xlink:title=" ">
<polygon fill="none" stroke="black" points="440,-0.5 440,-52.5 604,-52.5 604,-0.5 440,-0.5"/>
<text text-anchor="start" x="448" y="-40.5" font-family="Helvetica,sans-Serif" font-size="10.00">/home/bertw/proj/mcu</text>
<text text-anchor="start" x="448" y="-29.5" font-family="Helvetica,sans-Serif" font-size="10.00">/libs/tronferno&#45;lib/components</text>
<text text-anchor="start" x="448" y="-18.5" font-family="Helvetica,sans-Serif" font-size="10.00">/fernotron_trx/priv_include</text>
<text text-anchor="middle" x="522" y="-7.5" font-family="Helvetica,sans-Serif" font-size="10.00">/fer_trx_incoming_event.hh</text>
</a>
</g>
</g>
<!-- Node8&#45;&gt;Node13 -->
<g id="edge12" class="edge">
<title>Node8&#45;&gt;Node13</title>
<path fill="none" stroke="midnightblue" d="M584.94,-82.49C574.31,-73.2 561.73,-62.21 550.62,-52.5"/>
<polygon fill="midnightblue" stroke="midnightblue" points="582.8,-85.26 592.64,-89.2 587.41,-79.99 582.8,-85.26"/>
</g>
<!-- Node14&#45;&gt;Node4 -->
<g id="edge14" class="edge">
<title>Node14&#45;&gt;Node4</title>
<path fill="none" stroke="midnightblue" d="M934.14,-152.97C1020.72,-122.1 1197.37,-59.11 1261.8,-36.13"/>
<polygon fill="midnightblue" stroke="midnightblue" points="932.79,-149.74 924.55,-156.4 935.14,-156.33 932.79,-149.74"/>
</g>
<!-- Node14&#45;&gt;Node8 -->
<g id="edge15" class="edge">
<title>Node14&#45;&gt;Node8</title>
<path fill="none" stroke="midnightblue" d="M816,-154.25C770.48,-143.53 711.47,-129.63 668.11,-119.42"/>
<polygon fill="midnightblue" stroke="midnightblue" points="815.26,-157.67 825.79,-156.56 816.86,-150.86 815.26,-157.67"/>
</g>
<!-- Node14&#45;&gt;Node11 -->
<g id="edge24" class="edge">
<title>Node14&#45;&gt;Node11</title>
<path fill="none" stroke="midnightblue" d="M923.67,-151.07C936.06,-143.05 948.71,-132.63 957,-120 970.22,-99.85 974.53,-72.34 975.79,-52.57"/>
<polygon fill="midnightblue" stroke="midnightblue" points="921.49,-148.3 914.76,-156.48 925.13,-154.28 921.49,-148.3"/>
</g>
<!-- Node15 -->
<g id="node15" class="node">
<title>Node15</title>
<g id="a_node15"><a xlink:href="fer__msg__attachment_8h.html" target="_top" xlink:title="Extended messages.">
<polygon fill="none" stroke="black" points="686,-89.5 686,-119.5 804,-119.5 804,-89.5 686,-89.5"/>
<text text-anchor="start" x="694" y="-107.5" font-family="Helvetica,sans-Serif" font-size="10.00">fernotron_trx/raw/fer</text>
<text text-anchor="middle" x="745" y="-96.5" font-family="Helvetica,sans-Serif" font-size="10.00">_msg_attachment.h</text>
</a>
</g>
</g>
<!-- Node14&#45;&gt;Node15 -->
<g id="edge16" class="edge">
<title>Node14&#45;&gt;Node15</title>
<path fill="none" stroke="midnightblue" d="M845.43,-152.13C823.19,-141.8 795.85,-129.11 775.32,-119.58"/>
<polygon fill="midnightblue" stroke="midnightblue" points="844.08,-155.36 854.62,-156.4 847.03,-149.01 844.08,-155.36"/>
</g>
<!-- Node18 -->
<g id="node18" class="node">
<title>Node18</title>
<g id="a_node18"><a xlink:href="repeater_8h_source.html" target="_top" xlink:title=" ">
<polygon fill="none" stroke="black" points="822.5,-89.5 822.5,-119.5 947.5,-119.5 947.5,-89.5 822.5,-89.5"/>
<text text-anchor="start" x="830.5" y="-107.5" font-family="Helvetica,sans-Serif" font-size="10.00">fernotron_trx/repeater</text>
<text text-anchor="middle" x="885" y="-96.5" font-family="Helvetica,sans-Serif" font-size="10.00">/repeater.h</text>
</a>
</g>
</g>
<!-- Node14&#45;&gt;Node18 -->
<g id="edge23" class="edge">
<title>Node14&#45;&gt;Node18</title>
<path fill="none" stroke="midnightblue" d="M885,-146.11C885,-137.15 885,-127.32 885,-119.58"/>
<polygon fill="midnightblue" stroke="midnightblue" points="881.5,-146.4 885,-156.4 888.5,-146.4 881.5,-146.4"/>
</g>
<!-- Node15&#45;&gt;Node7 -->
<g id="edge17" class="edge">
<title>Node15&#45;&gt;Node7</title>
<path fill="none" stroke="midnightblue" d="M675.6,-88.85C566.37,-70.2 534.36,-81.68 431,-53 420.49,-50.08 409.38,-45.82 399.57,-41.61"/>
<polygon fill="midnightblue" stroke="midnightblue" points="675.25,-92.34 685.71,-90.62 676.46,-85.44 675.25,-92.34"/>
</g>
<!-- Node15&#45;&gt;Node10 -->
<g id="edge20" class="edge">
<title>Node15&#45;&gt;Node10</title>
<path fill="none" stroke="midnightblue" d="M726.31,-81.31C715.55,-68.53 702.36,-52.86 692.98,-41.73"/>
<polygon fill="midnightblue" stroke="midnightblue" points="723.84,-83.81 732.96,-89.2 729.2,-79.3 723.84,-83.81"/>
</g>
<!-- Node15&#45;&gt;Node11 -->
<g id="edge21" class="edge">
<title>Node15&#45;&gt;Node11</title>
<path fill="none" stroke="midnightblue" d="M797.17,-86.33C827.51,-76.35 866.28,-63.6 899.96,-52.52"/>
<polygon fill="midnightblue" stroke="midnightblue" points="796.04,-83.02 787.64,-89.47 798.23,-89.67 796.04,-83.02"/>
</g>
<!-- Node15&#45;&gt;Node13 -->
<g id="edge22" class="edge">
<title>Node15&#45;&gt;Node13</title>
<path fill="none" stroke="midnightblue" d="M694.25,-86.21C665.03,-76.24 627.78,-63.55 595.41,-52.52"/>
<polygon fill="midnightblue" stroke="midnightblue" points="693.24,-89.56 703.84,-89.47 695.5,-82.93 693.24,-89.56"/>
</g>
<!-- Node15&#45;&gt;Node16 -->
<g id="edge18" class="edge">
<title>Node15&#45;&gt;Node16</title>
<path fill="none" stroke="midnightblue" d="M813.69,-89.05C813.8,-89.04 813.9,-89.02 814,-89 925.86,-69.31 956.96,-81.11 1067,-53 1078.61,-50.04 1090.96,-45.76 1101.91,-41.55"/>
<polygon fill="midnightblue" stroke="midnightblue" points="813.25,-85.58 804.05,-90.83 814.51,-92.46 813.25,-85.58"/>
</g>
<!-- Node17 -->
<g id="node17" class="node">
<title>Node17</title>
<g id="a_node17"><a xlink:href="fer__rawmsg__buffer_8h.html" target="_top" xlink:title="Global static buffers for raw messages.">
<polygon fill="none" stroke="black" points="758,-11.5 758,-41.5 876,-41.5 876,-11.5 758,-11.5"/>
<text text-anchor="start" x="766" y="-29.5" font-family="Helvetica,sans-Serif" font-size="10.00">fernotron_trx/raw/fer</text>
<text text-anchor="middle" x="817" y="-18.5" font-family="Helvetica,sans-Serif" font-size="10.00">_rawmsg_buffer.h</text>
</a>
</g>
</g>
<!-- Node15&#45;&gt;Node17 -->
<g id="edge19" class="edge">
<title>Node15&#45;&gt;Node17</title>
<path fill="none" stroke="midnightblue" d="M765.68,-81.67C777.84,-68.83 792.87,-52.97 803.52,-41.73"/>
<polygon fill="midnightblue" stroke="midnightblue" points="762.88,-79.54 758.54,-89.2 767.96,-84.35 762.88,-79.54"/>
</g>
</g>
</svg>
        <g id="navigator" transform="translate(0 0)" fill="#404254">
                <rect fill="#f2f5e9" fill-opacity="0.5" stroke="#606060" stroke-width=".5" x="0" y="0" width="60" height="60"/>
                <use id="zoomplus" xlink:href="#zoomPlus" x="17" y="9" onmousedown="handleZoom(evt,'in')"/>
                <use id="zoomminus" xlink:href="#zoomMin" x="42" y="9" onmousedown="handleZoom(evt,'out')"/>
                <use id="reset" xlink:href="#resetDef" x="30" y="36" onmousedown="handleReset()"/>
                <g id="arrowUp" xlink:href="#dirArrow" transform="translate(30 24)" onmousedown="handlePan(0,-1)">
                  <use xlink:href="#rim" fill="#404040">
                        <set attributeName="fill" to="#808080" begin="arrowUp.mouseover" end="arrowUp.mouseout"/>
                  </use>
                  <path fill="none" stroke="white" stroke-width="1.5" d="M0,-3.0v7 M-2.5,-0.5L0,-3.0L2.5,-0.5"/>
                </g>
                <g id="arrowRight" xlink:href="#dirArrow" transform="rotate(90) translate(36 -43)" onmousedown="handlePan(1,0)">
                  <use xlink:href="#rim" fill="#404040">
                        <set attributeName="fill" to="#808080" begin="arrowRight.mouseover" end="arrowRight.mouseout"/>
                  </use>
                  <path fill="none" stroke="white" stroke-width="1.5" d="M0,-3.0v7 M-2.5,-0.5L0,-3.0L2.5,-0.5"/>
                </g>
                <g id="arrowDown" xlink:href="#dirArrow" transform="rotate(180) translate(-30 -48)" onmousedown="handlePan(0,1)">
                  <use xlink:href="#rim" fill="#404040">
                        <set attributeName="fill" to="#808080" begin="arrowDown.mouseover" end="arrowDown.mouseout"/>
                  </use>
                  <path fill="none" stroke="white" stroke-width="1.5" d="M0,-3.0v7 M-2.5,-0.5L0,-3.0L2.5,-0.5"/>
                </g>
                <g id="arrowLeft" xlink:href="#dirArrow" transform="rotate(270) translate(-36 17)" onmousedown="handlePan(-1,0)">
                  <use xlink:href="#rim" fill="#404040">
                        <set attributeName="fill" to="#808080" begin="arrowLeft.mouseover" end="arrowLeft.mouseout"/>
                  </use>
                  <path fill="none" stroke="white" stroke-width="1.5" d="M0,-3.0v7 M-2.5,-0.5L0,-3.0L2.5,-0.5"/>
                </g>
        </g>
        <svg viewBox="0 0 15 15" width="100%" height="30px" preserveAspectRatio="xMaxYMin meet">
         <g id="arrow_out" transform="scale(0.3 0.3)">
          <a xlink:href="fer__trx__c__api_8h__dep__incl_org.svg" target="_base">
           <rect id="button" ry="5" rx="5" y="6" x="6" height="38" width="38"
                fill="#f2f5e9" fill-opacity="0.5" stroke="#606060" stroke-width="1.0"/>
           <path id="arrow"
             d="M 11.500037,31.436501 C 11.940474,20.09759 22.043105,11.32322 32.158766,21.979434 L 37.068811,17.246167 C 37.068811,17.246167 37.088388,32 37.088388,32 L 22.160133,31.978069 C 22.160133,31.978069 26.997745,27.140456 26.997745,27.140456 C 18.528582,18.264221 13.291696,25.230495 11.500037,31.436501 z"
             style="fill:#404040;"/>
          </a>
         </g>
        </svg>
</svg>
