<?xml version="1.0" encoding="UTF-8" standalone="no"?>
<!DOCTYPE svg PUBLIC "-//W3C//DTD SVG 1.1//EN"
 "http://www.w3.org/Graphics/SVG/1.1/DTD/svg11.dtd">
<!-- Generated by graphviz version 2.43.0 (0)
 -->
<!-- Title: fernotron_trx/timer_data.h Pages: 1 -->
<!--zoomable 329 -->
<svg id="main" version="1.1" xmlns="http://www.w3.org/2000/svg" xmlns:xlink="http://www.w3.org/1999/xlink" xml:space="preserve" onload="init(evt)">
<style type="text/css"><![CDATA[
.edge:hover path { stroke: red; }
.edge:hover polygon { stroke: red; fill: red; }
]]></style>
<script type="text/javascript"><![CDATA[
var edges = document.getElementsByTagName('g');
if (edges && edges.length) {
  for (var i=0;i<edges.length;i++) {
    if (edges[i].id.substr(0,4)=='edge') {
      edges[i].setAttribute('class','edge');
    }
  }
}
]]></script>
        <defs>
                <circle id="rim" cx="0" cy="0" r="7"/>
                <circle id="rim2" cx="0" cy="0" r="3.5"/>
                <g id="zoomPlus">
                        <use xlink:href="#rim" fill="#404040">
                                <set attributeName="fill" to="#808080" begin="zoomplus.mouseover" end="zoomplus.mouseout"/>
                        </use>
                        <path d="M-4,0h8M0,-4v8" fill="none" stroke="white" stroke-width="1.5" pointer-events="none"/>
                </g>
                <g id="zoomMin">
                        <use xlink:href="#rim" fill="#404040">
                                <set attributeName="fill" to="#808080" begin="zoomminus.mouseover" end="zoomminus.mouseout"/>
                        </use>
                        <path d="M-4,0h8" fill="none" stroke="white" stroke-width="1.5" pointer-events="none"/>
                </g>
                <g id="dirArrow">
                        <path fill="none" stroke="white" stroke-width="1.5" d="M0,-3.0v7 M-2.5,-0.5L0,-3.0L2.5,-0.5"/>
                </g>
               <g id="resetDef">
                       <use xlink:href="#rim2" fill="#404040">
                               <set attributeName="fill" to="#808080" begin="reset.mouseover" end="reset.mouseout"/>
                       </use>
               </g>
        </defs>

<script type="text/javascript">
var viewWidth = 1376;
var viewHeight = 329;
var sectionId = 'dynsection-1';
</script>
<script xlink:href="svgpan.js"/>
<svg id="graph" class="graph">
<g id="viewport">
<title>fernotron_trx/timer_data.h</title>
<!-- Node1 -->
<g id="node1" class="node">
<title>Node1</title>
<g id="a_node1"><a xlink:title="vocabulary types to program Fernotron automatic (timers)">
<polygon fill="#bfbfbf" stroke="black" points="160.5,-290.5 160.5,-320.5 270.5,-320.5 270.5,-290.5 160.5,-290.5"/>
<text text-anchor="start" x="168.5" y="-308.5" font-family="Helvetica,sans-Serif" font-size="10.00">fernotron_trx/timer</text>
<text text-anchor="middle" x="215.5" y="-297.5" font-family="Helvetica,sans-Serif" font-size="10.00">_data.h</text>
</a>
</g>
</g>
<!-- Node2 -->
<g id="node2" class="node">
<title>Node2</title>
<g id="a_node2"><a xlink:href="fau__tdata__store_8h.html" target="_top" xlink:title="Persistent timer data storage.">
<polygon fill="none" stroke="black" points="0,-223.5 0,-253.5 105,-253.5 105,-223.5 0,-223.5"/>
<text text-anchor="start" x="8" y="-241.5" font-family="Helvetica,sans-Serif" font-size="10.00">fernotron/auto/fau</text>
<text text-anchor="middle" x="52.5" y="-230.5" font-family="Helvetica,sans-Serif" font-size="10.00">_tdata_store.h</text>
</a>
</g>
</g>
<!-- Node1&#45;&gt;Node2 -->
<g id="edge1" class="edge">
<title>Node1&#45;&gt;Node2</title>
<path fill="none" stroke="midnightblue" d="M170.82,-286.68C144.67,-276.26 112.13,-263.28 87.8,-253.58"/>
<polygon fill="midnightblue" stroke="midnightblue" points="169.55,-289.94 180.13,-290.4 172.14,-283.44 169.55,-289.94"/>
</g>
<!-- Node3 -->
<g id="node3" class="node">
<title>Node3</title>
<g id="a_node3"><a xlink:href="fau__tminutes_8h.html" target="_top" xlink:title="Represent when each kind of timer will be scheduled for a given day and g/m. Calculate the next event...">
<polygon fill="none" stroke="black" points="123,-223.5 123,-253.5 228,-253.5 228,-223.5 123,-223.5"/>
<text text-anchor="start" x="131" y="-241.5" font-family="Helvetica,sans-Serif" font-size="10.00">fernotron/auto/fau</text>
<text text-anchor="middle" x="175.5" y="-230.5" font-family="Helvetica,sans-Serif" font-size="10.00">_tminutes.h</text>
</a>
</g>
</g>
<!-- Node1&#45;&gt;Node3 -->
<g id="edge2" class="edge">
<title>Node1&#45;&gt;Node3</title>
<path fill="none" stroke="midnightblue" d="M201.57,-281.87C195.78,-272.46 189.24,-261.83 184.16,-253.58"/>
<polygon fill="midnightblue" stroke="midnightblue" points="198.6,-283.71 206.82,-290.4 204.56,-280.05 198.6,-283.71"/>
</g>
<!-- Node6 -->
<g id="node6" class="node">
<title>Node6</title>
<g id="a_node6"><a xlink:href="fer__trx__c__api_8h.html" target="_top" xlink:title="C&#45;API for sending and receiving Fernotron RF messages.">
<polygon fill="none" stroke="black" points="724.5,-223.5 724.5,-253.5 840.5,-253.5 840.5,-223.5 724.5,-223.5"/>
<text text-anchor="start" x="732.5" y="-241.5" font-family="Helvetica,sans-Serif" font-size="10.00">fernotron_trx/fer_trx</text>
<text text-anchor="middle" x="782.5" y="-230.5" font-family="Helvetica,sans-Serif" font-size="10.00">_c_api.h</text>
</a>
</g>
</g>
<!-- Node1&#45;&gt;Node6 -->
<g id="edge5" class="edge">
<title>Node1&#45;&gt;Node6</title>
<path fill="none" stroke="midnightblue" d="M280.74,-297.02C392.26,-284.24 617.76,-258.39 724.28,-246.17"/>
<polygon fill="midnightblue" stroke="midnightblue" points="280.18,-293.56 270.64,-298.18 280.97,-300.52 280.18,-293.56"/>
</g>
<!-- Node16 -->
<g id="node16" class="node">
<title>Node16</title>
<g id="a_node16"><a xlink:href="fer__api_8h_source.html" target="_top" xlink:title=" ">
<polygon fill="none" stroke="black" points="143.5,-0.5 143.5,-52.5 307.5,-52.5 307.5,-0.5 143.5,-0.5"/>
<text text-anchor="start" x="151.5" y="-40.5" font-family="Helvetica,sans-Serif" font-size="10.00">/home/bertw/proj/mcu</text>
<text text-anchor="start" x="151.5" y="-29.5" font-family="Helvetica,sans-Serif" font-size="10.00">/libs/tronferno&#45;lib/components</text>
<text text-anchor="start" x="151.5" y="-18.5" font-family="Helvetica,sans-Serif" font-size="10.00">/fernotron_trx/priv_include</text>
<text text-anchor="middle" x="225.5" y="-7.5" font-family="Helvetica,sans-Serif" font-size="10.00">/fer_api.h</text>
</a>
</g>
</g>
<!-- Node1&#45;&gt;Node16 -->
<g id="edge32" class="edge">
<title>Node1&#45;&gt;Node16</title>
<path fill="none" stroke="midnightblue" d="M227.41,-281.26C231.09,-272.9 234.66,-263.24 236.5,-254 250.87,-182 238.47,-94.69 230.67,-52.6"/>
<polygon fill="midnightblue" stroke="midnightblue" points="224.21,-279.85 223.14,-290.39 230.55,-282.82 224.21,-279.85"/>
</g>
<!-- Node4 -->
<g id="node4" class="node">
<title>Node4</title>
<g id="a_node4"><a xlink:href="fau__tevent_8hh_source.html" target="_top" xlink:title=" ">
<polygon fill="none" stroke="black" points="123,-156.5 123,-186.5 228,-186.5 228,-156.5 123,-156.5"/>
<text text-anchor="start" x="131" y="-174.5" font-family="Helvetica,sans-Serif" font-size="10.00">fernotron/auto/fau</text>
<text text-anchor="middle" x="175.5" y="-163.5" font-family="Helvetica,sans-Serif" font-size="10.00">_tevent.hh</text>
</a>
</g>
</g>
<!-- Node3&#45;&gt;Node4 -->
<g id="edge3" class="edge">
<title>Node3&#45;&gt;Node4</title>
<path fill="none" stroke="midnightblue" d="M175.5,-213.11C175.5,-204.15 175.5,-194.32 175.5,-186.58"/>
<polygon fill="midnightblue" stroke="midnightblue" points="172,-213.4 175.5,-223.4 179,-213.4 172,-213.4"/>
</g>
<!-- Node5 -->
<g id="node5" class="node">
<title>Node5</title>
<g id="a_node5"><a xlink:href="fau__next__event_8hh_source.html" target="_top" xlink:title=" ">
<polygon fill="none" stroke="black" points="123,-89.5 123,-119.5 228,-119.5 228,-89.5 123,-89.5"/>
<text text-anchor="start" x="131" y="-107.5" font-family="Helvetica,sans-Serif" font-size="10.00">fernotron/auto/fau</text>
<text text-anchor="middle" x="175.5" y="-96.5" font-family="Helvetica,sans-Serif" font-size="10.00">_next_event.hh</text>
</a>
</g>
</g>
<!-- Node4&#45;&gt;Node5 -->
<g id="edge4" class="edge">
<title>Node4&#45;&gt;Node5</title>
<path fill="none" stroke="midnightblue" d="M175.5,-146.11C175.5,-137.15 175.5,-127.32 175.5,-119.58"/>
<polygon fill="midnightblue" stroke="midnightblue" points="172,-146.4 175.5,-156.4 179,-146.4 172,-146.4"/>
</g>
<!-- Node7 -->
<g id="node7" class="node">
<title>Node7</title>
<g id="a_node7"><a xlink:href="positions__dynamic_8h.html" target="_top" xlink:title="Keep track of positions for a currently moving shutter.">
<polygon fill="none" stroke="black" points="940,-156.5 940,-186.5 1069,-186.5 1069,-156.5 940,-156.5"/>
<text text-anchor="start" x="948" y="-174.5" font-family="Helvetica,sans-Serif" font-size="10.00">fernotron/pos/positions</text>
<text text-anchor="middle" x="1004.5" y="-163.5" font-family="Helvetica,sans-Serif" font-size="10.00">_dynamic.h</text>
</a>
</g>
</g>
<!-- Node6&#45;&gt;Node7 -->
<g id="edge6" class="edge">
<title>Node6&#45;&gt;Node7</title>
<path fill="none" stroke="midnightblue" d="M840.29,-220.58C876.35,-210.02 922.22,-196.59 956.31,-186.61"/>
<polygon fill="midnightblue" stroke="midnightblue" points="839.01,-217.31 830.4,-223.48 840.98,-224.02 839.01,-217.31"/>
</g>
<!-- Node10 -->
<g id="node10" class="node">
<title>Node10</title>
<g id="a_node10"><a xlink:href="set__endpos_8h.html" target="_top" xlink:title="Mode for setting shutter end positions.">
<polygon fill="none" stroke="black" points="1087,-162 1087,-181 1236,-181 1236,-162 1087,-162"/>
<text text-anchor="middle" x="1161.5" y="-169" font-family="Helvetica,sans-Serif" font-size="10.00">fernotron/sep/set_endpos.h</text>
</a>
</g>
</g>
<!-- Node6&#45;&gt;Node10 -->
<g id="edge9" class="edge">
<title>Node6&#45;&gt;Node10</title>
<path fill="none" stroke="midnightblue" d="M850.75,-225.94C910.75,-215.75 1000.44,-200.48 1078.5,-187 1089.6,-185.08 1101.53,-183.01 1112.79,-181.04"/>
<polygon fill="midnightblue" stroke="midnightblue" points="849.92,-222.53 840.64,-227.65 851.09,-229.43 849.92,-222.53"/>
</g>
<!-- Node11 -->
<g id="node11" class="node">
<title>Node11</title>
<g id="a_node11"><a xlink:href="fer__trx__api_8hh.html" target="_top" xlink:title="C++&#45;API for sending and receiving Fernotron RF messages.">
<polygon fill="none" stroke="black" points="767.5,-156.5 767.5,-186.5 883.5,-186.5 883.5,-156.5 767.5,-156.5"/>
<text text-anchor="start" x="775.5" y="-174.5" font-family="Helvetica,sans-Serif" font-size="10.00">fernotron_trx/fer_trx</text>
<text text-anchor="middle" x="825.5" y="-163.5" font-family="Helvetica,sans-Serif" font-size="10.00">_api.hh</text>
</a>
</g>
</g>
<!-- Node6&#45;&gt;Node11 -->
<g id="edge10" class="edge">
<title>Node6&#45;&gt;Node11</title>
<path fill="none" stroke="midnightblue" d="M797.47,-214.87C803.7,-205.46 810.73,-194.83 816.19,-186.58"/>
<polygon fill="midnightblue" stroke="midnightblue" points="794.43,-213.12 791.83,-223.4 800.27,-216.99 794.43,-213.12"/>
</g>
<!-- Node13 -->
<g id="node13" class="node">
<title>Node13</title>
<g id="a_node13"><a xlink:href="fer__fsb_8h.html" target="_top" xlink:title="Plain raw message.">
<polygon fill="none" stroke="black" points="680.5,-89.5 680.5,-119.5 798.5,-119.5 798.5,-89.5 680.5,-89.5"/>
<text text-anchor="start" x="688.5" y="-107.5" font-family="Helvetica,sans-Serif" font-size="10.00">fernotron_trx/raw/fer</text>
<text text-anchor="middle" x="739.5" y="-96.5" font-family="Helvetica,sans-Serif" font-size="10.00">_fsb.h</text>
</a>
</g>
</g>
<!-- Node6&#45;&gt;Node13 -->
<g id="edge12" class="edge">
<title>Node6&#45;&gt;Node13</title>
<path fill="none" stroke="midnightblue" d="M770.09,-214.1C766,-205.72 761.68,-196.09 758.5,-187 750.44,-163.96 744.78,-136.06 741.84,-119.6"/>
<polygon fill="midnightblue" stroke="midnightblue" points="767.09,-215.91 774.72,-223.26 773.34,-212.76 767.09,-215.91"/>
</g>
<!-- Node14 -->
<g id="node14" class="node">
<title>Node14</title>
<g id="a_node14"><a xlink:href="fer__msg__tx_8h.html" target="_top" xlink:title="Send raw messages.">
<polygon fill="none" stroke="black" points="1083.5,-11.5 1083.5,-41.5 1201.5,-41.5 1201.5,-11.5 1083.5,-11.5"/>
<text text-anchor="start" x="1091.5" y="-29.5" font-family="Helvetica,sans-Serif" font-size="10.00">fernotron_trx/raw/fer</text>
<text text-anchor="middle" x="1142.5" y="-18.5" font-family="Helvetica,sans-Serif" font-size="10.00">_msg_tx.h</text>
</a>
</g>
</g>
<!-- Node6&#45;&gt;Node14 -->
<g id="edge30" class="edge">
<title>Node6&#45;&gt;Node14</title>
<path fill="none" stroke="midnightblue" d="M828.14,-219.49C848.43,-210.75 872.25,-199.44 892.5,-187 911.37,-175.41 913.34,-168.67 931.5,-156 996.22,-110.83 1076.91,-64.21 1117.17,-41.56"/>
<polygon fill="midnightblue" stroke="midnightblue" points="826.64,-216.32 818.79,-223.45 829.36,-222.77 826.64,-216.32"/>
</g>
<!-- Node19 -->
<g id="node19" class="node">
<title>Node19</title>
<g id="a_node19"><a xlink:href="fer__msg__plain_8h.html" target="_top" xlink:title="Data structure of plain messages or header of extended messages.">
<polygon fill="none" stroke="black" points="567.5,-156.5 567.5,-186.5 685.5,-186.5 685.5,-156.5 567.5,-156.5"/>
<text text-anchor="start" x="575.5" y="-174.5" font-family="Helvetica,sans-Serif" font-size="10.00">fernotron_trx/raw/fer</text>
<text text-anchor="middle" x="626.5" y="-163.5" font-family="Helvetica,sans-Serif" font-size="10.00">_msg_plain.h</text>
</a>
</g>
</g>
<!-- Node6&#45;&gt;Node19 -->
<g id="edge18" class="edge">
<title>Node6&#45;&gt;Node19</title>
<path fill="none" stroke="midnightblue" d="M739.41,-219.54C714.44,-209.14 683.47,-196.24 660.28,-186.58"/>
<polygon fill="midnightblue" stroke="midnightblue" points="738.07,-222.78 748.65,-223.4 740.77,-216.32 738.07,-222.78"/>
</g>
<!-- Node21 -->
<g id="node21" class="node">
<title>Node21</title>
<g id="a_node21"><a xlink:href="fer__radio__trx_8h.html" target="_top" xlink:title="RF transceiver.">
<polygon fill="none" stroke="black" points="7.5,-11.5 7.5,-41.5 125.5,-41.5 125.5,-11.5 7.5,-11.5"/>
<text text-anchor="start" x="15.5" y="-29.5" font-family="Helvetica,sans-Serif" font-size="10.00">fernotron_trx/raw/fer</text>
<text text-anchor="middle" x="66.5" y="-18.5" font-family="Helvetica,sans-Serif" font-size="10.00">_radio_trx.h</text>
</a>
</g>
</g>
<!-- Node6&#45;&gt;Node21 -->
<g id="edge31" class="edge">
<title>Node6&#45;&gt;Node21</title>
<path fill="none" stroke="midnightblue" d="M714.34,-223.55C669.79,-214.08 610.43,-200.81 558.5,-187 367.51,-136.2 321.04,-118.28 134.5,-53 124.27,-49.42 113.23,-45.37 103.09,-41.56"/>
<polygon fill="midnightblue" stroke="midnightblue" points="713.68,-226.99 724.19,-225.63 715.13,-220.14 713.68,-226.99"/>
</g>
<!-- Node8 -->
<g id="node8" class="node">
<title>Node8</title>
<g id="a_node8"><a xlink:href="shutter__pct_8h.html" target="_top" xlink:title="include positions_static.h and positions_dynamic.h">
<polygon fill="none" stroke="black" points="1119,-89.5 1119,-119.5 1238,-119.5 1238,-89.5 1119,-89.5"/>
<text text-anchor="start" x="1127" y="-107.5" font-family="Helvetica,sans-Serif" font-size="10.00">fernotron/pos/shutter</text>
<text text-anchor="middle" x="1178.5" y="-96.5" font-family="Helvetica,sans-Serif" font-size="10.00">_pct.h</text>
</a>
</g>
</g>
<!-- Node7&#45;&gt;Node8 -->
<g id="edge7" class="edge">
<title>Node7&#45;&gt;Node8</title>
<path fill="none" stroke="midnightblue" d="M1051.83,-152.82C1079.8,-142.37 1114.73,-129.32 1140.82,-119.58"/>
<polygon fill="midnightblue" stroke="midnightblue" points="1050.4,-149.62 1042.26,-156.4 1052.85,-156.18 1050.4,-149.62"/>
</g>
<!-- Node9 -->
<g id="node9" class="node">
<title>Node9</title>
<g id="a_node9"><a xlink:href="commands_8h.html" target="_top" xlink:title="commands to move or stop a shutter with position support">
<polygon fill="none" stroke="black" points="1219.5,-17 1219.5,-36 1367.5,-36 1367.5,-17 1219.5,-17"/>
<text text-anchor="middle" x="1293.5" y="-24" font-family="Helvetica,sans-Serif" font-size="10.00">fernotron/pos/commands.h</text>
</a>
</g>
</g>
<!-- Node8&#45;&gt;Node9 -->
<g id="edge8" class="edge">
<title>Node8&#45;&gt;Node9</title>
<path fill="none" stroke="midnightblue" d="M1208.38,-83.75C1231.74,-68.32 1263.08,-47.6 1280.48,-36.11"/>
<polygon fill="midnightblue" stroke="midnightblue" points="1206.27,-80.95 1199.86,-89.38 1210.13,-86.79 1206.27,-80.95"/>
</g>
<!-- Node12 -->
<g id="node12" class="node">
<title>Node12</title>
<g id="a_node12"><a xlink:href="fer__print_8h.html" target="_top" xlink:title="Print raw message as formatted text to standard output (for debug purposes).">
<polygon fill="none" stroke="black" points="961.5,-11.5 961.5,-41.5 1065.5,-41.5 1065.5,-11.5 961.5,-11.5"/>
<text text-anchor="start" x="969.5" y="-29.5" font-family="Helvetica,sans-Serif" font-size="10.00">fernotron/txtio/fer</text>
<text text-anchor="middle" x="1013.5" y="-18.5" font-family="Helvetica,sans-Serif" font-size="10.00">_print.h</text>
</a>
</g>
</g>
<!-- Node11&#45;&gt;Node12 -->
<g id="edge11" class="edge">
<title>Node11&#45;&gt;Node12</title>
<path fill="none" stroke="midnightblue" d="M841.46,-148.39C854.97,-130.77 875.58,-106.27 897.5,-89 922.74,-69.11 955.37,-52.47 979.59,-41.54"/>
<polygon fill="midnightblue" stroke="midnightblue" points="838.64,-146.33 835.43,-156.43 844.23,-150.53 838.64,-146.33"/>
</g>
<!-- Node13&#45;&gt;Node14 -->
<g id="edge13" class="edge">
<title>Node13&#45;&gt;Node14</title>
<path fill="none" stroke="midnightblue" d="M808.81,-94.79C891.78,-84.06 1025.66,-65.69 1074.5,-53 1085.97,-50.02 1098.19,-45.79 1109.05,-41.63"/>
<polygon fill="midnightblue" stroke="midnightblue" points="808.18,-91.34 798.7,-96.09 809.07,-98.28 808.18,-91.34"/>
</g>
<!-- Node15 -->
<g id="node15" class="node">
<title>Node15</title>
<g id="a_node15"><a xlink:href="fer__rawmsg__build_8h.html" target="_top" xlink:title="builder functions to construct (extended) raw messages">
<polygon fill="none" stroke="black" points="461.5,-11.5 461.5,-41.5 579.5,-41.5 579.5,-11.5 461.5,-11.5"/>
<text text-anchor="start" x="469.5" y="-29.5" font-family="Helvetica,sans-Serif" font-size="10.00">fernotron_trx/raw/fer</text>
<text text-anchor="middle" x="520.5" y="-18.5" font-family="Helvetica,sans-Serif" font-size="10.00">_rawmsg_build.h</text>
</a>
</g>
</g>
<!-- Node13&#45;&gt;Node15 -->
<g id="edge14" class="edge">
<title>Node13&#45;&gt;Node15</title>
<path fill="none" stroke="midnightblue" d="M686.53,-86.3C657.5,-76.75 620.92,-64.5 588.5,-53 578.28,-49.38 567.25,-45.31 557.11,-41.51"/>
<polygon fill="midnightblue" stroke="midnightblue" points="685.48,-89.64 696.07,-89.44 687.66,-82.99 685.48,-89.64"/>
</g>
<!-- Node13&#45;&gt;Node16 -->
<g id="edge15" class="edge">
<title>Node13&#45;&gt;Node16</title>
<path fill="none" stroke="midnightblue" d="M670.21,-88.92C513.04,-65.15 469.12,-81.9 316.5,-53 313.6,-52.45 310.65,-51.85 307.69,-51.21"/>
<polygon fill="midnightblue" stroke="midnightblue" points="669.82,-92.4 680.23,-90.46 670.88,-85.48 669.82,-92.4"/>
</g>
<!-- Node17 -->
<g id="node17" class="node">
<title>Node17</title>
<g id="a_node17"><a xlink:href="fer__msg__tx__queue_8h_source.html" target="_top" xlink:title=" ">
<polygon fill="none" stroke="black" points="779.5,-0.5 779.5,-52.5 943.5,-52.5 943.5,-0.5 779.5,-0.5"/>
<text text-anchor="start" x="787.5" y="-40.5" font-family="Helvetica,sans-Serif" font-size="10.00">/home/bertw/proj/mcu</text>
<text text-anchor="start" x="787.5" y="-29.5" font-family="Helvetica,sans-Serif" font-size="10.00">/libs/tronferno&#45;lib/components</text>
<text text-anchor="start" x="787.5" y="-18.5" font-family="Helvetica,sans-Serif" font-size="10.00">/fernotron_trx/priv_include</text>
<text text-anchor="middle" x="861.5" y="-7.5" font-family="Helvetica,sans-Serif" font-size="10.00">/fer_msg_tx_queue.h</text>
</a>
</g>
</g>
<!-- Node13&#45;&gt;Node17 -->
<g id="edge16" class="edge">
<title>Node13&#45;&gt;Node17</title>
<path fill="none" stroke="midnightblue" d="M770.77,-84.02C786.11,-74.46 804.78,-62.83 821.18,-52.62"/>
<polygon fill="midnightblue" stroke="midnightblue" points="768.8,-81.12 762.16,-89.38 772.5,-87.07 768.8,-81.12"/>
</g>
<!-- Node18 -->
<g id="node18" class="node">
<title>Node18</title>
<g id="a_node18"><a xlink:href="fer__trx__incoming__event_8hh_source.html" target="_top" xlink:title=" ">
<polygon fill="none" stroke="black" points="597.5,-0.5 597.5,-52.5 761.5,-52.5 761.5,-0.5 597.5,-0.5"/>
<text text-anchor="start" x="605.5" y="-40.5" font-family="Helvetica,sans-Serif" font-size="10.00">/home/bertw/proj/mcu</text>
<text text-anchor="start" x="605.5" y="-29.5" font-family="Helvetica,sans-Serif" font-size="10.00">/libs/tronferno&#45;lib/components</text>
<text text-anchor="start" x="605.5" y="-18.5" font-family="Helvetica,sans-Serif" font-size="10.00">/fernotron_trx/priv_include</text>
<text text-anchor="middle" x="679.5" y="-7.5" font-family="Helvetica,sans-Serif" font-size="10.00">/fer_trx_incoming_event.hh</text>
</a>
</g>
</g>
<!-- Node13&#45;&gt;Node18 -->
<g id="edge17" class="edge">
<title>Node13&#45;&gt;Node18</title>
<path fill="none" stroke="midnightblue" d="M721.82,-81.11C714.73,-72.12 706.53,-61.73 699.24,-52.5"/>
<polygon fill="midnightblue" stroke="midnightblue" points="719.27,-83.52 728.21,-89.2 724.77,-79.19 719.27,-83.52"/>
</g>
<!-- Node19&#45;&gt;Node9 -->
<g id="edge19" class="edge">
<title>Node19&#45;&gt;Node9</title>
<path fill="none" stroke="midnightblue" d="M695.75,-158.87C805.62,-139.9 1026.28,-99.71 1210.5,-53 1229.93,-48.07 1251.58,-41.38 1267.89,-36.09"/>
<polygon fill="midnightblue" stroke="midnightblue" points="695.05,-155.44 685.79,-160.58 696.24,-162.34 695.05,-155.44"/>
</g>
<!-- Node19&#45;&gt;Node13 -->
<g id="edge20" class="edge">
<title>Node19&#45;&gt;Node13</title>
<path fill="none" stroke="midnightblue" d="M659.89,-151.3C677.57,-141.12 698.9,-128.85 715.03,-119.58"/>
<polygon fill="midnightblue" stroke="midnightblue" points="657.94,-148.38 651.02,-156.4 661.43,-154.44 657.94,-148.38"/>
</g>
<!-- Node19&#45;&gt;Node16 -->
<g id="edge29" class="edge">
<title>Node19&#45;&gt;Node16</title>
<path fill="none" stroke="midnightblue" d="M557.51,-161.88C509.7,-154.43 445.25,-141.4 391.5,-120 366.86,-110.19 363.54,-102.15 340.5,-89 318.87,-76.65 294.6,-63.56 273.94,-52.65"/>
<polygon fill="midnightblue" stroke="midnightblue" points="557.03,-165.35 567.44,-163.39 558.08,-158.43 557.03,-165.35"/>
</g>
<!-- Node20 -->
<g id="node20" class="node">
<title>Node20</title>
<g id="a_node20"><a xlink:href="fer__msg__attachment_8h.html" target="_top" xlink:title="Extended messages.">
<polygon fill="none" stroke="black" points="400.5,-89.5 400.5,-119.5 518.5,-119.5 518.5,-89.5 400.5,-89.5"/>
<text text-anchor="start" x="408.5" y="-107.5" font-family="Helvetica,sans-Serif" font-size="10.00">fernotron_trx/raw/fer</text>
<text text-anchor="middle" x="459.5" y="-96.5" font-family="Helvetica,sans-Serif" font-size="10.00">_msg_attachment.h</text>
</a>
</g>
</g>
<!-- Node19&#45;&gt;Node20 -->
<g id="edge21" class="edge">
<title>Node19&#45;&gt;Node20</title>
<path fill="none" stroke="midnightblue" d="M580.72,-152.68C553.94,-142.26 520.6,-129.28 495.67,-119.58"/>
<polygon fill="midnightblue" stroke="midnightblue" points="579.67,-156.03 590.26,-156.4 582.21,-149.51 579.67,-156.03"/>
</g>
<!-- Node23 -->
<g id="node23" class="node">
<title>Node23</title>
<g id="a_node23"><a xlink:href="repeater_8h_source.html" target="_top" xlink:title=" ">
<polygon fill="none" stroke="black" points="537,-89.5 537,-119.5 662,-119.5 662,-89.5 537,-89.5"/>
<text text-anchor="start" x="545" y="-107.5" font-family="Helvetica,sans-Serif" font-size="10.00">fernotron_trx/repeater</text>
<text text-anchor="middle" x="599.5" y="-96.5" font-family="Helvetica,sans-Serif" font-size="10.00">/repeater.h</text>
</a>
</g>
</g>
<!-- Node19&#45;&gt;Node23 -->
<g id="edge28" class="edge">
<title>Node19&#45;&gt;Node23</title>
<path fill="none" stroke="midnightblue" d="M616.73,-146.99C612.92,-137.8 608.67,-127.58 605.35,-119.58"/>
<polygon fill="midnightblue" stroke="midnightblue" points="613.57,-148.5 620.64,-156.4 620.04,-145.82 613.57,-148.5"/>
</g>
<!-- Node20&#45;&gt;Node12 -->
<g id="edge22" class="edge">
<title>Node20&#45;&gt;Node12</title>
<path fill="none" stroke="midnightblue" d="M528.19,-89.05C528.3,-89.03 528.4,-89.02 528.5,-89 715.61,-61.5 768.81,-98.02 952.5,-53 963.43,-50.32 974.93,-45.96 984.96,-41.59"/>
<polygon fill="midnightblue" stroke="midnightblue" points="527.83,-85.56 518.51,-90.6 528.94,-92.47 527.83,-85.56"/>
</g>
<!-- Node20&#45;&gt;Node15 -->
<g id="edge25" class="edge">
<title>Node20&#45;&gt;Node15</title>
<path fill="none" stroke="midnightblue" d="M477.31,-81.31C487.57,-68.53 500.15,-52.86 509.08,-41.73"/>
<polygon fill="midnightblue" stroke="midnightblue" points="474.5,-79.22 470.97,-89.2 479.96,-83.6 474.5,-79.22"/>
</g>
<!-- Node20&#45;&gt;Node16 -->
<g id="edge26" class="edge">
<title>Node20&#45;&gt;Node16</title>
<path fill="none" stroke="midnightblue" d="M406.65,-86.33C375.92,-76.35 336.65,-63.6 302.53,-52.52"/>
<polygon fill="midnightblue" stroke="midnightblue" points="405.72,-89.71 416.31,-89.47 407.88,-83.05 405.72,-89.71"/>
</g>
<!-- Node20&#45;&gt;Node18 -->
<g id="edge27" class="edge">
<title>Node20&#45;&gt;Node18</title>
<path fill="none" stroke="midnightblue" d="M509.56,-86.21C538.4,-76.24 575.14,-63.55 607.08,-52.52"/>
<polygon fill="midnightblue" stroke="midnightblue" points="508.42,-82.9 500.11,-89.47 510.7,-89.51 508.42,-82.9"/>
</g>
<!-- Node20&#45;&gt;Node21 -->
<g id="edge23" class="edge">
<title>Node20&#45;&gt;Node21</title>
<path fill="none" stroke="midnightblue" d="M390.32,-94.44C309.69,-83.59 181.51,-65.33 134.5,-53 123.04,-49.99 110.82,-45.76 99.96,-41.6"/>
<polygon fill="midnightblue" stroke="midnightblue" points="390.01,-97.93 400.39,-95.79 390.95,-90.99 390.01,-97.93"/>
</g>
<!-- Node22 -->
<g id="node22" class="node">
<title>Node22</title>
<g id="a_node22"><a xlink:href="fer__rawmsg__buffer_8h.html" target="_top" xlink:title="Global static buffers for raw messages.">
<polygon fill="none" stroke="black" points="325.5,-11.5 325.5,-41.5 443.5,-41.5 443.5,-11.5 325.5,-11.5"/>
<text text-anchor="start" x="333.5" y="-29.5" font-family="Helvetica,sans-Serif" font-size="10.00">fernotron_trx/raw/fer</text>
<text text-anchor="middle" x="384.5" y="-18.5" font-family="Helvetica,sans-Serif" font-size="10.00">_rawmsg_buffer.h</text>
</a>
</g>
</g>
<!-- Node20&#45;&gt;Node22 -->
<g id="edge24" class="edge">
<title>Node20&#45;&gt;Node22</title>
<path fill="none" stroke="midnightblue" d="M438.32,-82.03C425.58,-69.13 409.74,-53.07 398.54,-41.73"/>
<polygon fill="midnightblue" stroke="midnightblue" points="435.88,-84.55 445.39,-89.2 440.86,-79.63 435.88,-84.55"/>
</g>
</g>
</svg>
        <g id="navigator" transform="translate(0 0)" fill="#404254">
                <rect fill="#f2f5e9" fill-opacity="0.5" stroke="#606060" stroke-width=".5" x="0" y="0" width="60" height="60"/>
                <use id="zoomplus" xlink:href="#zoomPlus" x="17" y="9" onmousedown="handleZoom(evt,'in')"/>
                <use id="zoomminus" xlink:href="#zoomMin" x="42" y="9" onmousedown="handleZoom(evt,'out')"/>
                <use id="reset" xlink:href="#resetDef" x="30" y="36" onmousedown="handleReset()"/>
                <g id="arrowUp" xlink:href="#dirArrow" transform="translate(30 24)" onmousedown="handlePan(0,-1)">
                  <use xlink:href="#rim" fill="#404040">
                        <set attributeName="fill" to="#808080" begin="arrowUp.mouseover" end="arrowUp.mouseout"/>
                  </use>
                  <path fill="none" stroke="white" stroke-width="1.5" d="M0,-3.0v7 M-2.5,-0.5L0,-3.0L2.5,-0.5"/>
                </g>
                <g id="arrowRight" xlink:href="#dirArrow" transform="rotate(90) translate(36 -43)" onmousedown="handlePan(1,0)">
                  <use xlink:href="#rim" fill="#404040">
                        <set attributeName="fill" to="#808080" begin="arrowRight.mouseover" end="arrowRight.mouseout"/>
                  </use>
                  <path fill="none" stroke="white" stroke-width="1.5" d="M0,-3.0v7 M-2.5,-0.5L0,-3.0L2.5,-0.5"/>
                </g>
                <g id="arrowDown" xlink:href="#dirArrow" transform="rotate(180) translate(-30 -48)" onmousedown="handlePan(0,1)">
                  <use xlink:href="#rim" fill="#404040">
                        <set attributeName="fill" to="#808080" begin="arrowDown.mouseover" end="arrowDown.mouseout"/>
                  </use>
                  <path fill="none" stroke="white" stroke-width="1.5" d="M0,-3.0v7 M-2.5,-0.5L0,-3.0L2.5,-0.5"/>
                </g>
                <g id="arrowLeft" xlink:href="#dirArrow" transform="rotate(270) translate(-36 17)" onmousedown="handlePan(-1,0)">
                  <use xlink:href="#rim" fill="#404040">
                        <set attributeName="fill" to="#808080" begin="arrowLeft.mouseover" end="arrowLeft.mouseout"/>
                  </use>
                  <path fill="none" stroke="white" stroke-width="1.5" d="M0,-3.0v7 M-2.5,-0.5L0,-3.0L2.5,-0.5"/>
                </g>
        </g>
        <svg viewBox="0 0 15 15" width="100%" height="30px" preserveAspectRatio="xMaxYMin meet">
         <g id="arrow_out" transform="scale(0.3 0.3)">
          <a xlink:href="timer__data_8h__dep__incl_org.svg" target="_base">
           <rect id="button" ry="5" rx="5" y="6" x="6" height="38" width="38"
                fill="#f2f5e9" fill-opacity="0.5" stroke="#606060" stroke-width="1.0"/>
           <path id="arrow"
             d="M 11.500037,31.436501 C 11.940474,20.09759 22.043105,11.32322 32.158766,21.979434 L 37.068811,17.246167 C 37.068811,17.246167 37.088388,32 37.088388,32 L 22.160133,31.978069 C 22.160133,31.978069 26.997745,27.140456 26.997745,27.140456 C 18.528582,18.264221 13.291696,25.230495 11.500037,31.436501 z"
             style="fill:#404040;"/>
          </a>
         </g>
        </svg>
</svg>
