<?xml version="1.0" encoding="UTF-8" standalone="no"?>
<!DOCTYPE svg PUBLIC "-//W3C//DTD SVG 1.1//EN"
 "http://www.w3.org/Graphics/SVG/1.1/DTD/svg11.dtd">
<!-- Generated by graphviz version 2.43.0 (0)
 -->
<!-- Title: fernotron Pages: 1 -->
<!--zoomable 159 -->
<svg id="main" version="1.1" xmlns="http://www.w3.org/2000/svg" xmlns:xlink="http://www.w3.org/1999/xlink" xml:space="preserve" onload="init(evt)">
<style type="text/css"><![CDATA[
.edge:hover path { stroke: red; }
.edge:hover polygon { stroke: red; fill: red; }
]]></style>
<script type="text/javascript"><![CDATA[
var edges = document.getElementsByTagName('g');
if (edges && edges.length) {
  for (var i=0;i<edges.length;i++) {
    if (edges[i].id.substr(0,4)=='edge') {
      edges[i].setAttribute('class','edge');
    }
  }
}
]]></script>
        <defs>
                <circle id="rim" cx="0" cy="0" r="7"/>
                <circle id="rim2" cx="0" cy="0" r="3.5"/>
                <g id="zoomPlus">
                        <use xlink:href="#rim" fill="#404040">
                                <set attributeName="fill" to="#808080" begin="zoomplus.mouseover" end="zoomplus.mouseout"/>
                        </use>
                        <path d="M-4,0h8M0,-4v8" fill="none" stroke="white" stroke-width="1.5" pointer-events="none"/>
                </g>
                <g id="zoomMin">
                        <use xlink:href="#rim" fill="#404040">
                                <set attributeName="fill" to="#808080" begin="zoomminus.mouseover" end="zoomminus.mouseout"/>
                        </use>
                        <path d="M-4,0h8" fill="none" stroke="white" stroke-width="1.5" pointer-events="none"/>
                </g>
                <g id="dirArrow">
                        <path fill="none" stroke="white" stroke-width="1.5" d="M0,-3.0v7 M-2.5,-0.5L0,-3.0L2.5,-0.5"/>
                </g>
               <g id="resetDef">
                       <use xlink:href="#rim2" fill="#404040">
                               <set attributeName="fill" to="#808080" begin="reset.mouseover" end="reset.mouseout"/>
                       </use>
               </g>
        </defs>

<script type="text/javascript">
var viewWidth = 626;
var viewHeight = 159;
var sectionId = 'dynsection-0';
</script>
<script xlink:href="svgpan.js"/>
<svg id="graph" class="graph">
<g id="viewport">
<title>fernotron</title>
<g id="clust1" class="cluster">
<title>clusterdir_954084c83f61ce00a4584cbc448b9f0c</title>
<g id="a_clust1"><a xlink:href="dir_954084c83f61ce00a4584cbc448b9f0c.html" target="_top" xlink:title="include">
<polygon fill="#ddddee" stroke="black" points="8,-56 8,-143 610,-143 610,-56 8,-56"/>
<text text-anchor="middle" x="309" y="-131" font-family="Helvetica,sans-Serif" font-size="10.00">include</text>
</a>
</g>
</g>
<g id="clust2" class="cluster">
<title>clusterdir_c40d5b196c0d902992863897498ecf6e</title>
<g id="a_clust2"><a xlink:href="dir_c40d5b196c0d902992863897498ecf6e.html" target="_top">
<polygon fill="#eeeeff" stroke="black" points="16,-64 16,-116 602,-116 602,-64 16,-64"/>
</a>
</g>
</g>
<!-- dir_c40d5b196c0d902992863897498ecf6e -->
<g id="node1" class="node">
<title>dir_c40d5b196c0d902992863897498ecf6e</title>
<text text-anchor="middle" x="563" y="-87.5" font-family="Helvetica,sans-Serif" font-size="10.00">fernotron</text>
</g>
<!-- dir_aa68996419cd825bd4b35b46f002a959 -->
<g id="node2" class="node">
<title>dir_aa68996419cd825bd4b35b46f002a959</title>
<g id="a_node2"><a xlink:href="dir_aa68996419cd825bd4b35b46f002a959.html" target="_top" xlink:title="alias">
<polygon fill="white" stroke="black" points="514,-108 460,-108 460,-72 514,-72 514,-108"/>
<text text-anchor="middle" x="487" y="-87.5" font-family="Helvetica,sans-Serif" font-size="10.00">alias</text>
</a>
</g>
</g>
<!-- dir_897de0dbbe99cc3afc319af006b79c51 -->
<g id="node3" class="node">
<title>dir_897de0dbbe99cc3afc319af006b79c51</title>
<g id="a_node3"><a xlink:href="dir_897de0dbbe99cc3afc319af006b79c51.html" target="_top" xlink:title="auto">
<polygon fill="white" stroke="black" points="442,-108 388,-108 388,-72 442,-72 442,-108"/>
<text text-anchor="middle" x="415" y="-87.5" font-family="Helvetica,sans-Serif" font-size="10.00">auto</text>
</a>
</g>
</g>
<!-- dir_0f0146b2aa637eefeb3648a05cf95f1e -->
<g id="node9" class="node">
<title>dir_0f0146b2aa637eefeb3648a05cf95f1e</title>
<g id="a_node9"><a xlink:href="dir_0f0146b2aa637eefeb3648a05cf95f1e.html" target="_top" xlink:title="fernotron_trx">
<polygon fill="none" stroke="red" points="237,-36 157,-36 157,0 237,0 237,-36"/>
<text text-anchor="middle" x="197" y="-15.5" font-family="Helvetica,sans-Serif" font-size="10.00">fernotron_trx</text>
</a>
</g>
</g>
<!-- dir_897de0dbbe99cc3afc319af006b79c51&#45;&gt;dir_0f0146b2aa637eefeb3648a05cf95f1e -->
<g id="edge4" class="edge">
<title>dir_897de0dbbe99cc3afc319af006b79c51&#45;&gt;dir_0f0146b2aa637eefeb3648a05cf95f1e</title>
<path fill="none" stroke="black" d="M399.96,-71.8C393.99,-65.96 386.71,-59.93 379,-56 337.64,-34.93 285.24,-25.85 247.3,-21.95"/>
<polygon fill="black" stroke="black" points="247.29,-18.43 237,-20.98 246.63,-25.4 247.29,-18.43"/>
<g id="a_edge4&#45;headlabel"><a xlink:href="dir_000009_000001.html" target="_top" xlink:title="2">
<text text-anchor="middle" x="251.13" y="-13.44" font-family="Helvetica,sans-Serif" font-size="10.00">2</text>
</a>
</g>
</g>
<!-- dir_92e30f7384efabc25dbd6b9069a68cbf -->
<g id="node4" class="node">
<title>dir_92e30f7384efabc25dbd6b9069a68cbf</title>
<g id="a_node4"><a xlink:href="dir_92e30f7384efabc25dbd6b9069a68cbf.html" target="_top" xlink:title="cuas">
<polygon fill="white" stroke="black" points="370,-108 316,-108 316,-72 370,-72 370,-108"/>
<text text-anchor="middle" x="343" y="-87.5" font-family="Helvetica,sans-Serif" font-size="10.00">cuas</text>
</a>
</g>
</g>
<!-- dir_9b21a5e0f222ab9d3d175fae7ea42115 -->
<g id="node5" class="node">
<title>dir_9b21a5e0f222ab9d3d175fae7ea42115</title>
<g id="a_node5"><a xlink:href="dir_9b21a5e0f222ab9d3d175fae7ea42115.html" target="_top" xlink:title="pos">
<polygon fill="white" stroke="black" points="298,-108 244,-108 244,-72 298,-72 298,-108"/>
<text text-anchor="middle" x="271" y="-87.5" font-family="Helvetica,sans-Serif" font-size="10.00">pos</text>
</a>
</g>
</g>
<!-- dir_9b21a5e0f222ab9d3d175fae7ea42115&#45;&gt;dir_0f0146b2aa637eefeb3648a05cf95f1e -->
<g id="edge2" class="edge">
<title>dir_9b21a5e0f222ab9d3d175fae7ea42115&#45;&gt;dir_0f0146b2aa637eefeb3648a05cf95f1e</title>
<path fill="none" stroke="black" d="M252.71,-71.7C243.57,-63.05 232.36,-52.45 222.4,-43.03"/>
<polygon fill="black" stroke="black" points="224.75,-40.43 215.08,-36.1 219.94,-45.52 224.75,-40.43"/>
<g id="a_edge2&#45;headlabel"><a xlink:href="dir_000007_000001.html" target="_top" xlink:title="2">
<text text-anchor="middle" x="229.31" y="-38.34" font-family="Helvetica,sans-Serif" font-size="10.00">2</text>
</a>
</g>
</g>
<!-- dir_a1af9456d8ab16f83daf738657be1cb6 -->
<g id="node6" class="node">
<title>dir_a1af9456d8ab16f83daf738657be1cb6</title>
<g id="a_node6"><a xlink:href="dir_a1af9456d8ab16f83daf738657be1cb6.html" target="_top" xlink:title="repeater">
<polygon fill="white" stroke="black" points="226,-108 168,-108 168,-72 226,-72 226,-108"/>
<text text-anchor="middle" x="197" y="-87.5" font-family="Helvetica,sans-Serif" font-size="10.00">repeater</text>
</a>
</g>
</g>
<!-- dir_a1af9456d8ab16f83daf738657be1cb6&#45;&gt;dir_0f0146b2aa637eefeb3648a05cf95f1e -->
<g id="edge5" class="edge">
<title>dir_a1af9456d8ab16f83daf738657be1cb6&#45;&gt;dir_0f0146b2aa637eefeb3648a05cf95f1e</title>
<path fill="none" stroke="black" d="M197,-71.7C197,-63.98 197,-54.71 197,-46.11"/>
<polygon fill="black" stroke="black" points="200.5,-46.1 197,-36.1 193.5,-46.1 200.5,-46.1"/>
<g id="a_edge5&#45;headlabel"><a xlink:href="dir_000021_000001.html" target="_top" xlink:title="1">
<text text-anchor="middle" x="203.34" y="-47.2" font-family="Helvetica,sans-Serif" font-size="10.00">1</text>
</a>
</g>
</g>
<!-- dir_97bba2bd45547a79b3cb306ea76e7ff4 -->
<g id="node7" class="node">
<title>dir_97bba2bd45547a79b3cb306ea76e7ff4</title>
<g id="a_node7"><a xlink:href="dir_97bba2bd45547a79b3cb306ea76e7ff4.html" target="_top" xlink:title="sep">
<polygon fill="white" stroke="black" points="150,-108 96,-108 96,-72 150,-72 150,-108"/>
<text text-anchor="middle" x="123" y="-87.5" font-family="Helvetica,sans-Serif" font-size="10.00">sep</text>
</a>
</g>
</g>
<!-- dir_97bba2bd45547a79b3cb306ea76e7ff4&#45;&gt;dir_0f0146b2aa637eefeb3648a05cf95f1e -->
<g id="edge1" class="edge">
<title>dir_97bba2bd45547a79b3cb306ea76e7ff4&#45;&gt;dir_0f0146b2aa637eefeb3648a05cf95f1e</title>
<path fill="none" stroke="black" d="M141.29,-71.7C150.43,-63.05 161.64,-52.45 171.6,-43.03"/>
<polygon fill="black" stroke="black" points="174.06,-45.52 178.92,-36.1 169.25,-40.43 174.06,-45.52"/>
<g id="a_edge1&#45;headlabel"><a xlink:href="dir_000022_000001.html" target="_top" xlink:title="1">
<text text-anchor="middle" x="173.4" y="-47.55" font-family="Helvetica,sans-Serif" font-size="10.00">1</text>
</a>
</g>
</g>
<!-- dir_41e89c2eb6e8ad15ebbff5493e5408fc -->
<g id="node8" class="node">
<title>dir_41e89c2eb6e8ad15ebbff5493e5408fc</title>
<g id="a_node8"><a xlink:href="dir_41e89c2eb6e8ad15ebbff5493e5408fc.html" target="_top" xlink:title="txtio">
<polygon fill="white" stroke="black" points="78,-108 24,-108 24,-72 78,-72 78,-108"/>
<text text-anchor="middle" x="51" y="-87.5" font-family="Helvetica,sans-Serif" font-size="10.00">txtio</text>
</a>
</g>
</g>
<!-- dir_41e89c2eb6e8ad15ebbff5493e5408fc&#45;&gt;dir_0f0146b2aa637eefeb3648a05cf95f1e -->
<g id="edge3" class="edge">
<title>dir_41e89c2eb6e8ad15ebbff5493e5408fc&#45;&gt;dir_0f0146b2aa637eefeb3648a05cf95f1e</title>
<path fill="none" stroke="black" d="M66.68,-71.97C72.61,-66.29 79.7,-60.31 87,-56 105.48,-45.09 127.62,-36.86 147.18,-30.96"/>
<polygon fill="black" stroke="black" points="148.21,-34.3 156.84,-28.17 146.27,-27.58 148.21,-34.3"/>
<g id="a_edge3&#45;headlabel"><a xlink:href="dir_000011_000001.html" target="_top" xlink:title="2">
<text text-anchor="middle" x="145.54" y="-35.53" font-family="Helvetica,sans-Serif" font-size="10.00">2</text>
</a>
</g>
</g>
</g>
</svg>
        <g id="navigator" transform="translate(0 0)" fill="#404254">
                <rect fill="#f2f5e9" fill-opacity="0.5" stroke="#606060" stroke-width=".5" x="0" y="0" width="60" height="60"/>
                <use id="zoomplus" xlink:href="#zoomPlus" x="17" y="9" onmousedown="handleZoom(evt,'in')"/>
                <use id="zoomminus" xlink:href="#zoomMin" x="42" y="9" onmousedown="handleZoom(evt,'out')"/>
                <use id="reset" xlink:href="#resetDef" x="30" y="36" onmousedown="handleReset()"/>
                <g id="arrowUp" xlink:href="#dirArrow" transform="translate(30 24)" onmousedown="handlePan(0,-1)">
                  <use xlink:href="#rim" fill="#404040">
                        <set attributeName="fill" to="#808080" begin="arrowUp.mouseover" end="arrowUp.mouseout"/>
                  </use>
                  <path fill="none" stroke="white" stroke-width="1.5" d="M0,-3.0v7 M-2.5,-0.5L0,-3.0L2.5,-0.5"/>
                </g>
                <g id="arrowRight" xlink:href="#dirArrow" transform="rotate(90) translate(36 -43)" onmousedown="handlePan(1,0)">
                  <use xlink:href="#rim" fill="#404040">
                        <set attributeName="fill" to="#808080" begin="arrowRight.mouseover" end="arrowRight.mouseout"/>
                  </use>
                  <path fill="none" stroke="white" stroke-width="1.5" d="M0,-3.0v7 M-2.5,-0.5L0,-3.0L2.5,-0.5"/>
                </g>
                <g id="arrowDown" xlink:href="#dirArrow" transform="rotate(180) translate(-30 -48)" onmousedown="handlePan(0,1)">
                  <use xlink:href="#rim" fill="#404040">
                        <set attributeName="fill" to="#808080" begin="arrowDown.mouseover" end="arrowDown.mouseout"/>
                  </use>
                  <path fill="none" stroke="white" stroke-width="1.5" d="M0,-3.0v7 M-2.5,-0.5L0,-3.0L2.5,-0.5"/>
                </g>
                <g id="arrowLeft" xlink:href="#dirArrow" transform="rotate(270) translate(-36 17)" onmousedown="handlePan(-1,0)">
                  <use xlink:href="#rim" fill="#404040">
                        <set attributeName="fill" to="#808080" begin="arrowLeft.mouseover" end="arrowLeft.mouseout"/>
                  </use>
                  <path fill="none" stroke="white" stroke-width="1.5" d="M0,-3.0v7 M-2.5,-0.5L0,-3.0L2.5,-0.5"/>
                </g>
        </g>
        <svg viewBox="0 0 15 15" width="100%" height="30px" preserveAspectRatio="xMaxYMin meet">
         <g id="arrow_out" transform="scale(0.3 0.3)">
          <a xlink:href="dir_c40d5b196c0d902992863897498ecf6e_dep_org.svg" target="_base">
           <rect id="button" ry="5" rx="5" y="6" x="6" height="38" width="38"
                fill="#f2f5e9" fill-opacity="0.5" stroke="#606060" stroke-width="1.0"/>
           <path id="arrow"
             d="M 11.500037,31.436501 C 11.940474,20.09759 22.043105,11.32322 32.158766,21.979434 L 37.068811,17.246167 C 37.068811,17.246167 37.088388,32 37.088388,32 L 22.160133,31.978069 C 22.160133,31.978069 26.997745,27.140456 26.997745,27.140456 C 18.528582,18.264221 13.291696,25.230495 11.500037,31.436501 z"
             style="fill:#404040;"/>
          </a>
         </g>
        </svg>
</svg>
