<?xml version="1.0" encoding="UTF-8" standalone="no"?>
<!DOCTYPE svg PUBLIC "-//W3C//DTD SVG 1.1//EN"
 "http://www.w3.org/Graphics/SVG/1.1/DTD/svg11.dtd">
<!-- Generated by graphviz version 2.43.0 (0)
 -->
<!-- Title: fernotron_app/include/fernotron Pages: 1 -->
<svg width="626pt" height="159pt"
 viewBox="0.00 0.00 626.00 159.00" xmlns="http://www.w3.org/2000/svg" xmlns:xlink="http://www.w3.org/1999/xlink">
<g id="graph0" class="graph" transform="scale(1 1) rotate(0) translate(4 155)">
<title>fernotron_app/include/fernotron</title>
<g id="clust1" class="cluster">
<title>clusterdir_90dcbcf4b3630d3bdf7ada2038810ef8</title>
<g id="a_clust1"><a xlink:href="dir_90dcbcf4b3630d3bdf7ada2038810ef8.html" target="_top" xlink:title="include">
<polygon fill="#ddddee" stroke="black" points="8,-56 8,-143 610,-143 610,-56 8,-56"/>
<text text-anchor="middle" x="309" y="-131" font-family="Helvetica,sans-Serif" font-size="10.00">include</text>
</a>
</g>
</g>
<g id="clust2" class="cluster">
<title>clusterdir_fc9b7e6f56cf85e0307f78cd124bf25c</title>
<g id="a_clust2"><a xlink:href="dir_fc9b7e6f56cf85e0307f78cd124bf25c.html" target="_top">
<polygon fill="#eeeeff" stroke="black" points="16,-64 16,-116 602,-116 602,-64 16,-64"/>
</a>
</g>
</g>
<!-- dir_fc9b7e6f56cf85e0307f78cd124bf25c -->
<g id="node1" class="node">
<title>dir_fc9b7e6f56cf85e0307f78cd124bf25c</title>
<text text-anchor="middle" x="563" y="-87.5" font-family="Helvetica,sans-Serif" font-size="10.00">fernotron</text>
</g>
<!-- dir_277b83383fc59a89deb60d2012c62c77 -->
<g id="node2" class="node">
<title>dir_277b83383fc59a89deb60d2012c62c77</title>
<g id="a_node2"><a xlink:href="dir_277b83383fc59a89deb60d2012c62c77.html" target="_top" xlink:title="alias">
<polygon fill="white" stroke="black" points="514,-108 460,-108 460,-72 514,-72 514,-108"/>
<text text-anchor="middle" x="487" y="-87.5" font-family="Helvetica,sans-Serif" font-size="10.00">alias</text>
</a>
</g>
</g>
<!-- dir_81d9fc5001093dc1e3da8a60288665a8 -->
<g id="node3" class="node">
<title>dir_81d9fc5001093dc1e3da8a60288665a8</title>
<g id="a_node3"><a xlink:href="dir_81d9fc5001093dc1e3da8a60288665a8.html" target="_top" xlink:title="auto">
<polygon fill="white" stroke="black" points="442,-108 388,-108 388,-72 442,-72 442,-108"/>
<text text-anchor="middle" x="415" y="-87.5" font-family="Helvetica,sans-Serif" font-size="10.00">auto</text>
</a>
</g>
</g>
<!-- dir_19c46a59b9d461724b1e6a373b3f8aa6 -->
<g id="node9" class="node">
<title>dir_19c46a59b9d461724b1e6a373b3f8aa6</title>
<g id="a_node9"><a xlink:href="dir_19c46a59b9d461724b1e6a373b3f8aa6.html" target="_top" xlink:title="fernotron_trx">
<polygon fill="none" stroke="red" points="237,-36 157,-36 157,0 237,0 237,-36"/>
<text text-anchor="middle" x="197" y="-15.5" font-family="Helvetica,sans-Serif" font-size="10.00">fernotron_trx</text>
</a>
</g>
</g>
<!-- dir_81d9fc5001093dc1e3da8a60288665a8&#45;&gt;dir_19c46a59b9d461724b1e6a373b3f8aa6 -->
<g id="edge3" class="edge">
<title>dir_81d9fc5001093dc1e3da8a60288665a8&#45;&gt;dir_19c46a59b9d461724b1e6a373b3f8aa6</title>
<path fill="none" stroke="black" d="M399.96,-71.8C393.99,-65.96 386.71,-59.93 379,-56 337.64,-34.93 285.24,-25.85 247.3,-21.95"/>
<polygon fill="black" stroke="black" points="247.29,-18.43 237,-20.98 246.63,-25.4 247.29,-18.43"/>
<g id="a_edge3&#45;headlabel"><a xlink:href="dir_000004_000010.html" target="_top" xlink:title="2">
<text text-anchor="middle" x="251.13" y="-13.44" font-family="Helvetica,sans-Serif" font-size="10.00">2</text>
</a>
</g>
</g>
<!-- dir_663129a2af50b25be863fe483831a288 -->
<g id="node4" class="node">
<title>dir_663129a2af50b25be863fe483831a288</title>
<g id="a_node4"><a xlink:href="dir_663129a2af50b25be863fe483831a288.html" target="_top" xlink:title="cuas">
<polygon fill="white" stroke="black" points="370,-108 316,-108 316,-72 370,-72 370,-108"/>
<text text-anchor="middle" x="343" y="-87.5" font-family="Helvetica,sans-Serif" font-size="10.00">cuas</text>
</a>
</g>
</g>
<!-- dir_d46cbdd3280b200cd090d2d56c2cc281 -->
<g id="node5" class="node">
<title>dir_d46cbdd3280b200cd090d2d56c2cc281</title>
<g id="a_node5"><a xlink:href="dir_d46cbdd3280b200cd090d2d56c2cc281.html" target="_top" xlink:title="pos">
<polygon fill="white" stroke="black" points="298,-108 244,-108 244,-72 298,-72 298,-108"/>
<text text-anchor="middle" x="271" y="-87.5" font-family="Helvetica,sans-Serif" font-size="10.00">pos</text>
</a>
</g>
</g>
<!-- dir_d46cbdd3280b200cd090d2d56c2cc281&#45;&gt;dir_19c46a59b9d461724b1e6a373b3f8aa6 -->
<g id="edge2" class="edge">
<title>dir_d46cbdd3280b200cd090d2d56c2cc281&#45;&gt;dir_19c46a59b9d461724b1e6a373b3f8aa6</title>
<path fill="none" stroke="black" d="M252.71,-71.7C243.57,-63.05 232.36,-52.45 222.4,-43.03"/>
<polygon fill="black" stroke="black" points="224.75,-40.43 215.08,-36.1 219.94,-45.52 224.75,-40.43"/>
<g id="a_edge2&#45;headlabel"><a xlink:href="dir_000006_000010.html" target="_top" xlink:title="2">
<text text-anchor="middle" x="229.31" y="-38.34" font-family="Helvetica,sans-Serif" font-size="10.00">2</text>
</a>
</g>
</g>
<!-- dir_689e505ce86c3b69d966e66baa38d4bb -->
<g id="node6" class="node">
<title>dir_689e505ce86c3b69d966e66baa38d4bb</title>
<g id="a_node6"><a xlink:href="dir_689e505ce86c3b69d966e66baa38d4bb.html" target="_top" xlink:title="repeater">
<polygon fill="white" stroke="black" points="226,-108 168,-108 168,-72 226,-72 226,-108"/>
<text text-anchor="middle" x="197" y="-87.5" font-family="Helvetica,sans-Serif" font-size="10.00">repeater</text>
</a>
</g>
</g>
<!-- dir_689e505ce86c3b69d966e66baa38d4bb&#45;&gt;dir_19c46a59b9d461724b1e6a373b3f8aa6 -->
<g id="edge1" class="edge">
<title>dir_689e505ce86c3b69d966e66baa38d4bb&#45;&gt;dir_19c46a59b9d461724b1e6a373b3f8aa6</title>
<path fill="none" stroke="black" d="M197,-71.7C197,-63.98 197,-54.71 197,-46.11"/>
<polygon fill="black" stroke="black" points="200.5,-46.1 197,-36.1 193.5,-46.1 200.5,-46.1"/>
<g id="a_edge1&#45;headlabel"><a xlink:href="dir_000007_000010.html" target="_top" xlink:title="1">
<text text-anchor="middle" x="203.34" y="-47.2" font-family="Helvetica,sans-Serif" font-size="10.00">1</text>
</a>
</g>
</g>
<!-- dir_c41bbe23a17c33c2ddbdb864c2b96590 -->
<g id="node7" class="node">
<title>dir_c41bbe23a17c33c2ddbdb864c2b96590</title>
<g id="a_node7"><a xlink:href="dir_c41bbe23a17c33c2ddbdb864c2b96590.html" target="_top" xlink:title="sep">
<polygon fill="white" stroke="black" points="150,-108 96,-108 96,-72 150,-72 150,-108"/>
<text text-anchor="middle" x="123" y="-87.5" font-family="Helvetica,sans-Serif" font-size="10.00">sep</text>
</a>
</g>
</g>
<!-- dir_c41bbe23a17c33c2ddbdb864c2b96590&#45;&gt;dir_19c46a59b9d461724b1e6a373b3f8aa6 -->
<g id="edge4" class="edge">
<title>dir_c41bbe23a17c33c2ddbdb864c2b96590&#45;&gt;dir_19c46a59b9d461724b1e6a373b3f8aa6</title>
<path fill="none" stroke="black" d="M141.29,-71.7C150.43,-63.05 161.64,-52.45 171.6,-43.03"/>
<polygon fill="black" stroke="black" points="174.06,-45.52 178.92,-36.1 169.25,-40.43 174.06,-45.52"/>
<g id="a_edge4&#45;headlabel"><a xlink:href="dir_000008_000010.html" target="_top" xlink:title="1">
<text text-anchor="middle" x="173.4" y="-47.55" font-family="Helvetica,sans-Serif" font-size="10.00">1</text>
</a>
</g>
</g>
<!-- dir_151cb4c7204e45842f6f3ee963856392 -->
<g id="node8" class="node">
<title>dir_151cb4c7204e45842f6f3ee963856392</title>
<g id="a_node8"><a xlink:href="dir_151cb4c7204e45842f6f3ee963856392.html" target="_top" xlink:title="txtio">
<polygon fill="white" stroke="black" points="78,-108 24,-108 24,-72 78,-72 78,-108"/>
<text text-anchor="middle" x="51" y="-87.5" font-family="Helvetica,sans-Serif" font-size="10.00">txtio</text>
</a>
</g>
</g>
<!-- dir_151cb4c7204e45842f6f3ee963856392&#45;&gt;dir_19c46a59b9d461724b1e6a373b3f8aa6 -->
<g id="edge5" class="edge">
<title>dir_151cb4c7204e45842f6f3ee963856392&#45;&gt;dir_19c46a59b9d461724b1e6a373b3f8aa6</title>
<path fill="none" stroke="black" d="M66.68,-71.97C72.61,-66.29 79.7,-60.31 87,-56 105.48,-45.09 127.62,-36.86 147.18,-30.96"/>
<polygon fill="black" stroke="black" points="148.21,-34.3 156.84,-28.17 146.27,-27.58 148.21,-34.3"/>
<g id="a_edge5&#45;headlabel"><a xlink:href="dir_000009_000010.html" target="_top" xlink:title="2">
<text text-anchor="middle" x="145.54" y="-35.53" font-family="Helvetica,sans-Serif" font-size="10.00">2</text>
</a>
</g>
</g>
</g>
</svg>
