<?xml version="1.0" encoding="UTF-8" standalone="no"?>
<!DOCTYPE svg PUBLIC "-//W3C//DTD SVG 1.1//EN"
 "http://www.w3.org/Graphics/SVG/1.1/DTD/svg11.dtd">
<!-- Generated by graphviz version 2.43.0 (0)
 -->
<!-- Title: fau_tminutes.h Pages: 1 -->
<svg width="718pt" height="162pt"
 viewBox="0.00 0.00 718.00 162.00" xmlns="http://www.w3.org/2000/svg" xmlns:xlink="http://www.w3.org/1999/xlink">
<g id="graph0" class="graph" transform="scale(1 1) rotate(0) translate(4 158)">
<title>fau_tminutes.h</title>
<!-- Node1 -->
<g id="node1" class="node">
<title>Node1</title>
<g id="a_node1"><a xlink:title="Represent when each kind of timer will be scheduled for a given day and g/m. Calculate the next event...">
<polygon fill="#bfbfbf" stroke="black" points="232,-134.5 232,-153.5 322,-153.5 322,-134.5 232,-134.5"/>
<text text-anchor="middle" x="277" y="-141.5" font-family="Helvetica,sans-Serif" font-size="10.00">fau_tminutes.h</text>
</a>
</g>
</g>
<!-- Node2 -->
<g id="node2" class="node">
<title>Node2</title>
<g id="a_node2"><a xlink:href="fer__pct_8h.html" target="_top" xlink:title="class Pct to represent shutter opening percentage">
<polygon fill="none" stroke="black" points="103.5,-73 103.5,-92 210.5,-92 210.5,-73 103.5,-73"/>
<text text-anchor="middle" x="157" y="-80" font-family="Helvetica,sans-Serif" font-size="10.00">fernotron/fer_pct.h</text>
</a>
</g>
</g>
<!-- Node1&#45;&gt;Node2 -->
<g id="edge1" class="edge">
<title>Node1&#45;&gt;Node2</title>
<path fill="none" stroke="midnightblue" d="M259.81,-134.48C239.76,-124.53 206.4,-107.99 183.14,-96.46"/>
<polygon fill="midnightblue" stroke="midnightblue" points="184.68,-93.32 174.16,-92.01 181.57,-99.59 184.68,-93.32"/>
</g>
<!-- Node3 -->
<g id="node3" class="node">
<title>Node3</title>
<g id="a_node3"><a xlink:title=" ">
<polygon fill="none" stroke="#bfbfbf" points="150.5,-6 150.5,-25 203.5,-25 203.5,-6 150.5,-6"/>
<text text-anchor="middle" x="177" y="-13" font-family="Helvetica,sans-Serif" font-size="10.00">stdint.h</text>
</a>
</g>
</g>
<!-- Node1&#45;&gt;Node3 -->
<g id="edge13" class="edge">
<title>Node1&#45;&gt;Node3</title>
<path fill="none" stroke="midnightblue" d="M270.68,-134.48C260.14,-120.32 238.24,-91.14 219,-67 209.88,-55.55 199.34,-42.88 191.1,-33.1"/>
<polygon fill="midnightblue" stroke="midnightblue" points="193.68,-30.72 184.55,-25.35 188.33,-35.24 193.68,-30.72"/>
</g>
<!-- Node4 -->
<g id="node4" class="node">
<title>Node4</title>
<g id="a_node4"><a xlink:title=" ">
<polygon fill="none" stroke="#bfbfbf" points="222,-6 222,-25 284,-25 284,-6 222,-6"/>
<text text-anchor="middle" x="253" y="-13" font-family="Helvetica,sans-Serif" font-size="10.00">stdbool.h</text>
</a>
</g>
</g>
<!-- Node1&#45;&gt;Node4 -->
<g id="edge14" class="edge">
<title>Node1&#45;&gt;Node4</title>
<path fill="none" stroke="midnightblue" d="M275.35,-134.31C271.5,-113.99 261.83,-63.05 256.56,-35.28"/>
<polygon fill="midnightblue" stroke="midnightblue" points="259.96,-34.43 254.66,-25.26 253.09,-35.73 259.96,-34.43"/>
</g>
<!-- Node6 -->
<g id="node6" class="node">
<title>Node6</title>
<g id="a_node6"><a xlink:href="timer__data_8h.html" target="_top" xlink:title="vocabulary types to program Fernotron automatic (timers)">
<polygon fill="none" stroke="black" points="305,-67.5 305,-97.5 415,-97.5 415,-67.5 305,-67.5"/>
<text text-anchor="start" x="313" y="-85.5" font-family="Helvetica,sans-Serif" font-size="10.00">fernotron_trx/timer</text>
<text text-anchor="middle" x="360" y="-74.5" font-family="Helvetica,sans-Serif" font-size="10.00">_data.h</text>
</a>
</g>
</g>
<!-- Node1&#45;&gt;Node6 -->
<g id="edge5" class="edge">
<title>Node1&#45;&gt;Node6</title>
<path fill="none" stroke="midnightblue" d="M288.89,-134.48C300.13,-126.42 317.42,-114.02 332.14,-103.47"/>
<polygon fill="midnightblue" stroke="midnightblue" points="334.35,-106.19 340.44,-97.52 330.27,-100.5 334.35,-106.19"/>
</g>
<!-- Node12 -->
<g id="node12" class="node">
<title>Node12</title>
<g id="a_node12"><a xlink:title=" ">
<polygon fill="none" stroke="#bfbfbf" points="433,-73 433,-92 481,-92 481,-73 433,-73"/>
<text text-anchor="middle" x="457" y="-80" font-family="Helvetica,sans-Serif" font-size="10.00">time.h</text>
</a>
</g>
</g>
<!-- Node1&#45;&gt;Node12 -->
<g id="edge15" class="edge">
<title>Node1&#45;&gt;Node12</title>
<path fill="none" stroke="midnightblue" d="M308.61,-134.48C338.62,-126.12 384.84,-112.54 424,-98 425.65,-97.39 427.34,-96.73 429.04,-96.05"/>
<polygon fill="midnightblue" stroke="midnightblue" points="430.79,-99.11 438.66,-92.01 428.08,-92.66 430.79,-99.11"/>
</g>
<!-- Node2&#45;&gt;Node3 -->
<g id="edge2" class="edge">
<title>Node2&#45;&gt;Node3</title>
<path fill="none" stroke="midnightblue" d="M159.7,-72.73C162.67,-63.09 167.52,-47.3 171.34,-34.91"/>
<polygon fill="midnightblue" stroke="midnightblue" points="174.75,-35.71 174.35,-25.13 168.06,-33.66 174.75,-35.71"/>
</g>
<!-- Node2&#45;&gt;Node4 -->
<g id="edge3" class="edge">
<title>Node2&#45;&gt;Node4</title>
<path fill="none" stroke="midnightblue" d="M169.95,-72.73C185.85,-61.96 213.05,-43.55 231.97,-30.74"/>
<polygon fill="midnightblue" stroke="midnightblue" points="233.94,-33.63 240.26,-25.13 230.02,-27.84 233.94,-33.63"/>
</g>
<!-- Node5 -->
<g id="node5" class="node">
<title>Node5</title>
<g id="a_node5"><a xlink:title=" ">
<polygon fill="none" stroke="#bfbfbf" points="0,-6 0,-25 132,-25 132,-6 0,-6"/>
<text text-anchor="middle" x="66" y="-13" font-family="Helvetica,sans-Serif" font-size="10.00">utils_misc/int_macros.h</text>
</a>
</g>
</g>
<!-- Node2&#45;&gt;Node5 -->
<g id="edge4" class="edge">
<title>Node2&#45;&gt;Node5</title>
<path fill="none" stroke="midnightblue" d="M144.73,-72.73C129.85,-62.11 104.57,-44.05 86.67,-31.26"/>
<polygon fill="midnightblue" stroke="midnightblue" points="88.25,-28.09 78.08,-25.13 84.18,-33.79 88.25,-28.09"/>
</g>
<!-- Node6&#45;&gt;Node3 -->
<g id="edge6" class="edge">
<title>Node6&#45;&gt;Node3</title>
<path fill="none" stroke="midnightblue" d="M317.34,-67.5C287.88,-57.67 247.89,-44.01 213,-31 211.15,-30.31 209.26,-29.59 207.35,-28.85"/>
<polygon fill="midnightblue" stroke="midnightblue" points="208.46,-25.53 197.87,-25.12 205.89,-32.04 208.46,-25.53"/>
</g>
<!-- Node6&#45;&gt;Node4 -->
<g id="edge7" class="edge">
<title>Node6&#45;&gt;Node4</title>
<path fill="none" stroke="midnightblue" d="M336.78,-67.4C318.67,-56.39 293.66,-41.2 275.69,-30.28"/>
<polygon fill="midnightblue" stroke="midnightblue" points="277.37,-27.21 267,-25.01 273.73,-33.19 277.37,-27.21"/>
</g>
<!-- Node7 -->
<g id="node7" class="node">
<title>Node7</title>
<g id="a_node7"><a xlink:title=" ">
<polygon fill="none" stroke="#bfbfbf" points="397.5,-6 397.5,-25 450.5,-25 450.5,-6 397.5,-6"/>
<text text-anchor="middle" x="424" y="-13" font-family="Helvetica,sans-Serif" font-size="10.00">string.h</text>
</a>
</g>
</g>
<!-- Node6&#45;&gt;Node7 -->
<g id="edge8" class="edge">
<title>Node6&#45;&gt;Node7</title>
<path fill="none" stroke="midnightblue" d="M373.89,-67.4C383.96,-57.16 397.62,-43.3 408.13,-32.62"/>
<polygon fill="midnightblue" stroke="midnightblue" points="410.92,-34.78 415.44,-25.19 405.93,-29.86 410.92,-34.78"/>
</g>
<!-- Node8 -->
<g id="node8" class="node">
<title>Node8</title>
<g id="a_node8"><a xlink:title=" ">
<polygon fill="none" stroke="#bfbfbf" points="468.5,-6 468.5,-25 521.5,-25 521.5,-6 468.5,-6"/>
<text text-anchor="middle" x="495" y="-13" font-family="Helvetica,sans-Serif" font-size="10.00">ctype.h</text>
</a>
</g>
</g>
<!-- Node6&#45;&gt;Node8 -->
<g id="edge9" class="edge">
<title>Node6&#45;&gt;Node8</title>
<path fill="none" stroke="midnightblue" d="M389.29,-67.4C412.77,-56.09 445.44,-40.36 468.23,-29.39"/>
<polygon fill="midnightblue" stroke="midnightblue" points="469.84,-32.5 477.33,-25.01 466.8,-26.19 469.84,-32.5"/>
</g>
<!-- Node9 -->
<g id="node9" class="node">
<title>Node9</title>
<g id="a_node9"><a xlink:title=" ">
<polygon fill="none" stroke="#bfbfbf" points="540,-6 540,-25 590,-25 590,-6 540,-6"/>
<text text-anchor="middle" x="565" y="-13" font-family="Helvetica,sans-Serif" font-size="10.00">stdio.h</text>
</a>
</g>
</g>
<!-- Node6&#45;&gt;Node9 -->
<g id="edge10" class="edge">
<title>Node6&#45;&gt;Node9</title>
<path fill="none" stroke="midnightblue" d="M413.28,-67.48C447.28,-58.11 492.11,-44.98 531,-31 532.86,-30.33 534.76,-29.62 536.67,-28.87"/>
<polygon fill="midnightblue" stroke="midnightblue" points="538.16,-32.04 546.09,-25.02 535.51,-25.56 538.16,-32.04"/>
</g>
<!-- Node10 -->
<g id="node10" class="node">
<title>Node10</title>
<g id="a_node10"><a xlink:title=" ">
<polygon fill="none" stroke="#bfbfbf" points="608,-0.5 608,-30.5 710,-30.5 710,-0.5 608,-0.5"/>
<text text-anchor="start" x="616" y="-18.5" font-family="Helvetica,sans-Serif" font-size="10.00">utils_misc/cstring</text>
<text text-anchor="middle" x="659" y="-7.5" font-family="Helvetica,sans-Serif" font-size="10.00">_utils.hh</text>
</a>
</g>
</g>
<!-- Node6&#45;&gt;Node10 -->
<g id="edge11" class="edge">
<title>Node6&#45;&gt;Node10</title>
<path fill="none" stroke="midnightblue" d="M415.14,-68.93C418.14,-68.27 421.1,-67.63 424,-67 498.58,-50.88 519.87,-48.5 598.13,-31.15"/>
<polygon fill="midnightblue" stroke="midnightblue" points="598.97,-34.55 607.96,-28.96 597.44,-27.72 598.97,-34.55"/>
</g>
<!-- Node11 -->
<g id="node11" class="node">
<title>Node11</title>
<g id="a_node11"><a xlink:title=" ">
<polygon fill="none" stroke="#bfbfbf" points="302.5,-6 302.5,-25 379.5,-25 379.5,-6 302.5,-6"/>
<text text-anchor="middle" x="341" y="-13" font-family="Helvetica,sans-Serif" font-size="10.00">debug/dbg.h</text>
</a>
</g>
</g>
<!-- Node6&#45;&gt;Node11 -->
<g id="edge12" class="edge">
<title>Node6&#45;&gt;Node11</title>
<path fill="none" stroke="midnightblue" d="M355.88,-67.4C353.09,-57.86 349.38,-45.18 346.37,-34.86"/>
<polygon fill="midnightblue" stroke="midnightblue" points="349.71,-33.81 343.54,-25.19 342.99,-35.77 349.71,-33.81"/>
</g>
</g>
</svg>
