<?xml version="1.0" encoding="UTF-8" standalone="no"?>
<!DOCTYPE svg PUBLIC "-//W3C//DTD SVG 1.1//EN"
 "http://www.w3.org/Graphics/SVG/1.1/DTD/svg11.dtd">
<!-- Generated by graphviz version 2.43.0 (0)
 -->
<!-- Title: fernotron_trx/include/fernotron_trx/raw/fer_msg_tx.h Pages: 1 -->
<!--zoomable 374 -->
<svg id="main" version="1.1" xmlns="http://www.w3.org/2000/svg" xmlns:xlink="http://www.w3.org/1999/xlink" xml:space="preserve" onload="init(evt)">
<style type="text/css"><![CDATA[
.edge:hover path { stroke: red; }
.edge:hover polygon { stroke: red; fill: red; }
]]></style>
<script type="text/javascript"><![CDATA[
var edges = document.getElementsByTagName('g');
if (edges && edges.length) {
  for (var i=0;i<edges.length;i++) {
    if (edges[i].id.substr(0,4)=='edge') {
      edges[i].setAttribute('class','edge');
    }
  }
}
]]></script>
        <defs>
                <circle id="rim" cx="0" cy="0" r="7"/>
                <circle id="rim2" cx="0" cy="0" r="3.5"/>
                <g id="zoomPlus">
                        <use xlink:href="#rim" fill="#404040">
                                <set attributeName="fill" to="#808080" begin="zoomplus.mouseover" end="zoomplus.mouseout"/>
                        </use>
                        <path d="M-4,0h8M0,-4v8" fill="none" stroke="white" stroke-width="1.5" pointer-events="none"/>
                </g>
                <g id="zoomMin">
                        <use xlink:href="#rim" fill="#404040">
                                <set attributeName="fill" to="#808080" begin="zoomminus.mouseover" end="zoomminus.mouseout"/>
                        </use>
                        <path d="M-4,0h8" fill="none" stroke="white" stroke-width="1.5" pointer-events="none"/>
                </g>
                <g id="dirArrow">
                        <path fill="none" stroke="white" stroke-width="1.5" d="M0,-3.0v7 M-2.5,-0.5L0,-3.0L2.5,-0.5"/>
                </g>
               <g id="resetDef">
                       <use xlink:href="#rim2" fill="#404040">
                               <set attributeName="fill" to="#808080" begin="reset.mouseover" end="reset.mouseout"/>
                       </use>
               </g>
        </defs>

<script type="text/javascript">
var viewWidth = 778;
var viewHeight = 374;
var sectionId = 'dynsection-0';
</script>
<script xlink:href="svgpan.js"/>
<svg id="graph" class="graph">
<g id="viewport">
<title>fernotron_trx/include/fernotron_trx/raw/fer_msg_tx.h</title>
<!-- Node1 -->
<g id="node1" class="node">
<title>Node1</title>
<g id="a_node1"><a xlink:title="Send raw messages.">
<polygon fill="#bfbfbf" stroke="black" points="414.39,-324.5 414.39,-365.5 535.39,-365.5 535.39,-324.5 414.39,-324.5"/>
<text text-anchor="start" x="422.39" y="-353.5" font-family="Helvetica,sans-Serif" font-size="10.00">fernotron_trx/include</text>
<text text-anchor="start" x="422.39" y="-342.5" font-family="Helvetica,sans-Serif" font-size="10.00">/fernotron_trx/raw/fer</text>
<text text-anchor="middle" x="474.89" y="-331.5" font-family="Helvetica,sans-Serif" font-size="10.00">_msg_tx.h</text>
</a>
</g>
</g>
<!-- Node2 -->
<g id="node2" class="node">
<title>Node2</title>
<g id="a_node2"><a xlink:title=" ">
<polygon fill="none" stroke="#bfbfbf" points="707.89,-6 707.89,-25 769.89,-25 769.89,-6 707.89,-6"/>
<text text-anchor="middle" x="738.89" y="-13" font-family="Helvetica,sans-Serif" font-size="10.00">stdbool.h</text>
</a>
</g>
</g>
<!-- Node1&#45;&gt;Node2 -->
<g id="edge1" class="edge">
<title>Node1&#45;&gt;Node2</title>
<path fill="none" stroke="midnightblue" d="M535.45,-335.23C602.4,-321.72 700.89,-288.79 700.89,-212 700.89,-212 700.89,-212 700.89,-148.5 700.89,-106.35 719,-59.48 730.22,-34.5"/>
<polygon fill="midnightblue" stroke="midnightblue" points="733.5,-35.76 734.53,-25.21 727.15,-32.81 733.5,-35.76"/>
</g>
<!-- Node3 -->
<g id="node3" class="node">
<title>Node3</title>
<g id="a_node3"><a xlink:title=" ">
<polygon fill="none" stroke="#bfbfbf" points="199.39,-6 199.39,-25 252.39,-25 252.39,-6 199.39,-6"/>
<text text-anchor="middle" x="225.89" y="-13" font-family="Helvetica,sans-Serif" font-size="10.00">stdint.h</text>
</a>
</g>
</g>
<!-- Node1&#45;&gt;Node3 -->
<g id="edge2" class="edge">
<title>Node1&#45;&gt;Node3</title>
<path fill="none" stroke="midnightblue" d="M480.22,-324.49C486.73,-298.88 496.89,-252.43 496.89,-212 496.89,-212 496.89,-212 496.89,-148.5 496.89,-111.31 504.91,-92.56 477.89,-67 410.7,-3.42 362.82,-52.68 272.89,-31 269.08,-30.08 265.12,-29.02 261.19,-27.91"/>
<polygon fill="midnightblue" stroke="midnightblue" points="262.17,-24.55 251.59,-25.06 260.18,-31.26 262.17,-24.55"/>
</g>
<!-- Node4 -->
<g id="node4" class="node">
<title>Node4</title>
<g id="a_node4"><a xlink:href="fer__fsb_8h.html" target="_top" xlink:title="Plain raw message.">
<polygon fill="none" stroke="black" points="210.89,-257.5 210.89,-287.5 328.89,-287.5 328.89,-257.5 210.89,-257.5"/>
<text text-anchor="start" x="218.89" y="-275.5" font-family="Helvetica,sans-Serif" font-size="10.00">fernotron_trx/raw/fer</text>
<text text-anchor="middle" x="269.89" y="-264.5" font-family="Helvetica,sans-Serif" font-size="10.00">_fsb.h</text>
</a>
</g>
</g>
<!-- Node1&#45;&gt;Node4 -->
<g id="edge3" class="edge">
<title>Node1&#45;&gt;Node4</title>
<path fill="none" stroke="midnightblue" d="M418.06,-324.46C387.5,-313.95 350.15,-301.1 320.59,-290.93"/>
<polygon fill="midnightblue" stroke="midnightblue" points="321.48,-287.54 310.88,-287.6 319.2,-294.16 321.48,-287.54"/>
</g>
<!-- Node8 -->
<g id="node8" class="node">
<title>Node8</title>
<g id="a_node8"><a xlink:href="fer__trx__c__api_8h.html" target="_top" xlink:title="C&#45;API for sending and receiving Fernotron RF messages.">
<polygon fill="none" stroke="black" points="352.89,-134.5 352.89,-164.5 468.89,-164.5 468.89,-134.5 352.89,-134.5"/>
<text text-anchor="start" x="360.89" y="-152.5" font-family="Helvetica,sans-Serif" font-size="10.00">fernotron_trx/fer_trx</text>
<text text-anchor="middle" x="410.89" y="-141.5" font-family="Helvetica,sans-Serif" font-size="10.00">_c_api.h</text>
</a>
</g>
</g>
<!-- Node1&#45;&gt;Node8 -->
<g id="edge23" class="edge">
<title>Node1&#45;&gt;Node8</title>
<path fill="none" stroke="midnightblue" d="M468.4,-324.38C456.58,-288.64 431.57,-213.03 418.78,-174.37"/>
<polygon fill="midnightblue" stroke="midnightblue" points="421.99,-172.9 415.52,-164.51 415.34,-175.1 421.99,-172.9"/>
</g>
<!-- Node4&#45;&gt;Node3 -->
<g id="edge4" class="edge">
<title>Node4&#45;&gt;Node3</title>
<path fill="none" stroke="midnightblue" d="M210.84,-265.9C148.92,-256.53 54.53,-231.53 9.89,-165 -40.12,-90.47 115.13,-42.64 189.05,-24.6"/>
<polygon fill="midnightblue" stroke="midnightblue" points="189.99,-27.98 198.91,-22.26 188.37,-21.17 189.99,-27.98"/>
</g>
<!-- Node5 -->
<g id="node5" class="node">
<title>Node5</title>
<g id="a_node5"><a xlink:href="fer__msg__plain_8h.html" target="_top" xlink:title="Data structure of plain messages or header of extended messages.">
<polygon fill="none" stroke="black" points="222.39,-201.5 222.39,-220.5 317.39,-220.5 317.39,-201.5 222.39,-201.5"/>
<text text-anchor="middle" x="269.89" y="-208.5" font-family="Helvetica,sans-Serif" font-size="10.00">fer_msg_plain.h</text>
</a>
</g>
</g>
<!-- Node4&#45;&gt;Node5 -->
<g id="edge5" class="edge">
<title>Node4&#45;&gt;Node5</title>
<path fill="none" stroke="midnightblue" d="M269.89,-257.4C269.89,-249.47 269.89,-239.46 269.89,-230.86"/>
<polygon fill="midnightblue" stroke="midnightblue" points="273.39,-230.66 269.89,-220.66 266.39,-230.66 273.39,-230.66"/>
</g>
<!-- Node4&#45;&gt;Node8 -->
<g id="edge22" class="edge">
<title>Node4&#45;&gt;Node8</title>
<path fill="none" stroke="midnightblue" d="M286.34,-257.38C311.07,-236.16 357.97,-195.91 386.63,-171.32"/>
<polygon fill="midnightblue" stroke="midnightblue" points="389.24,-173.7 394.54,-164.53 384.68,-168.38 389.24,-173.7"/>
</g>
<!-- Node17 -->
<g id="node17" class="node">
<title>Node17</title>
<g id="a_node17"><a xlink:title=" ">
<polygon fill="none" stroke="#bfbfbf" points="18.89,-140 18.89,-159 150.89,-159 150.89,-140 18.89,-140"/>
<text text-anchor="middle" x="84.89" y="-147" font-family="Helvetica,sans-Serif" font-size="10.00">utils_misc/int_macros.h</text>
</a>
</g>
</g>
<!-- Node4&#45;&gt;Node17 -->
<g id="edge21" class="edge">
<title>Node4&#45;&gt;Node17</title>
<path fill="none" stroke="midnightblue" d="M248.31,-257.38C212.78,-234.15 142.39,-188.11 106.71,-164.77"/>
<polygon fill="midnightblue" stroke="midnightblue" points="108.31,-161.64 98.03,-159.09 104.48,-167.5 108.31,-161.64"/>
</g>
<!-- Node6 -->
<g id="node6" class="node">
<title>Node6</title>
<g id="a_node6"><a xlink:href="fer__msg__type_8h.html" target="_top" xlink:title="kinds of messages">
<polygon fill="none" stroke="black" points="168.89,-73 168.89,-92 260.89,-92 260.89,-73 168.89,-73"/>
<text text-anchor="middle" x="214.89" y="-80" font-family="Helvetica,sans-Serif" font-size="10.00">fer_msg_type.h</text>
</a>
</g>
</g>
<!-- Node5&#45;&gt;Node6 -->
<g id="edge6" class="edge">
<title>Node5&#45;&gt;Node6</title>
<path fill="none" stroke="midnightblue" d="M279.58,-201.31C294.42,-186.92 319.67,-157.4 305.89,-134 295.12,-115.7 275.06,-103.56 256.51,-95.78"/>
<polygon fill="midnightblue" stroke="midnightblue" points="257.6,-92.45 247.01,-92.1 255.07,-98.98 257.6,-92.45"/>
</g>
<!-- Node7 -->
<g id="node7" class="node">
<title>Node7</title>
<g id="a_node7"><a xlink:href="fer__msg__plain__enum_8h.html" target="_top" xlink:title="Raw message for plain commands.">
<polygon fill="none" stroke="black" points="168.89,-140 168.89,-159 296.89,-159 296.89,-140 168.89,-140"/>
<text text-anchor="middle" x="232.89" y="-147" font-family="Helvetica,sans-Serif" font-size="10.00">fer_msg_plain_enum.h</text>
</a>
</g>
</g>
<!-- Node5&#45;&gt;Node7 -->
<g id="edge8" class="edge">
<title>Node5&#45;&gt;Node7</title>
<path fill="none" stroke="midnightblue" d="M264.59,-201.48C259.15,-192.73 250.53,-178.87 243.65,-167.81"/>
<polygon fill="midnightblue" stroke="midnightblue" points="246.43,-165.65 238.18,-159.01 240.49,-169.35 246.43,-165.65"/>
</g>
<!-- Node5&#45;&gt;Node8 -->
<g id="edge9" class="edge">
<title>Node5&#45;&gt;Node8</title>
<path fill="none" stroke="midnightblue" d="M290.09,-201.48C310.44,-192.89 342.45,-179.38 368.4,-168.43"/>
<polygon fill="midnightblue" stroke="midnightblue" points="369.81,-171.64 377.66,-164.52 367.09,-165.19 369.81,-171.64"/>
</g>
<!-- Node5&#45;&gt;Node17 -->
<g id="edge20" class="edge">
<title>Node5&#45;&gt;Node17</title>
<path fill="none" stroke="midnightblue" d="M243.38,-201.48C211.24,-191.14 156.9,-173.66 120.96,-162.1"/>
<polygon fill="midnightblue" stroke="midnightblue" points="121.94,-158.74 111.35,-159.01 119.8,-165.4 121.94,-158.74"/>
</g>
<!-- Node6&#45;&gt;Node3 -->
<g id="edge7" class="edge">
<title>Node6&#45;&gt;Node3</title>
<path fill="none" stroke="midnightblue" d="M216.37,-72.73C217.99,-63.18 220.62,-47.62 222.71,-35.28"/>
<polygon fill="midnightblue" stroke="midnightblue" points="226.21,-35.57 224.43,-25.13 219.31,-34.4 226.21,-35.57"/>
</g>
<!-- Node9 -->
<g id="node9" class="node">
<title>Node9</title>
<g id="a_node9"><a xlink:title=" ">
<polygon fill="none" stroke="#bfbfbf" points="345.39,-73 345.39,-92 468.39,-92 468.39,-73 345.39,-73"/>
<text text-anchor="middle" x="406.89" y="-80" font-family="Helvetica,sans-Serif" font-size="10.00">utils_misc/int_types.h</text>
</a>
</g>
</g>
<!-- Node8&#45;&gt;Node9 -->
<g id="edge10" class="edge">
<title>Node8&#45;&gt;Node9</title>
<path fill="none" stroke="midnightblue" d="M410.02,-134.4C409.44,-124.96 408.67,-112.45 408.04,-102.19"/>
<polygon fill="midnightblue" stroke="midnightblue" points="411.53,-101.96 407.43,-92.19 404.55,-102.39 411.53,-101.96"/>
</g>
<!-- Node10 -->
<g id="node10" class="node">
<title>Node10</title>
<g id="a_node10"><a xlink:href="timer__data_8h.html" target="_top" xlink:title="vocabulary types to program Fernotron automatic (timers)">
<polygon fill="none" stroke="black" points="524.89,-67.5 524.89,-97.5 634.89,-97.5 634.89,-67.5 524.89,-67.5"/>
<text text-anchor="start" x="532.89" y="-85.5" font-family="Helvetica,sans-Serif" font-size="10.00">fernotron_trx/timer</text>
<text text-anchor="middle" x="579.89" y="-74.5" font-family="Helvetica,sans-Serif" font-size="10.00">_data.h</text>
</a>
</g>
</g>
<!-- Node8&#45;&gt;Node10 -->
<g id="edge11" class="edge">
<title>Node8&#45;&gt;Node10</title>
<path fill="none" stroke="midnightblue" d="M447.56,-134.4C472.81,-124.69 506.55,-111.71 533.64,-101.29"/>
<polygon fill="midnightblue" stroke="midnightblue" points="535.21,-104.43 543.29,-97.58 532.7,-97.9 535.21,-104.43"/>
</g>
<!-- Node16 -->
<g id="node16" class="node">
<title>Node16</title>
<g id="a_node16"><a xlink:title=" ">
<polygon fill="none" stroke="#bfbfbf" points="278.89,-73 278.89,-92 326.89,-92 326.89,-73 278.89,-73"/>
<text text-anchor="middle" x="302.89" y="-80" font-family="Helvetica,sans-Serif" font-size="10.00">time.h</text>
</a>
</g>
</g>
<!-- Node8&#45;&gt;Node16 -->
<g id="edge19" class="edge">
<title>Node8&#45;&gt;Node16</title>
<path fill="none" stroke="midnightblue" d="M387.46,-134.4C369.18,-123.39 343.93,-108.2 325.79,-97.28"/>
<polygon fill="midnightblue" stroke="midnightblue" points="327.4,-94.16 317.03,-92.01 323.79,-100.16 327.4,-94.16"/>
</g>
<!-- Node10&#45;&gt;Node2 -->
<g id="edge13" class="edge">
<title>Node10&#45;&gt;Node2</title>
<path fill="none" stroke="midnightblue" d="M614.39,-67.4C642.54,-55.89 681.9,-39.8 708.78,-28.81"/>
<polygon fill="midnightblue" stroke="midnightblue" points="710.15,-32.03 718.08,-25.01 707.5,-25.55 710.15,-32.03"/>
</g>
<!-- Node10&#45;&gt;Node3 -->
<g id="edge12" class="edge">
<title>Node10&#45;&gt;Node3</title>
<path fill="none" stroke="midnightblue" d="M524.58,-69.59C519.96,-68.68 515.35,-67.8 510.89,-67 405.61,-47.99 377.18,-54.84 272.89,-31 268.98,-30.11 264.91,-29.05 260.89,-27.92"/>
<polygon fill="midnightblue" stroke="midnightblue" points="261.65,-24.5 251.07,-25.03 259.67,-31.21 261.65,-24.5"/>
</g>
<!-- Node11 -->
<g id="node11" class="node">
<title>Node11</title>
<g id="a_node11"><a xlink:title=" ">
<polygon fill="none" stroke="#bfbfbf" points="636.39,-6 636.39,-25 689.39,-25 689.39,-6 636.39,-6"/>
<text text-anchor="middle" x="662.89" y="-13" font-family="Helvetica,sans-Serif" font-size="10.00">string.h</text>
</a>
</g>
</g>
<!-- Node10&#45;&gt;Node11 -->
<g id="edge14" class="edge">
<title>Node10&#45;&gt;Node11</title>
<path fill="none" stroke="midnightblue" d="M597.9,-67.4C611.48,-56.76 630.07,-42.2 643.89,-31.38"/>
<polygon fill="midnightblue" stroke="midnightblue" points="646.07,-34.12 651.79,-25.19 641.76,-28.6 646.07,-34.12"/>
</g>
<!-- Node12 -->
<g id="node12" class="node">
<title>Node12</title>
<g id="a_node12"><a xlink:title=" ">
<polygon fill="none" stroke="#bfbfbf" points="281.39,-6 281.39,-25 334.39,-25 334.39,-6 281.39,-6"/>
<text text-anchor="middle" x="307.89" y="-13" font-family="Helvetica,sans-Serif" font-size="10.00">ctype.h</text>
</a>
</g>
</g>
<!-- Node10&#45;&gt;Node12 -->
<g id="edge15" class="edge">
<title>Node10&#45;&gt;Node12</title>
<path fill="none" stroke="midnightblue" d="M524.69,-69.81C456.33,-55.32 348.26,-32.34 343.89,-31 341.61,-30.3 339.27,-29.52 336.93,-28.69"/>
<polygon fill="midnightblue" stroke="midnightblue" points="338.07,-25.38 327.48,-25.1 335.58,-31.92 338.07,-25.38"/>
</g>
<!-- Node13 -->
<g id="node13" class="node">
<title>Node13</title>
<g id="a_node13"><a xlink:title=" ">
<polygon fill="none" stroke="#bfbfbf" points="352.89,-6 352.89,-25 402.89,-25 402.89,-6 352.89,-6"/>
<text text-anchor="middle" x="377.89" y="-13" font-family="Helvetica,sans-Serif" font-size="10.00">stdio.h</text>
</a>
</g>
</g>
<!-- Node10&#45;&gt;Node13 -->
<g id="edge16" class="edge">
<title>Node10&#45;&gt;Node13</title>
<path fill="none" stroke="midnightblue" d="M527.94,-67.49C494.49,-58.09 450.26,-44.9 411.89,-31 410.04,-30.33 408.13,-29.61 406.23,-28.86"/>
<polygon fill="midnightblue" stroke="midnightblue" points="407.38,-25.55 396.8,-25.01 404.73,-32.03 407.38,-25.55"/>
</g>
<!-- Node14 -->
<g id="node14" class="node">
<title>Node14</title>
<g id="a_node14"><a xlink:title=" ">
<polygon fill="none" stroke="#bfbfbf" points="420.89,-0.5 420.89,-30.5 522.89,-30.5 522.89,-0.5 420.89,-0.5"/>
<text text-anchor="start" x="428.89" y="-18.5" font-family="Helvetica,sans-Serif" font-size="10.00">utils_misc/cstring</text>
<text text-anchor="middle" x="471.89" y="-7.5" font-family="Helvetica,sans-Serif" font-size="10.00">_utils.hh</text>
</a>
</g>
</g>
<!-- Node10&#45;&gt;Node14 -->
<g id="edge17" class="edge">
<title>Node10&#45;&gt;Node14</title>
<path fill="none" stroke="midnightblue" d="M556.46,-67.4C541.17,-58.2 521.01,-46.07 504.21,-35.95"/>
<polygon fill="midnightblue" stroke="midnightblue" points="505.65,-32.73 495.28,-30.58 502.04,-38.73 505.65,-32.73"/>
</g>
<!-- Node15 -->
<g id="node15" class="node">
<title>Node15</title>
<g id="a_node15"><a xlink:title=" ">
<polygon fill="none" stroke="#bfbfbf" points="541.39,-6 541.39,-25 618.39,-25 618.39,-6 541.39,-6"/>
<text text-anchor="middle" x="579.89" y="-13" font-family="Helvetica,sans-Serif" font-size="10.00">debug/dbg.h</text>
</a>
</g>
</g>
<!-- Node10&#45;&gt;Node15 -->
<g id="edge18" class="edge">
<title>Node10&#45;&gt;Node15</title>
<path fill="none" stroke="midnightblue" d="M579.89,-67.4C579.89,-58.06 579.89,-45.71 579.89,-35.52"/>
<polygon fill="midnightblue" stroke="midnightblue" points="583.39,-35.19 579.89,-25.19 576.39,-35.19 583.39,-35.19"/>
</g>
</g>
</svg>
        <g id="navigator" transform="translate(0 0)" fill="#404254">
                <rect fill="#f2f5e9" fill-opacity="0.5" stroke="#606060" stroke-width=".5" x="0" y="0" width="60" height="60"/>
                <use id="zoomplus" xlink:href="#zoomPlus" x="17" y="9" onmousedown="handleZoom(evt,'in')"/>
                <use id="zoomminus" xlink:href="#zoomMin" x="42" y="9" onmousedown="handleZoom(evt,'out')"/>
                <use id="reset" xlink:href="#resetDef" x="30" y="36" onmousedown="handleReset()"/>
                <g id="arrowUp" xlink:href="#dirArrow" transform="translate(30 24)" onmousedown="handlePan(0,-1)">
                  <use xlink:href="#rim" fill="#404040">
                        <set attributeName="fill" to="#808080" begin="arrowUp.mouseover" end="arrowUp.mouseout"/>
                  </use>
                  <path fill="none" stroke="white" stroke-width="1.5" d="M0,-3.0v7 M-2.5,-0.5L0,-3.0L2.5,-0.5"/>
                </g>
                <g id="arrowRight" xlink:href="#dirArrow" transform="rotate(90) translate(36 -43)" onmousedown="handlePan(1,0)">
                  <use xlink:href="#rim" fill="#404040">
                        <set attributeName="fill" to="#808080" begin="arrowRight.mouseover" end="arrowRight.mouseout"/>
                  </use>
                  <path fill="none" stroke="white" stroke-width="1.5" d="M0,-3.0v7 M-2.5,-0.5L0,-3.0L2.5,-0.5"/>
                </g>
                <g id="arrowDown" xlink:href="#dirArrow" transform="rotate(180) translate(-30 -48)" onmousedown="handlePan(0,1)">
                  <use xlink:href="#rim" fill="#404040">
                        <set attributeName="fill" to="#808080" begin="arrowDown.mouseover" end="arrowDown.mouseout"/>
                  </use>
                  <path fill="none" stroke="white" stroke-width="1.5" d="M0,-3.0v7 M-2.5,-0.5L0,-3.0L2.5,-0.5"/>
                </g>
                <g id="arrowLeft" xlink:href="#dirArrow" transform="rotate(270) translate(-36 17)" onmousedown="handlePan(-1,0)">
                  <use xlink:href="#rim" fill="#404040">
                        <set attributeName="fill" to="#808080" begin="arrowLeft.mouseover" end="arrowLeft.mouseout"/>
                  </use>
                  <path fill="none" stroke="white" stroke-width="1.5" d="M0,-3.0v7 M-2.5,-0.5L0,-3.0L2.5,-0.5"/>
                </g>
        </g>
        <svg viewBox="0 0 15 15" width="100%" height="30px" preserveAspectRatio="xMaxYMin meet">
         <g id="arrow_out" transform="scale(0.3 0.3)">
          <a xlink:href="fer__msg__tx_8h__incl_org.svg" target="_base">
           <rect id="button" ry="5" rx="5" y="6" x="6" height="38" width="38"
                fill="#f2f5e9" fill-opacity="0.5" stroke="#606060" stroke-width="1.0"/>
           <path id="arrow"
             d="M 11.500037,31.436501 C 11.940474,20.09759 22.043105,11.32322 32.158766,21.979434 L 37.068811,17.246167 C 37.068811,17.246167 37.088388,32 37.088388,32 L 22.160133,31.978069 C 22.160133,31.978069 26.997745,27.140456 26.997745,27.140456 C 18.528582,18.264221 13.291696,25.230495 11.500037,31.436501 z"
             style="fill:#404040;"/>
          </a>
         </g>
        </svg>
</svg>
