<?xml version="1.0" encoding="UTF-8" standalone="no"?>
<!DOCTYPE svg PUBLIC "-//W3C//DTD SVG 1.1//EN"
 "http://www.w3.org/Graphics/SVG/1.1/DTD/svg11.dtd">
<!-- Generated by graphviz version 2.43.0 (0)
 -->
<!-- Title: fer_pct.h Pages: 1 -->
<svg width="438pt" height="196pt"
 viewBox="0.00 0.00 437.50 196.00" xmlns="http://www.w3.org/2000/svg" xmlns:xlink="http://www.w3.org/1999/xlink">
<g id="graph0" class="graph" transform="scale(1 1) rotate(0) translate(4 192)">
<title>fer_pct.h</title>
<!-- Node1 -->
<g id="node1" class="node">
<title>Node1</title>
<g id="a_node1"><a xlink:title="class Pct to represent shutter opening percentage">
<polygon fill="#bfbfbf" stroke="black" points="160,-168.5 160,-187.5 219,-187.5 219,-168.5 160,-168.5"/>
<text text-anchor="middle" x="189.5" y="-175.5" font-family="Helvetica,sans-Serif" font-size="10.00">fer_pct.h</text>
</a>
</g>
</g>
<!-- Node2 -->
<g id="node2" class="node">
<title>Node2</title>
<g id="a_node2"><a xlink:href="pairings_8h.html" target="_top" xlink:title="Map Fernotron controller 3&#45;byte&#45;addresses to an a/g/m addresses.">
<polygon fill="none" stroke="black" points="0,-112.5 0,-131.5 65,-131.5 65,-112.5 0,-112.5"/>
<text text-anchor="middle" x="32.5" y="-119.5" font-family="Helvetica,sans-Serif" font-size="10.00">pairings.h</text>
</a>
</g>
</g>
<!-- Node1&#45;&gt;Node2 -->
<g id="edge1" class="edge">
<title>Node1&#45;&gt;Node2</title>
<path fill="none" stroke="midnightblue" d="M155.11,-165.17C125.55,-155 83.63,-140.59 57.26,-131.52"/>
<polygon fill="midnightblue" stroke="midnightblue" points="154.03,-168.5 164.62,-168.44 156.3,-161.88 154.03,-168.5"/>
</g>
<!-- Node3 -->
<g id="node3" class="node">
<title>Node3</title>
<g id="a_node3"><a xlink:href="fau__tminutes_8h.html" target="_top" xlink:title="Represent when each kind of timer will be scheduled for a given day and g/m. Calculate the next event...">
<polygon fill="none" stroke="black" points="83.5,-112.5 83.5,-131.5 173.5,-131.5 173.5,-112.5 83.5,-112.5"/>
<text text-anchor="middle" x="128.5" y="-119.5" font-family="Helvetica,sans-Serif" font-size="10.00">fau_tminutes.h</text>
</a>
</g>
</g>
<!-- Node1&#45;&gt;Node3 -->
<g id="edge2" class="edge">
<title>Node1&#45;&gt;Node3</title>
<path fill="none" stroke="midnightblue" d="M172.03,-161.54C161.16,-151.91 147.56,-139.87 138.48,-131.83"/>
<polygon fill="midnightblue" stroke="midnightblue" points="169.89,-164.32 179.7,-168.32 174.53,-159.07 169.89,-164.32"/>
</g>
<!-- Node6 -->
<g id="node6" class="node">
<title>Node6</title>
<g id="a_node6"><a xlink:href="positions__dynamic_8h.html" target="_top" xlink:title="Keep track of positions for a currently moving shutter.">
<polygon fill="none" stroke="black" points="192,-112.5 192,-131.5 309,-131.5 309,-112.5 192,-112.5"/>
<text text-anchor="middle" x="250.5" y="-119.5" font-family="Helvetica,sans-Serif" font-size="10.00">positions_dynamic.h</text>
</a>
</g>
</g>
<!-- Node1&#45;&gt;Node6 -->
<g id="edge5" class="edge">
<title>Node1&#45;&gt;Node6</title>
<path fill="none" stroke="midnightblue" d="M206.97,-161.54C217.84,-151.91 231.44,-139.87 240.52,-131.83"/>
<polygon fill="midnightblue" stroke="midnightblue" points="204.47,-159.07 199.3,-168.32 209.11,-164.32 204.47,-159.07"/>
</g>
<!-- Node9 -->
<g id="node9" class="node">
<title>Node9</title>
<g id="a_node9"><a xlink:href="positions__static_8h.html" target="_top" xlink:title="Store and retrieve shutter positions (persistently)">
<polygon fill="none" stroke="black" points="327.5,-112.5 327.5,-131.5 429.5,-131.5 429.5,-112.5 327.5,-112.5"/>
<text text-anchor="middle" x="378.5" y="-119.5" font-family="Helvetica,sans-Serif" font-size="10.00">positions_static.h</text>
</a>
</g>
</g>
<!-- Node1&#45;&gt;Node9 -->
<g id="edge8" class="edge">
<title>Node1&#45;&gt;Node9</title>
<path fill="none" stroke="midnightblue" d="M229.08,-165.69C264.7,-155.52 316.26,-140.78 348.55,-131.56"/>
<polygon fill="midnightblue" stroke="midnightblue" points="227.68,-162.45 219.03,-168.56 229.61,-169.18 227.68,-162.45"/>
</g>
<!-- Node4 -->
<g id="node4" class="node">
<title>Node4</title>
<g id="a_node4"><a xlink:href="fau__tevent_8hh_source.html" target="_top" xlink:title=" ">
<polygon fill="none" stroke="black" points="86.5,-56.5 86.5,-75.5 170.5,-75.5 170.5,-56.5 86.5,-56.5"/>
<text text-anchor="middle" x="128.5" y="-63.5" font-family="Helvetica,sans-Serif" font-size="10.00">fau_tevent.hh</text>
</a>
</g>
</g>
<!-- Node3&#45;&gt;Node4 -->
<g id="edge3" class="edge">
<title>Node3&#45;&gt;Node4</title>
<path fill="none" stroke="midnightblue" d="M128.5,-101.8C128.5,-92.91 128.5,-82.78 128.5,-75.75"/>
<polygon fill="midnightblue" stroke="midnightblue" points="125,-102.08 128.5,-112.08 132,-102.08 125,-102.08"/>
</g>
<!-- Node5 -->
<g id="node5" class="node">
<title>Node5</title>
<g id="a_node5"><a xlink:href="fau__next__event_8hh_source.html" target="_top" xlink:title=" ">
<polygon fill="none" stroke="black" points="75,-0.5 75,-19.5 182,-19.5 182,-0.5 75,-0.5"/>
<text text-anchor="middle" x="128.5" y="-7.5" font-family="Helvetica,sans-Serif" font-size="10.00">fau_next_event.hh</text>
</a>
</g>
</g>
<!-- Node4&#45;&gt;Node5 -->
<g id="edge4" class="edge">
<title>Node4&#45;&gt;Node5</title>
<path fill="none" stroke="midnightblue" d="M128.5,-45.8C128.5,-36.91 128.5,-26.78 128.5,-19.75"/>
<polygon fill="midnightblue" stroke="midnightblue" points="125,-46.08 128.5,-56.08 132,-46.08 125,-46.08"/>
</g>
<!-- Node7 -->
<g id="node7" class="node">
<title>Node7</title>
<g id="a_node7"><a xlink:href="shutter__pct_8h.html" target="_top" xlink:title="include positions_static.h and positions_dynamic.h">
<polygon fill="none" stroke="black" points="274.5,-56.5 274.5,-75.5 354.5,-75.5 354.5,-56.5 274.5,-56.5"/>
<text text-anchor="middle" x="314.5" y="-63.5" font-family="Helvetica,sans-Serif" font-size="10.00">shutter_pct.h</text>
</a>
</g>
</g>
<!-- Node6&#45;&gt;Node7 -->
<g id="edge6" class="edge">
<title>Node6&#45;&gt;Node7</title>
<path fill="none" stroke="midnightblue" d="M268.49,-105.82C279.96,-96.15 294.41,-83.95 304.03,-75.83"/>
<polygon fill="midnightblue" stroke="midnightblue" points="266.17,-103.2 260.78,-112.32 270.68,-108.55 266.17,-103.2"/>
</g>
<!-- Node8 -->
<g id="node8" class="node">
<title>Node8</title>
<g id="a_node8"><a xlink:href="commands_8h.html" target="_top" xlink:title="commands to move or stop a shutter with position support">
<polygon fill="none" stroke="black" points="274.5,-0.5 274.5,-19.5 354.5,-19.5 354.5,-0.5 274.5,-0.5"/>
<text text-anchor="middle" x="314.5" y="-7.5" font-family="Helvetica,sans-Serif" font-size="10.00">commands.h</text>
</a>
</g>
</g>
<!-- Node7&#45;&gt;Node8 -->
<g id="edge7" class="edge">
<title>Node7&#45;&gt;Node8</title>
<path fill="none" stroke="midnightblue" d="M314.5,-45.8C314.5,-36.91 314.5,-26.78 314.5,-19.75"/>
<polygon fill="midnightblue" stroke="midnightblue" points="311,-46.08 314.5,-56.08 318,-46.08 311,-46.08"/>
</g>
<!-- Node9&#45;&gt;Node7 -->
<g id="edge9" class="edge">
<title>Node9&#45;&gt;Node7</title>
<path fill="none" stroke="midnightblue" d="M360.51,-105.82C349.04,-96.15 334.59,-83.95 324.97,-75.83"/>
<polygon fill="midnightblue" stroke="midnightblue" points="358.32,-108.55 368.22,-112.32 362.83,-103.2 358.32,-108.55"/>
</g>
</g>
</svg>
