<?xml version="1.0" encoding="UTF-8" standalone="no"?>
<!DOCTYPE svg PUBLIC "-//W3C//DTD SVG 1.1//EN"
 "http://www.w3.org/Graphics/SVG/1.1/DTD/svg11.dtd">
<!-- Generated by graphviz version 2.43.0 (0)
 -->
<!-- Title: fernotron_trx/include/fernotron_trx/raw/fer_msg_type.h Pages: 1 -->
<svg width="917pt" height="284pt"
 viewBox="0.00 0.00 917.00 284.00" xmlns="http://www.w3.org/2000/svg" xmlns:xlink="http://www.w3.org/1999/xlink">
<g id="graph0" class="graph" transform="scale(1 1) rotate(0) translate(4 280)">
<title>fernotron_trx/include/fernotron_trx/raw/fer_msg_type.h</title>
<!-- Node1 -->
<g id="node1" class="node">
<title>Node1</title>
<g id="a_node1"><a xlink:title="kinds of messages">
<polygon fill="#bfbfbf" stroke="black" points="276,-234.5 276,-275.5 397,-275.5 397,-234.5 276,-234.5"/>
<text text-anchor="start" x="284" y="-263.5" font-family="Helvetica,sans-Serif" font-size="10.00">fernotron_trx/include</text>
<text text-anchor="start" x="284" y="-252.5" font-family="Helvetica,sans-Serif" font-size="10.00">/fernotron_trx/raw/fer</text>
<text text-anchor="middle" x="336.5" y="-241.5" font-family="Helvetica,sans-Serif" font-size="10.00">_msg_type.h</text>
</a>
</g>
</g>
<!-- Node2 -->
<g id="node2" class="node">
<title>Node2</title>
<g id="a_node2"><a xlink:href="fer__msg__plain_8h.html" target="_top" xlink:title="Data structure of plain messages or header of extended messages.">
<polygon fill="none" stroke="black" points="276,-156.5 276,-197.5 397,-197.5 397,-156.5 276,-156.5"/>
<text text-anchor="start" x="284" y="-185.5" font-family="Helvetica,sans-Serif" font-size="10.00">fernotron_trx/include</text>
<text text-anchor="start" x="284" y="-174.5" font-family="Helvetica,sans-Serif" font-size="10.00">/fernotron_trx/raw/fer</text>
<text text-anchor="middle" x="336.5" y="-163.5" font-family="Helvetica,sans-Serif" font-size="10.00">_msg_plain.h</text>
</a>
</g>
</g>
<!-- Node1&#45;&gt;Node2 -->
<g id="edge1" class="edge">
<title>Node1&#45;&gt;Node2</title>
<path fill="none" stroke="midnightblue" d="M336.5,-224.3C336.5,-215.3 336.5,-205.65 336.5,-197.51"/>
<polygon fill="midnightblue" stroke="midnightblue" points="333,-224.43 336.5,-234.43 340,-224.43 333,-224.43"/>
</g>
<!-- Node3 -->
<g id="node3" class="node">
<title>Node3</title>
<g id="a_node3"><a xlink:href="commands_8h.html" target="_top" xlink:title="commands to move or stop a shutter with position support">
<polygon fill="none" stroke="black" points="0,-84 0,-114 151,-114 151,-84 0,-84"/>
<text text-anchor="start" x="8" y="-102" font-family="Helvetica,sans-Serif" font-size="10.00">fernotron_app/include</text>
<text text-anchor="middle" x="75.5" y="-91" font-family="Helvetica,sans-Serif" font-size="10.00">/fernotron/pos/commands.h</text>
</a>
</g>
</g>
<!-- Node2&#45;&gt;Node3 -->
<g id="edge2" class="edge">
<title>Node2&#45;&gt;Node3</title>
<path fill="none" stroke="midnightblue" d="M266.26,-155.55C221.23,-142.44 163.94,-125.75 123.94,-114.11"/>
<polygon fill="midnightblue" stroke="midnightblue" points="265.39,-158.94 275.97,-158.37 267.34,-152.22 265.39,-158.94"/>
</g>
<!-- Node4 -->
<g id="node4" class="node">
<title>Node4</title>
<g id="a_node4"><a xlink:href="repeater_8h_source.html" target="_top" xlink:title=" ">
<polygon fill="none" stroke="black" points="169,-84 169,-114 330,-114 330,-84 169,-84"/>
<text text-anchor="start" x="177" y="-102" font-family="Helvetica,sans-Serif" font-size="10.00">fernotron_app/include</text>
<text text-anchor="middle" x="249.5" y="-91" font-family="Helvetica,sans-Serif" font-size="10.00">/fernotron/repeater/repeater.h</text>
</a>
</g>
</g>
<!-- Node2&#45;&gt;Node4 -->
<g id="edge3" class="edge">
<title>Node2&#45;&gt;Node4</title>
<path fill="none" stroke="midnightblue" d="M306.35,-149.66C292.73,-137.76 277.17,-124.18 265.78,-114.23"/>
<polygon fill="midnightblue" stroke="midnightblue" points="304.26,-152.49 314.1,-156.43 308.87,-147.21 304.26,-152.49"/>
</g>
<!-- Node5 -->
<g id="node5" class="node">
<title>Node5</title>
<g id="a_node5"><a xlink:href="fer__fsb_8h.html" target="_top" xlink:title="Plain raw message.">
<polygon fill="none" stroke="black" points="348.5,-84 348.5,-114 498.5,-114 498.5,-84 348.5,-84"/>
<text text-anchor="start" x="356.5" y="-102" font-family="Helvetica,sans-Serif" font-size="10.00">fernotron_trx/include</text>
<text text-anchor="middle" x="423.5" y="-91" font-family="Helvetica,sans-Serif" font-size="10.00">/fernotron_trx/raw/fer_fsb.h</text>
</a>
</g>
</g>
<!-- Node2&#45;&gt;Node5 -->
<g id="edge4" class="edge">
<title>Node2&#45;&gt;Node5</title>
<path fill="none" stroke="midnightblue" d="M366.65,-149.66C380.27,-137.76 395.83,-124.18 407.22,-114.23"/>
<polygon fill="midnightblue" stroke="midnightblue" points="364.13,-147.21 358.9,-156.43 368.74,-152.49 364.13,-147.21"/>
</g>
<!-- Node8 -->
<g id="node8" class="node">
<title>Node8</title>
<g id="a_node8"><a xlink:href="fer__msg__attachment_8h.html" target="_top" xlink:title="Extended messages.">
<polygon fill="none" stroke="black" points="516,-78.5 516,-119.5 637,-119.5 637,-78.5 516,-78.5"/>
<text text-anchor="start" x="524" y="-107.5" font-family="Helvetica,sans-Serif" font-size="10.00">fernotron_trx/include</text>
<text text-anchor="start" x="524" y="-96.5" font-family="Helvetica,sans-Serif" font-size="10.00">/fernotron_trx/raw/fer</text>
<text text-anchor="middle" x="576.5" y="-85.5" font-family="Helvetica,sans-Serif" font-size="10.00">_msg_attachment.h</text>
</a>
</g>
</g>
<!-- Node2&#45;&gt;Node8 -->
<g id="edge7" class="edge">
<title>Node2&#45;&gt;Node8</title>
<path fill="none" stroke="midnightblue" d="M406.65,-153.79C441.3,-142.81 482.7,-129.7 515.96,-119.17"/>
<polygon fill="midnightblue" stroke="midnightblue" points="405.54,-150.47 397.06,-156.82 407.65,-157.14 405.54,-150.47"/>
</g>
<!-- Node6 -->
<g id="node6" class="node">
<title>Node6</title>
<g id="a_node6"><a xlink:href="fer__msg__tx_8h.html" target="_top" xlink:title="Send raw messages.">
<polygon fill="none" stroke="black" points="230,-0.5 230,-41.5 351,-41.5 351,-0.5 230,-0.5"/>
<text text-anchor="start" x="238" y="-29.5" font-family="Helvetica,sans-Serif" font-size="10.00">fernotron_trx/include</text>
<text text-anchor="start" x="238" y="-18.5" font-family="Helvetica,sans-Serif" font-size="10.00">/fernotron_trx/raw/fer</text>
<text text-anchor="middle" x="290.5" y="-7.5" font-family="Helvetica,sans-Serif" font-size="10.00">_msg_tx.h</text>
</a>
</g>
</g>
<!-- Node5&#45;&gt;Node6 -->
<g id="edge5" class="edge">
<title>Node5&#45;&gt;Node6</title>
<path fill="none" stroke="midnightblue" d="M390.06,-78.89C370.14,-67.51 344.92,-53.1 324.85,-41.63"/>
<polygon fill="midnightblue" stroke="midnightblue" points="388.38,-81.96 398.8,-83.88 391.85,-75.88 388.38,-81.96"/>
</g>
<!-- Node7 -->
<g id="node7" class="node">
<title>Node7</title>
<g id="a_node7"><a xlink:href="fer__rawmsg__build_8h.html" target="_top" xlink:title="builder functions to construct (extended) raw messages">
<polygon fill="none" stroke="black" points="369,-0.5 369,-41.5 490,-41.5 490,-0.5 369,-0.5"/>
<text text-anchor="start" x="377" y="-29.5" font-family="Helvetica,sans-Serif" font-size="10.00">fernotron_trx/include</text>
<text text-anchor="start" x="377" y="-18.5" font-family="Helvetica,sans-Serif" font-size="10.00">/fernotron_trx/raw/fer</text>
<text text-anchor="middle" x="429.5" y="-7.5" font-family="Helvetica,sans-Serif" font-size="10.00">_rawmsg_build.h</text>
</a>
</g>
</g>
<!-- Node5&#45;&gt;Node7 -->
<g id="edge6" class="edge">
<title>Node5&#45;&gt;Node7</title>
<path fill="none" stroke="midnightblue" d="M425.42,-73.66C426.24,-63.33 427.18,-51.44 427.95,-41.68"/>
<polygon fill="midnightblue" stroke="midnightblue" points="421.93,-73.46 424.63,-83.7 428.9,-74.01 421.93,-73.46"/>
</g>
<!-- Node8&#45;&gt;Node7 -->
<g id="edge11" class="edge">
<title>Node8&#45;&gt;Node7</title>
<path fill="none" stroke="midnightblue" d="M529.63,-73.77C509.48,-63.35 486.24,-51.34 467.23,-41.51"/>
<polygon fill="midnightblue" stroke="midnightblue" points="528.15,-76.94 538.64,-78.43 531.37,-70.73 528.15,-76.94"/>
</g>
<!-- Node9 -->
<g id="node9" class="node">
<title>Node9</title>
<g id="a_node9"><a xlink:href="fer__print_8h.html" target="_top" xlink:title="Print raw message as formatted text to standard output (for debug purposes).">
<polygon fill="none" stroke="black" points="508,-0.5 508,-41.5 631,-41.5 631,-0.5 508,-0.5"/>
<text text-anchor="start" x="516" y="-29.5" font-family="Helvetica,sans-Serif" font-size="10.00">fernotron_app/include</text>
<text text-anchor="start" x="516" y="-18.5" font-family="Helvetica,sans-Serif" font-size="10.00">/fernotron/txtio/fer</text>
<text text-anchor="middle" x="569.5" y="-7.5" font-family="Helvetica,sans-Serif" font-size="10.00">_print.h</text>
</a>
</g>
</g>
<!-- Node8&#45;&gt;Node9 -->
<g id="edge8" class="edge">
<title>Node8&#45;&gt;Node9</title>
<path fill="none" stroke="midnightblue" d="M573.76,-68.3C572.94,-59.3 572.05,-49.65 571.3,-41.51"/>
<polygon fill="midnightblue" stroke="midnightblue" points="570.29,-68.79 574.7,-78.43 577.27,-68.15 570.29,-68.79"/>
</g>
<!-- Node10 -->
<g id="node10" class="node">
<title>Node10</title>
<g id="a_node10"><a xlink:href="fer__radio__trx_8h.html" target="_top" xlink:title="RF transceiver.">
<polygon fill="none" stroke="black" points="649,-0.5 649,-41.5 770,-41.5 770,-0.5 649,-0.5"/>
<text text-anchor="start" x="657" y="-29.5" font-family="Helvetica,sans-Serif" font-size="10.00">fernotron_trx/include</text>
<text text-anchor="start" x="657" y="-18.5" font-family="Helvetica,sans-Serif" font-size="10.00">/fernotron_trx/raw/fer</text>
<text text-anchor="middle" x="709.5" y="-7.5" font-family="Helvetica,sans-Serif" font-size="10.00">_radio_trx.h</text>
</a>
</g>
</g>
<!-- Node8&#45;&gt;Node10 -->
<g id="edge9" class="edge">
<title>Node8&#45;&gt;Node10</title>
<path fill="none" stroke="midnightblue" d="M619.89,-73.2C637.89,-62.92 658.47,-51.16 675.37,-41.51"/>
<polygon fill="midnightblue" stroke="midnightblue" points="617.7,-70.43 610.75,-78.43 621.17,-76.51 617.7,-70.43"/>
</g>
<!-- Node11 -->
<g id="node11" class="node">
<title>Node11</title>
<g id="a_node11"><a xlink:href="fer__rawmsg__buffer_8h.html" target="_top" xlink:title="Global static buffers for raw messages.">
<polygon fill="none" stroke="black" points="788,-0.5 788,-41.5 909,-41.5 909,-0.5 788,-0.5"/>
<text text-anchor="start" x="796" y="-29.5" font-family="Helvetica,sans-Serif" font-size="10.00">fernotron_trx/include</text>
<text text-anchor="start" x="796" y="-18.5" font-family="Helvetica,sans-Serif" font-size="10.00">/fernotron_trx/raw/fer</text>
<text text-anchor="middle" x="848.5" y="-7.5" font-family="Helvetica,sans-Serif" font-size="10.00">_rawmsg_buffer.h</text>
</a>
</g>
</g>
<!-- Node8&#45;&gt;Node11 -->
<g id="edge10" class="edge">
<title>Node8&#45;&gt;Node11</title>
<path fill="none" stroke="midnightblue" d="M647.1,-78.76C686.16,-68.06 735.56,-54.43 779.5,-42 782.26,-41.22 785.08,-40.42 787.93,-39.6"/>
<polygon fill="midnightblue" stroke="midnightblue" points="646.13,-75.4 637.41,-81.42 647.97,-82.15 646.13,-75.4"/>
</g>
</g>
</svg>
