<?xml version="1.0" encoding="UTF-8" standalone="no"?>
<!DOCTYPE svg PUBLIC "-//W3C//DTD SVG 1.1//EN"
 "http://www.w3.org/Graphics/SVG/1.1/DTD/svg11.dtd">
<!-- Generated by graphviz version 2.43.0 (0)
 -->
<!-- Title: fernotron_trx/fer_trx_c_api.h Pages: 1 -->
<svg width="931pt" height="240pt"
 viewBox="0.00 0.00 930.50 240.00" xmlns="http://www.w3.org/2000/svg" xmlns:xlink="http://www.w3.org/1999/xlink">
<g id="graph0" class="graph" transform="scale(1 1) rotate(0) translate(4 236)">
<title>fernotron_trx/fer_trx_c_api.h</title>
<!-- Node1 -->
<g id="node1" class="node">
<title>Node1</title>
<g id="a_node1"><a xlink:title="C&#45;API for sending and receiving Fernotron RF messages.">
<polygon fill="#bfbfbf" stroke="black" points="381,-201.5 381,-231.5 497,-231.5 497,-201.5 381,-201.5"/>
<text text-anchor="start" x="389" y="-219.5" font-family="Helvetica,sans-Serif" font-size="10.00">fernotron_trx/fer_trx</text>
<text text-anchor="middle" x="439" y="-208.5" font-family="Helvetica,sans-Serif" font-size="10.00">_c_api.h</text>
</a>
</g>
</g>
<!-- Node2 -->
<g id="node2" class="node">
<title>Node2</title>
<g id="a_node2"><a xlink:href="positions__dynamic_8h.html" target="_top" xlink:title="Keep track of positions for a currently moving shutter.">
<polygon fill="none" stroke="black" points="175.5,-134.5 175.5,-164.5 304.5,-164.5 304.5,-134.5 175.5,-134.5"/>
<text text-anchor="start" x="183.5" y="-152.5" font-family="Helvetica,sans-Serif" font-size="10.00">fernotron/pos/positions</text>
<text text-anchor="middle" x="240" y="-141.5" font-family="Helvetica,sans-Serif" font-size="10.00">_dynamic.h</text>
</a>
</g>
</g>
<!-- Node1&#45;&gt;Node2 -->
<g id="edge1" class="edge">
<title>Node1&#45;&gt;Node2</title>
<path fill="none" stroke="midnightblue" d="M386.12,-198.23C353.93,-187.71 313.33,-174.45 283.1,-164.58"/>
<polygon fill="midnightblue" stroke="midnightblue" points="385.23,-201.62 395.82,-201.4 387.4,-194.96 385.23,-201.62"/>
</g>
<!-- Node5 -->
<g id="node5" class="node">
<title>Node5</title>
<g id="a_node5"><a xlink:href="set__endpos_8h.html" target="_top" xlink:title="Mode for setting shutter end positions.">
<polygon fill="none" stroke="black" points="773.5,-140 773.5,-159 922.5,-159 922.5,-140 773.5,-140"/>
<text text-anchor="middle" x="848" y="-147" font-family="Helvetica,sans-Serif" font-size="10.00">fernotron/sep/set_endpos.h</text>
</a>
</g>
</g>
<!-- Node1&#45;&gt;Node5 -->
<g id="edge4" class="edge">
<title>Node1&#45;&gt;Node5</title>
<path fill="none" stroke="midnightblue" d="M507.13,-204.93C572.12,-194.81 672.77,-179.05 760,-165 771.77,-163.1 784.42,-161.04 796.36,-159.07"/>
<polygon fill="midnightblue" stroke="midnightblue" points="506.35,-201.51 497.01,-206.5 507.43,-208.42 506.35,-201.51"/>
</g>
<!-- Node6 -->
<g id="node6" class="node">
<title>Node6</title>
<g id="a_node6"><a xlink:href="fer__trx__api_8hh.html" target="_top" xlink:title="C++&#45;API for sending and receiving Fernotron RF messages.">
<polygon fill="none" stroke="black" points="545,-134.5 545,-164.5 661,-164.5 661,-134.5 545,-134.5"/>
<text text-anchor="start" x="553" y="-152.5" font-family="Helvetica,sans-Serif" font-size="10.00">fernotron_trx/fer_trx</text>
<text text-anchor="middle" x="603" y="-141.5" font-family="Helvetica,sans-Serif" font-size="10.00">_api.hh</text>
</a>
</g>
</g>
<!-- Node1&#45;&gt;Node6 -->
<g id="edge5" class="edge">
<title>Node1&#45;&gt;Node6</title>
<path fill="none" stroke="midnightblue" d="M483.96,-197.68C510.26,-187.26 543,-174.28 567.48,-164.58"/>
<polygon fill="midnightblue" stroke="midnightblue" points="482.59,-194.46 474.59,-201.4 485.17,-200.97 482.59,-194.46"/>
</g>
<!-- Node8 -->
<g id="node8" class="node">
<title>Node8</title>
<g id="a_node8"><a xlink:href="fer__fsb_8h.html" target="_top" xlink:title="Plain raw message.">
<polygon fill="none" stroke="black" points="264,-67.5 264,-97.5 382,-97.5 382,-67.5 264,-67.5"/>
<text text-anchor="start" x="272" y="-85.5" font-family="Helvetica,sans-Serif" font-size="10.00">fernotron_trx/raw/fer</text>
<text text-anchor="middle" x="323" y="-74.5" font-family="Helvetica,sans-Serif" font-size="10.00">_fsb.h</text>
</a>
</g>
</g>
<!-- Node1&#45;&gt;Node8 -->
<g id="edge7" class="edge">
<title>Node1&#45;&gt;Node8</title>
<path fill="none" stroke="midnightblue" d="M406.85,-195.6C394.72,-187.13 381.36,-176.53 371,-165 352.23,-144.12 337.12,-114.77 329.15,-97.58"/>
<polygon fill="midnightblue" stroke="midnightblue" points="405.16,-198.69 415.41,-201.39 409.08,-192.89 405.16,-198.69"/>
</g>
<!-- Node9 -->
<g id="node9" class="node">
<title>Node9</title>
<g id="a_node9"><a xlink:href="fer__msg__tx_8h.html" target="_top" xlink:title="Send raw messages.">
<polygon fill="none" stroke="black" points="0,-0.5 0,-30.5 118,-30.5 118,-0.5 0,-0.5"/>
<text text-anchor="start" x="8" y="-18.5" font-family="Helvetica,sans-Serif" font-size="10.00">fernotron_trx/raw/fer</text>
<text text-anchor="middle" x="59" y="-7.5" font-family="Helvetica,sans-Serif" font-size="10.00">_msg_tx.h</text>
</a>
</g>
</g>
<!-- Node1&#45;&gt;Node9 -->
<g id="edge19" class="edge">
<title>Node1&#45;&gt;Node9</title>
<path fill="none" stroke="midnightblue" d="M370.85,-208.69C301.42,-200.74 199.35,-185.96 166,-165 112.73,-131.52 77.85,-61 64.79,-30.76"/>
<polygon fill="midnightblue" stroke="midnightblue" points="370.51,-212.18 380.84,-209.81 371.3,-205.22 370.51,-212.18"/>
</g>
<!-- Node11 -->
<g id="node11" class="node">
<title>Node11</title>
<g id="a_node11"><a xlink:href="fer__msg__plain_8h.html" target="_top" xlink:title="Data structure of plain messages or header of extended messages.">
<polygon fill="none" stroke="black" points="380,-134.5 380,-164.5 498,-164.5 498,-134.5 380,-134.5"/>
<text text-anchor="start" x="388" y="-152.5" font-family="Helvetica,sans-Serif" font-size="10.00">fernotron_trx/raw/fer</text>
<text text-anchor="middle" x="439" y="-141.5" font-family="Helvetica,sans-Serif" font-size="10.00">_msg_plain.h</text>
</a>
</g>
</g>
<!-- Node1&#45;&gt;Node11 -->
<g id="edge10" class="edge">
<title>Node1&#45;&gt;Node11</title>
<path fill="none" stroke="midnightblue" d="M439,-191.11C439,-182.15 439,-172.32 439,-164.58"/>
<polygon fill="midnightblue" stroke="midnightblue" points="435.5,-191.4 439,-201.4 442.5,-191.4 435.5,-191.4"/>
</g>
<!-- Node14 -->
<g id="node14" class="node">
<title>Node14</title>
<g id="a_node14"><a xlink:href="fer__radio__trx_8h.html" target="_top" xlink:title="RF transceiver.">
<polygon fill="none" stroke="black" points="696,-0.5 696,-30.5 814,-30.5 814,-0.5 696,-0.5"/>
<text text-anchor="start" x="704" y="-18.5" font-family="Helvetica,sans-Serif" font-size="10.00">fernotron_trx/raw/fer</text>
<text text-anchor="middle" x="755" y="-7.5" font-family="Helvetica,sans-Serif" font-size="10.00">_radio_trx.h</text>
</a>
</g>
</g>
<!-- Node1&#45;&gt;Node14 -->
<g id="edge20" class="edge">
<title>Node1&#45;&gt;Node14</title>
<path fill="none" stroke="midnightblue" d="M507.77,-214.89C557.16,-211.24 623.03,-199.46 670,-165 717.42,-130.2 742.33,-60.4 751.19,-30.56"/>
<polygon fill="midnightblue" stroke="midnightblue" points="507.24,-211.41 497.49,-215.55 507.69,-218.4 507.24,-211.41"/>
</g>
<!-- Node3 -->
<g id="node3" class="node">
<title>Node3</title>
<g id="a_node3"><a xlink:href="shutter__pct_8h.html" target="_top" xlink:title="include positions_static.h and positions_dynamic.h">
<polygon fill="none" stroke="black" points="126.5,-67.5 126.5,-97.5 245.5,-97.5 245.5,-67.5 126.5,-67.5"/>
<text text-anchor="start" x="134.5" y="-85.5" font-family="Helvetica,sans-Serif" font-size="10.00">fernotron/pos/shutter</text>
<text text-anchor="middle" x="186" y="-74.5" font-family="Helvetica,sans-Serif" font-size="10.00">_pct.h</text>
</a>
</g>
</g>
<!-- Node2&#45;&gt;Node3 -->
<g id="edge2" class="edge">
<title>Node2&#45;&gt;Node3</title>
<path fill="none" stroke="midnightblue" d="M221.68,-126.45C213.75,-116.9 204.7,-106 197.69,-97.58"/>
<polygon fill="midnightblue" stroke="midnightblue" points="219.2,-128.94 228.28,-134.4 224.58,-124.47 219.2,-128.94"/>
</g>
<!-- Node4 -->
<g id="node4" class="node">
<title>Node4</title>
<g id="a_node4"><a xlink:href="commands_8h.html" target="_top" xlink:title="commands to move or stop a shutter with position support">
<polygon fill="none" stroke="black" points="136,-6 136,-25 284,-25 284,-6 136,-6"/>
<text text-anchor="middle" x="210" y="-13" font-family="Helvetica,sans-Serif" font-size="10.00">fernotron/pos/commands.h</text>
</a>
</g>
</g>
<!-- Node3&#45;&gt;Node4 -->
<g id="edge3" class="edge">
<title>Node3&#45;&gt;Node4</title>
<path fill="none" stroke="midnightblue" d="M194.7,-57.94C198.91,-46.54 203.71,-33.55 206.79,-25.19"/>
<polygon fill="midnightblue" stroke="midnightblue" points="191.39,-56.8 191.21,-67.4 197.95,-59.23 191.39,-56.8"/>
</g>
<!-- Node7 -->
<g id="node7" class="node">
<title>Node7</title>
<g id="a_node7"><a xlink:href="fer__print_8h.html" target="_top" xlink:title="Print raw message as formatted text to standard output (for debug purposes).">
<polygon fill="none" stroke="black" points="574,-0.5 574,-30.5 678,-30.5 678,-0.5 574,-0.5"/>
<text text-anchor="start" x="582" y="-18.5" font-family="Helvetica,sans-Serif" font-size="10.00">fernotron/txtio/fer</text>
<text text-anchor="middle" x="626" y="-7.5" font-family="Helvetica,sans-Serif" font-size="10.00">_print.h</text>
</a>
</g>
</g>
<!-- Node6&#45;&gt;Node7 -->
<g id="edge6" class="edge">
<title>Node6&#45;&gt;Node7</title>
<path fill="none" stroke="midnightblue" d="M654.35,-129.66C668.03,-122.02 681.17,-111.68 689,-98 695.84,-86.04 694.96,-79.42 689,-67 681.54,-51.46 666.7,-39.19 653.3,-30.64"/>
<polygon fill="midnightblue" stroke="midnightblue" points="652.62,-126.61 645.33,-134.3 655.82,-132.84 652.62,-126.61"/>
</g>
<!-- Node8&#45;&gt;Node9 -->
<g id="edge8" class="edge">
<title>Node8&#45;&gt;Node9</title>
<path fill="none" stroke="midnightblue" d="M256.19,-65.05C213.03,-54.43 157.46,-40.74 116.31,-30.61"/>
<polygon fill="midnightblue" stroke="midnightblue" points="255.49,-68.48 266.04,-67.48 257.17,-61.69 255.49,-68.48"/>
</g>
<!-- Node10 -->
<g id="node10" class="node">
<title>Node10</title>
<g id="a_node10"><a xlink:href="fer__rawmsg__build_8h.html" target="_top" xlink:title="builder functions to construct (extended) raw messages">
<polygon fill="none" stroke="black" points="302,-0.5 302,-30.5 420,-30.5 420,-0.5 302,-0.5"/>
<text text-anchor="start" x="310" y="-18.5" font-family="Helvetica,sans-Serif" font-size="10.00">fernotron_trx/raw/fer</text>
<text text-anchor="middle" x="361" y="-7.5" font-family="Helvetica,sans-Serif" font-size="10.00">_rawmsg_build.h</text>
</a>
</g>
</g>
<!-- Node8&#45;&gt;Node10 -->
<g id="edge9" class="edge">
<title>Node8&#45;&gt;Node10</title>
<path fill="none" stroke="midnightblue" d="M336.4,-58.58C341.86,-49.24 347.99,-38.75 352.77,-30.58"/>
<polygon fill="midnightblue" stroke="midnightblue" points="333.27,-57 331.25,-67.4 339.31,-60.53 333.27,-57"/>
</g>
<!-- Node11&#45;&gt;Node4 -->
<g id="edge11" class="edge">
<title>Node11&#45;&gt;Node4</title>
<path fill="none" stroke="midnightblue" d="M430.81,-125C423.24,-106.62 410.22,-81.78 391,-67 369.79,-50.7 301.47,-34.56 255.11,-25.06"/>
<polygon fill="midnightblue" stroke="midnightblue" points="427.6,-126.38 434.47,-134.45 434.12,-123.86 427.6,-126.38"/>
</g>
<!-- Node11&#45;&gt;Node8 -->
<g id="edge13" class="edge">
<title>Node11&#45;&gt;Node8</title>
<path fill="none" stroke="midnightblue" d="M404.73,-129.3C386.58,-119.12 364.68,-106.85 348.12,-97.58"/>
<polygon fill="midnightblue" stroke="midnightblue" points="403.4,-132.56 413.83,-134.4 406.82,-126.45 403.4,-132.56"/>
</g>
<!-- Node12 -->
<g id="node12" class="node">
<title>Node12</title>
<g id="a_node12"><a xlink:href="repeater_8h_source.html" target="_top" xlink:title=" ">
<polygon fill="none" stroke="black" points="574,-67.5 574,-97.5 680,-97.5 680,-67.5 574,-67.5"/>
<text text-anchor="start" x="582" y="-85.5" font-family="Helvetica,sans-Serif" font-size="10.00">fernotron/repeater</text>
<text text-anchor="middle" x="627" y="-74.5" font-family="Helvetica,sans-Serif" font-size="10.00">/repeater.h</text>
</a>
</g>
</g>
<!-- Node11&#45;&gt;Node12 -->
<g id="edge12" class="edge">
<title>Node11&#45;&gt;Node12</title>
<path fill="none" stroke="midnightblue" d="M489.35,-131.09C519.7,-120.6 557.85,-107.41 586.29,-97.58"/>
<polygon fill="midnightblue" stroke="midnightblue" points="488.1,-127.82 479.79,-134.4 490.39,-134.44 488.1,-127.82"/>
</g>
<!-- Node13 -->
<g id="node13" class="node">
<title>Node13</title>
<g id="a_node13"><a xlink:href="fer__msg__attachment_8h.html" target="_top" xlink:title="Extended messages.">
<polygon fill="none" stroke="black" points="438,-67.5 438,-97.5 556,-97.5 556,-67.5 438,-67.5"/>
<text text-anchor="start" x="446" y="-85.5" font-family="Helvetica,sans-Serif" font-size="10.00">fernotron_trx/raw/fer</text>
<text text-anchor="middle" x="497" y="-74.5" font-family="Helvetica,sans-Serif" font-size="10.00">_msg_attachment.h</text>
</a>
</g>
</g>
<!-- Node11&#45;&gt;Node13 -->
<g id="edge14" class="edge">
<title>Node11&#45;&gt;Node13</title>
<path fill="none" stroke="midnightblue" d="M458.42,-126.74C467,-117.12 476.84,-106.09 484.44,-97.58"/>
<polygon fill="midnightblue" stroke="midnightblue" points="455.63,-124.6 451.59,-134.4 460.85,-129.26 455.63,-124.6"/>
</g>
<!-- Node13&#45;&gt;Node7 -->
<g id="edge15" class="edge">
<title>Node13&#45;&gt;Node7</title>
<path fill="none" stroke="midnightblue" d="M534.01,-62.85C554.4,-52.58 579.31,-40.03 598.06,-30.58"/>
<polygon fill="midnightblue" stroke="midnightblue" points="532.35,-59.77 524.99,-67.4 535.5,-66.02 532.35,-59.77"/>
</g>
<!-- Node13&#45;&gt;Node10 -->
<g id="edge18" class="edge">
<title>Node13&#45;&gt;Node10</title>
<path fill="none" stroke="midnightblue" d="M458.28,-62.99C436.72,-52.69 410.31,-40.07 390.45,-30.58"/>
<polygon fill="midnightblue" stroke="midnightblue" points="456.96,-66.24 467.49,-67.4 459.98,-59.93 456.96,-66.24"/>
</g>
<!-- Node13&#45;&gt;Node14 -->
<g id="edge16" class="edge">
<title>Node13&#45;&gt;Node14</title>
<path fill="none" stroke="midnightblue" d="M562.55,-64.98C604.7,-54.37 658.86,-40.72 698.99,-30.61"/>
<polygon fill="midnightblue" stroke="midnightblue" points="561.51,-61.64 552.66,-67.48 563.22,-68.43 561.51,-61.64"/>
</g>
<!-- Node15 -->
<g id="node15" class="node">
<title>Node15</title>
<g id="a_node15"><a xlink:href="fer__rawmsg__buffer_8h.html" target="_top" xlink:title="Global static buffers for raw messages.">
<polygon fill="none" stroke="black" points="438,-0.5 438,-30.5 556,-30.5 556,-0.5 438,-0.5"/>
<text text-anchor="start" x="446" y="-18.5" font-family="Helvetica,sans-Serif" font-size="10.00">fernotron_trx/raw/fer</text>
<text text-anchor="middle" x="497" y="-7.5" font-family="Helvetica,sans-Serif" font-size="10.00">_rawmsg_buffer.h</text>
</a>
</g>
</g>
<!-- Node13&#45;&gt;Node15 -->
<g id="edge17" class="edge">
<title>Node13&#45;&gt;Node15</title>
<path fill="none" stroke="midnightblue" d="M497,-57.11C497,-48.15 497,-38.32 497,-30.58"/>
<polygon fill="midnightblue" stroke="midnightblue" points="493.5,-57.4 497,-67.4 500.5,-57.4 493.5,-57.4"/>
</g>
</g>
</svg>
