<?xml version="1.0" encoding="UTF-8" standalone="no"?>
<!DOCTYPE svg PUBLIC "-//W3C//DTD SVG 1.1//EN"
 "http://www.w3.org/Graphics/SVG/1.1/DTD/svg11.dtd">
<!-- Generated by graphviz version 2.43.0 (0)
 -->
<!-- Title: fer_msg_attachment.h Pages: 1 -->
<svg width="619pt" height="296pt"
 viewBox="0.00 0.00 619.28 296.00" xmlns="http://www.w3.org/2000/svg" xmlns:xlink="http://www.w3.org/1999/xlink">
<g id="graph0" class="graph" transform="scale(1 1) rotate(0) translate(4 292)">
<title>fer_msg_attachment.h</title>
<!-- Node1 -->
<g id="node1" class="node">
<title>Node1</title>
<g id="a_node1"><a xlink:title="Extended messages.">
<polygon fill="#bfbfbf" stroke="black" points="149.28,-268.5 149.28,-287.5 276.28,-287.5 276.28,-268.5 149.28,-268.5"/>
<text text-anchor="middle" x="212.78" y="-275.5" font-family="Helvetica,sans-Serif" font-size="10.00">fer_msg_attachment.h</text>
</a>
</g>
</g>
<!-- Node2 -->
<g id="node2" class="node">
<title>Node2</title>
<g id="a_node2"><a xlink:title=" ">
<polygon fill="none" stroke="#bfbfbf" points="32.28,-6 32.28,-25 85.28,-25 85.28,-6 32.28,-6"/>
<text text-anchor="middle" x="58.78" y="-13" font-family="Helvetica,sans-Serif" font-size="10.00">stdint.h</text>
</a>
</g>
</g>
<!-- Node1&#45;&gt;Node2 -->
<g id="edge1" class="edge">
<title>Node1&#45;&gt;Node2</title>
<path fill="none" stroke="midnightblue" d="M172.7,-268.46C148.01,-261.69 116.79,-250.25 93.78,-232 37.56,-187.42 24.68,-166.63 3.78,-98 -0.24,-84.82 -1.77,-79.61 3.78,-67 10.32,-52.1 23.67,-39.67 35.58,-30.87"/>
<polygon fill="midnightblue" stroke="midnightblue" points="37.65,-33.69 43.88,-25.12 33.67,-27.94 37.65,-33.69"/>
</g>
<!-- Node3 -->
<g id="node3" class="node">
<title>Node3</title>
<g id="a_node3"><a xlink:href="fer__msg__plain_8h.html" target="_top" xlink:title="Data structure of plain messages or header of extended messages.">
<polygon fill="none" stroke="black" points="103.28,-207 103.28,-226 198.28,-226 198.28,-207 103.28,-207"/>
<text text-anchor="middle" x="150.78" y="-214" font-family="Helvetica,sans-Serif" font-size="10.00">fer_msg_plain.h</text>
</a>
</g>
</g>
<!-- Node1&#45;&gt;Node3 -->
<g id="edge2" class="edge">
<title>Node1&#45;&gt;Node3</title>
<path fill="none" stroke="midnightblue" d="M203.89,-268.48C194.32,-259.28 178.86,-244.46 167.09,-233.16"/>
<polygon fill="midnightblue" stroke="midnightblue" points="169.28,-230.41 159.64,-226.01 164.43,-235.46 169.28,-230.41"/>
</g>
<!-- Node17 -->
<g id="node17" class="node">
<title>Node17</title>
<g id="a_node17"><a xlink:href="fer__msg__attachment__enum_8h.html" target="_top" xlink:title="Enums for extended messages.">
<polygon fill="none" stroke="black" points="216.78,-201.5 216.78,-231.5 334.78,-231.5 334.78,-201.5 216.78,-201.5"/>
<text text-anchor="start" x="224.78" y="-219.5" font-family="Helvetica,sans-Serif" font-size="10.00">fer_msg_attachment</text>
<text text-anchor="middle" x="275.78" y="-208.5" font-family="Helvetica,sans-Serif" font-size="10.00">_enum.h</text>
</a>
</g>
</g>
<!-- Node1&#45;&gt;Node17 -->
<g id="edge18" class="edge">
<title>Node1&#45;&gt;Node17</title>
<path fill="none" stroke="midnightblue" d="M221.8,-268.48C230.01,-260.72 242.48,-248.94 253.37,-238.66"/>
<polygon fill="midnightblue" stroke="midnightblue" points="256.06,-240.93 260.93,-231.52 251.25,-235.84 256.06,-240.93"/>
</g>
<!-- Node18 -->
<g id="node18" class="node">
<title>Node18</title>
<g id="a_node18"><a xlink:title=" ">
<polygon fill="none" stroke="#bfbfbf" points="353.28,-207 353.28,-226 448.28,-226 448.28,-207 353.28,-207"/>
<text text-anchor="middle" x="400.78" y="-214" font-family="Helvetica,sans-Serif" font-size="10.00">utils_misc/bcd.h</text>
</a>
</g>
</g>
<!-- Node1&#45;&gt;Node18 -->
<g id="edge19" class="edge">
<title>Node1&#45;&gt;Node18</title>
<path fill="none" stroke="midnightblue" d="M239.71,-268.48C272.38,-258.14 327.59,-240.66 364.12,-229.1"/>
<polygon fill="midnightblue" stroke="midnightblue" points="365.41,-232.36 373.89,-226.01 363.3,-225.69 365.41,-232.36"/>
</g>
<!-- Node4 -->
<g id="node4" class="node">
<title>Node4</title>
<g id="a_node4"><a xlink:href="fer__msg__type_8h.html" target="_top" xlink:title="kinds of messages">
<polygon fill="none" stroke="black" points="12.78,-73 12.78,-92 104.78,-92 104.78,-73 12.78,-73"/>
<text text-anchor="middle" x="58.78" y="-80" font-family="Helvetica,sans-Serif" font-size="10.00">fer_msg_type.h</text>
</a>
</g>
</g>
<!-- Node3&#45;&gt;Node4 -->
<g id="edge3" class="edge">
<title>Node3&#45;&gt;Node4</title>
<path fill="none" stroke="midnightblue" d="M130.94,-206.86C114.21,-198.54 90.95,-184.37 77.78,-165 64.97,-146.18 60.72,-119.87 59.35,-102.28"/>
<polygon fill="midnightblue" stroke="midnightblue" points="62.84,-101.95 58.81,-92.16 55.85,-102.33 62.84,-101.95"/>
</g>
<!-- Node5 -->
<g id="node5" class="node">
<title>Node5</title>
<g id="a_node5"><a xlink:href="fer__msg__plain__enum_8h.html" target="_top" xlink:title="Raw message for plain commands.">
<polygon fill="none" stroke="black" points="86.78,-140 86.78,-159 214.78,-159 214.78,-140 86.78,-140"/>
<text text-anchor="middle" x="150.78" y="-147" font-family="Helvetica,sans-Serif" font-size="10.00">fer_msg_plain_enum.h</text>
</a>
</g>
</g>
<!-- Node3&#45;&gt;Node5 -->
<g id="edge5" class="edge">
<title>Node3&#45;&gt;Node5</title>
<path fill="none" stroke="midnightblue" d="M150.78,-206.73C150.78,-197.18 150.78,-181.62 150.78,-169.28"/>
<polygon fill="midnightblue" stroke="midnightblue" points="154.28,-169.13 150.78,-159.13 147.28,-169.13 154.28,-169.13"/>
</g>
<!-- Node6 -->
<g id="node6" class="node">
<title>Node6</title>
<g id="a_node6"><a xlink:href="fer__trx__c__api_8h.html" target="_top" xlink:title="C&#45;API for sending and receiving Fernotron RF messages.">
<polygon fill="none" stroke="black" points="232.78,-134.5 232.78,-164.5 348.78,-164.5 348.78,-134.5 232.78,-134.5"/>
<text text-anchor="start" x="240.78" y="-152.5" font-family="Helvetica,sans-Serif" font-size="10.00">fernotron_trx/fer_trx</text>
<text text-anchor="middle" x="290.78" y="-141.5" font-family="Helvetica,sans-Serif" font-size="10.00">_c_api.h</text>
</a>
</g>
</g>
<!-- Node3&#45;&gt;Node6 -->
<g id="edge6" class="edge">
<title>Node3&#45;&gt;Node6</title>
<path fill="none" stroke="midnightblue" d="M169.37,-206.87C190.19,-197.2 224.55,-181.25 251.41,-168.78"/>
<polygon fill="midnightblue" stroke="midnightblue" points="252.96,-171.91 260.56,-164.53 250.02,-165.56 252.96,-171.91"/>
</g>
<!-- Node16 -->
<g id="node16" class="node">
<title>Node16</title>
<g id="a_node16"><a xlink:title=" ">
<polygon fill="none" stroke="#bfbfbf" points="366.78,-140 366.78,-159 498.78,-159 498.78,-140 366.78,-140"/>
<text text-anchor="middle" x="432.78" y="-147" font-family="Helvetica,sans-Serif" font-size="10.00">utils_misc/int_macros.h</text>
</a>
</g>
</g>
<!-- Node3&#45;&gt;Node16 -->
<g id="edge17" class="edge">
<title>Node3&#45;&gt;Node16</title>
<path fill="none" stroke="midnightblue" d="M183.59,-206.98C191.5,-204.98 199.93,-202.88 207.78,-201 268.04,-186.57 337.69,-171.13 383.34,-161.17"/>
<polygon fill="midnightblue" stroke="midnightblue" points="384.25,-164.56 393.27,-159.01 382.76,-157.72 384.25,-164.56"/>
</g>
<!-- Node4&#45;&gt;Node2 -->
<g id="edge4" class="edge">
<title>Node4&#45;&gt;Node2</title>
<path fill="none" stroke="midnightblue" d="M58.78,-72.73C58.78,-63.18 58.78,-47.62 58.78,-35.28"/>
<polygon fill="midnightblue" stroke="midnightblue" points="62.28,-35.13 58.78,-25.13 55.28,-35.13 62.28,-35.13"/>
</g>
<!-- Node7 -->
<g id="node7" class="node">
<title>Node7</title>
<g id="a_node7"><a xlink:title=" ">
<polygon fill="none" stroke="#bfbfbf" points="123.28,-73 123.28,-92 246.28,-92 246.28,-73 123.28,-73"/>
<text text-anchor="middle" x="184.78" y="-80" font-family="Helvetica,sans-Serif" font-size="10.00">utils_misc/int_types.h</text>
</a>
</g>
</g>
<!-- Node6&#45;&gt;Node7 -->
<g id="edge7" class="edge">
<title>Node6&#45;&gt;Node7</title>
<path fill="none" stroke="midnightblue" d="M267.77,-134.4C249.83,-123.39 225.06,-108.2 207.25,-97.28"/>
<polygon fill="midnightblue" stroke="midnightblue" points="209,-94.25 198.65,-92.01 205.34,-100.22 209,-94.25"/>
</g>
<!-- Node8 -->
<g id="node8" class="node">
<title>Node8</title>
<g id="a_node8"><a xlink:href="timer__data_8h.html" target="_top" xlink:title="vocabulary types to program Fernotron automatic (timers)">
<polygon fill="none" stroke="black" points="264.78,-67.5 264.78,-97.5 374.78,-97.5 374.78,-67.5 264.78,-67.5"/>
<text text-anchor="start" x="272.78" y="-85.5" font-family="Helvetica,sans-Serif" font-size="10.00">fernotron_trx/timer</text>
<text text-anchor="middle" x="319.78" y="-74.5" font-family="Helvetica,sans-Serif" font-size="10.00">_data.h</text>
</a>
</g>
</g>
<!-- Node6&#45;&gt;Node8 -->
<g id="edge8" class="edge">
<title>Node6&#45;&gt;Node8</title>
<path fill="none" stroke="midnightblue" d="M297.07,-134.4C300.64,-126.39 305.2,-116.16 309.3,-106.98"/>
<polygon fill="midnightblue" stroke="midnightblue" points="312.62,-108.13 313.49,-97.58 306.22,-105.28 312.62,-108.13"/>
</g>
<!-- Node15 -->
<g id="node15" class="node">
<title>Node15</title>
<g id="a_node15"><a xlink:title=" ">
<polygon fill="none" stroke="#bfbfbf" points="392.78,-73 392.78,-92 440.78,-92 440.78,-73 392.78,-73"/>
<text text-anchor="middle" x="416.78" y="-80" font-family="Helvetica,sans-Serif" font-size="10.00">time.h</text>
</a>
</g>
</g>
<!-- Node6&#45;&gt;Node15 -->
<g id="edge16" class="edge">
<title>Node6&#45;&gt;Node15</title>
<path fill="none" stroke="midnightblue" d="M318.12,-134.4C339.83,-123.19 369.98,-107.64 391.22,-96.69"/>
<polygon fill="midnightblue" stroke="midnightblue" points="393,-99.7 400.28,-92.01 389.79,-93.48 393,-99.7"/>
</g>
<!-- Node8&#45;&gt;Node2 -->
<g id="edge9" class="edge">
<title>Node8&#45;&gt;Node2</title>
<path fill="none" stroke="midnightblue" d="M264.63,-68.26C223.1,-58.22 164.81,-43.98 113.78,-31 107.83,-29.49 101.53,-27.85 95.4,-26.25"/>
<polygon fill="midnightblue" stroke="midnightblue" points="95.89,-22.76 85.33,-23.6 94.11,-29.53 95.89,-22.76"/>
</g>
<!-- Node9 -->
<g id="node9" class="node">
<title>Node9</title>
<g id="a_node9"><a xlink:title=" ">
<polygon fill="none" stroke="#bfbfbf" points="122.78,-6 122.78,-25 184.78,-25 184.78,-6 122.78,-6"/>
<text text-anchor="middle" x="153.78" y="-13" font-family="Helvetica,sans-Serif" font-size="10.00">stdbool.h</text>
</a>
</g>
</g>
<!-- Node8&#45;&gt;Node9 -->
<g id="edge10" class="edge">
<title>Node8&#45;&gt;Node9</title>
<path fill="none" stroke="midnightblue" d="M283.76,-67.4C254.24,-55.84 212.91,-39.66 184.84,-28.66"/>
<polygon fill="midnightblue" stroke="midnightblue" points="186.09,-25.39 175.5,-25.01 183.54,-31.91 186.09,-25.39"/>
</g>
<!-- Node10 -->
<g id="node10" class="node">
<title>Node10</title>
<g id="a_node10"><a xlink:title=" ">
<polygon fill="none" stroke="#bfbfbf" points="203.28,-6 203.28,-25 256.28,-25 256.28,-6 203.28,-6"/>
<text text-anchor="middle" x="229.78" y="-13" font-family="Helvetica,sans-Serif" font-size="10.00">string.h</text>
</a>
</g>
</g>
<!-- Node8&#45;&gt;Node10 -->
<g id="edge11" class="edge">
<title>Node8&#45;&gt;Node10</title>
<path fill="none" stroke="midnightblue" d="M300.25,-67.4C285.29,-56.6 264.75,-41.76 249.7,-30.89"/>
<polygon fill="midnightblue" stroke="midnightblue" points="251.71,-28.02 241.55,-25.01 247.61,-33.7 251.71,-28.02"/>
</g>
<!-- Node11 -->
<g id="node11" class="node">
<title>Node11</title>
<g id="a_node11"><a xlink:title=" ">
<polygon fill="none" stroke="#bfbfbf" points="274.28,-6 274.28,-25 327.28,-25 327.28,-6 274.28,-6"/>
<text text-anchor="middle" x="300.78" y="-13" font-family="Helvetica,sans-Serif" font-size="10.00">ctype.h</text>
</a>
</g>
</g>
<!-- Node8&#45;&gt;Node11 -->
<g id="edge12" class="edge">
<title>Node8&#45;&gt;Node11</title>
<path fill="none" stroke="midnightblue" d="M315.65,-67.4C312.87,-57.86 309.16,-45.18 306.14,-34.86"/>
<polygon fill="midnightblue" stroke="midnightblue" points="309.48,-33.81 303.32,-25.19 302.76,-35.77 309.48,-33.81"/>
</g>
<!-- Node12 -->
<g id="node12" class="node">
<title>Node12</title>
<g id="a_node12"><a xlink:title=" ">
<polygon fill="none" stroke="#bfbfbf" points="345.78,-6 345.78,-25 395.78,-25 395.78,-6 345.78,-6"/>
<text text-anchor="middle" x="370.78" y="-13" font-family="Helvetica,sans-Serif" font-size="10.00">stdio.h</text>
</a>
</g>
</g>
<!-- Node8&#45;&gt;Node12 -->
<g id="edge13" class="edge">
<title>Node8&#45;&gt;Node12</title>
<path fill="none" stroke="midnightblue" d="M330.84,-67.4C338.71,-57.36 349.33,-43.84 357.63,-33.25"/>
<polygon fill="midnightblue" stroke="midnightblue" points="360.53,-35.22 363.95,-25.19 355.03,-30.9 360.53,-35.22"/>
</g>
<!-- Node13 -->
<g id="node13" class="node">
<title>Node13</title>
<g id="a_node13"><a xlink:title=" ">
<polygon fill="none" stroke="#bfbfbf" points="413.78,-0.5 413.78,-30.5 515.78,-30.5 515.78,-0.5 413.78,-0.5"/>
<text text-anchor="start" x="421.78" y="-18.5" font-family="Helvetica,sans-Serif" font-size="10.00">utils_misc/cstring</text>
<text text-anchor="middle" x="464.78" y="-7.5" font-family="Helvetica,sans-Serif" font-size="10.00">_utils.hh</text>
</a>
</g>
</g>
<!-- Node8&#45;&gt;Node13 -->
<g id="edge14" class="edge">
<title>Node8&#45;&gt;Node13</title>
<path fill="none" stroke="midnightblue" d="M351.24,-67.4C372.61,-57.81 401.09,-45.05 424.17,-34.7"/>
<polygon fill="midnightblue" stroke="midnightblue" points="425.68,-37.86 433.37,-30.58 422.82,-31.47 425.68,-37.86"/>
</g>
<!-- Node14 -->
<g id="node14" class="node">
<title>Node14</title>
<g id="a_node14"><a xlink:title=" ">
<polygon fill="none" stroke="#bfbfbf" points="534.28,-6 534.28,-25 611.28,-25 611.28,-6 534.28,-6"/>
<text text-anchor="middle" x="572.78" y="-13" font-family="Helvetica,sans-Serif" font-size="10.00">debug/dbg.h</text>
</a>
</g>
</g>
<!-- Node8&#45;&gt;Node14 -->
<g id="edge15" class="edge">
<title>Node8&#45;&gt;Node14</title>
<path fill="none" stroke="midnightblue" d="M374.79,-68.76C416.18,-58.99 474.22,-44.85 524.78,-31 528.34,-30.02 532.05,-28.97 535.75,-27.89"/>
<polygon fill="midnightblue" stroke="midnightblue" points="536.84,-31.22 545.43,-25.03 534.85,-24.51 536.84,-31.22"/>
</g>
</g>
</svg>
