<?xml version="1.0" encoding="UTF-8" standalone="no"?>
<!DOCTYPE svg PUBLIC "-//W3C//DTD SVG 1.1//EN"
 "http://www.w3.org/Graphics/SVG/1.1/DTD/svg11.dtd">
<!-- Generated by graphviz version 2.43.0 (0)
 -->
<!-- Title: fernotron_trx/include/fernotron_trx/raw/fer_rawmsg_build.h Pages: 1 -->
<!--zoomable 374 -->
<svg id="main" version="1.1" xmlns="http://www.w3.org/2000/svg" xmlns:xlink="http://www.w3.org/1999/xlink" xml:space="preserve" onload="init(evt)">
<style type="text/css"><![CDATA[
.edge:hover path { stroke: red; }
.edge:hover polygon { stroke: red; fill: red; }
]]></style>
<script type="text/javascript"><![CDATA[
var edges = document.getElementsByTagName('g');
if (edges && edges.length) {
  for (var i=0;i<edges.length;i++) {
    if (edges[i].id.substr(0,4)=='edge') {
      edges[i].setAttribute('class','edge');
    }
  }
}
]]></script>
        <defs>
                <circle id="rim" cx="0" cy="0" r="7"/>
                <circle id="rim2" cx="0" cy="0" r="3.5"/>
                <g id="zoomPlus">
                        <use xlink:href="#rim" fill="#404040">
                                <set attributeName="fill" to="#808080" begin="zoomplus.mouseover" end="zoomplus.mouseout"/>
                        </use>
                        <path d="M-4,0h8M0,-4v8" fill="none" stroke="white" stroke-width="1.5" pointer-events="none"/>
                </g>
                <g id="zoomMin">
                        <use xlink:href="#rim" fill="#404040">
                                <set attributeName="fill" to="#808080" begin="zoomminus.mouseover" end="zoomminus.mouseout"/>
                        </use>
                        <path d="M-4,0h8" fill="none" stroke="white" stroke-width="1.5" pointer-events="none"/>
                </g>
                <g id="dirArrow">
                        <path fill="none" stroke="white" stroke-width="1.5" d="M0,-3.0v7 M-2.5,-0.5L0,-3.0L2.5,-0.5"/>
                </g>
               <g id="resetDef">
                       <use xlink:href="#rim2" fill="#404040">
                               <set attributeName="fill" to="#808080" begin="reset.mouseover" end="reset.mouseout"/>
                       </use>
               </g>
        </defs>

<script type="text/javascript">
var viewWidth = 1044;
var viewHeight = 374;
var sectionId = 'dynsection-0';
</script>
<script xlink:href="svgpan.js"/>
<svg id="graph" class="graph">
<g id="viewport">
<title>fernotron_trx/include/fernotron_trx/raw/fer_rawmsg_build.h</title>
<!-- Node1 -->
<g id="node1" class="node">
<title>Node1</title>
<g id="a_node1"><a xlink:title="builder functions to construct (extended) raw messages">
<polygon fill="#bfbfbf" stroke="black" points="538.5,-324.5 538.5,-365.5 659.5,-365.5 659.5,-324.5 538.5,-324.5"/>
<text text-anchor="start" x="546.5" y="-353.5" font-family="Helvetica,sans-Serif" font-size="10.00">fernotron_trx/include</text>
<text text-anchor="start" x="546.5" y="-342.5" font-family="Helvetica,sans-Serif" font-size="10.00">/fernotron_trx/raw/fer</text>
<text text-anchor="middle" x="599" y="-331.5" font-family="Helvetica,sans-Serif" font-size="10.00">_rawmsg_build.h</text>
</a>
</g>
</g>
<!-- Node2 -->
<g id="node2" class="node">
<title>Node2</title>
<g id="a_node2"><a xlink:title=" ">
<polygon fill="none" stroke="#bfbfbf" points="637.5,-6 637.5,-25 690.5,-25 690.5,-6 637.5,-6"/>
<text text-anchor="middle" x="664" y="-13" font-family="Helvetica,sans-Serif" font-size="10.00">stdint.h</text>
</a>
</g>
</g>
<!-- Node1&#45;&gt;Node2 -->
<g id="edge1" class="edge">
<title>Node1&#45;&gt;Node2</title>
<path fill="none" stroke="midnightblue" d="M646.06,-324.47C686.38,-304.24 738,-268.4 738,-217.5 738,-217.5 738,-217.5 738,-148.5 738,-111.31 737.76,-99.12 719,-67 710.77,-52.91 697.33,-40.46 685.8,-31.45"/>
<polygon fill="midnightblue" stroke="midnightblue" points="687.58,-28.42 677.47,-25.26 683.41,-34.03 687.58,-28.42"/>
</g>
<!-- Node3 -->
<g id="node3" class="node">
<title>Node3</title>
<g id="a_node3"><a xlink:href="fer__fsb_8h.html" target="_top" xlink:title="Plain raw message.">
<polygon fill="none" stroke="black" points="430.5,-268.5 430.5,-287.5 489.5,-287.5 489.5,-268.5 430.5,-268.5"/>
<text text-anchor="middle" x="460" y="-275.5" font-family="Helvetica,sans-Serif" font-size="10.00">fer_fsb.h</text>
</a>
</g>
</g>
<!-- Node1&#45;&gt;Node3 -->
<g id="edge2" class="edge">
<title>Node1&#45;&gt;Node3</title>
<path fill="none" stroke="midnightblue" d="M557.3,-324.5C534.75,-313.96 507.54,-301.23 487.64,-291.92"/>
<polygon fill="midnightblue" stroke="midnightblue" points="489.04,-288.72 478.5,-287.65 486.08,-295.06 489.04,-288.72"/>
</g>
<!-- Node16 -->
<g id="node16" class="node">
<title>Node16</title>
<g id="a_node16"><a xlink:title=" ">
<polygon fill="none" stroke="#bfbfbf" points="92,-73 92,-92 140,-92 140,-73 92,-73"/>
<text text-anchor="middle" x="116" y="-80" font-family="Helvetica,sans-Serif" font-size="10.00">time.h</text>
</a>
</g>
</g>
<!-- Node1&#45;&gt;Node16 -->
<g id="edge27" class="edge">
<title>Node1&#45;&gt;Node16</title>
<path fill="none" stroke="midnightblue" d="M538.27,-327.92C503.39,-317.94 459.09,-303.99 421,-288 321.97,-246.44 299.29,-228.94 213,-165 183.91,-143.44 152.11,-115.9 133.13,-98.99"/>
<polygon fill="midnightblue" stroke="midnightblue" points="135.37,-96.31 125.59,-92.24 130.7,-101.52 135.37,-96.31"/>
</g>
<!-- Node18 -->
<g id="node18" class="node">
<title>Node18</title>
<g id="a_node18"><a xlink:href="fer__msg__attachment_8h.html" target="_top" xlink:title="Extended messages.">
<polygon fill="none" stroke="black" points="766.5,-268.5 766.5,-287.5 893.5,-287.5 893.5,-268.5 766.5,-268.5"/>
<text text-anchor="middle" x="830" y="-275.5" font-family="Helvetica,sans-Serif" font-size="10.00">fer_msg_attachment.h</text>
</a>
</g>
</g>
<!-- Node1&#45;&gt;Node18 -->
<g id="edge22" class="edge">
<title>Node1&#45;&gt;Node18</title>
<path fill="none" stroke="midnightblue" d="M659.69,-326.92C700.87,-315.34 754.15,-300.34 790.06,-290.24"/>
<polygon fill="midnightblue" stroke="midnightblue" points="791.02,-293.6 799.7,-287.53 789.13,-286.87 791.02,-293.6"/>
</g>
<!-- Node3&#45;&gt;Node2 -->
<g id="edge3" class="edge">
<title>Node3&#45;&gt;Node2</title>
<path fill="none" stroke="midnightblue" d="M448.88,-268.27C421.09,-245.39 353.06,-182.11 385,-134 413.13,-91.62 558.23,-46.15 627.33,-26.5"/>
<polygon fill="midnightblue" stroke="midnightblue" points="628.67,-29.76 637.34,-23.68 626.77,-23.02 628.67,-29.76"/>
</g>
<!-- Node4 -->
<g id="node4" class="node">
<title>Node4</title>
<g id="a_node4"><a xlink:href="fer__msg__plain_8h.html" target="_top" xlink:title="Data structure of plain messages or header of extended messages.">
<polygon fill="none" stroke="black" points="524.5,-207 524.5,-226 619.5,-226 619.5,-207 524.5,-207"/>
<text text-anchor="middle" x="572" y="-214" font-family="Helvetica,sans-Serif" font-size="10.00">fer_msg_plain.h</text>
</a>
</g>
</g>
<!-- Node3&#45;&gt;Node4 -->
<g id="edge4" class="edge">
<title>Node3&#45;&gt;Node4</title>
<path fill="none" stroke="midnightblue" d="M476.05,-268.48C494.59,-258.62 525.34,-242.29 547.02,-230.77"/>
<polygon fill="midnightblue" stroke="midnightblue" points="548.79,-233.79 555.98,-226.01 545.51,-227.61 548.79,-233.79"/>
</g>
<!-- Node7 -->
<g id="node7" class="node">
<title>Node7</title>
<g id="a_node7"><a xlink:href="fer__trx__c__api_8h.html" target="_top" xlink:title="C&#45;API for sending and receiving Fernotron RF messages.">
<polygon fill="none" stroke="black" points="222,-134.5 222,-164.5 338,-164.5 338,-134.5 222,-134.5"/>
<text text-anchor="start" x="230" y="-152.5" font-family="Helvetica,sans-Serif" font-size="10.00">fernotron_trx/fer_trx</text>
<text text-anchor="middle" x="280" y="-141.5" font-family="Helvetica,sans-Serif" font-size="10.00">_c_api.h</text>
</a>
</g>
</g>
<!-- Node3&#45;&gt;Node7 -->
<g id="edge21" class="edge">
<title>Node3&#45;&gt;Node7</title>
<path fill="none" stroke="midnightblue" d="M430.2,-268.62C407.42,-261.3 375.95,-249.14 352,-232 329.17,-215.67 308.57,-190.82 295.32,-172.85"/>
<polygon fill="midnightblue" stroke="midnightblue" points="298.1,-170.73 289.42,-164.65 292.42,-174.82 298.1,-170.73"/>
</g>
<!-- Node17 -->
<g id="node17" class="node">
<title>Node17</title>
<g id="a_node17"><a xlink:title=" ">
<polygon fill="none" stroke="#bfbfbf" points="394,-140 394,-159 526,-159 526,-140 394,-140"/>
<text text-anchor="middle" x="460" y="-147" font-family="Helvetica,sans-Serif" font-size="10.00">utils_misc/int_macros.h</text>
</a>
</g>
</g>
<!-- Node3&#45;&gt;Node17 -->
<g id="edge20" class="edge">
<title>Node3&#45;&gt;Node17</title>
<path fill="none" stroke="midnightblue" d="M460,-268.31C460,-247.99 460,-197.05 460,-169.28"/>
<polygon fill="midnightblue" stroke="midnightblue" points="463.5,-169.26 460,-159.26 456.5,-169.26 463.5,-169.26"/>
</g>
<!-- Node5 -->
<g id="node5" class="node">
<title>Node5</title>
<g id="a_node5"><a xlink:href="fer__msg__type_8h.html" target="_top" xlink:title="kinds of messages">
<polygon fill="none" stroke="black" points="618,-73 618,-92 710,-92 710,-73 618,-73"/>
<text text-anchor="middle" x="664" y="-80" font-family="Helvetica,sans-Serif" font-size="10.00">fer_msg_type.h</text>
</a>
</g>
</g>
<!-- Node4&#45;&gt;Node5 -->
<g id="edge5" class="edge">
<title>Node4&#45;&gt;Node5</title>
<path fill="none" stroke="midnightblue" d="M616.28,-206.96C639.8,-199.92 666.74,-187.32 681,-165 693.42,-145.55 683.74,-118.66 674.69,-101.18"/>
<polygon fill="midnightblue" stroke="midnightblue" points="677.54,-99.11 669.61,-92.09 671.44,-102.53 677.54,-99.11"/>
</g>
<!-- Node6 -->
<g id="node6" class="node">
<title>Node6</title>
<g id="a_node6"><a xlink:href="fer__msg__plain__enum_8h.html" target="_top" xlink:title="Raw message for plain commands.">
<polygon fill="none" stroke="black" points="544,-140 544,-159 672,-159 672,-140 544,-140"/>
<text text-anchor="middle" x="608" y="-147" font-family="Helvetica,sans-Serif" font-size="10.00">fer_msg_plain_enum.h</text>
</a>
</g>
</g>
<!-- Node4&#45;&gt;Node6 -->
<g id="edge7" class="edge">
<title>Node4&#45;&gt;Node6</title>
<path fill="none" stroke="midnightblue" d="M576.86,-206.73C582.31,-196.89 591.3,-180.66 598.22,-168.16"/>
<polygon fill="midnightblue" stroke="midnightblue" points="601.44,-169.57 603.22,-159.13 595.31,-166.18 601.44,-169.57"/>
</g>
<!-- Node4&#45;&gt;Node7 -->
<g id="edge8" class="edge">
<title>Node4&#45;&gt;Node7</title>
<path fill="none" stroke="midnightblue" d="M533.53,-206.94C486.39,-196.44 405.69,-178.48 348,-165.64"/>
<polygon fill="midnightblue" stroke="midnightblue" points="348.75,-162.22 338.23,-163.46 347.23,-169.05 348.75,-162.22"/>
</g>
<!-- Node4&#45;&gt;Node17 -->
<g id="edge19" class="edge">
<title>Node4&#45;&gt;Node17</title>
<path fill="none" stroke="midnightblue" d="M556.9,-206.73C538.09,-195.82 505.75,-177.05 483.64,-164.22"/>
<polygon fill="midnightblue" stroke="midnightblue" points="485.27,-161.12 474.87,-159.13 481.76,-167.17 485.27,-161.12"/>
</g>
<!-- Node5&#45;&gt;Node2 -->
<g id="edge6" class="edge">
<title>Node5&#45;&gt;Node2</title>
<path fill="none" stroke="midnightblue" d="M664,-72.73C664,-63.18 664,-47.62 664,-35.28"/>
<polygon fill="midnightblue" stroke="midnightblue" points="667.5,-35.13 664,-25.13 660.5,-35.13 667.5,-35.13"/>
</g>
<!-- Node8 -->
<g id="node8" class="node">
<title>Node8</title>
<g id="a_node8"><a xlink:title=" ">
<polygon fill="none" stroke="#bfbfbf" points="286.5,-73 286.5,-92 409.5,-92 409.5,-73 286.5,-73"/>
<text text-anchor="middle" x="348" y="-80" font-family="Helvetica,sans-Serif" font-size="10.00">utils_misc/int_types.h</text>
</a>
</g>
</g>
<!-- Node7&#45;&gt;Node8 -->
<g id="edge9" class="edge">
<title>Node7&#45;&gt;Node8</title>
<path fill="none" stroke="midnightblue" d="M294.75,-134.4C305.57,-124.06 320.25,-110.02 331.46,-99.31"/>
<polygon fill="midnightblue" stroke="midnightblue" points="334.09,-101.63 338.9,-92.19 329.26,-96.57 334.09,-101.63"/>
</g>
<!-- Node9 -->
<g id="node9" class="node">
<title>Node9</title>
<g id="a_node9"><a xlink:href="timer__data_8h.html" target="_top" xlink:title="vocabulary types to program Fernotron automatic (timers)">
<polygon fill="none" stroke="black" points="158,-67.5 158,-97.5 268,-97.5 268,-67.5 158,-67.5"/>
<text text-anchor="start" x="166" y="-85.5" font-family="Helvetica,sans-Serif" font-size="10.00">fernotron_trx/timer</text>
<text text-anchor="middle" x="213" y="-74.5" font-family="Helvetica,sans-Serif" font-size="10.00">_data.h</text>
</a>
</g>
</g>
<!-- Node7&#45;&gt;Node9 -->
<g id="edge10" class="edge">
<title>Node7&#45;&gt;Node9</title>
<path fill="none" stroke="midnightblue" d="M265.46,-134.4C256.51,-125.71 244.86,-114.4 234.81,-104.66"/>
<polygon fill="midnightblue" stroke="midnightblue" points="237.12,-102.03 227.51,-97.58 232.25,-107.05 237.12,-102.03"/>
</g>
<!-- Node7&#45;&gt;Node16 -->
<g id="edge18" class="edge">
<title>Node7&#45;&gt;Node16</title>
<path fill="none" stroke="midnightblue" d="M242.27,-134.48C215.99,-124.59 180.21,-110.86 149,-98 147.59,-97.42 146.15,-96.82 144.7,-96.2"/>
<polygon fill="midnightblue" stroke="midnightblue" points="145.7,-92.82 135.13,-92.08 142.93,-99.25 145.7,-92.82"/>
</g>
<!-- Node9&#45;&gt;Node2 -->
<g id="edge11" class="edge">
<title>Node9&#45;&gt;Node2</title>
<path fill="none" stroke="midnightblue" d="M268.09,-68.68C271.1,-68.08 274.08,-67.52 277,-67 404.59,-44.27 557.55,-27.32 626.75,-20.19"/>
<polygon fill="midnightblue" stroke="midnightblue" points="627.53,-23.63 637.12,-19.14 626.82,-16.67 627.53,-23.63"/>
</g>
<!-- Node10 -->
<g id="node10" class="node">
<title>Node10</title>
<g id="a_node10"><a xlink:title=" ">
<polygon fill="none" stroke="#bfbfbf" points="0,-6 0,-25 62,-25 62,-6 0,-6"/>
<text text-anchor="middle" x="31" y="-13" font-family="Helvetica,sans-Serif" font-size="10.00">stdbool.h</text>
</a>
</g>
</g>
<!-- Node9&#45;&gt;Node10 -->
<g id="edge12" class="edge">
<title>Node9&#45;&gt;Node10</title>
<path fill="none" stroke="midnightblue" d="M173.19,-67.42C144.71,-57.32 105.48,-43.38 71,-31 68.77,-30.2 66.47,-29.37 64.16,-28.54"/>
<polygon fill="midnightblue" stroke="midnightblue" points="65.27,-25.22 54.68,-25.11 62.9,-31.8 65.27,-25.22"/>
</g>
<!-- Node11 -->
<g id="node11" class="node">
<title>Node11</title>
<g id="a_node11"><a xlink:title=" ">
<polygon fill="none" stroke="#bfbfbf" points="80.5,-6 80.5,-25 133.5,-25 133.5,-6 80.5,-6"/>
<text text-anchor="middle" x="107" y="-13" font-family="Helvetica,sans-Serif" font-size="10.00">string.h</text>
</a>
</g>
</g>
<!-- Node9&#45;&gt;Node11 -->
<g id="edge13" class="edge">
<title>Node9&#45;&gt;Node11</title>
<path fill="none" stroke="midnightblue" d="M190,-67.4C172.06,-56.39 147.28,-41.2 129.48,-30.28"/>
<polygon fill="midnightblue" stroke="midnightblue" points="131.23,-27.25 120.87,-25.01 127.57,-33.22 131.23,-27.25"/>
</g>
<!-- Node12 -->
<g id="node12" class="node">
<title>Node12</title>
<g id="a_node12"><a xlink:title=" ">
<polygon fill="none" stroke="#bfbfbf" points="151.5,-6 151.5,-25 204.5,-25 204.5,-6 151.5,-6"/>
<text text-anchor="middle" x="178" y="-13" font-family="Helvetica,sans-Serif" font-size="10.00">ctype.h</text>
</a>
</g>
</g>
<!-- Node9&#45;&gt;Node12 -->
<g id="edge14" class="edge">
<title>Node9&#45;&gt;Node12</title>
<path fill="none" stroke="midnightblue" d="M205.41,-67.4C200.16,-57.66 193.16,-44.65 187.54,-34.21"/>
<polygon fill="midnightblue" stroke="midnightblue" points="190.5,-32.34 182.68,-25.19 184.34,-35.66 190.5,-32.34"/>
</g>
<!-- Node13 -->
<g id="node13" class="node">
<title>Node13</title>
<g id="a_node13"><a xlink:title=" ">
<polygon fill="none" stroke="#bfbfbf" points="223,-6 223,-25 273,-25 273,-6 223,-6"/>
<text text-anchor="middle" x="248" y="-13" font-family="Helvetica,sans-Serif" font-size="10.00">stdio.h</text>
</a>
</g>
</g>
<!-- Node9&#45;&gt;Node13 -->
<g id="edge15" class="edge">
<title>Node9&#45;&gt;Node13</title>
<path fill="none" stroke="midnightblue" d="M220.59,-67.4C225.84,-57.66 232.84,-44.65 238.46,-34.21"/>
<polygon fill="midnightblue" stroke="midnightblue" points="241.66,-35.66 243.32,-25.19 235.5,-32.34 241.66,-35.66"/>
</g>
<!-- Node14 -->
<g id="node14" class="node">
<title>Node14</title>
<g id="a_node14"><a xlink:title=" ">
<polygon fill="none" stroke="#bfbfbf" points="291,-0.5 291,-30.5 393,-30.5 393,-0.5 291,-0.5"/>
<text text-anchor="start" x="299" y="-18.5" font-family="Helvetica,sans-Serif" font-size="10.00">utils_misc/cstring</text>
<text text-anchor="middle" x="342" y="-7.5" font-family="Helvetica,sans-Serif" font-size="10.00">_utils.hh</text>
</a>
</g>
</g>
<!-- Node9&#45;&gt;Node14 -->
<g id="edge16" class="edge">
<title>Node9&#45;&gt;Node14</title>
<path fill="none" stroke="midnightblue" d="M240.99,-67.4C259.75,-57.94 284.67,-45.39 305.05,-35.12"/>
<polygon fill="midnightblue" stroke="midnightblue" points="306.71,-38.2 314.06,-30.58 303.56,-31.95 306.71,-38.2"/>
</g>
<!-- Node15 -->
<g id="node15" class="node">
<title>Node15</title>
<g id="a_node15"><a xlink:title=" ">
<polygon fill="none" stroke="#bfbfbf" points="411.5,-6 411.5,-25 488.5,-25 488.5,-6 411.5,-6"/>
<text text-anchor="middle" x="450" y="-13" font-family="Helvetica,sans-Serif" font-size="10.00">debug/dbg.h</text>
</a>
</g>
</g>
<!-- Node9&#45;&gt;Node15 -->
<g id="edge17" class="edge">
<title>Node9&#45;&gt;Node15</title>
<path fill="none" stroke="midnightblue" d="M267.3,-67.49C305.15,-57.6 356.76,-43.87 402,-31 405.41,-30.03 408.95,-29 412.49,-27.96"/>
<polygon fill="midnightblue" stroke="midnightblue" points="413.79,-31.22 422.38,-25.01 411.79,-24.51 413.79,-31.22"/>
</g>
<!-- Node18&#45;&gt;Node2 -->
<g id="edge23" class="edge">
<title>Node18&#45;&gt;Node2</title>
<path fill="none" stroke="midnightblue" d="M821.85,-268.38C814.14,-259.79 802.78,-245.9 796,-232 762.73,-163.79 798.25,-127.18 752,-67 738.56,-49.52 717.23,-37.06 698.93,-28.89"/>
<polygon fill="midnightblue" stroke="midnightblue" points="700.27,-25.65 689.69,-25 697.55,-32.11 700.27,-25.65"/>
</g>
<!-- Node18&#45;&gt;Node4 -->
<g id="edge24" class="edge">
<title>Node18&#45;&gt;Node4</title>
<path fill="none" stroke="midnightblue" d="M793.03,-268.48C747.15,-257.89 668.85,-239.84 618.82,-228.3"/>
<polygon fill="midnightblue" stroke="midnightblue" points="619.43,-224.85 608.9,-226.01 617.85,-231.67 619.43,-224.85"/>
</g>
<!-- Node19 -->
<g id="node19" class="node">
<title>Node19</title>
<g id="a_node19"><a xlink:href="fer__msg__attachment__enum_8h.html" target="_top" xlink:title="Enums for extended messages.">
<polygon fill="none" stroke="black" points="918,-201.5 918,-231.5 1036,-231.5 1036,-201.5 918,-201.5"/>
<text text-anchor="start" x="926" y="-219.5" font-family="Helvetica,sans-Serif" font-size="10.00">fer_msg_attachment</text>
<text text-anchor="middle" x="977" y="-208.5" font-family="Helvetica,sans-Serif" font-size="10.00">_enum.h</text>
</a>
</g>
</g>
<!-- Node18&#45;&gt;Node19 -->
<g id="edge25" class="edge">
<title>Node18&#45;&gt;Node19</title>
<path fill="none" stroke="midnightblue" d="M851.06,-268.48C872.37,-259.85 905.94,-246.26 933.06,-235.29"/>
<polygon fill="midnightblue" stroke="midnightblue" points="934.4,-238.52 942.36,-231.52 931.77,-232.03 934.4,-238.52"/>
</g>
<!-- Node20 -->
<g id="node20" class="node">
<title>Node20</title>
<g id="a_node20"><a xlink:title=" ">
<polygon fill="none" stroke="#bfbfbf" points="804.5,-207 804.5,-226 899.5,-226 899.5,-207 804.5,-207"/>
<text text-anchor="middle" x="852" y="-214" font-family="Helvetica,sans-Serif" font-size="10.00">utils_misc/bcd.h</text>
</a>
</g>
</g>
<!-- Node18&#45;&gt;Node20 -->
<g id="edge26" class="edge">
<title>Node18&#45;&gt;Node20</title>
<path fill="none" stroke="midnightblue" d="M833.15,-268.48C836.32,-259.9 841.3,-246.43 845.35,-235.48"/>
<polygon fill="midnightblue" stroke="midnightblue" points="848.67,-236.6 848.85,-226.01 842.1,-234.17 848.67,-236.6"/>
</g>
</g>
</svg>
        <g id="navigator" transform="translate(0 0)" fill="#404254">
                <rect fill="#f2f5e9" fill-opacity="0.5" stroke="#606060" stroke-width=".5" x="0" y="0" width="60" height="60"/>
                <use id="zoomplus" xlink:href="#zoomPlus" x="17" y="9" onmousedown="handleZoom(evt,'in')"/>
                <use id="zoomminus" xlink:href="#zoomMin" x="42" y="9" onmousedown="handleZoom(evt,'out')"/>
                <use id="reset" xlink:href="#resetDef" x="30" y="36" onmousedown="handleReset()"/>
                <g id="arrowUp" xlink:href="#dirArrow" transform="translate(30 24)" onmousedown="handlePan(0,-1)">
                  <use xlink:href="#rim" fill="#404040">
                        <set attributeName="fill" to="#808080" begin="arrowUp.mouseover" end="arrowUp.mouseout"/>
                  </use>
                  <path fill="none" stroke="white" stroke-width="1.5" d="M0,-3.0v7 M-2.5,-0.5L0,-3.0L2.5,-0.5"/>
                </g>
                <g id="arrowRight" xlink:href="#dirArrow" transform="rotate(90) translate(36 -43)" onmousedown="handlePan(1,0)">
                  <use xlink:href="#rim" fill="#404040">
                        <set attributeName="fill" to="#808080" begin="arrowRight.mouseover" end="arrowRight.mouseout"/>
                  </use>
                  <path fill="none" stroke="white" stroke-width="1.5" d="M0,-3.0v7 M-2.5,-0.5L0,-3.0L2.5,-0.5"/>
                </g>
                <g id="arrowDown" xlink:href="#dirArrow" transform="rotate(180) translate(-30 -48)" onmousedown="handlePan(0,1)">
                  <use xlink:href="#rim" fill="#404040">
                        <set attributeName="fill" to="#808080" begin="arrowDown.mouseover" end="arrowDown.mouseout"/>
                  </use>
                  <path fill="none" stroke="white" stroke-width="1.5" d="M0,-3.0v7 M-2.5,-0.5L0,-3.0L2.5,-0.5"/>
                </g>
                <g id="arrowLeft" xlink:href="#dirArrow" transform="rotate(270) translate(-36 17)" onmousedown="handlePan(-1,0)">
                  <use xlink:href="#rim" fill="#404040">
                        <set attributeName="fill" to="#808080" begin="arrowLeft.mouseover" end="arrowLeft.mouseout"/>
                  </use>
                  <path fill="none" stroke="white" stroke-width="1.5" d="M0,-3.0v7 M-2.5,-0.5L0,-3.0L2.5,-0.5"/>
                </g>
        </g>
        <svg viewBox="0 0 15 15" width="100%" height="30px" preserveAspectRatio="xMaxYMin meet">
         <g id="arrow_out" transform="scale(0.3 0.3)">
          <a xlink:href="fer__rawmsg__build_8h__incl_org.svg" target="_base">
           <rect id="button" ry="5" rx="5" y="6" x="6" height="38" width="38"
                fill="#f2f5e9" fill-opacity="0.5" stroke="#606060" stroke-width="1.0"/>
           <path id="arrow"
             d="M 11.500037,31.436501 C 11.940474,20.09759 22.043105,11.32322 32.158766,21.979434 L 37.068811,17.246167 C 37.068811,17.246167 37.088388,32 37.088388,32 L 22.160133,31.978069 C 22.160133,31.978069 26.997745,27.140456 26.997745,27.140456 C 18.528582,18.264221 13.291696,25.230495 11.500037,31.436501 z"
             style="fill:#404040;"/>
          </a>
         </g>
        </svg>
</svg>
