<?xml version="1.0" encoding="UTF-8" standalone="no"?>
<!DOCTYPE svg PUBLIC "-//W3C//DTD SVG 1.1//EN"
 "http://www.w3.org/Graphics/SVG/1.1/DTD/svg11.dtd">
<!-- Generated by graphviz version 2.43.0 (0)
 -->
<!-- Title: fer_print.h Pages: 1 -->
<!--zoomable 363 -->
<svg id="main" version="1.1" xmlns="http://www.w3.org/2000/svg" xmlns:xlink="http://www.w3.org/1999/xlink" xml:space="preserve" onload="init(evt)">
<style type="text/css"><![CDATA[
.edge:hover path { stroke: red; }
.edge:hover polygon { stroke: red; fill: red; }
]]></style>
<script type="text/javascript"><![CDATA[
var edges = document.getElementsByTagName('g');
if (edges && edges.length) {
  for (var i=0;i<edges.length;i++) {
    if (edges[i].id.substr(0,4)=='edge') {
      edges[i].setAttribute('class','edge');
    }
  }
}
]]></script>
        <defs>
                <circle id="rim" cx="0" cy="0" r="7"/>
                <circle id="rim2" cx="0" cy="0" r="3.5"/>
                <g id="zoomPlus">
                        <use xlink:href="#rim" fill="#404040">
                                <set attributeName="fill" to="#808080" begin="zoomplus.mouseover" end="zoomplus.mouseout"/>
                        </use>
                        <path d="M-4,0h8M0,-4v8" fill="none" stroke="white" stroke-width="1.5" pointer-events="none"/>
                </g>
                <g id="zoomMin">
                        <use xlink:href="#rim" fill="#404040">
                                <set attributeName="fill" to="#808080" begin="zoomminus.mouseover" end="zoomminus.mouseout"/>
                        </use>
                        <path d="M-4,0h8" fill="none" stroke="white" stroke-width="1.5" pointer-events="none"/>
                </g>
                <g id="dirArrow">
                        <path fill="none" stroke="white" stroke-width="1.5" d="M0,-3.0v7 M-2.5,-0.5L0,-3.0L2.5,-0.5"/>
                </g>
               <g id="resetDef">
                       <use xlink:href="#rim2" fill="#404040">
                               <set attributeName="fill" to="#808080" begin="reset.mouseover" end="reset.mouseout"/>
                       </use>
               </g>
        </defs>

<script type="text/javascript">
var viewWidth = 924;
var viewHeight = 363;
var sectionId = 'dynsection-0';
</script>
<script xlink:href="svgpan.js"/>
<svg id="graph" class="graph">
<g id="viewport">
<title>fer_print.h</title>
<!-- Node1 -->
<g id="node1" class="node">
<title>Node1</title>
<g id="a_node1"><a xlink:title="Print raw message as formatted text to standard output (for debug purposes).">
<polygon fill="#bfbfbf" stroke="black" points="265,-335.5 265,-354.5 332,-354.5 332,-335.5 265,-335.5"/>
<text text-anchor="middle" x="298.5" y="-342.5" font-family="Helvetica,sans-Serif" font-size="10.00">fer_print.h</text>
</a>
</g>
</g>
<!-- Node2 -->
<g id="node2" class="node">
<title>Node2</title>
<g id="a_node2"><a xlink:href="fer__msg__attachment_8h.html" target="_top" xlink:title="Extended messages.">
<polygon fill="none" stroke="black" points="196.5,-268.5 196.5,-298.5 314.5,-298.5 314.5,-268.5 196.5,-268.5"/>
<text text-anchor="start" x="204.5" y="-286.5" font-family="Helvetica,sans-Serif" font-size="10.00">fernotron_trx/raw/fer</text>
<text text-anchor="middle" x="255.5" y="-275.5" font-family="Helvetica,sans-Serif" font-size="10.00">_msg_attachment.h</text>
</a>
</g>
</g>
<!-- Node1&#45;&gt;Node2 -->
<g id="edge1" class="edge">
<title>Node1&#45;&gt;Node2</title>
<path fill="none" stroke="midnightblue" d="M292.34,-335.48C286.95,-328.02 278.88,-316.85 271.67,-306.87"/>
<polygon fill="midnightblue" stroke="midnightblue" points="274.33,-304.58 265.63,-298.52 268.65,-308.68 274.33,-304.58"/>
</g>
<!-- Node20 -->
<g id="node20" class="node">
<title>Node20</title>
<g id="a_node20"><a xlink:href="fer__trx__api_8hh.html" target="_top" xlink:title="C++&#45;API for sending and receiving Fernotron RF messages.">
<polygon fill="none" stroke="black" points="571.5,-201.5 571.5,-231.5 687.5,-231.5 687.5,-201.5 571.5,-201.5"/>
<text text-anchor="start" x="579.5" y="-219.5" font-family="Helvetica,sans-Serif" font-size="10.00">fernotron_trx/fer_trx</text>
<text text-anchor="middle" x="629.5" y="-208.5" font-family="Helvetica,sans-Serif" font-size="10.00">_api.hh</text>
</a>
</g>
</g>
<!-- Node1&#45;&gt;Node20 -->
<g id="edge21" class="edge">
<title>Node1&#45;&gt;Node20</title>
<path fill="none" stroke="midnightblue" d="M320.99,-335.4C374.63,-314.9 510.97,-262.8 583.11,-235.23"/>
<polygon fill="midnightblue" stroke="midnightblue" points="584.76,-238.35 592.85,-231.51 582.26,-231.81 584.76,-238.35"/>
</g>
<!-- Node3 -->
<g id="node3" class="node">
<title>Node3</title>
<g id="a_node3"><a xlink:title=" ">
<polygon fill="none" stroke="#bfbfbf" points="171,-6 171,-25 224,-25 224,-6 171,-6"/>
<text text-anchor="middle" x="197.5" y="-13" font-family="Helvetica,sans-Serif" font-size="10.00">stdint.h</text>
</a>
</g>
</g>
<!-- Node2&#45;&gt;Node3 -->
<g id="edge2" class="edge">
<title>Node2&#45;&gt;Node3</title>
<path fill="none" stroke="midnightblue" d="M235.48,-268.42C223.49,-259.18 208.65,-246.2 198.5,-232 160.95,-179.5 155.19,-161.29 142.5,-98 139.79,-84.49 136.96,-79.61 142.5,-67 149.05,-52.1 162.4,-39.67 174.31,-30.87"/>
<polygon fill="midnightblue" stroke="midnightblue" points="176.38,-33.69 182.6,-25.12 172.39,-27.94 176.38,-33.69"/>
</g>
<!-- Node4 -->
<g id="node4" class="node">
<title>Node4</title>
<g id="a_node4"><a xlink:href="fer__msg__plain_8h.html" target="_top" xlink:title="Data structure of plain messages or header of extended messages.">
<polygon fill="none" stroke="black" points="208,-207 208,-226 303,-226 303,-207 208,-207"/>
<text text-anchor="middle" x="255.5" y="-214" font-family="Helvetica,sans-Serif" font-size="10.00">fer_msg_plain.h</text>
</a>
</g>
</g>
<!-- Node2&#45;&gt;Node4 -->
<g id="edge3" class="edge">
<title>Node2&#45;&gt;Node4</title>
<path fill="none" stroke="midnightblue" d="M255.5,-268.4C255.5,-259.06 255.5,-246.71 255.5,-236.52"/>
<polygon fill="midnightblue" stroke="midnightblue" points="259,-236.19 255.5,-226.19 252,-236.19 259,-236.19"/>
</g>
<!-- Node18 -->
<g id="node18" class="node">
<title>Node18</title>
<g id="a_node18"><a xlink:href="fer__msg__attachment__enum_8h.html" target="_top" xlink:title="Enums for extended messages.">
<polygon fill="none" stroke="black" points="321.5,-201.5 321.5,-231.5 439.5,-231.5 439.5,-201.5 321.5,-201.5"/>
<text text-anchor="start" x="329.5" y="-219.5" font-family="Helvetica,sans-Serif" font-size="10.00">fer_msg_attachment</text>
<text text-anchor="middle" x="380.5" y="-208.5" font-family="Helvetica,sans-Serif" font-size="10.00">_enum.h</text>
</a>
</g>
</g>
<!-- Node2&#45;&gt;Node18 -->
<g id="edge19" class="edge">
<title>Node2&#45;&gt;Node18</title>
<path fill="none" stroke="midnightblue" d="M282.62,-268.4C300.72,-258.98 324.73,-246.5 344.43,-236.26"/>
<polygon fill="midnightblue" stroke="midnightblue" points="346.17,-239.3 353.43,-231.58 342.94,-233.08 346.17,-239.3"/>
</g>
<!-- Node19 -->
<g id="node19" class="node">
<title>Node19</title>
<g id="a_node19"><a xlink:title=" ">
<polygon fill="none" stroke="#bfbfbf" points="0,-207 0,-226 95,-226 95,-207 0,-207"/>
<text text-anchor="middle" x="47.5" y="-214" font-family="Helvetica,sans-Serif" font-size="10.00">utils_misc/bcd.h</text>
</a>
</g>
</g>
<!-- Node2&#45;&gt;Node19 -->
<g id="edge20" class="edge">
<title>Node2&#45;&gt;Node19</title>
<path fill="none" stroke="midnightblue" d="M210.62,-268.48C173.01,-256.72 119.96,-240.14 84.69,-229.12"/>
<polygon fill="midnightblue" stroke="midnightblue" points="85.38,-225.67 74.79,-226.03 83.29,-232.35 85.38,-225.67"/>
</g>
<!-- Node5 -->
<g id="node5" class="node">
<title>Node5</title>
<g id="a_node5"><a xlink:href="fer__msg__type_8h.html" target="_top" xlink:title="kinds of messages">
<polygon fill="none" stroke="black" points="151.5,-73 151.5,-92 243.5,-92 243.5,-73 151.5,-73"/>
<text text-anchor="middle" x="197.5" y="-80" font-family="Helvetica,sans-Serif" font-size="10.00">fer_msg_type.h</text>
</a>
</g>
</g>
<!-- Node4&#45;&gt;Node5 -->
<g id="edge4" class="edge">
<title>Node4&#45;&gt;Node5</title>
<path fill="none" stroke="midnightblue" d="M232.18,-206.91C214.46,-199 191.34,-185.37 180.5,-165 169.71,-144.73 178.86,-118.24 187.35,-101.05"/>
<polygon fill="midnightblue" stroke="midnightblue" points="190.49,-102.59 192.12,-92.12 184.32,-99.29 190.49,-102.59"/>
</g>
<!-- Node6 -->
<g id="node6" class="node">
<title>Node6</title>
<g id="a_node6"><a xlink:href="fer__msg__plain__enum_8h.html" target="_top" xlink:title="Raw message for plain commands.">
<polygon fill="none" stroke="black" points="339.5,-140 339.5,-159 467.5,-159 467.5,-140 339.5,-140"/>
<text text-anchor="middle" x="403.5" y="-147" font-family="Helvetica,sans-Serif" font-size="10.00">fer_msg_plain_enum.h</text>
</a>
</g>
</g>
<!-- Node4&#45;&gt;Node6 -->
<g id="edge6" class="edge">
<title>Node4&#45;&gt;Node6</title>
<path fill="none" stroke="midnightblue" d="M275.15,-206.87C300.59,-195.7 345.1,-176.15 374.45,-163.26"/>
<polygon fill="midnightblue" stroke="midnightblue" points="376.02,-166.39 383.77,-159.17 373.2,-159.98 376.02,-166.39"/>
</g>
<!-- Node7 -->
<g id="node7" class="node">
<title>Node7</title>
<g id="a_node7"><a xlink:href="fer__trx__c__api_8h.html" target="_top" xlink:title="C&#45;API for sending and receiving Fernotron RF messages.">
<polygon fill="none" stroke="black" points="485.5,-134.5 485.5,-164.5 601.5,-164.5 601.5,-134.5 485.5,-134.5"/>
<text text-anchor="start" x="493.5" y="-152.5" font-family="Helvetica,sans-Serif" font-size="10.00">fernotron_trx/fer_trx</text>
<text text-anchor="middle" x="543.5" y="-141.5" font-family="Helvetica,sans-Serif" font-size="10.00">_c_api.h</text>
</a>
</g>
</g>
<!-- Node4&#45;&gt;Node7 -->
<g id="edge7" class="edge">
<title>Node4&#45;&gt;Node7</title>
<path fill="none" stroke="midnightblue" d="M288.31,-206.95C296.22,-204.95 304.65,-202.86 312.5,-201 328.36,-197.25 413.38,-178.73 475.69,-165.2"/>
<polygon fill="midnightblue" stroke="midnightblue" points="476.45,-168.62 485.48,-163.08 474.97,-161.78 476.45,-168.62"/>
</g>
<!-- Node17 -->
<g id="node17" class="node">
<title>Node17</title>
<g id="a_node17"><a xlink:title=" ">
<polygon fill="none" stroke="#bfbfbf" points="189.5,-140 189.5,-159 321.5,-159 321.5,-140 189.5,-140"/>
<text text-anchor="middle" x="255.5" y="-147" font-family="Helvetica,sans-Serif" font-size="10.00">utils_misc/int_macros.h</text>
</a>
</g>
</g>
<!-- Node4&#45;&gt;Node17 -->
<g id="edge18" class="edge">
<title>Node4&#45;&gt;Node17</title>
<path fill="none" stroke="midnightblue" d="M255.5,-206.73C255.5,-197.18 255.5,-181.62 255.5,-169.28"/>
<polygon fill="midnightblue" stroke="midnightblue" points="259,-169.13 255.5,-159.13 252,-169.13 259,-169.13"/>
</g>
<!-- Node5&#45;&gt;Node3 -->
<g id="edge5" class="edge">
<title>Node5&#45;&gt;Node3</title>
<path fill="none" stroke="midnightblue" d="M197.5,-72.73C197.5,-63.18 197.5,-47.62 197.5,-35.28"/>
<polygon fill="midnightblue" stroke="midnightblue" points="201,-35.13 197.5,-25.13 194,-35.13 201,-35.13"/>
</g>
<!-- Node8 -->
<g id="node8" class="node">
<title>Node8</title>
<g id="a_node8"><a xlink:title=" ">
<polygon fill="none" stroke="#bfbfbf" points="537,-73 537,-92 660,-92 660,-73 537,-73"/>
<text text-anchor="middle" x="598.5" y="-80" font-family="Helvetica,sans-Serif" font-size="10.00">utils_misc/int_types.h</text>
</a>
</g>
</g>
<!-- Node7&#45;&gt;Node8 -->
<g id="edge8" class="edge">
<title>Node7&#45;&gt;Node8</title>
<path fill="none" stroke="midnightblue" d="M555.43,-134.4C564.01,-124.26 575.6,-110.57 584.59,-99.94"/>
<polygon fill="midnightblue" stroke="midnightblue" points="587.36,-102.09 591.14,-92.19 582.01,-97.57 587.36,-102.09"/>
</g>
<!-- Node9 -->
<g id="node9" class="node">
<title>Node9</title>
<g id="a_node9"><a xlink:href="timer__data_8h.html" target="_top" xlink:title="vocabulary types to program Fernotron automatic (timers)">
<polygon fill="none" stroke="black" points="386.5,-67.5 386.5,-97.5 496.5,-97.5 496.5,-67.5 386.5,-67.5"/>
<text text-anchor="start" x="394.5" y="-85.5" font-family="Helvetica,sans-Serif" font-size="10.00">fernotron_trx/timer</text>
<text text-anchor="middle" x="441.5" y="-74.5" font-family="Helvetica,sans-Serif" font-size="10.00">_data.h</text>
</a>
</g>
</g>
<!-- Node7&#45;&gt;Node9 -->
<g id="edge9" class="edge">
<title>Node7&#45;&gt;Node9</title>
<path fill="none" stroke="midnightblue" d="M521.37,-134.4C506.93,-125.2 487.9,-113.07 472.03,-102.95"/>
<polygon fill="midnightblue" stroke="midnightblue" points="473.9,-100 463.59,-97.58 470.14,-105.9 473.9,-100"/>
</g>
<!-- Node16 -->
<g id="node16" class="node">
<title>Node16</title>
<g id="a_node16"><a xlink:title=" ">
<polygon fill="none" stroke="#bfbfbf" points="689.5,-73 689.5,-92 737.5,-92 737.5,-73 689.5,-73"/>
<text text-anchor="middle" x="713.5" y="-80" font-family="Helvetica,sans-Serif" font-size="10.00">time.h</text>
</a>
</g>
</g>
<!-- Node7&#45;&gt;Node16 -->
<g id="edge17" class="edge">
<title>Node7&#45;&gt;Node16</title>
<path fill="none" stroke="midnightblue" d="M580.39,-134.4C610.61,-122.84 652.94,-106.66 681.69,-95.66"/>
<polygon fill="midnightblue" stroke="midnightblue" points="683.16,-98.85 691.25,-92.01 680.66,-92.31 683.16,-98.85"/>
</g>
<!-- Node9&#45;&gt;Node3 -->
<g id="edge10" class="edge">
<title>Node9&#45;&gt;Node3</title>
<path fill="none" stroke="midnightblue" d="M386.4,-69.3C345.35,-59.85 288.06,-45.89 238.5,-31 235.72,-30.16 232.85,-29.25 229.98,-28.31"/>
<polygon fill="midnightblue" stroke="midnightblue" points="230.95,-24.94 220.36,-25.02 228.69,-31.57 230.95,-24.94"/>
</g>
<!-- Node10 -->
<g id="node10" class="node">
<title>Node10</title>
<g id="a_node10"><a xlink:title=" ">
<polygon fill="none" stroke="#bfbfbf" points="603.5,-6 603.5,-25 665.5,-25 665.5,-6 603.5,-6"/>
<text text-anchor="middle" x="634.5" y="-13" font-family="Helvetica,sans-Serif" font-size="10.00">stdbool.h</text>
</a>
</g>
</g>
<!-- Node9&#45;&gt;Node10 -->
<g id="edge11" class="edge">
<title>Node9&#45;&gt;Node10</title>
<path fill="none" stroke="midnightblue" d="M485.14,-67.47C515.81,-57.52 557.76,-43.72 594.5,-31 596.88,-30.18 599.34,-29.31 601.81,-28.44"/>
<polygon fill="midnightblue" stroke="midnightblue" points="603.04,-31.72 611.27,-25.05 600.68,-25.12 603.04,-31.72"/>
</g>
<!-- Node11 -->
<g id="node11" class="node">
<title>Node11</title>
<g id="a_node11"><a xlink:title=" ">
<polygon fill="none" stroke="#bfbfbf" points="684,-6 684,-25 737,-25 737,-6 684,-6"/>
<text text-anchor="middle" x="710.5" y="-13" font-family="Helvetica,sans-Serif" font-size="10.00">string.h</text>
</a>
</g>
</g>
<!-- Node9&#45;&gt;Node11 -->
<g id="edge12" class="edge">
<title>Node9&#45;&gt;Node11</title>
<path fill="none" stroke="midnightblue" d="M496.79,-72.25C544.43,-63.63 614.76,-49.36 674.5,-31 676.78,-30.3 679.12,-29.51 681.46,-28.68"/>
<polygon fill="midnightblue" stroke="midnightblue" points="682.81,-31.91 690.91,-25.09 680.32,-25.37 682.81,-31.91"/>
</g>
<!-- Node12 -->
<g id="node12" class="node">
<title>Node12</title>
<g id="a_node12"><a xlink:title=" ">
<polygon fill="none" stroke="#bfbfbf" points="248,-6 248,-25 301,-25 301,-6 248,-6"/>
<text text-anchor="middle" x="274.5" y="-13" font-family="Helvetica,sans-Serif" font-size="10.00">ctype.h</text>
</a>
</g>
</g>
<!-- Node9&#45;&gt;Node12 -->
<g id="edge13" class="edge">
<title>Node9&#45;&gt;Node12</title>
<path fill="none" stroke="midnightblue" d="M404.74,-67.5C378.45,-57.44 342.25,-43.51 310.5,-31 308.86,-30.35 307.18,-29.69 305.49,-29.02"/>
<polygon fill="midnightblue" stroke="midnightblue" points="306.38,-25.6 295.8,-25.14 303.78,-32.1 306.38,-25.6"/>
</g>
<!-- Node13 -->
<g id="node13" class="node">
<title>Node13</title>
<g id="a_node13"><a xlink:title=" ">
<polygon fill="none" stroke="#bfbfbf" points="319.5,-6 319.5,-25 369.5,-25 369.5,-6 319.5,-6"/>
<text text-anchor="middle" x="344.5" y="-13" font-family="Helvetica,sans-Serif" font-size="10.00">stdio.h</text>
</a>
</g>
</g>
<!-- Node9&#45;&gt;Node13 -->
<g id="edge14" class="edge">
<title>Node9&#45;&gt;Node13</title>
<path fill="none" stroke="midnightblue" d="M420.45,-67.4C404.19,-56.5 381.78,-41.48 365.52,-30.58"/>
<polygon fill="midnightblue" stroke="midnightblue" points="367.45,-27.67 357.2,-25.01 363.55,-33.48 367.45,-27.67"/>
</g>
<!-- Node14 -->
<g id="node14" class="node">
<title>Node14</title>
<g id="a_node14"><a xlink:title=" ">
<polygon fill="none" stroke="#bfbfbf" points="387.5,-0.5 387.5,-30.5 489.5,-30.5 489.5,-0.5 387.5,-0.5"/>
<text text-anchor="start" x="395.5" y="-18.5" font-family="Helvetica,sans-Serif" font-size="10.00">utils_misc/cstring</text>
<text text-anchor="middle" x="438.5" y="-7.5" font-family="Helvetica,sans-Serif" font-size="10.00">_utils.hh</text>
</a>
</g>
</g>
<!-- Node9&#45;&gt;Node14 -->
<g id="edge15" class="edge">
<title>Node9&#45;&gt;Node14</title>
<path fill="none" stroke="midnightblue" d="M440.85,-67.4C440.49,-59.64 440.04,-49.81 439.62,-40.86"/>
<polygon fill="midnightblue" stroke="midnightblue" points="443.11,-40.4 439.15,-30.58 436.11,-40.73 443.11,-40.4"/>
</g>
<!-- Node15 -->
<g id="node15" class="node">
<title>Node15</title>
<g id="a_node15"><a xlink:title=" ">
<polygon fill="none" stroke="#bfbfbf" points="508,-6 508,-25 585,-25 585,-6 508,-6"/>
<text text-anchor="middle" x="546.5" y="-13" font-family="Helvetica,sans-Serif" font-size="10.00">debug/dbg.h</text>
</a>
</g>
</g>
<!-- Node9&#45;&gt;Node15 -->
<g id="edge16" class="edge">
<title>Node9&#45;&gt;Node15</title>
<path fill="none" stroke="midnightblue" d="M464.28,-67.4C482.05,-56.39 506.6,-41.2 524.24,-30.28"/>
<polygon fill="midnightblue" stroke="midnightblue" points="526.1,-33.25 532.76,-25.01 522.41,-27.29 526.1,-33.25"/>
</g>
<!-- Node20&#45;&gt;Node7 -->
<g id="edge23" class="edge">
<title>Node20&#45;&gt;Node7</title>
<path fill="none" stroke="midnightblue" d="M610.84,-201.4C599.01,-192.45 583.51,-180.74 570.36,-170.8"/>
<polygon fill="midnightblue" stroke="midnightblue" points="572.21,-167.81 562.12,-164.58 567.99,-173.4 572.21,-167.81"/>
</g>
<!-- Node20&#45;&gt;Node8 -->
<g id="edge22" class="edge">
<title>Node20&#45;&gt;Node8</title>
<path fill="none" stroke="midnightblue" d="M626.22,-201.36C622.45,-185.1 616.06,-157.62 610.5,-134 608.01,-123.41 605.2,-111.57 602.92,-102.02"/>
<polygon fill="midnightblue" stroke="midnightblue" points="606.27,-100.99 600.55,-92.08 599.46,-102.61 606.27,-100.99"/>
</g>
<!-- Node21 -->
<g id="node21" class="node">
<title>Node21</title>
<g id="a_node21"><a xlink:href="astro_8h.html" target="_top" xlink:title="civil dusk timer calculations">
<polygon fill="none" stroke="black" points="658,-140 658,-159 775,-159 775,-140 658,-140"/>
<text text-anchor="middle" x="716.5" y="-147" font-family="Helvetica,sans-Serif" font-size="10.00">fernotron_trx/astro.h</text>
</a>
</g>
</g>
<!-- Node20&#45;&gt;Node21 -->
<g id="edge24" class="edge">
<title>Node20&#45;&gt;Node21</title>
<path fill="none" stroke="midnightblue" d="M648.38,-201.4C662.61,-190.76 682.1,-176.2 696.58,-165.38"/>
<polygon fill="midnightblue" stroke="midnightblue" points="698.95,-167.98 704.86,-159.19 694.76,-162.38 698.95,-167.98"/>
</g>
<!-- Node22 -->
<g id="node22" class="node">
<title>Node22</title>
<g id="a_node22"><a xlink:href="fer__trx__api____inline_8hh.html" target="_top" xlink:title="Private implementation.">
<polygon fill="none" stroke="black" points="793.5,-140 793.5,-159 915.5,-159 915.5,-140 793.5,-140"/>
<text text-anchor="middle" x="854.5" y="-147" font-family="Helvetica,sans-Serif" font-size="10.00">fer_trx_api__inline.hh</text>
</a>
</g>
</g>
<!-- Node20&#45;&gt;Node22 -->
<g id="edge26" class="edge">
<title>Node20&#45;&gt;Node22</title>
<path fill="none" stroke="midnightblue" d="M678.04,-201.48C719.08,-189.62 777.11,-172.86 815.25,-161.84"/>
<polygon fill="midnightblue" stroke="midnightblue" points="816.34,-165.17 824.98,-159.03 814.4,-158.44 816.34,-165.17"/>
</g>
<!-- Node21&#45;&gt;Node16 -->
<g id="edge25" class="edge">
<title>Node21&#45;&gt;Node16</title>
<path fill="none" stroke="midnightblue" d="M716.1,-139.73C715.65,-130.18 714.94,-114.62 714.37,-102.28"/>
<polygon fill="midnightblue" stroke="midnightblue" points="717.86,-101.96 713.9,-92.13 710.86,-102.28 717.86,-101.96"/>
</g>
</g>
</svg>
        <g id="navigator" transform="translate(0 0)" fill="#404254">
                <rect fill="#f2f5e9" fill-opacity="0.5" stroke="#606060" stroke-width=".5" x="0" y="0" width="60" height="60"/>
                <use id="zoomplus" xlink:href="#zoomPlus" x="17" y="9" onmousedown="handleZoom(evt,'in')"/>
                <use id="zoomminus" xlink:href="#zoomMin" x="42" y="9" onmousedown="handleZoom(evt,'out')"/>
                <use id="reset" xlink:href="#resetDef" x="30" y="36" onmousedown="handleReset()"/>
                <g id="arrowUp" xlink:href="#dirArrow" transform="translate(30 24)" onmousedown="handlePan(0,-1)">
                  <use xlink:href="#rim" fill="#404040">
                        <set attributeName="fill" to="#808080" begin="arrowUp.mouseover" end="arrowUp.mouseout"/>
                  </use>
                  <path fill="none" stroke="white" stroke-width="1.5" d="M0,-3.0v7 M-2.5,-0.5L0,-3.0L2.5,-0.5"/>
                </g>
                <g id="arrowRight" xlink:href="#dirArrow" transform="rotate(90) translate(36 -43)" onmousedown="handlePan(1,0)">
                  <use xlink:href="#rim" fill="#404040">
                        <set attributeName="fill" to="#808080" begin="arrowRight.mouseover" end="arrowRight.mouseout"/>
                  </use>
                  <path fill="none" stroke="white" stroke-width="1.5" d="M0,-3.0v7 M-2.5,-0.5L0,-3.0L2.5,-0.5"/>
                </g>
                <g id="arrowDown" xlink:href="#dirArrow" transform="rotate(180) translate(-30 -48)" onmousedown="handlePan(0,1)">
                  <use xlink:href="#rim" fill="#404040">
                        <set attributeName="fill" to="#808080" begin="arrowDown.mouseover" end="arrowDown.mouseout"/>
                  </use>
                  <path fill="none" stroke="white" stroke-width="1.5" d="M0,-3.0v7 M-2.5,-0.5L0,-3.0L2.5,-0.5"/>
                </g>
                <g id="arrowLeft" xlink:href="#dirArrow" transform="rotate(270) translate(-36 17)" onmousedown="handlePan(-1,0)">
                  <use xlink:href="#rim" fill="#404040">
                        <set attributeName="fill" to="#808080" begin="arrowLeft.mouseover" end="arrowLeft.mouseout"/>
                  </use>
                  <path fill="none" stroke="white" stroke-width="1.5" d="M0,-3.0v7 M-2.5,-0.5L0,-3.0L2.5,-0.5"/>
                </g>
        </g>
        <svg viewBox="0 0 15 15" width="100%" height="30px" preserveAspectRatio="xMaxYMin meet">
         <g id="arrow_out" transform="scale(0.3 0.3)">
          <a xlink:href="fer__print_8h__incl_org.svg" target="_base">
           <rect id="button" ry="5" rx="5" y="6" x="6" height="38" width="38"
                fill="#f2f5e9" fill-opacity="0.5" stroke="#606060" stroke-width="1.0"/>
           <path id="arrow"
             d="M 11.500037,31.436501 C 11.940474,20.09759 22.043105,11.32322 32.158766,21.979434 L 37.068811,17.246167 C 37.068811,17.246167 37.088388,32 37.088388,32 L 22.160133,31.978069 C 22.160133,31.978069 26.997745,27.140456 26.997745,27.140456 C 18.528582,18.264221 13.291696,25.230495 11.500037,31.436501 z"
             style="fill:#404040;"/>
          </a>
         </g>
        </svg>
</svg>
