<?xml version="1.0" encoding="UTF-8" standalone="no"?>
<!DOCTYPE svg PUBLIC "-//W3C//DTD SVG 1.1//EN"
 "http://www.w3.org/Graphics/SVG/1.1/DTD/svg11.dtd">
<!-- Generated by graphviz version 2.43.0 (0)
 -->
<!-- Title: fernotron_trx/raw/fer_msg_plain_enum.h Pages: 1 -->
<svg width="813pt" height="240pt"
 viewBox="0.00 0.00 813.00 240.00" xmlns="http://www.w3.org/2000/svg" xmlns:xlink="http://www.w3.org/1999/xlink">
<g id="graph0" class="graph" transform="scale(1 1) rotate(0) translate(4 236)">
<title>fernotron_trx/raw/fer_msg_plain_enum.h</title>
<!-- Node1 -->
<g id="node1" class="node">
<title>Node1</title>
<g id="a_node1"><a xlink:title="Raw message for plain commands.">
<polygon fill="#bfbfbf" stroke="black" points="225,-201.5 225,-231.5 343,-231.5 343,-201.5 225,-201.5"/>
<text text-anchor="start" x="233" y="-219.5" font-family="Helvetica,sans-Serif" font-size="10.00">fernotron_trx/raw/fer</text>
<text text-anchor="middle" x="284" y="-208.5" font-family="Helvetica,sans-Serif" font-size="10.00">_msg_plain_enum.h</text>
</a>
</g>
</g>
<!-- Node2 -->
<g id="node2" class="node">
<title>Node2</title>
<g id="a_node2"><a xlink:href="fer__msg__plain_8h.html" target="_top" xlink:title="Data structure of plain messages or header of extended messages.">
<polygon fill="none" stroke="black" points="225,-134.5 225,-164.5 343,-164.5 343,-134.5 225,-134.5"/>
<text text-anchor="start" x="233" y="-152.5" font-family="Helvetica,sans-Serif" font-size="10.00">fernotron_trx/raw/fer</text>
<text text-anchor="middle" x="284" y="-141.5" font-family="Helvetica,sans-Serif" font-size="10.00">_msg_plain.h</text>
</a>
</g>
</g>
<!-- Node1&#45;&gt;Node2 -->
<g id="edge1" class="edge">
<title>Node1&#45;&gt;Node2</title>
<path fill="none" stroke="midnightblue" d="M284,-191.11C284,-182.15 284,-172.32 284,-164.58"/>
<polygon fill="midnightblue" stroke="midnightblue" points="280.5,-191.4 284,-201.4 287.5,-191.4 280.5,-191.4"/>
</g>
<!-- Node3 -->
<g id="node3" class="node">
<title>Node3</title>
<g id="a_node3"><a xlink:href="commands_8h.html" target="_top" xlink:title="commands to move or stop a shutter with position support">
<polygon fill="none" stroke="black" points="0,-73 0,-92 148,-92 148,-73 0,-73"/>
<text text-anchor="middle" x="74" y="-80" font-family="Helvetica,sans-Serif" font-size="10.00">fernotron/pos/commands.h</text>
</a>
</g>
</g>
<!-- Node2&#45;&gt;Node3 -->
<g id="edge2" class="edge">
<title>Node2&#45;&gt;Node3</title>
<path fill="none" stroke="midnightblue" d="M229.11,-131.51C188.13,-118.83 133.84,-102.02 101.55,-92.03"/>
<polygon fill="midnightblue" stroke="midnightblue" points="228.1,-134.86 238.69,-134.48 230.17,-128.18 228.1,-134.86"/>
</g>
<!-- Node4 -->
<g id="node4" class="node">
<title>Node4</title>
<g id="a_node4"><a xlink:href="repeater_8h_source.html" target="_top" xlink:title=" ">
<polygon fill="none" stroke="black" points="166,-67.5 166,-97.5 272,-97.5 272,-67.5 166,-67.5"/>
<text text-anchor="start" x="174" y="-85.5" font-family="Helvetica,sans-Serif" font-size="10.00">fernotron/repeater</text>
<text text-anchor="middle" x="219" y="-74.5" font-family="Helvetica,sans-Serif" font-size="10.00">/repeater.h</text>
</a>
</g>
</g>
<!-- Node2&#45;&gt;Node4 -->
<g id="edge3" class="edge">
<title>Node2&#45;&gt;Node4</title>
<path fill="none" stroke="midnightblue" d="M262.81,-127.31C253.06,-117.56 241.76,-106.26 233.08,-97.58"/>
<polygon fill="midnightblue" stroke="midnightblue" points="260.35,-129.8 269.9,-134.4 265.3,-124.85 260.35,-129.8"/>
</g>
<!-- Node5 -->
<g id="node5" class="node">
<title>Node5</title>
<g id="a_node5"><a xlink:href="fer__fsb_8h.html" target="_top" xlink:title="Plain raw message.">
<polygon fill="none" stroke="black" points="290,-67.5 290,-97.5 408,-97.5 408,-67.5 290,-67.5"/>
<text text-anchor="start" x="298" y="-85.5" font-family="Helvetica,sans-Serif" font-size="10.00">fernotron_trx/raw/fer</text>
<text text-anchor="middle" x="349" y="-74.5" font-family="Helvetica,sans-Serif" font-size="10.00">_fsb.h</text>
</a>
</g>
</g>
<!-- Node2&#45;&gt;Node5 -->
<g id="edge4" class="edge">
<title>Node2&#45;&gt;Node5</title>
<path fill="none" stroke="midnightblue" d="M305.19,-127.31C314.94,-117.56 326.24,-106.26 334.92,-97.58"/>
<polygon fill="midnightblue" stroke="midnightblue" points="302.7,-124.85 298.1,-134.4 307.65,-129.8 302.7,-124.85"/>
</g>
<!-- Node8 -->
<g id="node8" class="node">
<title>Node8</title>
<g id="a_node8"><a xlink:href="fer__msg__attachment_8h.html" target="_top" xlink:title="Extended messages.">
<polygon fill="none" stroke="black" points="426,-67.5 426,-97.5 544,-97.5 544,-67.5 426,-67.5"/>
<text text-anchor="start" x="434" y="-85.5" font-family="Helvetica,sans-Serif" font-size="10.00">fernotron_trx/raw/fer</text>
<text text-anchor="middle" x="485" y="-74.5" font-family="Helvetica,sans-Serif" font-size="10.00">_msg_attachment.h</text>
</a>
</g>
</g>
<!-- Node2&#45;&gt;Node8 -->
<g id="edge7" class="edge">
<title>Node2&#45;&gt;Node8</title>
<path fill="none" stroke="midnightblue" d="M337.41,-131.23C369.93,-120.71 410.94,-107.45 441.47,-97.58"/>
<polygon fill="midnightblue" stroke="midnightblue" points="336.05,-127.99 327.61,-134.4 338.21,-134.65 336.05,-127.99"/>
</g>
<!-- Node6 -->
<g id="node6" class="node">
<title>Node6</title>
<g id="a_node6"><a xlink:href="fer__msg__tx_8h.html" target="_top" xlink:title="Send raw messages.">
<polygon fill="none" stroke="black" points="157,-0.5 157,-30.5 275,-30.5 275,-0.5 157,-0.5"/>
<text text-anchor="start" x="165" y="-18.5" font-family="Helvetica,sans-Serif" font-size="10.00">fernotron_trx/raw/fer</text>
<text text-anchor="middle" x="216" y="-7.5" font-family="Helvetica,sans-Serif" font-size="10.00">_msg_tx.h</text>
</a>
</g>
</g>
<!-- Node5&#45;&gt;Node6 -->
<g id="edge5" class="edge">
<title>Node5&#45;&gt;Node6</title>
<path fill="none" stroke="midnightblue" d="M311.13,-62.99C290.05,-52.69 264.22,-40.07 244.8,-30.58"/>
<polygon fill="midnightblue" stroke="midnightblue" points="309.62,-66.15 320.14,-67.4 312.69,-59.86 309.62,-66.15"/>
</g>
<!-- Node7 -->
<g id="node7" class="node">
<title>Node7</title>
<g id="a_node7"><a xlink:href="fer__rawmsg__build_8h.html" target="_top" xlink:title="builder functions to construct (extended) raw messages">
<polygon fill="none" stroke="black" points="293,-0.5 293,-30.5 411,-30.5 411,-0.5 293,-0.5"/>
<text text-anchor="start" x="301" y="-18.5" font-family="Helvetica,sans-Serif" font-size="10.00">fernotron_trx/raw/fer</text>
<text text-anchor="middle" x="352" y="-7.5" font-family="Helvetica,sans-Serif" font-size="10.00">_rawmsg_build.h</text>
</a>
</g>
</g>
<!-- Node5&#45;&gt;Node7 -->
<g id="edge6" class="edge">
<title>Node5&#45;&gt;Node7</title>
<path fill="none" stroke="midnightblue" d="M350.11,-57.4C350.53,-48.37 350.99,-38.41 351.35,-30.58"/>
<polygon fill="midnightblue" stroke="midnightblue" points="346.62,-57.25 349.65,-67.4 353.61,-57.57 346.62,-57.25"/>
</g>
<!-- Node8&#45;&gt;Node7 -->
<g id="edge11" class="edge">
<title>Node8&#45;&gt;Node7</title>
<path fill="none" stroke="midnightblue" d="M447.13,-62.99C426.05,-52.69 400.22,-40.07 380.8,-30.58"/>
<polygon fill="midnightblue" stroke="midnightblue" points="445.62,-66.15 456.14,-67.4 448.69,-59.86 445.62,-66.15"/>
</g>
<!-- Node9 -->
<g id="node9" class="node">
<title>Node9</title>
<g id="a_node9"><a xlink:href="fer__print_8h.html" target="_top" xlink:title="Print raw message as formatted text to standard output (for debug purposes).">
<polygon fill="none" stroke="black" points="429,-0.5 429,-30.5 533,-30.5 533,-0.5 429,-0.5"/>
<text text-anchor="start" x="437" y="-18.5" font-family="Helvetica,sans-Serif" font-size="10.00">fernotron/txtio/fer</text>
<text text-anchor="middle" x="481" y="-7.5" font-family="Helvetica,sans-Serif" font-size="10.00">_print.h</text>
</a>
</g>
</g>
<!-- Node8&#45;&gt;Node9 -->
<g id="edge8" class="edge">
<title>Node8&#45;&gt;Node9</title>
<path fill="none" stroke="midnightblue" d="M483.52,-57.4C482.96,-48.37 482.35,-38.41 481.87,-30.58"/>
<polygon fill="midnightblue" stroke="midnightblue" points="480.02,-57.63 484.13,-67.4 487.01,-57.2 480.02,-57.63"/>
</g>
<!-- Node10 -->
<g id="node10" class="node">
<title>Node10</title>
<g id="a_node10"><a xlink:href="fer__radio__trx_8h.html" target="_top" xlink:title="RF transceiver.">
<polygon fill="none" stroke="black" points="551,-0.5 551,-30.5 669,-30.5 669,-0.5 551,-0.5"/>
<text text-anchor="start" x="559" y="-18.5" font-family="Helvetica,sans-Serif" font-size="10.00">fernotron_trx/raw/fer</text>
<text text-anchor="middle" x="610" y="-7.5" font-family="Helvetica,sans-Serif" font-size="10.00">_radio_trx.h</text>
</a>
</g>
</g>
<!-- Node8&#45;&gt;Node10 -->
<g id="edge9" class="edge">
<title>Node8&#45;&gt;Node10</title>
<path fill="none" stroke="midnightblue" d="M521.13,-62.71C540.84,-52.46 564.84,-39.98 582.93,-30.58"/>
<polygon fill="midnightblue" stroke="midnightblue" points="519.38,-59.68 512.12,-67.4 522.61,-65.89 519.38,-59.68"/>
</g>
<!-- Node11 -->
<g id="node11" class="node">
<title>Node11</title>
<g id="a_node11"><a xlink:href="fer__rawmsg__buffer_8h.html" target="_top" xlink:title="Global static buffers for raw messages.">
<polygon fill="none" stroke="black" points="687,-0.5 687,-30.5 805,-30.5 805,-0.5 687,-0.5"/>
<text text-anchor="start" x="695" y="-18.5" font-family="Helvetica,sans-Serif" font-size="10.00">fernotron_trx/raw/fer</text>
<text text-anchor="middle" x="746" y="-7.5" font-family="Helvetica,sans-Serif" font-size="10.00">_rawmsg_buffer.h</text>
</a>
</g>
</g>
<!-- Node8&#45;&gt;Node11 -->
<g id="edge10" class="edge">
<title>Node8&#45;&gt;Node11</title>
<path fill="none" stroke="midnightblue" d="M551.05,-65.05C593.72,-54.43 648.66,-40.74 689.34,-30.61"/>
<polygon fill="midnightblue" stroke="midnightblue" points="550.17,-61.66 541.31,-67.48 551.86,-68.46 550.17,-61.66"/>
</g>
</g>
</svg>
