<?xml version="1.0" encoding="UTF-8" standalone="no"?>
<!DOCTYPE svg PUBLIC "-//W3C//DTD SVG 1.1//EN"
 "http://www.w3.org/Graphics/SVG/1.1/DTD/svg11.dtd">
<!-- Generated by graphviz version 2.43.0 (0)
 -->
<!-- Title: fernotron_trx/include/fernotron_trx/fer_trx_c_api.h Pages: 1 -->
<svg width="1017pt" height="284pt"
 viewBox="0.00 0.00 1016.50 284.00" xmlns="http://www.w3.org/2000/svg" xmlns:xlink="http://www.w3.org/1999/xlink">
<g id="graph0" class="graph" transform="scale(1 1) rotate(0) translate(4 280)">
<title>fernotron_trx/include/fernotron_trx/fer_trx_c_api.h</title>
<!-- Node1 -->
<g id="node1" class="node">
<title>Node1</title>
<g id="a_node1"><a xlink:title="C&#45;API for sending and receiving Fernotron RF messages.">
<polygon fill="#bfbfbf" stroke="black" points="416,-234.5 416,-275.5 535,-275.5 535,-234.5 416,-234.5"/>
<text text-anchor="start" x="424" y="-263.5" font-family="Helvetica,sans-Serif" font-size="10.00">fernotron_trx/include</text>
<text text-anchor="start" x="424" y="-252.5" font-family="Helvetica,sans-Serif" font-size="10.00">/fernotron_trx/fer_trx</text>
<text text-anchor="middle" x="475.5" y="-241.5" font-family="Helvetica,sans-Serif" font-size="10.00">_c_api.h</text>
</a>
</g>
</g>
<!-- Node2 -->
<g id="node2" class="node">
<title>Node2</title>
<g id="a_node2"><a xlink:href="positions__dynamic_8h.html" target="_top" xlink:title="Keep track of positions for a currently moving shutter.">
<polygon fill="none" stroke="black" points="136.5,-156.5 136.5,-197.5 268.5,-197.5 268.5,-156.5 136.5,-156.5"/>
<text text-anchor="start" x="144.5" y="-185.5" font-family="Helvetica,sans-Serif" font-size="10.00">fernotron_app/include</text>
<text text-anchor="start" x="144.5" y="-174.5" font-family="Helvetica,sans-Serif" font-size="10.00">/fernotron/pos/positions</text>
<text text-anchor="middle" x="202.5" y="-163.5" font-family="Helvetica,sans-Serif" font-size="10.00">_dynamic.h</text>
</a>
</g>
</g>
<!-- Node1&#45;&gt;Node2 -->
<g id="edge1" class="edge">
<title>Node1&#45;&gt;Node2</title>
<path fill="none" stroke="midnightblue" d="M406.27,-234.73C364.03,-222.97 310.32,-208.02 268.65,-196.41"/>
<polygon fill="midnightblue" stroke="midnightblue" points="405.35,-238.11 415.93,-237.42 407.23,-231.36 405.35,-238.11"/>
</g>
<!-- Node5 -->
<g id="node5" class="node">
<title>Node5</title>
<g id="a_node5"><a xlink:href="set__endpos_8h.html" target="_top" xlink:title="Mode for setting shutter end positions.">
<polygon fill="none" stroke="black" points="856.5,-162 856.5,-192 1008.5,-192 1008.5,-162 856.5,-162"/>
<text text-anchor="start" x="864.5" y="-180" font-family="Helvetica,sans-Serif" font-size="10.00">fernotron_app/include</text>
<text text-anchor="middle" x="932.5" y="-169" font-family="Helvetica,sans-Serif" font-size="10.00">/fernotron/sep/set_endpos.h</text>
</a>
</g>
</g>
<!-- Node1&#45;&gt;Node5 -->
<g id="edge4" class="edge">
<title>Node1&#45;&gt;Node5</title>
<path fill="none" stroke="midnightblue" d="M545.27,-244.78C619.27,-234.66 739.49,-217.28 842.5,-198 852.1,-196.2 862.23,-194.13 872.1,-192.01"/>
<polygon fill="midnightblue" stroke="midnightblue" points="544.58,-241.34 535.14,-246.16 545.52,-248.27 544.58,-241.34"/>
</g>
<!-- Node6 -->
<g id="node6" class="node">
<title>Node6</title>
<g id="a_node6"><a xlink:href="fer__trx__api_8hh.html" target="_top" xlink:title="C++&#45;API for sending and receiving Fernotron RF messages.">
<polygon fill="none" stroke="black" points="597,-156.5 597,-197.5 716,-197.5 716,-156.5 597,-156.5"/>
<text text-anchor="start" x="605" y="-185.5" font-family="Helvetica,sans-Serif" font-size="10.00">fernotron_trx/include</text>
<text text-anchor="start" x="605" y="-174.5" font-family="Helvetica,sans-Serif" font-size="10.00">/fernotron_trx/fer_trx</text>
<text text-anchor="middle" x="656.5" y="-163.5" font-family="Helvetica,sans-Serif" font-size="10.00">_api.hh</text>
</a>
</g>
</g>
<!-- Node1&#45;&gt;Node6 -->
<g id="edge5" class="edge">
<title>Node1&#45;&gt;Node6</title>
<path fill="none" stroke="midnightblue" d="M531.54,-230.47C556.73,-219.89 586.11,-207.56 610.05,-197.51"/>
<polygon fill="midnightblue" stroke="midnightblue" points="529.98,-227.33 522.11,-234.43 532.69,-233.78 529.98,-227.33"/>
</g>
<!-- Node8 -->
<g id="node8" class="node">
<title>Node8</title>
<g id="a_node8"><a xlink:href="fer__fsb_8h.html" target="_top" xlink:title="Plain raw message.">
<polygon fill="none" stroke="black" points="255.5,-84 255.5,-114 405.5,-114 405.5,-84 255.5,-84"/>
<text text-anchor="start" x="263.5" y="-102" font-family="Helvetica,sans-Serif" font-size="10.00">fernotron_trx/include</text>
<text text-anchor="middle" x="330.5" y="-91" font-family="Helvetica,sans-Serif" font-size="10.00">/fernotron_trx/raw/fer_fsb.h</text>
</a>
</g>
</g>
<!-- Node1&#45;&gt;Node8 -->
<g id="edge7" class="edge">
<title>Node1&#45;&gt;Node8</title>
<path fill="none" stroke="midnightblue" d="M439.81,-228.16C428.34,-219.17 415.92,-208.65 405.5,-198 378.83,-170.75 352.99,-134.01 339.72,-114.16"/>
<polygon fill="midnightblue" stroke="midnightblue" points="437.88,-231.1 447.94,-234.42 442.15,-225.55 437.88,-231.1"/>
</g>
<!-- Node9 -->
<g id="node9" class="node">
<title>Node9</title>
<g id="a_node9"><a xlink:href="fer__msg__tx_8h.html" target="_top" xlink:title="Send raw messages.">
<polygon fill="none" stroke="black" points="0,-0.5 0,-41.5 121,-41.5 121,-0.5 0,-0.5"/>
<text text-anchor="start" x="8" y="-29.5" font-family="Helvetica,sans-Serif" font-size="10.00">fernotron_trx/include</text>
<text text-anchor="start" x="8" y="-18.5" font-family="Helvetica,sans-Serif" font-size="10.00">/fernotron_trx/raw/fer</text>
<text text-anchor="middle" x="60.5" y="-7.5" font-family="Helvetica,sans-Serif" font-size="10.00">_msg_tx.h</text>
</a>
</g>
</g>
<!-- Node1&#45;&gt;Node9 -->
<g id="edge19" class="edge">
<title>Node1&#45;&gt;Node9</title>
<path fill="none" stroke="midnightblue" d="M405.53,-249.41C317.45,-242.5 172.25,-227.04 127.5,-198 74.16,-163.38 63.19,-79.77 61.01,-41.6"/>
<polygon fill="midnightblue" stroke="midnightblue" points="405.48,-252.91 415.71,-250.19 406.01,-245.93 405.48,-252.91"/>
</g>
<!-- Node11 -->
<g id="node11" class="node">
<title>Node11</title>
<g id="a_node11"><a xlink:href="fer__msg__plain_8h.html" target="_top" xlink:title="Data structure of plain messages or header of extended messages.">
<polygon fill="none" stroke="black" points="415,-156.5 415,-197.5 536,-197.5 536,-156.5 415,-156.5"/>
<text text-anchor="start" x="423" y="-185.5" font-family="Helvetica,sans-Serif" font-size="10.00">fernotron_trx/include</text>
<text text-anchor="start" x="423" y="-174.5" font-family="Helvetica,sans-Serif" font-size="10.00">/fernotron_trx/raw/fer</text>
<text text-anchor="middle" x="475.5" y="-163.5" font-family="Helvetica,sans-Serif" font-size="10.00">_msg_plain.h</text>
</a>
</g>
</g>
<!-- Node1&#45;&gt;Node11 -->
<g id="edge10" class="edge">
<title>Node1&#45;&gt;Node11</title>
<path fill="none" stroke="midnightblue" d="M475.5,-224.3C475.5,-215.3 475.5,-205.65 475.5,-197.51"/>
<polygon fill="midnightblue" stroke="midnightblue" points="472,-224.43 475.5,-234.43 479,-224.43 472,-224.43"/>
</g>
<!-- Node14 -->
<g id="node14" class="node">
<title>Node14</title>
<g id="a_node14"><a xlink:href="fer__radio__trx_8h.html" target="_top" xlink:title="RF transceiver.">
<polygon fill="none" stroke="black" points="761,-0.5 761,-41.5 882,-41.5 882,-0.5 761,-0.5"/>
<text text-anchor="start" x="769" y="-29.5" font-family="Helvetica,sans-Serif" font-size="10.00">fernotron_trx/include</text>
<text text-anchor="start" x="769" y="-18.5" font-family="Helvetica,sans-Serif" font-size="10.00">/fernotron_trx/raw/fer</text>
<text text-anchor="middle" x="821.5" y="-7.5" font-family="Helvetica,sans-Serif" font-size="10.00">_radio_trx.h</text>
</a>
</g>
</g>
<!-- Node1&#45;&gt;Node14 -->
<g id="edge20" class="edge">
<title>Node1&#45;&gt;Node14</title>
<path fill="none" stroke="midnightblue" d="M545.2,-250.7C598.11,-245.42 670.84,-231.96 725.5,-198 782.86,-162.37 808.41,-79.67 817.43,-41.7"/>
<polygon fill="midnightblue" stroke="midnightblue" points="544.86,-247.22 535.23,-251.63 545.51,-254.19 544.86,-247.22"/>
</g>
<!-- Node3 -->
<g id="node3" class="node">
<title>Node3</title>
<g id="a_node3"><a xlink:href="shutter__pct_8h.html" target="_top" xlink:title="include positions_static.h and positions_dynamic.h">
<polygon fill="none" stroke="black" points="85.5,-84 85.5,-114 237.5,-114 237.5,-84 85.5,-84"/>
<text text-anchor="start" x="93.5" y="-102" font-family="Helvetica,sans-Serif" font-size="10.00">fernotron_app/include</text>
<text text-anchor="middle" x="161.5" y="-91" font-family="Helvetica,sans-Serif" font-size="10.00">/fernotron/pos/shutter_pct.h</text>
</a>
</g>
</g>
<!-- Node2&#45;&gt;Node3 -->
<g id="edge2" class="edge">
<title>Node2&#45;&gt;Node3</title>
<path fill="none" stroke="midnightblue" d="M187.02,-147.3C180.92,-136 174.19,-123.52 169.17,-114.23"/>
<polygon fill="midnightblue" stroke="midnightblue" points="184.11,-149.29 191.94,-156.43 190.27,-145.97 184.11,-149.29"/>
</g>
<!-- Node4 -->
<g id="node4" class="node">
<title>Node4</title>
<g id="a_node4"><a xlink:href="commands_8h.html" target="_top" xlink:title="commands to move or stop a shutter with position support">
<polygon fill="none" stroke="black" points="148,-6 148,-36 299,-36 299,-6 148,-6"/>
<text text-anchor="start" x="156" y="-24" font-family="Helvetica,sans-Serif" font-size="10.00">fernotron_app/include</text>
<text text-anchor="middle" x="223.5" y="-13" font-family="Helvetica,sans-Serif" font-size="10.00">/fernotron/pos/commands.h</text>
</a>
</g>
</g>
<!-- Node3&#45;&gt;Node4 -->
<g id="edge3" class="edge">
<title>Node3&#45;&gt;Node4</title>
<path fill="none" stroke="midnightblue" d="M179.61,-75.81C190.03,-63.03 202.81,-47.36 211.89,-36.23"/>
<polygon fill="midnightblue" stroke="midnightblue" points="176.77,-73.74 173.16,-83.7 182.2,-78.17 176.77,-73.74"/>
</g>
<!-- Node7 -->
<g id="node7" class="node">
<title>Node7</title>
<g id="a_node7"><a xlink:href="fer__print_8h.html" target="_top" xlink:title="Print raw message as formatted text to standard output (for debug purposes).">
<polygon fill="none" stroke="black" points="614,-0.5 614,-41.5 737,-41.5 737,-0.5 614,-0.5"/>
<text text-anchor="start" x="622" y="-29.5" font-family="Helvetica,sans-Serif" font-size="10.00">fernotron_app/include</text>
<text text-anchor="start" x="622" y="-18.5" font-family="Helvetica,sans-Serif" font-size="10.00">/fernotron/txtio/fer</text>
<text text-anchor="middle" x="675.5" y="-7.5" font-family="Helvetica,sans-Serif" font-size="10.00">_print.h</text>
</a>
</g>
</g>
<!-- Node6&#45;&gt;Node7 -->
<g id="edge6" class="edge">
<title>Node6&#45;&gt;Node7</title>
<path fill="none" stroke="midnightblue" d="M725.58,-157.23C743.61,-148.86 760.92,-136.92 771.5,-120 781.4,-104.17 780.8,-94.19 771.5,-78 762.32,-62.02 746.63,-50.17 730.57,-41.59"/>
<polygon fill="midnightblue" stroke="midnightblue" points="723.93,-154.13 716.13,-161.29 726.7,-160.56 723.93,-154.13"/>
</g>
<!-- Node8&#45;&gt;Node9 -->
<g id="edge8" class="edge">
<title>Node8&#45;&gt;Node9</title>
<path fill="none" stroke="midnightblue" d="M270.88,-81.22C226.49,-68.72 166.09,-51.72 121.4,-39.14"/>
<polygon fill="midnightblue" stroke="midnightblue" points="270.09,-84.63 280.66,-83.97 271.99,-77.89 270.09,-84.63"/>
</g>
<!-- Node10 -->
<g id="node10" class="node">
<title>Node10</title>
<g id="a_node10"><a xlink:href="fer__rawmsg__build_8h.html" target="_top" xlink:title="builder functions to construct (extended) raw messages">
<polygon fill="none" stroke="black" points="321,-0.5 321,-41.5 442,-41.5 442,-0.5 321,-0.5"/>
<text text-anchor="start" x="329" y="-29.5" font-family="Helvetica,sans-Serif" font-size="10.00">fernotron_trx/include</text>
<text text-anchor="start" x="329" y="-18.5" font-family="Helvetica,sans-Serif" font-size="10.00">/fernotron_trx/raw/fer</text>
<text text-anchor="middle" x="381.5" y="-7.5" font-family="Helvetica,sans-Serif" font-size="10.00">_rawmsg_build.h</text>
</a>
</g>
</g>
<!-- Node8&#45;&gt;Node10 -->
<g id="edge9" class="edge">
<title>Node8&#45;&gt;Node10</title>
<path fill="none" stroke="midnightblue" d="M345.75,-75.27C352.92,-64.58 361.4,-51.96 368.29,-41.68"/>
<polygon fill="midnightblue" stroke="midnightblue" points="342.76,-73.45 340.09,-83.7 348.57,-77.35 342.76,-73.45"/>
</g>
<!-- Node11&#45;&gt;Node4 -->
<g id="edge11" class="edge">
<title>Node11&#45;&gt;Node4</title>
<path fill="none" stroke="midnightblue" d="M464.37,-147.23C454.44,-125.22 437.85,-95.74 414.5,-78 403.46,-69.61 331.19,-49.73 278.8,-36.06"/>
<polygon fill="midnightblue" stroke="midnightblue" points="461.17,-148.64 468.34,-156.44 467.59,-145.87 461.17,-148.64"/>
</g>
<!-- Node11&#45;&gt;Node8 -->
<g id="edge13" class="edge">
<title>Node11&#45;&gt;Node8</title>
<path fill="none" stroke="midnightblue" d="M429.03,-151.64C405.47,-139.3 377.69,-124.73 357.64,-114.23"/>
<polygon fill="midnightblue" stroke="midnightblue" points="427.68,-154.89 438.16,-156.43 430.93,-148.69 427.68,-154.89"/>
</g>
<!-- Node12 -->
<g id="node12" class="node">
<title>Node12</title>
<g id="a_node12"><a xlink:href="repeater_8h_source.html" target="_top" xlink:title=" ">
<polygon fill="none" stroke="black" points="601,-84 601,-114 762,-114 762,-84 601,-84"/>
<text text-anchor="start" x="609" y="-102" font-family="Helvetica,sans-Serif" font-size="10.00">fernotron_app/include</text>
<text text-anchor="middle" x="681.5" y="-91" font-family="Helvetica,sans-Serif" font-size="10.00">/fernotron/repeater/repeater.h</text>
</a>
</g>
</g>
<!-- Node11&#45;&gt;Node12 -->
<g id="edge12" class="edge">
<title>Node11&#45;&gt;Node12</title>
<path fill="none" stroke="midnightblue" d="M538.02,-152.93C572.33,-140.28 613.76,-124.99 643.26,-114.11"/>
<polygon fill="midnightblue" stroke="midnightblue" points="536.72,-149.68 528.55,-156.43 539.14,-156.25 536.72,-149.68"/>
</g>
<!-- Node13 -->
<g id="node13" class="node">
<title>Node13</title>
<g id="a_node13"><a xlink:href="fer__msg__attachment_8h.html" target="_top" xlink:title="Extended messages.">
<polygon fill="none" stroke="black" points="462,-78.5 462,-119.5 583,-119.5 583,-78.5 462,-78.5"/>
<text text-anchor="start" x="470" y="-107.5" font-family="Helvetica,sans-Serif" font-size="10.00">fernotron_trx/include</text>
<text text-anchor="start" x="470" y="-96.5" font-family="Helvetica,sans-Serif" font-size="10.00">/fernotron_trx/raw/fer</text>
<text text-anchor="middle" x="522.5" y="-85.5" font-family="Helvetica,sans-Serif" font-size="10.00">_msg_attachment.h</text>
</a>
</g>
</g>
<!-- Node11&#45;&gt;Node13 -->
<g id="edge14" class="edge">
<title>Node11&#45;&gt;Node13</title>
<path fill="none" stroke="midnightblue" d="M492.97,-147.76C498.78,-138.35 505.12,-128.1 510.44,-119.51"/>
<polygon fill="midnightblue" stroke="midnightblue" points="489.89,-146.08 487.6,-156.43 495.84,-149.76 489.89,-146.08"/>
</g>
<!-- Node13&#45;&gt;Node7 -->
<g id="edge15" class="edge">
<title>Node13&#45;&gt;Node7</title>
<path fill="none" stroke="midnightblue" d="M571,-73.91C592.04,-63.46 616.35,-51.38 636.23,-41.51"/>
<polygon fill="midnightblue" stroke="midnightblue" points="569.3,-70.84 561.9,-78.43 572.41,-77.11 569.3,-70.84"/>
</g>
<!-- Node13&#45;&gt;Node10 -->
<g id="edge18" class="edge">
<title>Node13&#45;&gt;Node10</title>
<path fill="none" stroke="midnightblue" d="M477.28,-73.63C458.01,-63.24 435.84,-51.29 417.69,-41.51"/>
<polygon fill="midnightblue" stroke="midnightblue" points="475.73,-76.76 486.19,-78.43 479.05,-70.6 475.73,-76.76"/>
</g>
<!-- Node13&#45;&gt;Node14 -->
<g id="edge16" class="edge">
<title>Node13&#45;&gt;Node14</title>
<path fill="none" stroke="midnightblue" d="M593.05,-77.66C661.65,-60.02 680.96,-58.34 746.5,-42 751.21,-40.83 756.07,-39.59 760.96,-38.32"/>
<polygon fill="midnightblue" stroke="midnightblue" points="591.83,-74.36 583.03,-80.25 593.59,-81.13 591.83,-74.36"/>
</g>
<!-- Node15 -->
<g id="node15" class="node">
<title>Node15</title>
<g id="a_node15"><a xlink:href="fer__rawmsg__buffer_8h.html" target="_top" xlink:title="Global static buffers for raw messages.">
<polygon fill="none" stroke="black" points="462,-0.5 462,-41.5 583,-41.5 583,-0.5 462,-0.5"/>
<text text-anchor="start" x="470" y="-29.5" font-family="Helvetica,sans-Serif" font-size="10.00">fernotron_trx/include</text>
<text text-anchor="start" x="470" y="-18.5" font-family="Helvetica,sans-Serif" font-size="10.00">/fernotron_trx/raw/fer</text>
<text text-anchor="middle" x="522.5" y="-7.5" font-family="Helvetica,sans-Serif" font-size="10.00">_rawmsg_buffer.h</text>
</a>
</g>
</g>
<!-- Node13&#45;&gt;Node15 -->
<g id="edge17" class="edge">
<title>Node13&#45;&gt;Node15</title>
<path fill="none" stroke="midnightblue" d="M522.5,-68.3C522.5,-59.3 522.5,-49.65 522.5,-41.51"/>
<polygon fill="midnightblue" stroke="midnightblue" points="519,-68.43 522.5,-78.43 526,-68.43 519,-68.43"/>
</g>
</g>
</svg>
