<?xml version="1.0" encoding="UTF-8" standalone="no"?>
<!DOCTYPE svg PUBLIC "-//W3C//DTD SVG 1.1//EN"
 "http://www.w3.org/Graphics/SVG/1.1/DTD/svg11.dtd">
<!-- Generated by graphviz version 2.43.0 (0)
 -->
<!-- Title: fernotron_trx/include/fernotron_trx/raw/fer_fsb.h Pages: 1 -->
<svg width="268pt" height="117pt"
 viewBox="0.00 0.00 268.00 117.00" xmlns="http://www.w3.org/2000/svg" xmlns:xlink="http://www.w3.org/1999/xlink">
<g id="graph0" class="graph" transform="scale(1 1) rotate(0) translate(4 113)">
<title>fernotron_trx/include/fernotron_trx/raw/fer_fsb.h</title>
<!-- Node1 -->
<g id="node1" class="node">
<title>Node1</title>
<g id="a_node1"><a xlink:title="Plain raw message.">
<polygon fill="#bfbfbf" stroke="black" points="54.5,-78.5 54.5,-108.5 204.5,-108.5 204.5,-78.5 54.5,-78.5"/>
<text text-anchor="start" x="62.5" y="-96.5" font-family="Helvetica,sans-Serif" font-size="10.00">fernotron_trx/include</text>
<text text-anchor="middle" x="129.5" y="-85.5" font-family="Helvetica,sans-Serif" font-size="10.00">/fernotron_trx/raw/fer_fsb.h</text>
</a>
</g>
</g>
<!-- Node2 -->
<g id="node2" class="node">
<title>Node2</title>
<g id="a_node2"><a xlink:href="fer__msg__tx_8h.html" target="_top" xlink:title="Send raw messages.">
<polygon fill="none" stroke="black" points="0,-0.5 0,-41.5 121,-41.5 121,-0.5 0,-0.5"/>
<text text-anchor="start" x="8" y="-29.5" font-family="Helvetica,sans-Serif" font-size="10.00">fernotron_trx/include</text>
<text text-anchor="start" x="8" y="-18.5" font-family="Helvetica,sans-Serif" font-size="10.00">/fernotron_trx/raw/fer</text>
<text text-anchor="middle" x="60.5" y="-7.5" font-family="Helvetica,sans-Serif" font-size="10.00">_msg_tx.h</text>
</a>
</g>
</g>
<!-- Node1&#45;&gt;Node2 -->
<g id="edge1" class="edge">
<title>Node1&#45;&gt;Node2</title>
<path fill="none" stroke="midnightblue" d="M108.28,-70.82C99.15,-61.49 88.56,-50.67 79.67,-41.59"/>
<polygon fill="midnightblue" stroke="midnightblue" points="106.04,-73.53 115.54,-78.23 111.04,-68.64 106.04,-73.53"/>
</g>
<!-- Node3 -->
<g id="node3" class="node">
<title>Node3</title>
<g id="a_node3"><a xlink:href="fer__rawmsg__build_8h.html" target="_top" xlink:title="builder functions to construct (extended) raw messages">
<polygon fill="none" stroke="black" points="139,-0.5 139,-41.5 260,-41.5 260,-0.5 139,-0.5"/>
<text text-anchor="start" x="147" y="-29.5" font-family="Helvetica,sans-Serif" font-size="10.00">fernotron_trx/include</text>
<text text-anchor="start" x="147" y="-18.5" font-family="Helvetica,sans-Serif" font-size="10.00">/fernotron_trx/raw/fer</text>
<text text-anchor="middle" x="199.5" y="-7.5" font-family="Helvetica,sans-Serif" font-size="10.00">_rawmsg_build.h</text>
</a>
</g>
</g>
<!-- Node1&#45;&gt;Node3 -->
<g id="edge2" class="edge">
<title>Node1&#45;&gt;Node3</title>
<path fill="none" stroke="midnightblue" d="M150.75,-71.1C160.07,-61.71 170.94,-50.76 180.05,-41.59"/>
<polygon fill="midnightblue" stroke="midnightblue" points="148.23,-68.67 143.67,-78.23 153.2,-73.6 148.23,-68.67"/>
</g>
</g>
</svg>
