<?xml version="1.0" encoding="UTF-8" standalone="no"?>
<!DOCTYPE svg PUBLIC "-//W3C//DTD SVG 1.1//EN"
 "http://www.w3.org/Graphics/SVG/1.1/DTD/svg11.dtd">
<!-- Generated by graphviz version 2.43.0 (0)
 -->
<!-- Title: fer_trx_api.hh Pages: 1 -->
<svg width="568pt" height="229pt"
 viewBox="0.00 0.00 568.00 229.00" xmlns="http://www.w3.org/2000/svg" xmlns:xlink="http://www.w3.org/1999/xlink">
<g id="graph0" class="graph" transform="scale(1 1) rotate(0) translate(4 225)">
<title>fer_trx_api.hh</title>
<!-- Node1 -->
<g id="node1" class="node">
<title>Node1</title>
<g id="a_node1"><a xlink:title="C++&#45;API for sending and receiving Fernotron RF messages.">
<polygon fill="#bfbfbf" stroke="black" points="236.5,-201.5 236.5,-220.5 320.5,-220.5 320.5,-201.5 236.5,-201.5"/>
<text text-anchor="middle" x="278.5" y="-208.5" font-family="Helvetica,sans-Serif" font-size="10.00">fer_trx_api.hh</text>
</a>
</g>
</g>
<!-- Node2 -->
<g id="node2" class="node">
<title>Node2</title>
<g id="a_node2"><a xlink:title=" ">
<polygon fill="none" stroke="#bfbfbf" points="53,-73 53,-92 176,-92 176,-73 53,-73"/>
<text text-anchor="middle" x="114.5" y="-80" font-family="Helvetica,sans-Serif" font-size="10.00">utils_misc/int_types.h</text>
</a>
</g>
</g>
<!-- Node1&#45;&gt;Node2 -->
<g id="edge1" class="edge">
<title>Node1&#45;&gt;Node2</title>
<path fill="none" stroke="midnightblue" d="M236.38,-205.46C207.18,-200.24 169.23,-189.03 144.5,-165 127.22,-148.21 119.82,-120.61 116.7,-102.25"/>
<polygon fill="midnightblue" stroke="midnightblue" points="120.15,-101.6 115.26,-92.19 113.22,-102.59 120.15,-101.6"/>
</g>
<!-- Node3 -->
<g id="node3" class="node">
<title>Node3</title>
<g id="a_node3"><a xlink:href="fer__trx__c__api_8h.html" target="_top" xlink:title="C&#45;API for sending and receiving Fernotron RF messages.">
<polygon fill="none" stroke="black" points="153.5,-134.5 153.5,-164.5 269.5,-164.5 269.5,-134.5 153.5,-134.5"/>
<text text-anchor="start" x="161.5" y="-152.5" font-family="Helvetica,sans-Serif" font-size="10.00">fernotron_trx/fer_trx</text>
<text text-anchor="middle" x="211.5" y="-141.5" font-family="Helvetica,sans-Serif" font-size="10.00">_c_api.h</text>
</a>
</g>
</g>
<!-- Node1&#45;&gt;Node3 -->
<g id="edge2" class="edge">
<title>Node1&#45;&gt;Node3</title>
<path fill="none" stroke="midnightblue" d="M268.9,-201.48C260.08,-193.64 246.65,-181.71 235,-171.37"/>
<polygon fill="midnightblue" stroke="midnightblue" points="237.09,-168.55 227.29,-164.52 232.44,-173.78 237.09,-168.55"/>
</g>
<!-- Node13 -->
<g id="node13" class="node">
<title>Node13</title>
<g id="a_node13"><a xlink:href="astro_8h.html" target="_top" xlink:title="civil dusk timer calculations">
<polygon fill="none" stroke="black" points="288,-140 288,-159 405,-159 405,-140 288,-140"/>
<text text-anchor="middle" x="346.5" y="-147" font-family="Helvetica,sans-Serif" font-size="10.00">fernotron_trx/astro.h</text>
</a>
</g>
</g>
<!-- Node1&#45;&gt;Node13 -->
<g id="edge13" class="edge">
<title>Node1&#45;&gt;Node13</title>
<path fill="none" stroke="midnightblue" d="M288.24,-201.48C298.85,-192.2 316.02,-177.17 328.98,-165.83"/>
<polygon fill="midnightblue" stroke="midnightblue" points="331.55,-168.23 336.78,-159.01 326.94,-162.96 331.55,-168.23"/>
</g>
<!-- Node14 -->
<g id="node14" class="node">
<title>Node14</title>
<g id="a_node14"><a xlink:href="fer__trx__api____inline_8hh.html" target="_top" xlink:title="Private implementation.">
<polygon fill="none" stroke="black" points="423.5,-140 423.5,-159 545.5,-159 545.5,-140 423.5,-140"/>
<text text-anchor="middle" x="484.5" y="-147" font-family="Helvetica,sans-Serif" font-size="10.00">fer_trx_api__inline.hh</text>
</a>
</g>
</g>
<!-- Node1&#45;&gt;Node14 -->
<g id="edge15" class="edge">
<title>Node1&#45;&gt;Node14</title>
<path fill="none" stroke="midnightblue" d="M308.01,-201.48C344.12,-191.05 405.35,-173.36 445.35,-161.81"/>
<polygon fill="midnightblue" stroke="midnightblue" points="446.4,-165.15 455.04,-159.01 444.46,-158.42 446.4,-165.15"/>
</g>
<!-- Node3&#45;&gt;Node2 -->
<g id="edge3" class="edge">
<title>Node3&#45;&gt;Node2</title>
<path fill="none" stroke="midnightblue" d="M190.45,-134.4C174.19,-123.5 151.78,-108.48 135.52,-97.58"/>
<polygon fill="midnightblue" stroke="midnightblue" points="137.45,-94.67 127.2,-92.01 133.55,-100.48 137.45,-94.67"/>
</g>
<!-- Node4 -->
<g id="node4" class="node">
<title>Node4</title>
<g id="a_node4"><a xlink:href="timer__data_8h.html" target="_top" xlink:title="vocabulary types to program Fernotron automatic (timers)">
<polygon fill="none" stroke="black" points="194.5,-67.5 194.5,-97.5 304.5,-97.5 304.5,-67.5 194.5,-67.5"/>
<text text-anchor="start" x="202.5" y="-85.5" font-family="Helvetica,sans-Serif" font-size="10.00">fernotron_trx/timer</text>
<text text-anchor="middle" x="249.5" y="-74.5" font-family="Helvetica,sans-Serif" font-size="10.00">_data.h</text>
</a>
</g>
</g>
<!-- Node3&#45;&gt;Node4 -->
<g id="edge4" class="edge">
<title>Node3&#45;&gt;Node4</title>
<path fill="none" stroke="midnightblue" d="M219.75,-134.4C224.53,-126.22 230.66,-115.73 236.12,-106.39"/>
<polygon fill="midnightblue" stroke="midnightblue" points="239.25,-107.98 241.27,-97.58 233.2,-104.44 239.25,-107.98"/>
</g>
<!-- Node12 -->
<g id="node12" class="node">
<title>Node12</title>
<g id="a_node12"><a xlink:title=" ">
<polygon fill="none" stroke="#bfbfbf" points="322.5,-73 322.5,-92 370.5,-92 370.5,-73 322.5,-73"/>
<text text-anchor="middle" x="346.5" y="-80" font-family="Helvetica,sans-Serif" font-size="10.00">time.h</text>
</a>
</g>
</g>
<!-- Node3&#45;&gt;Node12 -->
<g id="edge12" class="edge">
<title>Node3&#45;&gt;Node12</title>
<path fill="none" stroke="midnightblue" d="M240.79,-134.4C264.27,-123.09 296.94,-107.36 319.73,-96.39"/>
<polygon fill="midnightblue" stroke="midnightblue" points="321.34,-99.5 328.83,-92.01 318.3,-93.19 321.34,-99.5"/>
</g>
<!-- Node5 -->
<g id="node5" class="node">
<title>Node5</title>
<g id="a_node5"><a xlink:title=" ">
<polygon fill="none" stroke="#bfbfbf" points="0,-6 0,-25 53,-25 53,-6 0,-6"/>
<text text-anchor="middle" x="26.5" y="-13" font-family="Helvetica,sans-Serif" font-size="10.00">stdint.h</text>
</a>
</g>
</g>
<!-- Node4&#45;&gt;Node5 -->
<g id="edge5" class="edge">
<title>Node4&#45;&gt;Node5</title>
<path fill="none" stroke="midnightblue" d="M194.16,-68.4C156.67,-59.07 106.18,-45.64 62.5,-31 60.37,-30.29 58.19,-29.51 56,-28.71"/>
<polygon fill="midnightblue" stroke="midnightblue" points="57.11,-25.39 46.52,-25.06 54.6,-31.92 57.11,-25.39"/>
</g>
<!-- Node6 -->
<g id="node6" class="node">
<title>Node6</title>
<g id="a_node6"><a xlink:title=" ">
<polygon fill="none" stroke="#bfbfbf" points="71.5,-6 71.5,-25 133.5,-25 133.5,-6 71.5,-6"/>
<text text-anchor="middle" x="102.5" y="-13" font-family="Helvetica,sans-Serif" font-size="10.00">stdbool.h</text>
</a>
</g>
</g>
<!-- Node4&#45;&gt;Node6 -->
<g id="edge6" class="edge">
<title>Node4&#45;&gt;Node6</title>
<path fill="none" stroke="midnightblue" d="M217.6,-67.4C191.81,-55.99 155.83,-40.08 130.99,-29.1"/>
<polygon fill="midnightblue" stroke="midnightblue" points="132.3,-25.85 121.74,-25.01 129.47,-32.25 132.3,-25.85"/>
</g>
<!-- Node7 -->
<g id="node7" class="node">
<title>Node7</title>
<g id="a_node7"><a xlink:title=" ">
<polygon fill="none" stroke="#bfbfbf" points="152,-6 152,-25 205,-25 205,-6 152,-6"/>
<text text-anchor="middle" x="178.5" y="-13" font-family="Helvetica,sans-Serif" font-size="10.00">string.h</text>
</a>
</g>
</g>
<!-- Node4&#45;&gt;Node7 -->
<g id="edge7" class="edge">
<title>Node4&#45;&gt;Node7</title>
<path fill="none" stroke="midnightblue" d="M234.09,-67.4C222.69,-56.96 207.17,-42.75 195.43,-32"/>
<polygon fill="midnightblue" stroke="midnightblue" points="197.74,-29.37 188,-25.19 193.01,-34.53 197.74,-29.37"/>
</g>
<!-- Node8 -->
<g id="node8" class="node">
<title>Node8</title>
<g id="a_node8"><a xlink:title=" ">
<polygon fill="none" stroke="#bfbfbf" points="223,-6 223,-25 276,-25 276,-6 223,-6"/>
<text text-anchor="middle" x="249.5" y="-13" font-family="Helvetica,sans-Serif" font-size="10.00">ctype.h</text>
</a>
</g>
</g>
<!-- Node4&#45;&gt;Node8 -->
<g id="edge8" class="edge">
<title>Node4&#45;&gt;Node8</title>
<path fill="none" stroke="midnightblue" d="M249.5,-67.4C249.5,-58.06 249.5,-45.71 249.5,-35.52"/>
<polygon fill="midnightblue" stroke="midnightblue" points="253,-35.19 249.5,-25.19 246,-35.19 253,-35.19"/>
</g>
<!-- Node9 -->
<g id="node9" class="node">
<title>Node9</title>
<g id="a_node9"><a xlink:title=" ">
<polygon fill="none" stroke="#bfbfbf" points="294.5,-6 294.5,-25 344.5,-25 344.5,-6 294.5,-6"/>
<text text-anchor="middle" x="319.5" y="-13" font-family="Helvetica,sans-Serif" font-size="10.00">stdio.h</text>
</a>
</g>
</g>
<!-- Node4&#45;&gt;Node9 -->
<g id="edge9" class="edge">
<title>Node4&#45;&gt;Node9</title>
<path fill="none" stroke="midnightblue" d="M264.69,-67.4C275.82,-57.06 290.94,-43.02 302.47,-32.31"/>
<polygon fill="midnightblue" stroke="midnightblue" points="305.19,-34.56 310.14,-25.19 300.43,-29.43 305.19,-34.56"/>
</g>
<!-- Node10 -->
<g id="node10" class="node">
<title>Node10</title>
<g id="a_node10"><a xlink:title=" ">
<polygon fill="none" stroke="#bfbfbf" points="362.5,-0.5 362.5,-30.5 464.5,-30.5 464.5,-0.5 362.5,-0.5"/>
<text text-anchor="start" x="370.5" y="-18.5" font-family="Helvetica,sans-Serif" font-size="10.00">utils_misc/cstring</text>
<text text-anchor="middle" x="413.5" y="-7.5" font-family="Helvetica,sans-Serif" font-size="10.00">_utils.hh</text>
</a>
</g>
</g>
<!-- Node4&#45;&gt;Node10 -->
<g id="edge10" class="edge">
<title>Node4&#45;&gt;Node10</title>
<path fill="none" stroke="midnightblue" d="M285.09,-67.4C309.59,-57.69 342.33,-44.71 368.62,-34.29"/>
<polygon fill="midnightblue" stroke="midnightblue" points="369.98,-37.51 377.98,-30.58 367.4,-31.01 369.98,-37.51"/>
</g>
<!-- Node11 -->
<g id="node11" class="node">
<title>Node11</title>
<g id="a_node11"><a xlink:title=" ">
<polygon fill="none" stroke="#bfbfbf" points="483,-6 483,-25 560,-25 560,-6 483,-6"/>
<text text-anchor="middle" x="521.5" y="-13" font-family="Helvetica,sans-Serif" font-size="10.00">debug/dbg.h</text>
</a>
</g>
</g>
<!-- Node4&#45;&gt;Node11 -->
<g id="edge11" class="edge">
<title>Node4&#45;&gt;Node11</title>
<path fill="none" stroke="midnightblue" d="M304.66,-69C307.65,-68.32 310.61,-67.65 313.5,-67 384.6,-50.95 403.01,-49.55 473.5,-31 477.12,-30.05 480.88,-29 484.63,-27.93"/>
<polygon fill="midnightblue" stroke="midnightblue" points="485.83,-31.23 494.43,-25.05 483.85,-24.51 485.83,-31.23"/>
</g>
<!-- Node13&#45;&gt;Node12 -->
<g id="edge14" class="edge">
<title>Node13&#45;&gt;Node12</title>
<path fill="none" stroke="midnightblue" d="M346.5,-139.73C346.5,-130.18 346.5,-114.62 346.5,-102.28"/>
<polygon fill="midnightblue" stroke="midnightblue" points="350,-102.13 346.5,-92.13 343,-102.13 350,-102.13"/>
</g>
</g>
</svg>
