<?xml version="1.0" encoding="UTF-8" standalone="no"?>
<!DOCTYPE svg PUBLIC "-//W3C//DTD SVG 1.1//EN"
 "http://www.w3.org/Graphics/SVG/1.1/DTD/svg11.dtd">
<!-- Generated by graphviz version 2.43.0 (0)
 -->
<!-- Title: fernotron_uout/include/fernotron_uout/fer_uo_publish.h Pages: 1 -->
<svg width="435pt" height="106pt"
 viewBox="0.00 0.00 435.00 106.00" xmlns="http://www.w3.org/2000/svg" xmlns:xlink="http://www.w3.org/1999/xlink">
<g id="graph0" class="graph" transform="scale(1 1) rotate(0) translate(4 102)">
<title>fernotron_uout/include/fernotron_uout/fer_uo_publish.h</title>
<!-- Node1 -->
<g id="node1" class="node">
<title>Node1</title>
<g id="a_node1"><a xlink:title="publish fernotron_app state">
<polygon fill="#bfbfbf" stroke="black" points="181,-56.5 181,-97.5 308,-97.5 308,-56.5 181,-56.5"/>
<text text-anchor="start" x="189" y="-85.5" font-family="Helvetica,sans-Serif" font-size="10.00">fernotron_uout/include</text>
<text text-anchor="start" x="189" y="-74.5" font-family="Helvetica,sans-Serif" font-size="10.00">/fernotron_uout/fer_uo</text>
<text text-anchor="middle" x="244.5" y="-63.5" font-family="Helvetica,sans-Serif" font-size="10.00">_publish.h</text>
</a>
</g>
</g>
<!-- Node2 -->
<g id="node2" class="node">
<title>Node2</title>
<g id="a_node2"><a xlink:title=" ">
<polygon fill="none" stroke="#bfbfbf" points="0,-0.5 0,-19.5 113,-19.5 113,-0.5 0,-0.5"/>
<text text-anchor="middle" x="56.5" y="-7.5" font-family="Helvetica,sans-Serif" font-size="10.00">uout/uo_callbacks.h</text>
</a>
</g>
</g>
<!-- Node1&#45;&gt;Node2 -->
<g id="edge1" class="edge">
<title>Node1&#45;&gt;Node2</title>
<path fill="none" stroke="midnightblue" d="M188.09,-56.5C156.5,-45.57 118.12,-32.3 90.98,-22.92"/>
<polygon fill="midnightblue" stroke="midnightblue" points="92.12,-19.61 81.53,-19.65 89.83,-26.23 92.12,-19.61"/>
</g>
<!-- Node3 -->
<g id="node3" class="node">
<title>Node3</title>
<g id="a_node3"><a xlink:title=" ">
<polygon fill="none" stroke="#bfbfbf" points="131,-0.5 131,-19.5 200,-19.5 200,-0.5 131,-0.5"/>
<text text-anchor="middle" x="165.5" y="-7.5" font-family="Helvetica,sans-Serif" font-size="10.00">type_traits</text>
</a>
</g>
</g>
<!-- Node1&#45;&gt;Node3 -->
<g id="edge2" class="edge">
<title>Node1&#45;&gt;Node3</title>
<path fill="none" stroke="midnightblue" d="M220.8,-56.5C208.92,-46.72 194.76,-35.07 183.74,-26.01"/>
<polygon fill="midnightblue" stroke="midnightblue" points="185.96,-23.3 176.02,-19.65 181.51,-28.71 185.96,-23.3"/>
</g>
<!-- Node4 -->
<g id="node4" class="node">
<title>Node4</title>
<g id="a_node4"><a xlink:title=" ">
<polygon fill="none" stroke="#bfbfbf" points="218,-0.5 218,-19.5 271,-19.5 271,-0.5 218,-0.5"/>
<text text-anchor="middle" x="244.5" y="-7.5" font-family="Helvetica,sans-Serif" font-size="10.00">stdint.h</text>
</a>
</g>
</g>
<!-- Node1&#45;&gt;Node4 -->
<g id="edge3" class="edge">
<title>Node1&#45;&gt;Node4</title>
<path fill="none" stroke="midnightblue" d="M244.5,-56.5C244.5,-48.07 244.5,-38.24 244.5,-29.87"/>
<polygon fill="midnightblue" stroke="midnightblue" points="248,-29.65 244.5,-19.65 241,-29.65 248,-29.65"/>
</g>
<!-- Node5 -->
<g id="node5" class="node">
<title>Node5</title>
<g id="a_node5"><a xlink:title=" ">
<polygon fill="none" stroke="#bfbfbf" points="289.5,-0.5 289.5,-19.5 345.5,-19.5 345.5,-0.5 289.5,-0.5"/>
<text text-anchor="middle" x="317.5" y="-7.5" font-family="Helvetica,sans-Serif" font-size="10.00">stddef.h</text>
</a>
</g>
</g>
<!-- Node1&#45;&gt;Node5 -->
<g id="edge4" class="edge">
<title>Node1&#45;&gt;Node5</title>
<path fill="none" stroke="midnightblue" d="M266.4,-56.5C277.16,-46.92 289.95,-35.53 300.04,-26.54"/>
<polygon fill="midnightblue" stroke="midnightblue" points="302.64,-28.92 307.78,-19.65 297.99,-23.69 302.64,-28.92"/>
</g>
<!-- Node6 -->
<g id="node6" class="node">
<title>Node6</title>
<g id="a_node6"><a xlink:href="so__msg_8h_source.html" target="_top" xlink:title=" ">
<polygon fill="none" stroke="black" points="364,-0.5 364,-19.5 427,-19.5 427,-0.5 364,-0.5"/>
<text text-anchor="middle" x="395.5" y="-7.5" font-family="Helvetica,sans-Serif" font-size="10.00">so_msg.h</text>
</a>
</g>
</g>
<!-- Node1&#45;&gt;Node6 -->
<g id="edge5" class="edge">
<title>Node1&#45;&gt;Node6</title>
<path fill="none" stroke="midnightblue" d="M289.8,-56.5C314.51,-45.86 344.39,-33 366.07,-23.67"/>
<polygon fill="midnightblue" stroke="midnightblue" points="367.6,-26.82 375.4,-19.65 364.83,-20.39 367.6,-26.82"/>
</g>
</g>
</svg>
