<?xml version="1.0" encoding="UTF-8" standalone="no"?>
<!DOCTYPE svg PUBLIC "-//W3C//DTD SVG 1.1//EN"
 "http://www.w3.org/Graphics/SVG/1.1/DTD/svg11.dtd">
<!-- Generated by graphviz version 2.43.0 (0)
 -->
<!-- Title: fernotron_app/include/fernotron/fer_pct.h Pages: 1 -->
<!--zoomable 262 -->
<svg id="main" version="1.1" xmlns="http://www.w3.org/2000/svg" xmlns:xlink="http://www.w3.org/1999/xlink" xml:space="preserve" onload="init(evt)">
<style type="text/css"><![CDATA[
.edge:hover path { stroke: red; }
.edge:hover polygon { stroke: red; fill: red; }
]]></style>
<script type="text/javascript"><![CDATA[
var edges = document.getElementsByTagName('g');
if (edges && edges.length) {
  for (var i=0;i<edges.length;i++) {
    if (edges[i].id.substr(0,4)=='edge') {
      edges[i].setAttribute('class','edge');
    }
  }
}
]]></script>
        <defs>
                <circle id="rim" cx="0" cy="0" r="7"/>
                <circle id="rim2" cx="0" cy="0" r="3.5"/>
                <g id="zoomPlus">
                        <use xlink:href="#rim" fill="#404040">
                                <set attributeName="fill" to="#808080" begin="zoomplus.mouseover" end="zoomplus.mouseout"/>
                        </use>
                        <path d="M-4,0h8M0,-4v8" fill="none" stroke="white" stroke-width="1.5" pointer-events="none"/>
                </g>
                <g id="zoomMin">
                        <use xlink:href="#rim" fill="#404040">
                                <set attributeName="fill" to="#808080" begin="zoomminus.mouseover" end="zoomminus.mouseout"/>
                        </use>
                        <path d="M-4,0h8" fill="none" stroke="white" stroke-width="1.5" pointer-events="none"/>
                </g>
                <g id="dirArrow">
                        <path fill="none" stroke="white" stroke-width="1.5" d="M0,-3.0v7 M-2.5,-0.5L0,-3.0L2.5,-0.5"/>
                </g>
               <g id="resetDef">
                       <use xlink:href="#rim2" fill="#404040">
                               <set attributeName="fill" to="#808080" begin="reset.mouseover" end="reset.mouseout"/>
                       </use>
               </g>
        </defs>

<script type="text/javascript">
var viewWidth = 634;
var viewHeight = 262;
var sectionId = 'dynsection-1';
</script>
<script xlink:href="svgpan.js"/>
<svg id="graph" class="graph">
<g id="viewport">
<title>fernotron_app/include/fernotron/fer_pct.h</title>
<!-- Node1 -->
<g id="node1" class="node">
<title>Node1</title>
<g id="a_node1"><a xlink:title="class Pct to represent shutter opening percentage">
<polygon fill="#bfbfbf" stroke="black" points="264.5,-223.5 264.5,-253.5 387.5,-253.5 387.5,-223.5 264.5,-223.5"/>
<text text-anchor="start" x="272.5" y="-241.5" font-family="Helvetica,sans-Serif" font-size="10.00">fernotron_app/include</text>
<text text-anchor="middle" x="326" y="-230.5" font-family="Helvetica,sans-Serif" font-size="10.00">/fernotron/fer_pct.h</text>
</a>
</g>
</g>
<!-- Node2 -->
<g id="node2" class="node">
<title>Node2</title>
<g id="a_node2"><a xlink:href="pairings_8h.html" target="_top" xlink:title="Map Fernotron controller 3&#45;byte&#45;addresses to an a/g/m addresses.">
<polygon fill="none" stroke="black" points="0,-151 0,-181 142,-181 142,-151 0,-151"/>
<text text-anchor="start" x="8" y="-169" font-family="Helvetica,sans-Serif" font-size="10.00">fernotron_app/include</text>
<text text-anchor="middle" x="71" y="-158" font-family="Helvetica,sans-Serif" font-size="10.00">/fernotron/alias/pairings.h</text>
</a>
</g>
</g>
<!-- Node1&#45;&gt;Node2 -->
<g id="edge1" class="edge">
<title>Node1&#45;&gt;Node2</title>
<path fill="none" stroke="midnightblue" d="M265.66,-220.82C221.93,-208.73 163.44,-192.56 122.02,-181.11"/>
<polygon fill="midnightblue" stroke="midnightblue" points="264.74,-224.2 275.32,-223.49 266.61,-217.45 264.74,-224.2"/>
</g>
<!-- Node3 -->
<g id="node3" class="node">
<title>Node3</title>
<g id="a_node3"><a xlink:href="fau__tminutes_8h.html" target="_top" xlink:title="Represent when each kind of timer will be scheduled for a given day and g/m. Calculate the next event...">
<polygon fill="none" stroke="black" points="160,-151 160,-181 326,-181 326,-151 160,-151"/>
<text text-anchor="start" x="168" y="-169" font-family="Helvetica,sans-Serif" font-size="10.00">fernotron_app/include</text>
<text text-anchor="middle" x="243" y="-158" font-family="Helvetica,sans-Serif" font-size="10.00">/fernotron/auto/fau_tminutes.h</text>
</a>
</g>
</g>
<!-- Node1&#45;&gt;Node3 -->
<g id="edge2" class="edge">
<title>Node1&#45;&gt;Node3</title>
<path fill="none" stroke="midnightblue" d="M301.23,-216.46C287.74,-205 271.42,-191.14 259.49,-181"/>
<polygon fill="midnightblue" stroke="midnightblue" points="299.32,-219.43 309.2,-223.23 303.85,-214.09 299.32,-219.43"/>
</g>
<!-- Node6 -->
<g id="node6" class="node">
<title>Node6</title>
<g id="a_node6"><a xlink:href="positions__dynamic_8h.html" target="_top" xlink:title="Keep track of positions for a currently moving shutter.">
<polygon fill="none" stroke="black" points="344,-145.5 344,-186.5 476,-186.5 476,-145.5 344,-145.5"/>
<text text-anchor="start" x="352" y="-174.5" font-family="Helvetica,sans-Serif" font-size="10.00">fernotron_app/include</text>
<text text-anchor="start" x="352" y="-163.5" font-family="Helvetica,sans-Serif" font-size="10.00">/fernotron/pos/positions</text>
<text text-anchor="middle" x="410" y="-152.5" font-family="Helvetica,sans-Serif" font-size="10.00">_dynamic.h</text>
</a>
</g>
</g>
<!-- Node1&#45;&gt;Node6 -->
<g id="edge5" class="edge">
<title>Node1&#45;&gt;Node6</title>
<path fill="none" stroke="midnightblue" d="M350.83,-216.66C362.17,-207.15 375.51,-195.94 386.66,-186.59"/>
<polygon fill="midnightblue" stroke="midnightblue" points="348.41,-214.12 343,-223.23 352.91,-219.49 348.41,-214.12"/>
</g>
<!-- Node9 -->
<g id="node9" class="node">
<title>Node9</title>
<g id="a_node9"><a xlink:href="positions__static_8h.html" target="_top" xlink:title="Store and retrieve shutter positions (persistently)">
<polygon fill="none" stroke="black" points="494,-145.5 494,-186.5 626,-186.5 626,-145.5 494,-145.5"/>
<text text-anchor="start" x="502" y="-174.5" font-family="Helvetica,sans-Serif" font-size="10.00">fernotron_app/include</text>
<text text-anchor="start" x="502" y="-163.5" font-family="Helvetica,sans-Serif" font-size="10.00">/fernotron/pos/positions</text>
<text text-anchor="middle" x="560" y="-152.5" font-family="Helvetica,sans-Serif" font-size="10.00">_static.h</text>
</a>
</g>
</g>
<!-- Node1&#45;&gt;Node9 -->
<g id="edge8" class="edge">
<title>Node1&#45;&gt;Node9</title>
<path fill="none" stroke="midnightblue" d="M382.27,-220.55C416.2,-210.32 459.57,-197.26 494.97,-186.59"/>
<polygon fill="midnightblue" stroke="midnightblue" points="381.08,-217.25 372.51,-223.49 383.1,-223.95 381.08,-217.25"/>
</g>
<!-- Node4 -->
<g id="node4" class="node">
<title>Node4</title>
<g id="a_node4"><a xlink:href="fau__tevent_8hh_source.html" target="_top" xlink:title=" ">
<polygon fill="none" stroke="black" points="163,-78.5 163,-108.5 323,-108.5 323,-78.5 163,-78.5"/>
<text text-anchor="start" x="171" y="-96.5" font-family="Helvetica,sans-Serif" font-size="10.00">fernotron_app/include</text>
<text text-anchor="middle" x="243" y="-85.5" font-family="Helvetica,sans-Serif" font-size="10.00">/fernotron/auto/fau_tevent.hh</text>
</a>
</g>
</g>
<!-- Node3&#45;&gt;Node4 -->
<g id="edge3" class="edge">
<title>Node3&#45;&gt;Node4</title>
<path fill="none" stroke="midnightblue" d="M243,-140.73C243,-130.07 243,-117.91 243,-108.75"/>
<polygon fill="midnightblue" stroke="midnightblue" points="239.5,-140.73 243,-150.73 246.5,-140.73 239.5,-140.73"/>
</g>
<!-- Node5 -->
<g id="node5" class="node">
<title>Node5</title>
<g id="a_node5"><a xlink:href="fau__next__event_8hh_source.html" target="_top" xlink:title=" ">
<polygon fill="none" stroke="black" points="175.5,-0.5 175.5,-41.5 310.5,-41.5 310.5,-0.5 175.5,-0.5"/>
<text text-anchor="start" x="183.5" y="-29.5" font-family="Helvetica,sans-Serif" font-size="10.00">fernotron_app/include</text>
<text text-anchor="start" x="183.5" y="-18.5" font-family="Helvetica,sans-Serif" font-size="10.00">/fernotron/auto/fau_next</text>
<text text-anchor="middle" x="243" y="-7.5" font-family="Helvetica,sans-Serif" font-size="10.00">_event.hh</text>
</a>
</g>
</g>
<!-- Node4&#45;&gt;Node5 -->
<g id="edge4" class="edge">
<title>Node4&#45;&gt;Node5</title>
<path fill="none" stroke="midnightblue" d="M243,-67.98C243,-59.35 243,-49.76 243,-41.59"/>
<polygon fill="midnightblue" stroke="midnightblue" points="239.5,-68.23 243,-78.23 246.5,-68.23 239.5,-68.23"/>
</g>
<!-- Node7 -->
<g id="node7" class="node">
<title>Node7</title>
<g id="a_node7"><a xlink:href="shutter__pct_8h.html" target="_top" xlink:title="include positions_static.h and positions_dynamic.h">
<polygon fill="none" stroke="black" points="412,-78.5 412,-108.5 564,-108.5 564,-78.5 412,-78.5"/>
<text text-anchor="start" x="420" y="-96.5" font-family="Helvetica,sans-Serif" font-size="10.00">fernotron_app/include</text>
<text text-anchor="middle" x="488" y="-85.5" font-family="Helvetica,sans-Serif" font-size="10.00">/fernotron/pos/shutter_pct.h</text>
</a>
</g>
</g>
<!-- Node6&#45;&gt;Node7 -->
<g id="edge6" class="edge">
<title>Node6&#45;&gt;Node7</title>
<path fill="none" stroke="midnightblue" d="M439.21,-138.6C450.35,-128.53 462.62,-117.44 472.08,-108.89"/>
<polygon fill="midnightblue" stroke="midnightblue" points="436.8,-136.06 431.73,-145.36 441.49,-141.25 436.8,-136.06"/>
</g>
<!-- Node8 -->
<g id="node8" class="node">
<title>Node8</title>
<g id="a_node8"><a xlink:href="commands_8h.html" target="_top" xlink:title="commands to move or stop a shutter with position support">
<polygon fill="none" stroke="black" points="412.5,-6 412.5,-36 563.5,-36 563.5,-6 412.5,-6"/>
<text text-anchor="start" x="420.5" y="-24" font-family="Helvetica,sans-Serif" font-size="10.00">fernotron_app/include</text>
<text text-anchor="middle" x="488" y="-13" font-family="Helvetica,sans-Serif" font-size="10.00">/fernotron/pos/commands.h</text>
</a>
</g>
</g>
<!-- Node7&#45;&gt;Node8 -->
<g id="edge7" class="edge">
<title>Node7&#45;&gt;Node8</title>
<path fill="none" stroke="midnightblue" d="M488,-68.23C488,-57.57 488,-45.41 488,-36.25"/>
<polygon fill="midnightblue" stroke="midnightblue" points="484.5,-68.23 488,-78.23 491.5,-68.23 484.5,-68.23"/>
</g>
<!-- Node9&#45;&gt;Node7 -->
<g id="edge9" class="edge">
<title>Node9&#45;&gt;Node7</title>
<path fill="none" stroke="midnightblue" d="M532.74,-138.31C522.54,-128.32 511.34,-117.35 502.7,-108.89"/>
<polygon fill="midnightblue" stroke="midnightblue" points="530.35,-140.87 539.94,-145.36 535.25,-135.86 530.35,-140.87"/>
</g>
</g>
</svg>
        <g id="navigator" transform="translate(0 0)" fill="#404254">
                <rect fill="#f2f5e9" fill-opacity="0.5" stroke="#606060" stroke-width=".5" x="0" y="0" width="60" height="60"/>
                <use id="zoomplus" xlink:href="#zoomPlus" x="17" y="9" onmousedown="handleZoom(evt,'in')"/>
                <use id="zoomminus" xlink:href="#zoomMin" x="42" y="9" onmousedown="handleZoom(evt,'out')"/>
                <use id="reset" xlink:href="#resetDef" x="30" y="36" onmousedown="handleReset()"/>
                <g id="arrowUp" xlink:href="#dirArrow" transform="translate(30 24)" onmousedown="handlePan(0,-1)">
                  <use xlink:href="#rim" fill="#404040">
                        <set attributeName="fill" to="#808080" begin="arrowUp.mouseover" end="arrowUp.mouseout"/>
                  </use>
                  <path fill="none" stroke="white" stroke-width="1.5" d="M0,-3.0v7 M-2.5,-0.5L0,-3.0L2.5,-0.5"/>
                </g>
                <g id="arrowRight" xlink:href="#dirArrow" transform="rotate(90) translate(36 -43)" onmousedown="handlePan(1,0)">
                  <use xlink:href="#rim" fill="#404040">
                        <set attributeName="fill" to="#808080" begin="arrowRight.mouseover" end="arrowRight.mouseout"/>
                  </use>
                  <path fill="none" stroke="white" stroke-width="1.5" d="M0,-3.0v7 M-2.5,-0.5L0,-3.0L2.5,-0.5"/>
                </g>
                <g id="arrowDown" xlink:href="#dirArrow" transform="rotate(180) translate(-30 -48)" onmousedown="handlePan(0,1)">
                  <use xlink:href="#rim" fill="#404040">
                        <set attributeName="fill" to="#808080" begin="arrowDown.mouseover" end="arrowDown.mouseout"/>
                  </use>
                  <path fill="none" stroke="white" stroke-width="1.5" d="M0,-3.0v7 M-2.5,-0.5L0,-3.0L2.5,-0.5"/>
                </g>
                <g id="arrowLeft" xlink:href="#dirArrow" transform="rotate(270) translate(-36 17)" onmousedown="handlePan(-1,0)">
                  <use xlink:href="#rim" fill="#404040">
                        <set attributeName="fill" to="#808080" begin="arrowLeft.mouseover" end="arrowLeft.mouseout"/>
                  </use>
                  <path fill="none" stroke="white" stroke-width="1.5" d="M0,-3.0v7 M-2.5,-0.5L0,-3.0L2.5,-0.5"/>
                </g>
        </g>
        <svg viewBox="0 0 15 15" width="100%" height="30px" preserveAspectRatio="xMaxYMin meet">
         <g id="arrow_out" transform="scale(0.3 0.3)">
          <a xlink:href="fer__pct_8h__dep__incl_org.svg" target="_base">
           <rect id="button" ry="5" rx="5" y="6" x="6" height="38" width="38"
                fill="#f2f5e9" fill-opacity="0.5" stroke="#606060" stroke-width="1.0"/>
           <path id="arrow"
             d="M 11.500037,31.436501 C 11.940474,20.09759 22.043105,11.32322 32.158766,21.979434 L 37.068811,17.246167 C 37.068811,17.246167 37.088388,32 37.088388,32 L 22.160133,31.978069 C 22.160133,31.978069 26.997745,27.140456 26.997745,27.140456 C 18.528582,18.264221 13.291696,25.230495 11.500037,31.436501 z"
             style="fill:#404040;"/>
          </a>
         </g>
        </svg>
</svg>
