<?xml version="1.0" encoding="UTF-8" standalone="no"?>
<!DOCTYPE svg PUBLIC "-//W3C//DTD SVG 1.1//EN"
 "http://www.w3.org/Graphics/SVG/1.1/DTD/svg11.dtd">
<!-- Generated by graphviz version 2.43.0 (0)
 -->
<!-- Title: fer_msg_plain_enum.h Pages: 1 -->
<svg width="603pt" height="196pt"
 viewBox="0.00 0.00 603.00 196.00" xmlns="http://www.w3.org/2000/svg" xmlns:xlink="http://www.w3.org/1999/xlink">
<g id="graph0" class="graph" transform="scale(1 1) rotate(0) translate(4 192)">
<title>fer_msg_plain_enum.h</title>
<!-- Node1 -->
<g id="node1" class="node">
<title>Node1</title>
<g id="a_node1"><a xlink:title="Raw message for plain commands.">
<polygon fill="#bfbfbf" stroke="black" points="107,-168.5 107,-187.5 235,-187.5 235,-168.5 107,-168.5"/>
<text text-anchor="middle" x="171" y="-175.5" font-family="Helvetica,sans-Serif" font-size="10.00">fer_msg_plain_enum.h</text>
</a>
</g>
</g>
<!-- Node2 -->
<g id="node2" class="node">
<title>Node2</title>
<g id="a_node2"><a xlink:href="fer__msg__plain_8h.html" target="_top" xlink:title="Data structure of plain messages or header of extended messages.">
<polygon fill="none" stroke="black" points="123.5,-112.5 123.5,-131.5 218.5,-131.5 218.5,-112.5 123.5,-112.5"/>
<text text-anchor="middle" x="171" y="-119.5" font-family="Helvetica,sans-Serif" font-size="10.00">fer_msg_plain.h</text>
</a>
</g>
</g>
<!-- Node1&#45;&gt;Node2 -->
<g id="edge1" class="edge">
<title>Node1&#45;&gt;Node2</title>
<path fill="none" stroke="midnightblue" d="M171,-157.8C171,-148.91 171,-138.78 171,-131.75"/>
<polygon fill="midnightblue" stroke="midnightblue" points="167.5,-158.08 171,-168.08 174.5,-158.08 167.5,-158.08"/>
</g>
<!-- Node3 -->
<g id="node3" class="node">
<title>Node3</title>
<g id="a_node3"><a xlink:href="commands_8h.html" target="_top" xlink:title="commands to move or stop a shutter with position support">
<polygon fill="none" stroke="black" points="0,-56.5 0,-75.5 80,-75.5 80,-56.5 0,-56.5"/>
<text text-anchor="middle" x="40" y="-63.5" font-family="Helvetica,sans-Serif" font-size="10.00">commands.h</text>
</a>
</g>
</g>
<!-- Node2&#45;&gt;Node3 -->
<g id="edge2" class="edge">
<title>Node2&#45;&gt;Node3</title>
<path fill="none" stroke="midnightblue" d="M140.68,-108.5C116.12,-98.38 82.18,-84.39 60.66,-75.52"/>
<polygon fill="midnightblue" stroke="midnightblue" points="139.66,-111.87 150.24,-112.44 142.33,-105.4 139.66,-111.87"/>
</g>
<!-- Node4 -->
<g id="node4" class="node">
<title>Node4</title>
<g id="a_node4"><a xlink:href="repeater_8h_source.html" target="_top" xlink:title=" ">
<polygon fill="none" stroke="black" points="98,-56.5 98,-75.5 164,-75.5 164,-56.5 98,-56.5"/>
<text text-anchor="middle" x="131" y="-63.5" font-family="Helvetica,sans-Serif" font-size="10.00">repeater.h</text>
</a>
</g>
</g>
<!-- Node2&#45;&gt;Node4 -->
<g id="edge3" class="edge">
<title>Node2&#45;&gt;Node4</title>
<path fill="none" stroke="midnightblue" d="M158.3,-103.86C151.37,-94.5 143.09,-83.33 137.48,-75.75"/>
<polygon fill="midnightblue" stroke="midnightblue" points="155.63,-106.13 164.39,-112.08 161.25,-101.96 155.63,-106.13"/>
</g>
<!-- Node5 -->
<g id="node5" class="node">
<title>Node5</title>
<g id="a_node5"><a xlink:href="fer__fsb_8h.html" target="_top" xlink:title="Plain raw message.">
<polygon fill="none" stroke="black" points="182.5,-56.5 182.5,-75.5 241.5,-75.5 241.5,-56.5 182.5,-56.5"/>
<text text-anchor="middle" x="212" y="-63.5" font-family="Helvetica,sans-Serif" font-size="10.00">fer_fsb.h</text>
</a>
</g>
</g>
<!-- Node2&#45;&gt;Node5 -->
<g id="edge4" class="edge">
<title>Node2&#45;&gt;Node5</title>
<path fill="none" stroke="midnightblue" d="M184.02,-103.86C191.12,-94.5 199.6,-83.33 205.36,-75.75"/>
<polygon fill="midnightblue" stroke="midnightblue" points="181.03,-102 177.77,-112.08 186.61,-106.24 181.03,-102"/>
</g>
<!-- Node8 -->
<g id="node8" class="node">
<title>Node8</title>
<g id="a_node8"><a xlink:href="fer__msg__attachment_8h.html" target="_top" xlink:title="Extended messages.">
<polygon fill="none" stroke="black" points="259.5,-56.5 259.5,-75.5 386.5,-75.5 386.5,-56.5 259.5,-56.5"/>
<text text-anchor="middle" x="323" y="-63.5" font-family="Helvetica,sans-Serif" font-size="10.00">fer_msg_attachment.h</text>
</a>
</g>
</g>
<!-- Node2&#45;&gt;Node8 -->
<g id="edge7" class="edge">
<title>Node2&#45;&gt;Node8</title>
<path fill="none" stroke="midnightblue" d="M204.67,-109.04C233.27,-98.88 273.61,-84.55 299.03,-75.52"/>
<polygon fill="midnightblue" stroke="midnightblue" points="203.34,-105.8 195.08,-112.44 205.68,-112.39 203.34,-105.8"/>
</g>
<!-- Node6 -->
<g id="node6" class="node">
<title>Node6</title>
<g id="a_node6"><a xlink:href="fer__msg__tx_8h.html" target="_top" xlink:title="Send raw messages.">
<polygon fill="none" stroke="black" points="58,-0.5 58,-19.5 138,-19.5 138,-0.5 58,-0.5"/>
<text text-anchor="middle" x="98" y="-7.5" font-family="Helvetica,sans-Serif" font-size="10.00">fer_msg_tx.h</text>
</a>
</g>
</g>
<!-- Node5&#45;&gt;Node6 -->
<g id="edge5" class="edge">
<title>Node5&#45;&gt;Node6</title>
<path fill="none" stroke="midnightblue" d="M184.76,-52.1C163.46,-42.01 134.46,-28.27 115.98,-19.52"/>
<polygon fill="midnightblue" stroke="midnightblue" points="183.4,-55.33 193.94,-56.44 186.4,-49 183.4,-55.33"/>
</g>
<!-- Node7 -->
<g id="node7" class="node">
<title>Node7</title>
<g id="a_node7"><a xlink:href="fer__rawmsg__build_8h.html" target="_top" xlink:title="builder functions to construct (extended) raw messages">
<polygon fill="none" stroke="black" points="156.5,-0.5 156.5,-19.5 269.5,-19.5 269.5,-0.5 156.5,-0.5"/>
<text text-anchor="middle" x="213" y="-7.5" font-family="Helvetica,sans-Serif" font-size="10.00">fer_rawmsg_build.h</text>
</a>
</g>
</g>
<!-- Node5&#45;&gt;Node7 -->
<g id="edge6" class="edge">
<title>Node5&#45;&gt;Node7</title>
<path fill="none" stroke="midnightblue" d="M212.36,-45.8C212.52,-36.91 212.71,-26.78 212.84,-19.75"/>
<polygon fill="midnightblue" stroke="midnightblue" points="208.85,-46.02 212.17,-56.08 215.85,-46.15 208.85,-46.02"/>
</g>
<!-- Node8&#45;&gt;Node7 -->
<g id="edge11" class="edge">
<title>Node8&#45;&gt;Node7</title>
<path fill="none" stroke="midnightblue" d="M296.24,-51.86C275.84,-41.85 248.33,-28.35 230.63,-19.65"/>
<polygon fill="midnightblue" stroke="midnightblue" points="294.81,-55.06 305.33,-56.32 297.89,-48.78 294.81,-55.06"/>
</g>
<!-- Node9 -->
<g id="node9" class="node">
<title>Node9</title>
<g id="a_node9"><a xlink:href="fer__print_8h.html" target="_top" xlink:title="Print raw message as formatted text to standard output (for debug purposes).">
<polygon fill="none" stroke="black" points="287.5,-0.5 287.5,-19.5 354.5,-19.5 354.5,-0.5 287.5,-0.5"/>
<text text-anchor="middle" x="321" y="-7.5" font-family="Helvetica,sans-Serif" font-size="10.00">fer_print.h</text>
</a>
</g>
</g>
<!-- Node8&#45;&gt;Node9 -->
<g id="edge8" class="edge">
<title>Node8&#45;&gt;Node9</title>
<path fill="none" stroke="midnightblue" d="M322.29,-45.8C321.96,-36.91 321.58,-26.78 321.32,-19.75"/>
<polygon fill="midnightblue" stroke="midnightblue" points="318.8,-46.22 322.67,-56.08 325.8,-45.96 318.8,-46.22"/>
</g>
<!-- Node10 -->
<g id="node10" class="node">
<title>Node10</title>
<g id="a_node10"><a xlink:href="fer__radio__trx_8h.html" target="_top" xlink:title="RF transceiver.">
<polygon fill="none" stroke="black" points="373,-0.5 373,-19.5 461,-19.5 461,-0.5 373,-0.5"/>
<text text-anchor="middle" x="417" y="-7.5" font-family="Helvetica,sans-Serif" font-size="10.00">fer_radio_trx.h</text>
</a>
</g>
</g>
<!-- Node8&#45;&gt;Node10 -->
<g id="edge9" class="edge">
<title>Node8&#45;&gt;Node10</title>
<path fill="none" stroke="midnightblue" d="M347.06,-51.18C364.36,-41.24 387.15,-28.15 401.93,-19.65"/>
<polygon fill="midnightblue" stroke="midnightblue" points="345.03,-48.31 338.1,-56.32 348.52,-54.38 345.03,-48.31"/>
</g>
<!-- Node11 -->
<g id="node11" class="node">
<title>Node11</title>
<g id="a_node11"><a xlink:href="fer__rawmsg__buffer_8h.html" target="_top" xlink:title="Global static buffers for raw messages.">
<polygon fill="none" stroke="black" points="479,-0.5 479,-19.5 595,-19.5 595,-0.5 479,-0.5"/>
<text text-anchor="middle" x="537" y="-7.5" font-family="Helvetica,sans-Serif" font-size="10.00">fer_rawmsg_buffer.h</text>
</a>
</g>
</g>
<!-- Node8&#45;&gt;Node11 -->
<g id="edge10" class="edge">
<title>Node8&#45;&gt;Node11</title>
<path fill="none" stroke="midnightblue" d="M366.76,-53.96C407.17,-43.76 466.37,-28.82 503.25,-19.52"/>
<polygon fill="midnightblue" stroke="midnightblue" points="365.75,-50.6 356.91,-56.44 367.46,-57.39 365.75,-50.6"/>
</g>
</g>
</svg>
