<?xml version="1.0" encoding="UTF-8" standalone="no"?>
<!DOCTYPE svg PUBLIC "-//W3C//DTD SVG 1.1//EN"
 "http://www.w3.org/Graphics/SVG/1.1/DTD/svg11.dtd">
<!-- Generated by graphviz version 2.43.0 (0)
 -->
<!-- Title: fer_main.h Pages: 1 -->
<svg width="487pt" height="140pt"
 viewBox="0.00 0.00 487.00 140.00" xmlns="http://www.w3.org/2000/svg" xmlns:xlink="http://www.w3.org/1999/xlink">
<g id="graph0" class="graph" transform="scale(1 1) rotate(0) translate(4 136)">
<title>fer_main.h</title>
<!-- Node1 -->
<g id="node1" class="node">
<title>Node1</title>
<g id="a_node1"><a xlink:title="Component settings.">
<polygon fill="#bfbfbf" stroke="black" points="101,-112.5 101,-131.5 170,-131.5 170,-112.5 101,-112.5"/>
<text text-anchor="middle" x="135.5" y="-119.5" font-family="Helvetica,sans-Serif" font-size="10.00">fer_main.h</text>
</a>
</g>
</g>
<!-- Node2 -->
<g id="node2" class="node">
<title>Node2</title>
<g id="a_node2"><a xlink:title=" ">
<polygon fill="none" stroke="#bfbfbf" points="0,-0.5 0,-19.5 53,-19.5 53,-0.5 0,-0.5"/>
<text text-anchor="middle" x="26.5" y="-7.5" font-family="Helvetica,sans-Serif" font-size="10.00">stdint.h</text>
</a>
</g>
</g>
<!-- Node1&#45;&gt;Node2 -->
<g id="edge1" class="edge">
<title>Node1&#45;&gt;Node2</title>
<path fill="none" stroke="midnightblue" d="M126.95,-112.37C108.64,-93.89 65.44,-50.29 42.1,-26.74"/>
<polygon fill="midnightblue" stroke="midnightblue" points="44.54,-24.23 35.01,-19.59 39.57,-29.16 44.54,-24.23"/>
</g>
<!-- Node3 -->
<g id="node3" class="node">
<title>Node3</title>
<g id="a_node3"><a xlink:href="gm__set_8hh.html" target="_top" xlink:title="Provide set of groups/members with iterator.">
<polygon fill="none" stroke="black" points="132.5,-56.5 132.5,-75.5 248.5,-75.5 248.5,-56.5 132.5,-56.5"/>
<text text-anchor="middle" x="190.5" y="-63.5" font-family="Helvetica,sans-Serif" font-size="10.00">fernotron/gm_set.hh</text>
</a>
</g>
</g>
<!-- Node1&#45;&gt;Node3 -->
<g id="edge2" class="edge">
<title>Node1&#45;&gt;Node3</title>
<path fill="none" stroke="midnightblue" d="M144.58,-112.08C152.67,-104.14 164.7,-92.34 174.41,-82.8"/>
<polygon fill="midnightblue" stroke="midnightblue" points="176.9,-85.25 181.59,-75.75 172,-80.26 176.9,-85.25"/>
</g>
<!-- Node3&#45;&gt;Node2 -->
<g id="edge5" class="edge">
<title>Node3&#45;&gt;Node2</title>
<path fill="none" stroke="midnightblue" d="M164.51,-56.44C136.8,-47.32 92.75,-32.81 61.88,-22.65"/>
<polygon fill="midnightblue" stroke="midnightblue" points="62.96,-19.32 52.36,-19.52 60.77,-25.97 62.96,-19.32"/>
</g>
<!-- Node4 -->
<g id="node4" class="node">
<title>Node4</title>
<g id="a_node4"><a xlink:title=" ">
<polygon fill="none" stroke="#bfbfbf" points="71.5,-0.5 71.5,-19.5 203.5,-19.5 203.5,-0.5 71.5,-0.5"/>
<text text-anchor="middle" x="137.5" y="-7.5" font-family="Helvetica,sans-Serif" font-size="10.00">utils_misc/int_macros.h</text>
</a>
</g>
</g>
<!-- Node3&#45;&gt;Node4 -->
<g id="edge3" class="edge">
<title>Node3&#45;&gt;Node4</title>
<path fill="none" stroke="midnightblue" d="M181.75,-56.08C174.03,-48.22 162.6,-36.57 153.28,-27.08"/>
<polygon fill="midnightblue" stroke="midnightblue" points="155.59,-24.44 146.09,-19.75 150.6,-29.34 155.59,-24.44"/>
</g>
<!-- Node5 -->
<g id="node5" class="node">
<title>Node5</title>
<g id="a_node5"><a xlink:title=" ">
<polygon fill="none" stroke="#bfbfbf" points="222,-0.5 222,-19.5 267,-19.5 267,-0.5 222,-0.5"/>
<text text-anchor="middle" x="244.5" y="-7.5" font-family="Helvetica,sans-Serif" font-size="10.00">utility</text>
</a>
</g>
</g>
<!-- Node3&#45;&gt;Node5 -->
<g id="edge4" class="edge">
<title>Node3&#45;&gt;Node5</title>
<path fill="none" stroke="midnightblue" d="M199.42,-56.08C207.28,-48.22 218.93,-36.57 228.42,-27.08"/>
<polygon fill="midnightblue" stroke="midnightblue" points="231.15,-29.3 235.75,-19.75 226.2,-24.35 231.15,-29.3"/>
</g>
<!-- Node6 -->
<g id="node6" class="node">
<title>Node6</title>
<g id="a_node6"><a xlink:title=" ">
<polygon fill="none" stroke="#bfbfbf" points="285,-0.5 285,-19.5 338,-19.5 338,-0.5 285,-0.5"/>
<text text-anchor="middle" x="311.5" y="-7.5" font-family="Helvetica,sans-Serif" font-size="10.00">string.h</text>
</a>
</g>
</g>
<!-- Node3&#45;&gt;Node6 -->
<g id="edge6" class="edge">
<title>Node3&#45;&gt;Node6</title>
<path fill="none" stroke="midnightblue" d="M209.67,-56.44C229.41,-47.64 260.39,-33.81 282.99,-23.72"/>
<polygon fill="midnightblue" stroke="midnightblue" points="284.71,-26.79 292.42,-19.52 281.86,-20.4 284.71,-26.79"/>
</g>
<!-- Node7 -->
<g id="node7" class="node">
<title>Node7</title>
<g id="a_node7"><a xlink:title=" ">
<polygon fill="none" stroke="#bfbfbf" points="356,-0.5 356,-19.5 479,-19.5 479,-0.5 356,-0.5"/>
<text text-anchor="middle" x="417.5" y="-7.5" font-family="Helvetica,sans-Serif" font-size="10.00">utils_misc/int_types.h</text>
</a>
</g>
</g>
<!-- Node3&#45;&gt;Node7 -->
<g id="edge7" class="edge">
<title>Node3&#45;&gt;Node7</title>
<path fill="none" stroke="midnightblue" d="M226.47,-56.44C265.82,-47.08 328.99,-32.06 371.81,-21.87"/>
<polygon fill="midnightblue" stroke="midnightblue" points="372.78,-25.24 381.7,-19.52 371.16,-18.43 372.78,-25.24"/>
</g>
</g>
</svg>
