<?xml version="1.0" encoding="UTF-8" standalone="no"?>
<!DOCTYPE svg PUBLIC "-//W3C//DTD SVG 1.1//EN"
 "http://www.w3.org/Graphics/SVG/1.1/DTD/svg11.dtd">
<!-- Generated by graphviz version 2.43.0 (0)
 -->
<!-- Title: fer_msg_plain.h Pages: 1 -->
<svg width="616pt" height="229pt"
 viewBox="0.00 0.00 615.50 229.00" xmlns="http://www.w3.org/2000/svg" xmlns:xlink="http://www.w3.org/1999/xlink">
<g id="graph0" class="graph" transform="scale(1 1) rotate(0) translate(4 225)">
<title>fer_msg_plain.h</title>
<!-- Node1 -->
<g id="node1" class="node">
<title>Node1</title>
<g id="a_node1"><a xlink:title="Data structure of plain messages or header of extended messages.">
<polygon fill="#bfbfbf" stroke="black" points="181.5,-201.5 181.5,-220.5 276.5,-220.5 276.5,-201.5 181.5,-201.5"/>
<text text-anchor="middle" x="229" y="-208.5" font-family="Helvetica,sans-Serif" font-size="10.00">fer_msg_plain.h</text>
</a>
</g>
</g>
<!-- Node2 -->
<g id="node2" class="node">
<title>Node2</title>
<g id="a_node2"><a xlink:href="fer__msg__type_8h.html" target="_top" xlink:title="kinds of messages">
<polygon fill="none" stroke="black" points="0,-73 0,-92 92,-92 92,-73 0,-73"/>
<text text-anchor="middle" x="46" y="-80" font-family="Helvetica,sans-Serif" font-size="10.00">fer_msg_type.h</text>
</a>
</g>
</g>
<!-- Node1&#45;&gt;Node2 -->
<g id="edge1" class="edge">
<title>Node1&#45;&gt;Node2</title>
<path fill="none" stroke="midnightblue" d="M181.22,-204.69C150.96,-199.16 112.65,-187.89 86,-165 66.7,-148.42 55.84,-120.35 50.44,-101.87"/>
<polygon fill="midnightblue" stroke="midnightblue" points="53.78,-100.78 47.82,-92.02 47.01,-102.58 53.78,-100.78"/>
</g>
<!-- Node4 -->
<g id="node4" class="node">
<title>Node4</title>
<g id="a_node4"><a xlink:href="fer__msg__plain__enum_8h.html" target="_top" xlink:title="Raw message for plain commands.">
<polygon fill="none" stroke="black" points="95,-140 95,-159 223,-159 223,-140 95,-140"/>
<text text-anchor="middle" x="159" y="-147" font-family="Helvetica,sans-Serif" font-size="10.00">fer_msg_plain_enum.h</text>
</a>
</g>
</g>
<!-- Node1&#45;&gt;Node4 -->
<g id="edge3" class="edge">
<title>Node1&#45;&gt;Node4</title>
<path fill="none" stroke="midnightblue" d="M218.97,-201.48C207.95,-192.11 190.04,-176.88 176.66,-165.51"/>
<polygon fill="midnightblue" stroke="midnightblue" points="178.9,-162.82 169.01,-159.01 174.36,-168.15 178.9,-162.82"/>
</g>
<!-- Node5 -->
<g id="node5" class="node">
<title>Node5</title>
<g id="a_node5"><a xlink:href="fer__trx__c__api_8h.html" target="_top" xlink:title="C&#45;API for sending and receiving Fernotron RF messages.">
<polygon fill="none" stroke="black" points="241,-134.5 241,-164.5 357,-164.5 357,-134.5 241,-134.5"/>
<text text-anchor="start" x="249" y="-152.5" font-family="Helvetica,sans-Serif" font-size="10.00">fernotron_trx/fer_trx</text>
<text text-anchor="middle" x="299" y="-141.5" font-family="Helvetica,sans-Serif" font-size="10.00">_c_api.h</text>
</a>
</g>
</g>
<!-- Node1&#45;&gt;Node5 -->
<g id="edge4" class="edge">
<title>Node1&#45;&gt;Node5</title>
<path fill="none" stroke="midnightblue" d="M239.03,-201.48C248.33,-193.57 262.55,-181.48 274.8,-171.07"/>
<polygon fill="midnightblue" stroke="midnightblue" points="277.15,-173.67 282.5,-164.52 272.62,-168.33 277.15,-173.67"/>
</g>
<!-- Node15 -->
<g id="node15" class="node">
<title>Node15</title>
<g id="a_node15"><a xlink:title=" ">
<polygon fill="none" stroke="#bfbfbf" points="375,-140 375,-159 507,-159 507,-140 375,-140"/>
<text text-anchor="middle" x="441" y="-147" font-family="Helvetica,sans-Serif" font-size="10.00">utils_misc/int_macros.h</text>
</a>
</g>
</g>
<!-- Node1&#45;&gt;Node15 -->
<g id="edge15" class="edge">
<title>Node1&#45;&gt;Node15</title>
<path fill="none" stroke="midnightblue" d="M259.37,-201.48C296.61,-191.03 359.81,-173.29 400.98,-161.73"/>
<polygon fill="midnightblue" stroke="midnightblue" points="402,-165.08 410.68,-159.01 400.11,-158.34 402,-165.08"/>
</g>
<!-- Node3 -->
<g id="node3" class="node">
<title>Node3</title>
<g id="a_node3"><a xlink:title=" ">
<polygon fill="none" stroke="#bfbfbf" points="38.5,-6 38.5,-25 91.5,-25 91.5,-6 38.5,-6"/>
<text text-anchor="middle" x="65" y="-13" font-family="Helvetica,sans-Serif" font-size="10.00">stdint.h</text>
</a>
</g>
</g>
<!-- Node2&#45;&gt;Node3 -->
<g id="edge2" class="edge">
<title>Node2&#45;&gt;Node3</title>
<path fill="none" stroke="midnightblue" d="M48.56,-72.73C51.38,-63.09 56,-47.3 59.62,-34.91"/>
<polygon fill="midnightblue" stroke="midnightblue" points="63.03,-35.71 62.48,-25.13 56.31,-33.74 63.03,-35.71"/>
</g>
<!-- Node6 -->
<g id="node6" class="node">
<title>Node6</title>
<g id="a_node6"><a xlink:title=" ">
<polygon fill="none" stroke="#bfbfbf" points="110.5,-73 110.5,-92 233.5,-92 233.5,-73 110.5,-73"/>
<text text-anchor="middle" x="172" y="-80" font-family="Helvetica,sans-Serif" font-size="10.00">utils_misc/int_types.h</text>
</a>
</g>
</g>
<!-- Node5&#45;&gt;Node6 -->
<g id="edge5" class="edge">
<title>Node5&#45;&gt;Node6</title>
<path fill="none" stroke="midnightblue" d="M271.44,-134.4C249.55,-123.19 219.17,-107.64 197.76,-96.69"/>
<polygon fill="midnightblue" stroke="midnightblue" points="199.12,-93.45 188.62,-92.01 195.93,-99.68 199.12,-93.45"/>
</g>
<!-- Node7 -->
<g id="node7" class="node">
<title>Node7</title>
<g id="a_node7"><a xlink:href="timer__data_8h.html" target="_top" xlink:title="vocabulary types to program Fernotron automatic (timers)">
<polygon fill="none" stroke="black" points="252,-67.5 252,-97.5 362,-97.5 362,-67.5 252,-67.5"/>
<text text-anchor="start" x="260" y="-85.5" font-family="Helvetica,sans-Serif" font-size="10.00">fernotron_trx/timer</text>
<text text-anchor="middle" x="307" y="-74.5" font-family="Helvetica,sans-Serif" font-size="10.00">_data.h</text>
</a>
</g>
</g>
<!-- Node5&#45;&gt;Node7 -->
<g id="edge6" class="edge">
<title>Node5&#45;&gt;Node7</title>
<path fill="none" stroke="midnightblue" d="M300.74,-134.4C301.7,-126.56 302.93,-116.6 304.04,-107.57"/>
<polygon fill="midnightblue" stroke="midnightblue" points="307.52,-107.93 305.27,-97.58 300.57,-107.07 307.52,-107.93"/>
</g>
<!-- Node14 -->
<g id="node14" class="node">
<title>Node14</title>
<g id="a_node14"><a xlink:title=" ">
<polygon fill="none" stroke="#bfbfbf" points="380,-73 380,-92 428,-92 428,-73 380,-73"/>
<text text-anchor="middle" x="404" y="-80" font-family="Helvetica,sans-Serif" font-size="10.00">time.h</text>
</a>
</g>
</g>
<!-- Node5&#45;&gt;Node14 -->
<g id="edge14" class="edge">
<title>Node5&#45;&gt;Node14</title>
<path fill="none" stroke="midnightblue" d="M321.78,-134.4C339.55,-123.39 364.1,-108.2 381.74,-97.28"/>
<polygon fill="midnightblue" stroke="midnightblue" points="383.6,-100.25 390.26,-92.01 379.91,-94.29 383.6,-100.25"/>
</g>
<!-- Node7&#45;&gt;Node3 -->
<g id="edge7" class="edge">
<title>Node7&#45;&gt;Node3</title>
<path fill="none" stroke="midnightblue" d="M251.99,-68.35C212.34,-58.64 157.66,-44.77 110,-31 106.85,-30.09 103.58,-29.11 100.31,-28.1"/>
<polygon fill="midnightblue" stroke="midnightblue" points="101.21,-24.71 90.62,-25.05 99.11,-31.39 101.21,-24.71"/>
</g>
<!-- Node8 -->
<g id="node8" class="node">
<title>Node8</title>
<g id="a_node8"><a xlink:title=" ">
<polygon fill="none" stroke="#bfbfbf" points="119,-6 119,-25 181,-25 181,-6 119,-6"/>
<text text-anchor="middle" x="150" y="-13" font-family="Helvetica,sans-Serif" font-size="10.00">stdbool.h</text>
</a>
</g>
</g>
<!-- Node7&#45;&gt;Node8 -->
<g id="edge8" class="edge">
<title>Node7&#45;&gt;Node8</title>
<path fill="none" stroke="midnightblue" d="M272.93,-67.4C245.26,-55.94 206.61,-39.94 180.08,-28.95"/>
<polygon fill="midnightblue" stroke="midnightblue" points="181.13,-25.6 170.55,-25.01 178.45,-32.07 181.13,-25.6"/>
</g>
<!-- Node9 -->
<g id="node9" class="node">
<title>Node9</title>
<g id="a_node9"><a xlink:title=" ">
<polygon fill="none" stroke="#bfbfbf" points="199.5,-6 199.5,-25 252.5,-25 252.5,-6 199.5,-6"/>
<text text-anchor="middle" x="226" y="-13" font-family="Helvetica,sans-Serif" font-size="10.00">string.h</text>
</a>
</g>
</g>
<!-- Node7&#45;&gt;Node9 -->
<g id="edge9" class="edge">
<title>Node7&#45;&gt;Node9</title>
<path fill="none" stroke="midnightblue" d="M289.42,-67.4C276.29,-56.86 258.37,-42.48 244.93,-31.69"/>
<polygon fill="midnightblue" stroke="midnightblue" points="246.82,-28.72 236.83,-25.19 242.44,-34.18 246.82,-28.72"/>
</g>
<!-- Node10 -->
<g id="node10" class="node">
<title>Node10</title>
<g id="a_node10"><a xlink:title=" ">
<polygon fill="none" stroke="#bfbfbf" points="270.5,-6 270.5,-25 323.5,-25 323.5,-6 270.5,-6"/>
<text text-anchor="middle" x="297" y="-13" font-family="Helvetica,sans-Serif" font-size="10.00">ctype.h</text>
</a>
</g>
</g>
<!-- Node7&#45;&gt;Node10 -->
<g id="edge10" class="edge">
<title>Node7&#45;&gt;Node10</title>
<path fill="none" stroke="midnightblue" d="M304.83,-67.4C303.38,-57.96 301.45,-45.45 299.88,-35.19"/>
<polygon fill="midnightblue" stroke="midnightblue" points="303.32,-34.55 298.34,-25.19 296.4,-35.61 303.32,-34.55"/>
</g>
<!-- Node11 -->
<g id="node11" class="node">
<title>Node11</title>
<g id="a_node11"><a xlink:title=" ">
<polygon fill="none" stroke="#bfbfbf" points="342,-6 342,-25 392,-25 392,-6 342,-6"/>
<text text-anchor="middle" x="367" y="-13" font-family="Helvetica,sans-Serif" font-size="10.00">stdio.h</text>
</a>
</g>
</g>
<!-- Node7&#45;&gt;Node11 -->
<g id="edge11" class="edge">
<title>Node7&#45;&gt;Node11</title>
<path fill="none" stroke="midnightblue" d="M320.02,-67.4C329.47,-57.16 342.27,-43.3 352.12,-32.62"/>
<polygon fill="midnightblue" stroke="midnightblue" points="354.76,-34.92 358.97,-25.19 349.62,-30.17 354.76,-34.92"/>
</g>
<!-- Node12 -->
<g id="node12" class="node">
<title>Node12</title>
<g id="a_node12"><a xlink:title=" ">
<polygon fill="none" stroke="#bfbfbf" points="410,-0.5 410,-30.5 512,-30.5 512,-0.5 410,-0.5"/>
<text text-anchor="start" x="418" y="-18.5" font-family="Helvetica,sans-Serif" font-size="10.00">utils_misc/cstring</text>
<text text-anchor="middle" x="461" y="-7.5" font-family="Helvetica,sans-Serif" font-size="10.00">_utils.hh</text>
</a>
</g>
</g>
<!-- Node7&#45;&gt;Node12 -->
<g id="edge12" class="edge">
<title>Node7&#45;&gt;Node12</title>
<path fill="none" stroke="midnightblue" d="M340.42,-67.4C363.22,-57.77 393.63,-44.94 418.2,-34.56"/>
<polygon fill="midnightblue" stroke="midnightblue" points="419.8,-37.69 427.65,-30.58 417.08,-31.24 419.8,-37.69"/>
</g>
<!-- Node13 -->
<g id="node13" class="node">
<title>Node13</title>
<g id="a_node13"><a xlink:title=" ">
<polygon fill="none" stroke="#bfbfbf" points="530.5,-6 530.5,-25 607.5,-25 607.5,-6 530.5,-6"/>
<text text-anchor="middle" x="569" y="-13" font-family="Helvetica,sans-Serif" font-size="10.00">debug/dbg.h</text>
</a>
</g>
</g>
<!-- Node7&#45;&gt;Node13 -->
<g id="edge13" class="edge">
<title>Node7&#45;&gt;Node13</title>
<path fill="none" stroke="midnightblue" d="M362.27,-68.87C415.29,-56.67 491.51,-38.93 521,-31 524.57,-30.04 528.28,-29 531.98,-27.93"/>
<polygon fill="midnightblue" stroke="midnightblue" points="533.07,-31.26 541.67,-25.07 531.09,-24.55 533.07,-31.26"/>
</g>
</g>
</svg>
