<?xml version="1.0" encoding="UTF-8" standalone="no"?>
<!DOCTYPE svg PUBLIC "-//W3C//DTD SVG 1.1//EN"
 "http://www.w3.org/Graphics/SVG/1.1/DTD/svg11.dtd">
<!-- Generated by graphviz version 2.43.0 (0)
 -->
<!-- Title: fernotron_app/include/fernotron/gm_set.hh Pages: 1 -->
<svg width="487pt" height="95pt"
 viewBox="0.00 0.00 486.50 95.00" xmlns="http://www.w3.org/2000/svg" xmlns:xlink="http://www.w3.org/1999/xlink">
<g id="graph0" class="graph" transform="scale(1 1) rotate(0) translate(4 91)">
<title>fernotron_app/include/fernotron/gm_set.hh</title>
<!-- Node1 -->
<g id="node1" class="node">
<title>Node1</title>
<g id="a_node1"><a xlink:title="Provide set of groups/members with iterator.">
<polygon fill="#bfbfbf" stroke="black" points="178.5,-56.5 178.5,-86.5 301.5,-86.5 301.5,-56.5 178.5,-56.5"/>
<text text-anchor="start" x="186.5" y="-74.5" font-family="Helvetica,sans-Serif" font-size="10.00">fernotron_app/include</text>
<text text-anchor="middle" x="240" y="-63.5" font-family="Helvetica,sans-Serif" font-size="10.00">/fernotron/gm_set.hh</text>
</a>
</g>
</g>
<!-- Node2 -->
<g id="node2" class="node">
<title>Node2</title>
<g id="a_node2"><a xlink:title=" ">
<polygon fill="none" stroke="#bfbfbf" points="0,-0.5 0,-19.5 132,-19.5 132,-0.5 0,-0.5"/>
<text text-anchor="middle" x="66" y="-7.5" font-family="Helvetica,sans-Serif" font-size="10.00">utils_misc/int_macros.h</text>
</a>
</g>
</g>
<!-- Node1&#45;&gt;Node2 -->
<g id="edge1" class="edge">
<title>Node1&#45;&gt;Node2</title>
<path fill="none" stroke="midnightblue" d="M198.76,-56.4C168.83,-46.16 128.79,-32.47 100.53,-22.81"/>
<polygon fill="midnightblue" stroke="midnightblue" points="101.66,-19.49 91.06,-19.57 99.39,-26.12 101.66,-19.49"/>
</g>
<!-- Node3 -->
<g id="node3" class="node">
<title>Node3</title>
<g id="a_node3"><a xlink:title=" ">
<polygon fill="none" stroke="#bfbfbf" points="150.5,-0.5 150.5,-19.5 195.5,-19.5 195.5,-0.5 150.5,-0.5"/>
<text text-anchor="middle" x="173" y="-7.5" font-family="Helvetica,sans-Serif" font-size="10.00">utility</text>
</a>
</g>
</g>
<!-- Node1&#45;&gt;Node3 -->
<g id="edge2" class="edge">
<title>Node1&#45;&gt;Node3</title>
<path fill="none" stroke="midnightblue" d="M224.12,-56.4C213.98,-47.4 200.84,-35.72 190.41,-26.47"/>
<polygon fill="midnightblue" stroke="midnightblue" points="192.55,-23.68 182.75,-19.66 187.9,-28.92 192.55,-23.68"/>
</g>
<!-- Node4 -->
<g id="node4" class="node">
<title>Node4</title>
<g id="a_node4"><a xlink:title=" ">
<polygon fill="none" stroke="#bfbfbf" points="213.5,-0.5 213.5,-19.5 266.5,-19.5 266.5,-0.5 213.5,-0.5"/>
<text text-anchor="middle" x="240" y="-7.5" font-family="Helvetica,sans-Serif" font-size="10.00">stdint.h</text>
</a>
</g>
</g>
<!-- Node1&#45;&gt;Node4 -->
<g id="edge3" class="edge">
<title>Node1&#45;&gt;Node4</title>
<path fill="none" stroke="midnightblue" d="M240,-56.4C240,-48.47 240,-38.46 240,-29.86"/>
<polygon fill="midnightblue" stroke="midnightblue" points="243.5,-29.66 240,-19.66 236.5,-29.66 243.5,-29.66"/>
</g>
<!-- Node5 -->
<g id="node5" class="node">
<title>Node5</title>
<g id="a_node5"><a xlink:title=" ">
<polygon fill="none" stroke="#bfbfbf" points="284.5,-0.5 284.5,-19.5 337.5,-19.5 337.5,-0.5 284.5,-0.5"/>
<text text-anchor="middle" x="311" y="-7.5" font-family="Helvetica,sans-Serif" font-size="10.00">string.h</text>
</a>
</g>
</g>
<!-- Node1&#45;&gt;Node5 -->
<g id="edge4" class="edge">
<title>Node1&#45;&gt;Node5</title>
<path fill="none" stroke="midnightblue" d="M256.83,-56.4C267.67,-47.31 281.78,-35.49 292.87,-26.19"/>
<polygon fill="midnightblue" stroke="midnightblue" points="295.25,-28.76 300.67,-19.66 290.76,-23.4 295.25,-28.76"/>
</g>
<!-- Node6 -->
<g id="node6" class="node">
<title>Node6</title>
<g id="a_node6"><a xlink:title=" ">
<polygon fill="none" stroke="#bfbfbf" points="355.5,-0.5 355.5,-19.5 478.5,-19.5 478.5,-0.5 355.5,-0.5"/>
<text text-anchor="middle" x="417" y="-7.5" font-family="Helvetica,sans-Serif" font-size="10.00">utils_misc/int_types.h</text>
</a>
</g>
</g>
<!-- Node1&#45;&gt;Node6 -->
<g id="edge5" class="edge">
<title>Node1&#45;&gt;Node6</title>
<path fill="none" stroke="midnightblue" d="M281.95,-56.4C312.4,-46.16 353.13,-32.47 381.87,-22.81"/>
<polygon fill="midnightblue" stroke="midnightblue" points="383.14,-26.07 391.5,-19.57 380.91,-19.44 383.14,-26.07"/>
</g>
</g>
</svg>
