<?xml version="1.0" encoding="UTF-8" standalone="no"?>
<!DOCTYPE svg PUBLIC "-//W3C//DTD SVG 1.1//EN"
 "http://www.w3.org/Graphics/SVG/1.1/DTD/svg11.dtd">
<!-- Generated by graphviz version 2.43.0 (0)
 -->
<!-- Title: pairings.h Pages: 1 -->
<svg width="333pt" height="140pt"
 viewBox="0.00 0.00 333.00 140.00" xmlns="http://www.w3.org/2000/svg" xmlns:xlink="http://www.w3.org/1999/xlink">
<g id="graph0" class="graph" transform="scale(1 1) rotate(0) translate(4 136)">
<title>pairings.h</title>
<!-- Node1 -->
<g id="node1" class="node">
<title>Node1</title>
<g id="a_node1"><a xlink:title="Map Fernotron controller 3&#45;byte&#45;addresses to an a/g/m addresses.">
<polygon fill="#bfbfbf" stroke="black" points="211,-112.5 211,-131.5 276,-131.5 276,-112.5 211,-112.5"/>
<text text-anchor="middle" x="243.5" y="-119.5" font-family="Helvetica,sans-Serif" font-size="10.00">pairings.h</text>
</a>
</g>
</g>
<!-- Node2 -->
<g id="node2" class="node">
<title>Node2</title>
<g id="a_node2"><a xlink:href="fer__pct_8h.html" target="_top" xlink:title="class Pct to represent shutter opening percentage">
<polygon fill="none" stroke="black" points="100,-56.5 100,-75.5 207,-75.5 207,-56.5 100,-56.5"/>
<text text-anchor="middle" x="153.5" y="-63.5" font-family="Helvetica,sans-Serif" font-size="10.00">fernotron/fer_pct.h</text>
</a>
</g>
</g>
<!-- Node1&#45;&gt;Node2 -->
<g id="edge1" class="edge">
<title>Node1&#45;&gt;Node2</title>
<path fill="none" stroke="midnightblue" d="M229.04,-112.32C215,-103.9 193.45,-90.97 176.96,-81.07"/>
<polygon fill="midnightblue" stroke="midnightblue" points="178.3,-77.8 167.92,-75.65 174.7,-83.8 178.3,-77.8"/>
</g>
<!-- Node4 -->
<g id="node4" class="node">
<title>Node4</title>
<g id="a_node4"><a xlink:title=" ">
<polygon fill="none" stroke="#bfbfbf" points="221.5,-0.5 221.5,-19.5 283.5,-19.5 283.5,-0.5 221.5,-0.5"/>
<text text-anchor="middle" x="252.5" y="-7.5" font-family="Helvetica,sans-Serif" font-size="10.00">stdbool.h</text>
</a>
</g>
</g>
<!-- Node1&#45;&gt;Node4 -->
<g id="edge6" class="edge">
<title>Node1&#45;&gt;Node4</title>
<path fill="none" stroke="midnightblue" d="M244.21,-112.37C245.66,-94.62 249.01,-53.67 250.98,-29.6"/>
<polygon fill="midnightblue" stroke="midnightblue" points="254.47,-29.84 251.8,-19.59 247.49,-29.27 254.47,-29.84"/>
</g>
<!-- Node6 -->
<g id="node6" class="node">
<title>Node6</title>
<g id="a_node6"><a xlink:title=" ">
<polygon fill="none" stroke="#bfbfbf" points="272,-56.5 272,-75.5 325,-75.5 325,-56.5 272,-56.5"/>
<text text-anchor="middle" x="298.5" y="-63.5" font-family="Helvetica,sans-Serif" font-size="10.00">stdlib.h</text>
</a>
</g>
</g>
<!-- Node1&#45;&gt;Node6 -->
<g id="edge5" class="edge">
<title>Node1&#45;&gt;Node6</title>
<path fill="none" stroke="midnightblue" d="M252.58,-112.08C260.67,-104.14 272.7,-92.34 282.41,-82.8"/>
<polygon fill="midnightblue" stroke="midnightblue" points="284.9,-85.25 289.59,-75.75 280,-80.26 284.9,-85.25"/>
</g>
<!-- Node3 -->
<g id="node3" class="node">
<title>Node3</title>
<g id="a_node3"><a xlink:title=" ">
<polygon fill="none" stroke="#bfbfbf" points="0,-0.5 0,-19.5 53,-19.5 53,-0.5 0,-0.5"/>
<text text-anchor="middle" x="26.5" y="-7.5" font-family="Helvetica,sans-Serif" font-size="10.00">stdint.h</text>
</a>
</g>
</g>
<!-- Node2&#45;&gt;Node3 -->
<g id="edge2" class="edge">
<title>Node2&#45;&gt;Node3</title>
<path fill="none" stroke="midnightblue" d="M133.38,-56.44C112.48,-47.56 79.57,-33.56 55.78,-23.45"/>
<polygon fill="midnightblue" stroke="midnightblue" points="57.1,-20.21 46.53,-19.52 54.36,-26.65 57.1,-20.21"/>
</g>
<!-- Node2&#45;&gt;Node4 -->
<g id="edge3" class="edge">
<title>Node2&#45;&gt;Node4</title>
<path fill="none" stroke="midnightblue" d="M169.41,-56.32C185.14,-47.74 209.44,-34.49 227.71,-24.52"/>
<polygon fill="midnightblue" stroke="midnightblue" points="229.53,-27.52 236.63,-19.65 226.18,-21.37 229.53,-27.52"/>
</g>
<!-- Node5 -->
<g id="node5" class="node">
<title>Node5</title>
<g id="a_node5"><a xlink:title=" ">
<polygon fill="none" stroke="#bfbfbf" points="71.5,-0.5 71.5,-19.5 203.5,-19.5 203.5,-0.5 71.5,-0.5"/>
<text text-anchor="middle" x="137.5" y="-7.5" font-family="Helvetica,sans-Serif" font-size="10.00">utils_misc/int_macros.h</text>
</a>
</g>
</g>
<!-- Node2&#45;&gt;Node5 -->
<g id="edge4" class="edge">
<title>Node2&#45;&gt;Node5</title>
<path fill="none" stroke="midnightblue" d="M150.86,-56.08C148.71,-48.85 145.62,-38.41 142.95,-29.4"/>
<polygon fill="midnightblue" stroke="midnightblue" points="146.29,-28.34 140.09,-19.75 139.58,-30.33 146.29,-28.34"/>
</g>
</g>
</svg>
