<?xml version="1.0" encoding="UTF-8" standalone="no"?>
<!DOCTYPE svg PUBLIC "-//W3C//DTD SVG 1.1//EN"
 "http://www.w3.org/Graphics/SVG/1.1/DTD/svg11.dtd">
<!-- Generated by graphviz version 2.43.0 (0)
 -->
<!-- Title: fernotron_app/include/fernotron/alias/pairings.h Pages: 1 -->
<svg width="333pt" height="151pt"
 viewBox="0.00 0.00 333.00 151.00" xmlns="http://www.w3.org/2000/svg" xmlns:xlink="http://www.w3.org/1999/xlink">
<g id="graph0" class="graph" transform="scale(1 1) rotate(0) translate(4 147)">
<title>fernotron_app/include/fernotron/alias/pairings.h</title>
<!-- Node1 -->
<g id="node1" class="node">
<title>Node1</title>
<g id="a_node1"><a xlink:title="Map Fernotron controller 3&#45;byte&#45;addresses to an a/g/m addresses.">
<polygon fill="#bfbfbf" stroke="black" points="172.5,-112.5 172.5,-142.5 314.5,-142.5 314.5,-112.5 172.5,-112.5"/>
<text text-anchor="start" x="180.5" y="-130.5" font-family="Helvetica,sans-Serif" font-size="10.00">fernotron_app/include</text>
<text text-anchor="middle" x="243.5" y="-119.5" font-family="Helvetica,sans-Serif" font-size="10.00">/fernotron/alias/pairings.h</text>
</a>
</g>
</g>
<!-- Node2 -->
<g id="node2" class="node">
<title>Node2</title>
<g id="a_node2"><a xlink:href="fer__pct_8h.html" target="_top" xlink:title="class Pct to represent shutter opening percentage">
<polygon fill="none" stroke="black" points="100,-56.5 100,-75.5 207,-75.5 207,-56.5 100,-56.5"/>
<text text-anchor="middle" x="153.5" y="-63.5" font-family="Helvetica,sans-Serif" font-size="10.00">fernotron/fer_pct.h</text>
</a>
</g>
</g>
<!-- Node1&#45;&gt;Node2 -->
<g id="edge1" class="edge">
<title>Node1&#45;&gt;Node2</title>
<path fill="none" stroke="midnightblue" d="M222.17,-112.4C208.01,-103.04 189.49,-90.79 175.25,-81.38"/>
<polygon fill="midnightblue" stroke="midnightblue" points="176.87,-78.25 166.6,-75.66 173.01,-84.09 176.87,-78.25"/>
</g>
<!-- Node4 -->
<g id="node4" class="node">
<title>Node4</title>
<g id="a_node4"><a xlink:title=" ">
<polygon fill="none" stroke="#bfbfbf" points="221.5,-0.5 221.5,-19.5 283.5,-19.5 283.5,-0.5 221.5,-0.5"/>
<text text-anchor="middle" x="252.5" y="-7.5" font-family="Helvetica,sans-Serif" font-size="10.00">stdbool.h</text>
</a>
</g>
</g>
<!-- Node1&#45;&gt;Node4 -->
<g id="edge6" class="edge">
<title>Node1&#45;&gt;Node4</title>
<path fill="none" stroke="midnightblue" d="M244.6,-112.34C246.22,-91.62 249.23,-53.02 251.03,-29.9"/>
<polygon fill="midnightblue" stroke="midnightblue" points="254.54,-29.91 251.82,-19.67 247.56,-29.37 254.54,-29.91"/>
</g>
<!-- Node6 -->
<g id="node6" class="node">
<title>Node6</title>
<g id="a_node6"><a xlink:title=" ">
<polygon fill="none" stroke="#bfbfbf" points="272,-56.5 272,-75.5 325,-75.5 325,-56.5 272,-56.5"/>
<text text-anchor="middle" x="298.5" y="-63.5" font-family="Helvetica,sans-Serif" font-size="10.00">stdlib.h</text>
</a>
</g>
</g>
<!-- Node1&#45;&gt;Node6 -->
<g id="edge5" class="edge">
<title>Node1&#45;&gt;Node6</title>
<path fill="none" stroke="midnightblue" d="M256.53,-112.4C264.69,-103.58 275.22,-92.18 283.69,-83.02"/>
<polygon fill="midnightblue" stroke="midnightblue" points="286.28,-85.38 290.5,-75.66 281.14,-80.63 286.28,-85.38"/>
</g>
<!-- Node3 -->
<g id="node3" class="node">
<title>Node3</title>
<g id="a_node3"><a xlink:title=" ">
<polygon fill="none" stroke="#bfbfbf" points="0,-0.5 0,-19.5 53,-19.5 53,-0.5 0,-0.5"/>
<text text-anchor="middle" x="26.5" y="-7.5" font-family="Helvetica,sans-Serif" font-size="10.00">stdint.h</text>
</a>
</g>
</g>
<!-- Node2&#45;&gt;Node3 -->
<g id="edge2" class="edge">
<title>Node2&#45;&gt;Node3</title>
<path fill="none" stroke="midnightblue" d="M133.38,-56.44C112.48,-47.56 79.57,-33.56 55.78,-23.45"/>
<polygon fill="midnightblue" stroke="midnightblue" points="57.1,-20.21 46.53,-19.52 54.36,-26.65 57.1,-20.21"/>
</g>
<!-- Node2&#45;&gt;Node4 -->
<g id="edge3" class="edge">
<title>Node2&#45;&gt;Node4</title>
<path fill="none" stroke="midnightblue" d="M169.41,-56.32C185.14,-47.74 209.44,-34.49 227.71,-24.52"/>
<polygon fill="midnightblue" stroke="midnightblue" points="229.53,-27.52 236.63,-19.65 226.18,-21.37 229.53,-27.52"/>
</g>
<!-- Node5 -->
<g id="node5" class="node">
<title>Node5</title>
<g id="a_node5"><a xlink:title=" ">
<polygon fill="none" stroke="#bfbfbf" points="71.5,-0.5 71.5,-19.5 203.5,-19.5 203.5,-0.5 71.5,-0.5"/>
<text text-anchor="middle" x="137.5" y="-7.5" font-family="Helvetica,sans-Serif" font-size="10.00">utils_misc/int_macros.h</text>
</a>
</g>
</g>
<!-- Node2&#45;&gt;Node5 -->
<g id="edge4" class="edge">
<title>Node2&#45;&gt;Node5</title>
<path fill="none" stroke="midnightblue" d="M150.86,-56.08C148.71,-48.85 145.62,-38.41 142.95,-29.4"/>
<polygon fill="midnightblue" stroke="midnightblue" points="146.29,-28.34 140.09,-19.75 139.58,-30.33 146.29,-28.34"/>
</g>
</g>
</svg>
