<?xml version="1.0" encoding="UTF-8" standalone="no"?>
<!DOCTYPE svg PUBLIC "-//W3C//DTD SVG 1.1//EN"
 "http://www.w3.org/Graphics/SVG/1.1/DTD/svg11.dtd">
<!-- Generated by graphviz version 2.43.0 (0)
 -->
<!-- Title: fernotron_app/include/fernotron/pos/positions_dynamic.h Pages: 1 -->
<svg width="718pt" height="251pt"
 viewBox="0.00 0.00 718.00 251.00" xmlns="http://www.w3.org/2000/svg" xmlns:xlink="http://www.w3.org/1999/xlink">
<g id="graph0" class="graph" transform="scale(1 1) rotate(0) translate(4 247)">
<title>fernotron_app/include/fernotron/pos/positions_dynamic.h</title>
<!-- Node1 -->
<g id="node1" class="node">
<title>Node1</title>
<g id="a_node1"><a xlink:title="Keep track of positions for a currently moving shutter.">
<polygon fill="#bfbfbf" stroke="black" points="307,-201.5 307,-242.5 439,-242.5 439,-201.5 307,-201.5"/>
<text text-anchor="start" x="315" y="-230.5" font-family="Helvetica,sans-Serif" font-size="10.00">fernotron_app/include</text>
<text text-anchor="start" x="315" y="-219.5" font-family="Helvetica,sans-Serif" font-size="10.00">/fernotron/pos/positions</text>
<text text-anchor="middle" x="373" y="-208.5" font-family="Helvetica,sans-Serif" font-size="10.00">_dynamic.h</text>
</a>
</g>
</g>
<!-- Node2 -->
<g id="node2" class="node">
<title>Node2</title>
<g id="a_node2"><a xlink:href="fer__pct_8h.html" target="_top" xlink:title="class Pct to represent shutter opening percentage">
<polygon fill="none" stroke="black" points="170.5,-73 170.5,-92 277.5,-92 277.5,-73 170.5,-73"/>
<text text-anchor="middle" x="224" y="-80" font-family="Helvetica,sans-Serif" font-size="10.00">fernotron/fer_pct.h</text>
</a>
</g>
</g>
<!-- Node1&#45;&gt;Node2 -->
<g id="edge1" class="edge">
<title>Node1&#45;&gt;Node2</title>
<path fill="none" stroke="midnightblue" d="M351.65,-201.3C321.75,-173.71 268.02,-124.12 240.8,-99"/>
<polygon fill="midnightblue" stroke="midnightblue" points="242.97,-96.25 233.25,-92.04 238.23,-101.39 242.97,-96.25"/>
</g>
<!-- Node6 -->
<g id="node6" class="node">
<title>Node6</title>
<g id="a_node6"><a xlink:href="fer__trx__c__api_8h.html" target="_top" xlink:title="C&#45;API for sending and receiving Fernotron RF messages.">
<polygon fill="none" stroke="black" points="378,-134.5 378,-164.5 494,-164.5 494,-134.5 378,-134.5"/>
<text text-anchor="start" x="386" y="-152.5" font-family="Helvetica,sans-Serif" font-size="10.00">fernotron_trx/fer_trx</text>
<text text-anchor="middle" x="436" y="-141.5" font-family="Helvetica,sans-Serif" font-size="10.00">_c_api.h</text>
</a>
</g>
</g>
<!-- Node1&#45;&gt;Node6 -->
<g id="edge5" class="edge">
<title>Node1&#45;&gt;Node6</title>
<path fill="none" stroke="midnightblue" d="M390.55,-201.36C398.55,-192.41 408.05,-181.78 416.29,-172.56"/>
<polygon fill="midnightblue" stroke="midnightblue" points="419.09,-174.68 423.14,-164.89 413.87,-170.02 419.09,-174.68"/>
</g>
<!-- Node3 -->
<g id="node3" class="node">
<title>Node3</title>
<g id="a_node3"><a xlink:title=" ">
<polygon fill="none" stroke="#bfbfbf" points="150.5,-6 150.5,-25 203.5,-25 203.5,-6 150.5,-6"/>
<text text-anchor="middle" x="177" y="-13" font-family="Helvetica,sans-Serif" font-size="10.00">stdint.h</text>
</a>
</g>
</g>
<!-- Node2&#45;&gt;Node3 -->
<g id="edge2" class="edge">
<title>Node2&#45;&gt;Node3</title>
<path fill="none" stroke="midnightblue" d="M217.66,-72.73C210.4,-62.7 198.34,-46.01 189.24,-33.42"/>
<polygon fill="midnightblue" stroke="midnightblue" points="191.93,-31.18 183.24,-25.13 186.26,-35.28 191.93,-31.18"/>
</g>
<!-- Node4 -->
<g id="node4" class="node">
<title>Node4</title>
<g id="a_node4"><a xlink:title=" ">
<polygon fill="none" stroke="#bfbfbf" points="222,-6 222,-25 284,-25 284,-6 222,-6"/>
<text text-anchor="middle" x="253" y="-13" font-family="Helvetica,sans-Serif" font-size="10.00">stdbool.h</text>
</a>
</g>
</g>
<!-- Node2&#45;&gt;Node4 -->
<g id="edge3" class="edge">
<title>Node2&#45;&gt;Node4</title>
<path fill="none" stroke="midnightblue" d="M227.91,-72.73C232.26,-62.99 239.4,-46.98 244.96,-34.53"/>
<polygon fill="midnightblue" stroke="midnightblue" points="248.27,-35.69 249.15,-25.13 241.88,-32.83 248.27,-35.69"/>
</g>
<!-- Node5 -->
<g id="node5" class="node">
<title>Node5</title>
<g id="a_node5"><a xlink:title=" ">
<polygon fill="none" stroke="#bfbfbf" points="0,-6 0,-25 132,-25 132,-6 0,-6"/>
<text text-anchor="middle" x="66" y="-13" font-family="Helvetica,sans-Serif" font-size="10.00">utils_misc/int_macros.h</text>
</a>
</g>
</g>
<!-- Node2&#45;&gt;Node5 -->
<g id="edge4" class="edge">
<title>Node2&#45;&gt;Node5</title>
<path fill="none" stroke="midnightblue" d="M203.02,-72.87C175.75,-61.65 127.93,-41.98 96.61,-29.09"/>
<polygon fill="midnightblue" stroke="midnightblue" points="97.65,-25.74 87.07,-25.17 94.98,-32.21 97.65,-25.74"/>
</g>
<!-- Node7 -->
<g id="node7" class="node">
<title>Node7</title>
<g id="a_node7"><a xlink:title=" ">
<polygon fill="none" stroke="#bfbfbf" points="442.5,-73 442.5,-92 565.5,-92 565.5,-73 442.5,-73"/>
<text text-anchor="middle" x="504" y="-80" font-family="Helvetica,sans-Serif" font-size="10.00">utils_misc/int_types.h</text>
</a>
</g>
</g>
<!-- Node6&#45;&gt;Node7 -->
<g id="edge6" class="edge">
<title>Node6&#45;&gt;Node7</title>
<path fill="none" stroke="midnightblue" d="M450.75,-134.4C461.57,-124.06 476.25,-110.02 487.46,-99.31"/>
<polygon fill="midnightblue" stroke="midnightblue" points="490.09,-101.63 494.9,-92.19 485.26,-96.57 490.09,-101.63"/>
</g>
<!-- Node8 -->
<g id="node8" class="node">
<title>Node8</title>
<g id="a_node8"><a xlink:href="timer__data_8h.html" target="_top" xlink:title="vocabulary types to program Fernotron automatic (timers)">
<polygon fill="none" stroke="black" points="314,-67.5 314,-97.5 424,-97.5 424,-67.5 314,-67.5"/>
<text text-anchor="start" x="322" y="-85.5" font-family="Helvetica,sans-Serif" font-size="10.00">fernotron_trx/timer</text>
<text text-anchor="middle" x="369" y="-74.5" font-family="Helvetica,sans-Serif" font-size="10.00">_data.h</text>
</a>
</g>
</g>
<!-- Node6&#45;&gt;Node8 -->
<g id="edge7" class="edge">
<title>Node6&#45;&gt;Node8</title>
<path fill="none" stroke="midnightblue" d="M421.46,-134.4C412.51,-125.71 400.86,-114.4 390.81,-104.66"/>
<polygon fill="midnightblue" stroke="midnightblue" points="393.12,-102.03 383.51,-97.58 388.25,-107.05 393.12,-102.03"/>
</g>
<!-- Node14 -->
<g id="node14" class="node">
<title>Node14</title>
<g id="a_node14"><a xlink:title=" ">
<polygon fill="none" stroke="#bfbfbf" points="584,-73 584,-92 632,-92 632,-73 584,-73"/>
<text text-anchor="middle" x="608" y="-80" font-family="Helvetica,sans-Serif" font-size="10.00">time.h</text>
</a>
</g>
</g>
<!-- Node6&#45;&gt;Node14 -->
<g id="edge15" class="edge">
<title>Node6&#45;&gt;Node14</title>
<path fill="none" stroke="midnightblue" d="M476.71,-134.5C504.56,-124.73 542.23,-111.14 575,-98 576.42,-97.43 577.86,-96.84 579.32,-96.24"/>
<polygon fill="midnightblue" stroke="midnightblue" points="581.07,-99.29 588.89,-92.15 578.32,-92.86 581.07,-99.29"/>
</g>
<!-- Node8&#45;&gt;Node3 -->
<g id="edge8" class="edge">
<title>Node8&#45;&gt;Node3</title>
<path fill="none" stroke="midnightblue" d="M322.64,-67.42C291.45,-57.73 249.53,-44.25 213,-31 211.1,-30.31 209.15,-29.58 207.19,-28.84"/>
<polygon fill="midnightblue" stroke="midnightblue" points="208.05,-25.42 197.47,-25.03 205.5,-31.94 208.05,-25.42"/>
</g>
<!-- Node8&#45;&gt;Node4 -->
<g id="edge9" class="edge">
<title>Node8&#45;&gt;Node4</title>
<path fill="none" stroke="midnightblue" d="M343.83,-67.4C324.02,-56.29 296.58,-40.92 277.06,-29.98"/>
<polygon fill="midnightblue" stroke="midnightblue" points="278.62,-26.84 268.18,-25.01 275.19,-32.95 278.62,-26.84"/>
</g>
<!-- Node9 -->
<g id="node9" class="node">
<title>Node9</title>
<g id="a_node9"><a xlink:title=" ">
<polygon fill="none" stroke="#bfbfbf" points="397.5,-6 397.5,-25 450.5,-25 450.5,-6 397.5,-6"/>
<text text-anchor="middle" x="424" y="-13" font-family="Helvetica,sans-Serif" font-size="10.00">string.h</text>
</a>
</g>
</g>
<!-- Node8&#45;&gt;Node9 -->
<g id="edge10" class="edge">
<title>Node8&#45;&gt;Node9</title>
<path fill="none" stroke="midnightblue" d="M380.93,-67.4C389.51,-57.26 401.1,-43.57 410.09,-32.94"/>
<polygon fill="midnightblue" stroke="midnightblue" points="412.86,-35.09 416.64,-25.19 407.51,-30.57 412.86,-35.09"/>
</g>
<!-- Node10 -->
<g id="node10" class="node">
<title>Node10</title>
<g id="a_node10"><a xlink:title=" ">
<polygon fill="none" stroke="#bfbfbf" points="468.5,-6 468.5,-25 521.5,-25 521.5,-6 468.5,-6"/>
<text text-anchor="middle" x="495" y="-13" font-family="Helvetica,sans-Serif" font-size="10.00">ctype.h</text>
</a>
</g>
</g>
<!-- Node8&#45;&gt;Node10 -->
<g id="edge11" class="edge">
<title>Node8&#45;&gt;Node10</title>
<path fill="none" stroke="midnightblue" d="M396.34,-67.4C418.06,-56.19 448.2,-40.64 469.44,-29.69"/>
<polygon fill="midnightblue" stroke="midnightblue" points="471.23,-32.7 478.51,-25.01 468.02,-26.48 471.23,-32.7"/>
</g>
<!-- Node11 -->
<g id="node11" class="node">
<title>Node11</title>
<g id="a_node11"><a xlink:title=" ">
<polygon fill="none" stroke="#bfbfbf" points="540,-6 540,-25 590,-25 590,-6 540,-6"/>
<text text-anchor="middle" x="565" y="-13" font-family="Helvetica,sans-Serif" font-size="10.00">stdio.h</text>
</a>
</g>
</g>
<!-- Node8&#45;&gt;Node11 -->
<g id="edge12" class="edge">
<title>Node8&#45;&gt;Node11</title>
<path fill="none" stroke="midnightblue" d="M418.71,-67.42C450.99,-57.93 493.81,-44.69 531,-31 532.66,-30.39 534.35,-29.74 536.05,-29.08"/>
<polygon fill="midnightblue" stroke="midnightblue" points="537.79,-32.15 545.72,-25.12 535.14,-25.67 537.79,-32.15"/>
</g>
<!-- Node12 -->
<g id="node12" class="node">
<title>Node12</title>
<g id="a_node12"><a xlink:title=" ">
<polygon fill="none" stroke="#bfbfbf" points="608,-0.5 608,-30.5 710,-30.5 710,-0.5 608,-0.5"/>
<text text-anchor="start" x="616" y="-18.5" font-family="Helvetica,sans-Serif" font-size="10.00">utils_misc/cstring</text>
<text text-anchor="middle" x="659" y="-7.5" font-family="Helvetica,sans-Serif" font-size="10.00">_utils.hh</text>
</a>
</g>
</g>
<!-- Node8&#45;&gt;Node12 -->
<g id="edge13" class="edge">
<title>Node8&#45;&gt;Node12</title>
<path fill="none" stroke="midnightblue" d="M424.15,-68.97C427.14,-68.3 430.11,-67.64 433,-67 503.68,-51.33 523.79,-48.12 598.11,-31.17"/>
<polygon fill="midnightblue" stroke="midnightblue" points="598.99,-34.56 607.96,-28.92 597.43,-27.74 598.99,-34.56"/>
</g>
<!-- Node13 -->
<g id="node13" class="node">
<title>Node13</title>
<g id="a_node13"><a xlink:title=" ">
<polygon fill="none" stroke="#bfbfbf" points="302.5,-6 302.5,-25 379.5,-25 379.5,-6 302.5,-6"/>
<text text-anchor="middle" x="341" y="-13" font-family="Helvetica,sans-Serif" font-size="10.00">debug/dbg.h</text>
</a>
</g>
</g>
<!-- Node8&#45;&gt;Node13 -->
<g id="edge14" class="edge">
<title>Node8&#45;&gt;Node13</title>
<path fill="none" stroke="midnightblue" d="M362.92,-67.4C358.77,-57.76 353.24,-44.91 348.77,-34.54"/>
<polygon fill="midnightblue" stroke="midnightblue" points="351.92,-32.99 344.75,-25.19 345.49,-35.76 351.92,-32.99"/>
</g>
</g>
</svg>
