<?xml version="1.0" encoding="UTF-8" standalone="no"?>
<!DOCTYPE svg PUBLIC "-//W3C//DTD SVG 1.1//EN"
 "http://www.w3.org/Graphics/SVG/1.1/DTD/svg11.dtd">
<!-- Generated by graphviz version 2.43.0 (0)
 -->
<!-- Title: set_endpos.h Pages: 1 -->
<svg width="570pt" height="229pt"
 viewBox="0.00 0.00 569.50 229.00" xmlns="http://www.w3.org/2000/svg" xmlns:xlink="http://www.w3.org/1999/xlink">
<g id="graph0" class="graph" transform="scale(1 1) rotate(0) translate(4 225)">
<title>set_endpos.h</title>
<!-- Node1 -->
<g id="node1" class="node">
<title>Node1</title>
<g id="a_node1"><a xlink:title="Mode for setting shutter end positions.">
<polygon fill="#bfbfbf" stroke="black" points="32.5,-201.5 32.5,-220.5 113.5,-220.5 113.5,-201.5 32.5,-201.5"/>
<text text-anchor="middle" x="73" y="-208.5" font-family="Helvetica,sans-Serif" font-size="10.00">set_endpos.h</text>
</a>
</g>
</g>
<!-- Node2 -->
<g id="node2" class="node">
<title>Node2</title>
<g id="a_node2"><a xlink:title=" ">
<polygon fill="none" stroke="#bfbfbf" points="0,-6 0,-25 62,-25 62,-6 0,-6"/>
<text text-anchor="middle" x="31" y="-13" font-family="Helvetica,sans-Serif" font-size="10.00">stdbool.h</text>
</a>
</g>
</g>
<!-- Node1&#45;&gt;Node2 -->
<g id="edge1" class="edge">
<title>Node1&#45;&gt;Node2</title>
<path fill="none" stroke="midnightblue" d="M70.88,-201.31C66.3,-182.51 55.28,-136.65 47,-98 42.39,-76.46 37.58,-51.61 34.46,-35.07"/>
<polygon fill="midnightblue" stroke="midnightblue" points="37.87,-34.27 32.59,-25.09 30.99,-35.56 37.87,-34.27"/>
</g>
<!-- Node3 -->
<g id="node3" class="node">
<title>Node3</title>
<g id="a_node3"><a xlink:href="fer__trx__c__api_8h.html" target="_top" xlink:title="C&#45;API for sending and receiving Fernotron RF messages.">
<polygon fill="none" stroke="black" points="127,-134.5 127,-164.5 243,-164.5 243,-134.5 127,-134.5"/>
<text text-anchor="start" x="135" y="-152.5" font-family="Helvetica,sans-Serif" font-size="10.00">fernotron_trx/fer_trx</text>
<text text-anchor="middle" x="185" y="-141.5" font-family="Helvetica,sans-Serif" font-size="10.00">_c_api.h</text>
</a>
</g>
</g>
<!-- Node1&#45;&gt;Node3 -->
<g id="edge2" class="edge">
<title>Node1&#45;&gt;Node3</title>
<path fill="none" stroke="midnightblue" d="M89.05,-201.48C104.78,-193.12 129.3,-180.09 149.61,-169.3"/>
<polygon fill="midnightblue" stroke="midnightblue" points="151.41,-172.31 158.6,-164.52 148.13,-166.12 151.41,-172.31"/>
</g>
<!-- Node4 -->
<g id="node4" class="node">
<title>Node4</title>
<g id="a_node4"><a xlink:title=" ">
<polygon fill="none" stroke="#bfbfbf" points="56.5,-73 56.5,-92 179.5,-92 179.5,-73 56.5,-73"/>
<text text-anchor="middle" x="118" y="-80" font-family="Helvetica,sans-Serif" font-size="10.00">utils_misc/int_types.h</text>
</a>
</g>
</g>
<!-- Node3&#45;&gt;Node4 -->
<g id="edge3" class="edge">
<title>Node3&#45;&gt;Node4</title>
<path fill="none" stroke="midnightblue" d="M170.46,-134.4C159.81,-124.06 145.34,-110.02 134.3,-99.31"/>
<polygon fill="midnightblue" stroke="midnightblue" points="136.58,-96.65 126.96,-92.19 131.7,-101.67 136.58,-96.65"/>
</g>
<!-- Node5 -->
<g id="node5" class="node">
<title>Node5</title>
<g id="a_node5"><a xlink:href="timer__data_8h.html" target="_top" xlink:title="vocabulary types to program Fernotron automatic (timers)">
<polygon fill="none" stroke="black" points="198,-67.5 198,-97.5 308,-97.5 308,-67.5 198,-67.5"/>
<text text-anchor="start" x="206" y="-85.5" font-family="Helvetica,sans-Serif" font-size="10.00">fernotron_trx/timer</text>
<text text-anchor="middle" x="253" y="-74.5" font-family="Helvetica,sans-Serif" font-size="10.00">_data.h</text>
</a>
</g>
</g>
<!-- Node3&#45;&gt;Node5 -->
<g id="edge4" class="edge">
<title>Node3&#45;&gt;Node5</title>
<path fill="none" stroke="midnightblue" d="M199.75,-134.4C208.84,-125.71 220.67,-114.4 230.87,-104.66"/>
<polygon fill="midnightblue" stroke="midnightblue" points="233.46,-107.02 238.27,-97.58 228.63,-101.96 233.46,-107.02"/>
</g>
<!-- Node12 -->
<g id="node12" class="node">
<title>Node12</title>
<g id="a_node12"><a xlink:title=" ">
<polygon fill="none" stroke="#bfbfbf" points="326,-73 326,-92 374,-92 374,-73 326,-73"/>
<text text-anchor="middle" x="350" y="-80" font-family="Helvetica,sans-Serif" font-size="10.00">time.h</text>
</a>
</g>
</g>
<!-- Node3&#45;&gt;Node12 -->
<g id="edge12" class="edge">
<title>Node3&#45;&gt;Node12</title>
<path fill="none" stroke="midnightblue" d="M223.32,-134.4C249.77,-124.53 285.68,-110.86 317,-98 318.41,-97.42 319.85,-96.82 321.31,-96.21"/>
<polygon fill="midnightblue" stroke="midnightblue" points="323.07,-99.26 330.87,-92.09 320.3,-92.83 323.07,-99.26"/>
</g>
<!-- Node5&#45;&gt;Node2 -->
<g id="edge6" class="edge">
<title>Node5&#45;&gt;Node2</title>
<path fill="none" stroke="midnightblue" d="M199.59,-67.4C163.65,-57.7 115.29,-44.22 73,-31 70.24,-30.14 67.39,-29.22 64.53,-28.27"/>
<polygon fill="midnightblue" stroke="midnightblue" points="65.5,-24.91 54.91,-25.03 63.26,-31.54 65.5,-24.91"/>
</g>
<!-- Node6 -->
<g id="node6" class="node">
<title>Node6</title>
<g id="a_node6"><a xlink:title=" ">
<polygon fill="none" stroke="#bfbfbf" points="82.5,-6 82.5,-25 135.5,-25 135.5,-6 82.5,-6"/>
<text text-anchor="middle" x="109" y="-13" font-family="Helvetica,sans-Serif" font-size="10.00">stdint.h</text>
</a>
</g>
</g>
<!-- Node5&#45;&gt;Node6 -->
<g id="edge5" class="edge">
<title>Node5&#45;&gt;Node6</title>
<path fill="none" stroke="midnightblue" d="M221.75,-67.4C196.6,-56.04 161.55,-40.22 137.23,-29.24"/>
<polygon fill="midnightblue" stroke="midnightblue" points="138.4,-25.93 127.85,-25.01 135.52,-32.31 138.4,-25.93"/>
</g>
<!-- Node7 -->
<g id="node7" class="node">
<title>Node7</title>
<g id="a_node7"><a xlink:title=" ">
<polygon fill="none" stroke="#bfbfbf" points="153.5,-6 153.5,-25 206.5,-25 206.5,-6 153.5,-6"/>
<text text-anchor="middle" x="180" y="-13" font-family="Helvetica,sans-Serif" font-size="10.00">string.h</text>
</a>
</g>
</g>
<!-- Node5&#45;&gt;Node7 -->
<g id="edge7" class="edge">
<title>Node5&#45;&gt;Node7</title>
<path fill="none" stroke="midnightblue" d="M237.16,-67.4C225.44,-56.96 209.48,-42.75 197.41,-32"/>
<polygon fill="midnightblue" stroke="midnightblue" points="199.56,-29.23 189.76,-25.19 194.91,-34.46 199.56,-29.23"/>
</g>
<!-- Node8 -->
<g id="node8" class="node">
<title>Node8</title>
<g id="a_node8"><a xlink:title=" ">
<polygon fill="none" stroke="#bfbfbf" points="224.5,-6 224.5,-25 277.5,-25 277.5,-6 224.5,-6"/>
<text text-anchor="middle" x="251" y="-13" font-family="Helvetica,sans-Serif" font-size="10.00">ctype.h</text>
</a>
</g>
</g>
<!-- Node5&#45;&gt;Node8 -->
<g id="edge8" class="edge">
<title>Node5&#45;&gt;Node8</title>
<path fill="none" stroke="midnightblue" d="M252.57,-67.4C252.28,-58.06 251.9,-45.71 251.59,-35.52"/>
<polygon fill="midnightblue" stroke="midnightblue" points="255.07,-35.08 251.27,-25.19 248.08,-35.3 255.07,-35.08"/>
</g>
<!-- Node9 -->
<g id="node9" class="node">
<title>Node9</title>
<g id="a_node9"><a xlink:title=" ">
<polygon fill="none" stroke="#bfbfbf" points="296,-6 296,-25 346,-25 346,-6 296,-6"/>
<text text-anchor="middle" x="321" y="-13" font-family="Helvetica,sans-Serif" font-size="10.00">stdio.h</text>
</a>
</g>
</g>
<!-- Node5&#45;&gt;Node9 -->
<g id="edge9" class="edge">
<title>Node5&#45;&gt;Node9</title>
<path fill="none" stroke="midnightblue" d="M267.75,-67.4C278.57,-57.06 293.25,-43.02 304.46,-32.31"/>
<polygon fill="midnightblue" stroke="midnightblue" points="307.09,-34.63 311.9,-25.19 302.26,-29.57 307.09,-34.63"/>
</g>
<!-- Node10 -->
<g id="node10" class="node">
<title>Node10</title>
<g id="a_node10"><a xlink:title=" ">
<polygon fill="none" stroke="#bfbfbf" points="364,-0.5 364,-30.5 466,-30.5 466,-0.5 364,-0.5"/>
<text text-anchor="start" x="372" y="-18.5" font-family="Helvetica,sans-Serif" font-size="10.00">utils_misc/cstring</text>
<text text-anchor="middle" x="415" y="-7.5" font-family="Helvetica,sans-Serif" font-size="10.00">_utils.hh</text>
</a>
</g>
</g>
<!-- Node5&#45;&gt;Node10 -->
<g id="edge10" class="edge">
<title>Node5&#45;&gt;Node10</title>
<path fill="none" stroke="midnightblue" d="M288.15,-67.4C312.25,-57.73 344.41,-44.82 370.32,-34.43"/>
<polygon fill="midnightblue" stroke="midnightblue" points="371.94,-37.55 379.92,-30.58 369.33,-31.05 371.94,-37.55"/>
</g>
<!-- Node11 -->
<g id="node11" class="node">
<title>Node11</title>
<g id="a_node11"><a xlink:title=" ">
<polygon fill="none" stroke="#bfbfbf" points="484.5,-6 484.5,-25 561.5,-25 561.5,-6 484.5,-6"/>
<text text-anchor="middle" x="523" y="-13" font-family="Helvetica,sans-Serif" font-size="10.00">debug/dbg.h</text>
</a>
</g>
</g>
<!-- Node5&#45;&gt;Node11 -->
<g id="edge11" class="edge">
<title>Node5&#45;&gt;Node11</title>
<path fill="none" stroke="midnightblue" d="M308.26,-68.98C372.66,-54.38 470.9,-32.08 475,-31 478.62,-30.04 482.38,-29 486.13,-27.92"/>
<polygon fill="midnightblue" stroke="midnightblue" points="487.33,-31.22 495.93,-25.04 485.35,-24.5 487.33,-31.22"/>
</g>
</g>
</svg>
