<?xml version="1.0" encoding="UTF-8" standalone="no"?>
<!DOCTYPE svg PUBLIC "-//W3C//DTD SVG 1.1//EN"
 "http://www.w3.org/Graphics/SVG/1.1/DTD/svg11.dtd">
<!-- Generated by graphviz version 2.43.0 (0)
 -->
<!-- Title: fernotron/sep/set_endpos.h Pages: 1 -->
<svg width="571pt" height="229pt"
 viewBox="0.00 0.00 571.00 229.00" xmlns="http://www.w3.org/2000/svg" xmlns:xlink="http://www.w3.org/1999/xlink">
<g id="graph0" class="graph" transform="scale(1 1) rotate(0) translate(4 225)">
<title>fernotron/sep/set_endpos.h</title>
<!-- Node1 -->
<g id="node1" class="node">
<title>Node1</title>
<g id="a_node1"><a xlink:title="Mode for setting shutter end positions.">
<polygon fill="#bfbfbf" stroke="black" points="0,-201.5 0,-220.5 149,-220.5 149,-201.5 0,-201.5"/>
<text text-anchor="middle" x="74.5" y="-208.5" font-family="Helvetica,sans-Serif" font-size="10.00">fernotron/sep/set_endpos.h</text>
</a>
</g>
</g>
<!-- Node2 -->
<g id="node2" class="node">
<title>Node2</title>
<g id="a_node2"><a xlink:title=" ">
<polygon fill="none" stroke="#bfbfbf" points="1.5,-6 1.5,-25 63.5,-25 63.5,-6 1.5,-6"/>
<text text-anchor="middle" x="32.5" y="-13" font-family="Helvetica,sans-Serif" font-size="10.00">stdbool.h</text>
</a>
</g>
</g>
<!-- Node1&#45;&gt;Node2 -->
<g id="edge1" class="edge">
<title>Node1&#45;&gt;Node2</title>
<path fill="none" stroke="midnightblue" d="M72.38,-201.31C67.8,-182.51 56.78,-136.65 48.5,-98 43.89,-76.46 39.08,-51.61 35.96,-35.07"/>
<polygon fill="midnightblue" stroke="midnightblue" points="39.37,-34.27 34.09,-25.09 32.49,-35.56 39.37,-34.27"/>
</g>
<!-- Node3 -->
<g id="node3" class="node">
<title>Node3</title>
<g id="a_node3"><a xlink:href="fer__trx__c__api_8h.html" target="_top" xlink:title="C&#45;API for sending and receiving Fernotron RF messages.">
<polygon fill="none" stroke="black" points="128.5,-134.5 128.5,-164.5 244.5,-164.5 244.5,-134.5 128.5,-134.5"/>
<text text-anchor="start" x="136.5" y="-152.5" font-family="Helvetica,sans-Serif" font-size="10.00">fernotron_trx/fer_trx</text>
<text text-anchor="middle" x="186.5" y="-141.5" font-family="Helvetica,sans-Serif" font-size="10.00">_c_api.h</text>
</a>
</g>
</g>
<!-- Node1&#45;&gt;Node3 -->
<g id="edge2" class="edge">
<title>Node1&#45;&gt;Node3</title>
<path fill="none" stroke="midnightblue" d="M90.55,-201.48C106.28,-193.12 130.8,-180.09 151.11,-169.3"/>
<polygon fill="midnightblue" stroke="midnightblue" points="152.91,-172.31 160.1,-164.52 149.63,-166.12 152.91,-172.31"/>
</g>
<!-- Node4 -->
<g id="node4" class="node">
<title>Node4</title>
<g id="a_node4"><a xlink:title=" ">
<polygon fill="none" stroke="#bfbfbf" points="58,-73 58,-92 181,-92 181,-73 58,-73"/>
<text text-anchor="middle" x="119.5" y="-80" font-family="Helvetica,sans-Serif" font-size="10.00">utils_misc/int_types.h</text>
</a>
</g>
</g>
<!-- Node3&#45;&gt;Node4 -->
<g id="edge3" class="edge">
<title>Node3&#45;&gt;Node4</title>
<path fill="none" stroke="midnightblue" d="M171.96,-134.4C161.31,-124.06 146.84,-110.02 135.8,-99.31"/>
<polygon fill="midnightblue" stroke="midnightblue" points="138.08,-96.65 128.46,-92.19 133.2,-101.67 138.08,-96.65"/>
</g>
<!-- Node5 -->
<g id="node5" class="node">
<title>Node5</title>
<g id="a_node5"><a xlink:href="timer__data_8h.html" target="_top" xlink:title="vocabulary types to program Fernotron automatic (timers)">
<polygon fill="none" stroke="black" points="199.5,-67.5 199.5,-97.5 309.5,-97.5 309.5,-67.5 199.5,-67.5"/>
<text text-anchor="start" x="207.5" y="-85.5" font-family="Helvetica,sans-Serif" font-size="10.00">fernotron_trx/timer</text>
<text text-anchor="middle" x="254.5" y="-74.5" font-family="Helvetica,sans-Serif" font-size="10.00">_data.h</text>
</a>
</g>
</g>
<!-- Node3&#45;&gt;Node5 -->
<g id="edge4" class="edge">
<title>Node3&#45;&gt;Node5</title>
<path fill="none" stroke="midnightblue" d="M201.25,-134.4C210.34,-125.71 222.17,-114.4 232.37,-104.66"/>
<polygon fill="midnightblue" stroke="midnightblue" points="234.96,-107.02 239.77,-97.58 230.13,-101.96 234.96,-107.02"/>
</g>
<!-- Node12 -->
<g id="node12" class="node">
<title>Node12</title>
<g id="a_node12"><a xlink:title=" ">
<polygon fill="none" stroke="#bfbfbf" points="327.5,-73 327.5,-92 375.5,-92 375.5,-73 327.5,-73"/>
<text text-anchor="middle" x="351.5" y="-80" font-family="Helvetica,sans-Serif" font-size="10.00">time.h</text>
</a>
</g>
</g>
<!-- Node3&#45;&gt;Node12 -->
<g id="edge12" class="edge">
<title>Node3&#45;&gt;Node12</title>
<path fill="none" stroke="midnightblue" d="M224.82,-134.4C251.27,-124.53 287.18,-110.86 318.5,-98 319.91,-97.42 321.35,-96.82 322.81,-96.21"/>
<polygon fill="midnightblue" stroke="midnightblue" points="324.57,-99.26 332.37,-92.09 321.8,-92.83 324.57,-99.26"/>
</g>
<!-- Node5&#45;&gt;Node2 -->
<g id="edge6" class="edge">
<title>Node5&#45;&gt;Node2</title>
<path fill="none" stroke="midnightblue" d="M201.09,-67.4C165.15,-57.7 116.79,-44.22 74.5,-31 71.74,-30.14 68.89,-29.22 66.03,-28.27"/>
<polygon fill="midnightblue" stroke="midnightblue" points="67,-24.91 56.41,-25.03 64.76,-31.54 67,-24.91"/>
</g>
<!-- Node6 -->
<g id="node6" class="node">
<title>Node6</title>
<g id="a_node6"><a xlink:title=" ">
<polygon fill="none" stroke="#bfbfbf" points="84,-6 84,-25 137,-25 137,-6 84,-6"/>
<text text-anchor="middle" x="110.5" y="-13" font-family="Helvetica,sans-Serif" font-size="10.00">stdint.h</text>
</a>
</g>
</g>
<!-- Node5&#45;&gt;Node6 -->
<g id="edge5" class="edge">
<title>Node5&#45;&gt;Node6</title>
<path fill="none" stroke="midnightblue" d="M223.25,-67.4C198.1,-56.04 163.05,-40.22 138.73,-29.24"/>
<polygon fill="midnightblue" stroke="midnightblue" points="139.9,-25.93 129.35,-25.01 137.02,-32.31 139.9,-25.93"/>
</g>
<!-- Node7 -->
<g id="node7" class="node">
<title>Node7</title>
<g id="a_node7"><a xlink:title=" ">
<polygon fill="none" stroke="#bfbfbf" points="155,-6 155,-25 208,-25 208,-6 155,-6"/>
<text text-anchor="middle" x="181.5" y="-13" font-family="Helvetica,sans-Serif" font-size="10.00">string.h</text>
</a>
</g>
</g>
<!-- Node5&#45;&gt;Node7 -->
<g id="edge7" class="edge">
<title>Node5&#45;&gt;Node7</title>
<path fill="none" stroke="midnightblue" d="M238.66,-67.4C226.94,-56.96 210.98,-42.75 198.91,-32"/>
<polygon fill="midnightblue" stroke="midnightblue" points="201.06,-29.23 191.26,-25.19 196.41,-34.46 201.06,-29.23"/>
</g>
<!-- Node8 -->
<g id="node8" class="node">
<title>Node8</title>
<g id="a_node8"><a xlink:title=" ">
<polygon fill="none" stroke="#bfbfbf" points="226,-6 226,-25 279,-25 279,-6 226,-6"/>
<text text-anchor="middle" x="252.5" y="-13" font-family="Helvetica,sans-Serif" font-size="10.00">ctype.h</text>
</a>
</g>
</g>
<!-- Node5&#45;&gt;Node8 -->
<g id="edge8" class="edge">
<title>Node5&#45;&gt;Node8</title>
<path fill="none" stroke="midnightblue" d="M254.07,-67.4C253.78,-58.06 253.4,-45.71 253.09,-35.52"/>
<polygon fill="midnightblue" stroke="midnightblue" points="256.57,-35.08 252.77,-25.19 249.58,-35.3 256.57,-35.08"/>
</g>
<!-- Node9 -->
<g id="node9" class="node">
<title>Node9</title>
<g id="a_node9"><a xlink:title=" ">
<polygon fill="none" stroke="#bfbfbf" points="297.5,-6 297.5,-25 347.5,-25 347.5,-6 297.5,-6"/>
<text text-anchor="middle" x="322.5" y="-13" font-family="Helvetica,sans-Serif" font-size="10.00">stdio.h</text>
</a>
</g>
</g>
<!-- Node5&#45;&gt;Node9 -->
<g id="edge9" class="edge">
<title>Node5&#45;&gt;Node9</title>
<path fill="none" stroke="midnightblue" d="M269.25,-67.4C280.07,-57.06 294.75,-43.02 305.96,-32.31"/>
<polygon fill="midnightblue" stroke="midnightblue" points="308.59,-34.63 313.4,-25.19 303.76,-29.57 308.59,-34.63"/>
</g>
<!-- Node10 -->
<g id="node10" class="node">
<title>Node10</title>
<g id="a_node10"><a xlink:title=" ">
<polygon fill="none" stroke="#bfbfbf" points="365.5,-0.5 365.5,-30.5 467.5,-30.5 467.5,-0.5 365.5,-0.5"/>
<text text-anchor="start" x="373.5" y="-18.5" font-family="Helvetica,sans-Serif" font-size="10.00">utils_misc/cstring</text>
<text text-anchor="middle" x="416.5" y="-7.5" font-family="Helvetica,sans-Serif" font-size="10.00">_utils.hh</text>
</a>
</g>
</g>
<!-- Node5&#45;&gt;Node10 -->
<g id="edge10" class="edge">
<title>Node5&#45;&gt;Node10</title>
<path fill="none" stroke="midnightblue" d="M289.65,-67.4C313.75,-57.73 345.91,-44.82 371.82,-34.43"/>
<polygon fill="midnightblue" stroke="midnightblue" points="373.44,-37.55 381.42,-30.58 370.83,-31.05 373.44,-37.55"/>
</g>
<!-- Node11 -->
<g id="node11" class="node">
<title>Node11</title>
<g id="a_node11"><a xlink:title=" ">
<polygon fill="none" stroke="#bfbfbf" points="486,-6 486,-25 563,-25 563,-6 486,-6"/>
<text text-anchor="middle" x="524.5" y="-13" font-family="Helvetica,sans-Serif" font-size="10.00">debug/dbg.h</text>
</a>
</g>
</g>
<!-- Node5&#45;&gt;Node11 -->
<g id="edge11" class="edge">
<title>Node5&#45;&gt;Node11</title>
<path fill="none" stroke="midnightblue" d="M309.76,-68.98C374.16,-54.38 472.4,-32.08 476.5,-31 480.12,-30.04 483.88,-29 487.63,-27.92"/>
<polygon fill="midnightblue" stroke="midnightblue" points="488.83,-31.22 497.43,-25.04 486.85,-24.5 488.83,-31.22"/>
</g>
</g>
</svg>
