<?xml version="1.0" encoding="UTF-8" standalone="no"?>
<!DOCTYPE svg PUBLIC "-//W3C//DTD SVG 1.1//EN"
 "http://www.w3.org/Graphics/SVG/1.1/DTD/svg11.dtd">
<!-- Generated by graphviz version 2.43.0 (0)
 -->
<!-- Title: fernotron_app/include/fernotron/sep/set_endpos.h Pages: 1 -->
<svg width="573pt" height="240pt"
 viewBox="0.00 0.00 572.50 240.00" xmlns="http://www.w3.org/2000/svg" xmlns:xlink="http://www.w3.org/1999/xlink">
<g id="graph0" class="graph" transform="scale(1 1) rotate(0) translate(4 236)">
<title>fernotron_app/include/fernotron/sep/set_endpos.h</title>
<!-- Node1 -->
<g id="node1" class="node">
<title>Node1</title>
<g id="a_node1"><a xlink:title="Mode for setting shutter end positions.">
<polygon fill="#bfbfbf" stroke="black" points="0,-201.5 0,-231.5 152,-231.5 152,-201.5 0,-201.5"/>
<text text-anchor="start" x="8" y="-219.5" font-family="Helvetica,sans-Serif" font-size="10.00">fernotron_app/include</text>
<text text-anchor="middle" x="76" y="-208.5" font-family="Helvetica,sans-Serif" font-size="10.00">/fernotron/sep/set_endpos.h</text>
</a>
</g>
</g>
<!-- Node2 -->
<g id="node2" class="node">
<title>Node2</title>
<g id="a_node2"><a xlink:title=" ">
<polygon fill="none" stroke="#bfbfbf" points="3,-6 3,-25 65,-25 65,-6 3,-6"/>
<text text-anchor="middle" x="34" y="-13" font-family="Helvetica,sans-Serif" font-size="10.00">stdbool.h</text>
</a>
</g>
</g>
<!-- Node1&#45;&gt;Node2 -->
<g id="edge1" class="edge">
<title>Node1&#45;&gt;Node2</title>
<path fill="none" stroke="midnightblue" d="M72.77,-201.42C67.74,-179.39 57.81,-135.43 50,-98 45.5,-76.44 40.67,-51.59 37.51,-35.06"/>
<polygon fill="midnightblue" stroke="midnightblue" points="40.92,-34.25 35.61,-25.08 34.04,-35.56 40.92,-34.25"/>
</g>
<!-- Node3 -->
<g id="node3" class="node">
<title>Node3</title>
<g id="a_node3"><a xlink:href="fer__trx__c__api_8h.html" target="_top" xlink:title="C&#45;API for sending and receiving Fernotron RF messages.">
<polygon fill="none" stroke="black" points="130,-134.5 130,-164.5 246,-164.5 246,-134.5 130,-134.5"/>
<text text-anchor="start" x="138" y="-152.5" font-family="Helvetica,sans-Serif" font-size="10.00">fernotron_trx/fer_trx</text>
<text text-anchor="middle" x="188" y="-141.5" font-family="Helvetica,sans-Serif" font-size="10.00">_c_api.h</text>
</a>
</g>
</g>
<!-- Node1&#45;&gt;Node3 -->
<g id="edge2" class="edge">
<title>Node1&#45;&gt;Node3</title>
<path fill="none" stroke="midnightblue" d="M100.3,-201.4C116.3,-192.11 137.44,-179.84 154.96,-169.67"/>
<polygon fill="midnightblue" stroke="midnightblue" points="156.85,-172.62 163.75,-164.58 153.34,-166.57 156.85,-172.62"/>
</g>
<!-- Node4 -->
<g id="node4" class="node">
<title>Node4</title>
<g id="a_node4"><a xlink:title=" ">
<polygon fill="none" stroke="#bfbfbf" points="59.5,-73 59.5,-92 182.5,-92 182.5,-73 59.5,-73"/>
<text text-anchor="middle" x="121" y="-80" font-family="Helvetica,sans-Serif" font-size="10.00">utils_misc/int_types.h</text>
</a>
</g>
</g>
<!-- Node3&#45;&gt;Node4 -->
<g id="edge3" class="edge">
<title>Node3&#45;&gt;Node4</title>
<path fill="none" stroke="midnightblue" d="M173.46,-134.4C162.81,-124.06 148.34,-110.02 137.3,-99.31"/>
<polygon fill="midnightblue" stroke="midnightblue" points="139.58,-96.65 129.96,-92.19 134.7,-101.67 139.58,-96.65"/>
</g>
<!-- Node5 -->
<g id="node5" class="node">
<title>Node5</title>
<g id="a_node5"><a xlink:href="timer__data_8h.html" target="_top" xlink:title="vocabulary types to program Fernotron automatic (timers)">
<polygon fill="none" stroke="black" points="201,-67.5 201,-97.5 311,-97.5 311,-67.5 201,-67.5"/>
<text text-anchor="start" x="209" y="-85.5" font-family="Helvetica,sans-Serif" font-size="10.00">fernotron_trx/timer</text>
<text text-anchor="middle" x="256" y="-74.5" font-family="Helvetica,sans-Serif" font-size="10.00">_data.h</text>
</a>
</g>
</g>
<!-- Node3&#45;&gt;Node5 -->
<g id="edge4" class="edge">
<title>Node3&#45;&gt;Node5</title>
<path fill="none" stroke="midnightblue" d="M202.75,-134.4C211.84,-125.71 223.67,-114.4 233.87,-104.66"/>
<polygon fill="midnightblue" stroke="midnightblue" points="236.46,-107.02 241.27,-97.58 231.63,-101.96 236.46,-107.02"/>
</g>
<!-- Node12 -->
<g id="node12" class="node">
<title>Node12</title>
<g id="a_node12"><a xlink:title=" ">
<polygon fill="none" stroke="#bfbfbf" points="329,-73 329,-92 377,-92 377,-73 329,-73"/>
<text text-anchor="middle" x="353" y="-80" font-family="Helvetica,sans-Serif" font-size="10.00">time.h</text>
</a>
</g>
</g>
<!-- Node3&#45;&gt;Node12 -->
<g id="edge12" class="edge">
<title>Node3&#45;&gt;Node12</title>
<path fill="none" stroke="midnightblue" d="M226.32,-134.4C252.77,-124.53 288.68,-110.86 320,-98 321.41,-97.42 322.85,-96.82 324.31,-96.21"/>
<polygon fill="midnightblue" stroke="midnightblue" points="326.07,-99.26 333.87,-92.09 323.3,-92.83 326.07,-99.26"/>
</g>
<!-- Node5&#45;&gt;Node2 -->
<g id="edge6" class="edge">
<title>Node5&#45;&gt;Node2</title>
<path fill="none" stroke="midnightblue" d="M202.59,-67.4C166.65,-57.7 118.29,-44.22 76,-31 73.24,-30.14 70.39,-29.22 67.53,-28.27"/>
<polygon fill="midnightblue" stroke="midnightblue" points="68.5,-24.91 57.91,-25.03 66.26,-31.54 68.5,-24.91"/>
</g>
<!-- Node6 -->
<g id="node6" class="node">
<title>Node6</title>
<g id="a_node6"><a xlink:title=" ">
<polygon fill="none" stroke="#bfbfbf" points="85.5,-6 85.5,-25 138.5,-25 138.5,-6 85.5,-6"/>
<text text-anchor="middle" x="112" y="-13" font-family="Helvetica,sans-Serif" font-size="10.00">stdint.h</text>
</a>
</g>
</g>
<!-- Node5&#45;&gt;Node6 -->
<g id="edge5" class="edge">
<title>Node5&#45;&gt;Node6</title>
<path fill="none" stroke="midnightblue" d="M224.75,-67.4C199.6,-56.04 164.55,-40.22 140.23,-29.24"/>
<polygon fill="midnightblue" stroke="midnightblue" points="141.4,-25.93 130.85,-25.01 138.52,-32.31 141.4,-25.93"/>
</g>
<!-- Node7 -->
<g id="node7" class="node">
<title>Node7</title>
<g id="a_node7"><a xlink:title=" ">
<polygon fill="none" stroke="#bfbfbf" points="156.5,-6 156.5,-25 209.5,-25 209.5,-6 156.5,-6"/>
<text text-anchor="middle" x="183" y="-13" font-family="Helvetica,sans-Serif" font-size="10.00">string.h</text>
</a>
</g>
</g>
<!-- Node5&#45;&gt;Node7 -->
<g id="edge7" class="edge">
<title>Node5&#45;&gt;Node7</title>
<path fill="none" stroke="midnightblue" d="M240.16,-67.4C228.44,-56.96 212.48,-42.75 200.41,-32"/>
<polygon fill="midnightblue" stroke="midnightblue" points="202.56,-29.23 192.76,-25.19 197.91,-34.46 202.56,-29.23"/>
</g>
<!-- Node8 -->
<g id="node8" class="node">
<title>Node8</title>
<g id="a_node8"><a xlink:title=" ">
<polygon fill="none" stroke="#bfbfbf" points="227.5,-6 227.5,-25 280.5,-25 280.5,-6 227.5,-6"/>
<text text-anchor="middle" x="254" y="-13" font-family="Helvetica,sans-Serif" font-size="10.00">ctype.h</text>
</a>
</g>
</g>
<!-- Node5&#45;&gt;Node8 -->
<g id="edge8" class="edge">
<title>Node5&#45;&gt;Node8</title>
<path fill="none" stroke="midnightblue" d="M255.57,-67.4C255.28,-58.06 254.9,-45.71 254.59,-35.52"/>
<polygon fill="midnightblue" stroke="midnightblue" points="258.07,-35.08 254.27,-25.19 251.08,-35.3 258.07,-35.08"/>
</g>
<!-- Node9 -->
<g id="node9" class="node">
<title>Node9</title>
<g id="a_node9"><a xlink:title=" ">
<polygon fill="none" stroke="#bfbfbf" points="299,-6 299,-25 349,-25 349,-6 299,-6"/>
<text text-anchor="middle" x="324" y="-13" font-family="Helvetica,sans-Serif" font-size="10.00">stdio.h</text>
</a>
</g>
</g>
<!-- Node5&#45;&gt;Node9 -->
<g id="edge9" class="edge">
<title>Node5&#45;&gt;Node9</title>
<path fill="none" stroke="midnightblue" d="M270.75,-67.4C281.57,-57.06 296.25,-43.02 307.46,-32.31"/>
<polygon fill="midnightblue" stroke="midnightblue" points="310.09,-34.63 314.9,-25.19 305.26,-29.57 310.09,-34.63"/>
</g>
<!-- Node10 -->
<g id="node10" class="node">
<title>Node10</title>
<g id="a_node10"><a xlink:title=" ">
<polygon fill="none" stroke="#bfbfbf" points="367,-0.5 367,-30.5 469,-30.5 469,-0.5 367,-0.5"/>
<text text-anchor="start" x="375" y="-18.5" font-family="Helvetica,sans-Serif" font-size="10.00">utils_misc/cstring</text>
<text text-anchor="middle" x="418" y="-7.5" font-family="Helvetica,sans-Serif" font-size="10.00">_utils.hh</text>
</a>
</g>
</g>
<!-- Node5&#45;&gt;Node10 -->
<g id="edge10" class="edge">
<title>Node5&#45;&gt;Node10</title>
<path fill="none" stroke="midnightblue" d="M291.15,-67.4C315.25,-57.73 347.41,-44.82 373.32,-34.43"/>
<polygon fill="midnightblue" stroke="midnightblue" points="374.94,-37.55 382.92,-30.58 372.33,-31.05 374.94,-37.55"/>
</g>
<!-- Node11 -->
<g id="node11" class="node">
<title>Node11</title>
<g id="a_node11"><a xlink:title=" ">
<polygon fill="none" stroke="#bfbfbf" points="487.5,-6 487.5,-25 564.5,-25 564.5,-6 487.5,-6"/>
<text text-anchor="middle" x="526" y="-13" font-family="Helvetica,sans-Serif" font-size="10.00">debug/dbg.h</text>
</a>
</g>
</g>
<!-- Node5&#45;&gt;Node11 -->
<g id="edge11" class="edge">
<title>Node5&#45;&gt;Node11</title>
<path fill="none" stroke="midnightblue" d="M311.26,-68.98C375.66,-54.38 473.9,-32.08 478,-31 481.62,-30.04 485.38,-29 489.13,-27.92"/>
<polygon fill="midnightblue" stroke="midnightblue" points="490.33,-31.22 498.93,-25.04 488.35,-24.5 490.33,-31.22"/>
</g>
</g>
</svg>
