<?xml version="1.0" encoding="UTF-8" standalone="no"?>
<!DOCTYPE svg PUBLIC "-//W3C//DTD SVG 1.1//EN"
 "http://www.w3.org/Graphics/SVG/1.1/DTD/svg11.dtd">
<!-- Generated by graphviz version 2.43.0 (0)
 -->
<!-- Title: shutter_pct.h Pages: 1 -->
<svg width="718pt" height="285pt"
 viewBox="0.00 0.00 718.00 285.00" xmlns="http://www.w3.org/2000/svg" xmlns:xlink="http://www.w3.org/1999/xlink">
<g id="graph0" class="graph" transform="scale(1 1) rotate(0) translate(4 281)">
<title>shutter_pct.h</title>
<!-- Node1 -->
<g id="node1" class="node">
<title>Node1</title>
<g id="a_node1"><a xlink:title="include positions_static.h and positions_dynamic.h">
<polygon fill="#bfbfbf" stroke="black" points="81,-257.5 81,-276.5 161,-276.5 161,-257.5 81,-257.5"/>
<text text-anchor="middle" x="121" y="-264.5" font-family="Helvetica,sans-Serif" font-size="10.00">shutter_pct.h</text>
</a>
</g>
</g>
<!-- Node2 -->
<g id="node2" class="node">
<title>Node2</title>
<g id="a_node2"><a xlink:href="positions__static_8h.html" target="_top" xlink:title="Store and retrieve shutter positions (persistently)">
<polygon fill="none" stroke="black" points="27,-140 27,-159 129,-159 129,-140 27,-140"/>
<text text-anchor="middle" x="78" y="-147" font-family="Helvetica,sans-Serif" font-size="10.00">positions_static.h</text>
</a>
</g>
</g>
<!-- Node1&#45;&gt;Node2 -->
<g id="edge1" class="edge">
<title>Node1&#45;&gt;Node2</title>
<path fill="none" stroke="midnightblue" d="M115.6,-257.32C110.28,-248.46 102.21,-234.17 97,-221 90.31,-204.07 85.14,-183.95 81.9,-169.55"/>
<polygon fill="midnightblue" stroke="midnightblue" points="85.24,-168.43 79.72,-159.39 78.4,-169.9 85.24,-168.43"/>
</g>
<!-- Node7 -->
<g id="node7" class="node">
<title>Node7</title>
<g id="a_node7"><a xlink:href="positions__dynamic_8h.html" target="_top" xlink:title="Keep track of positions for a currently moving shutter.">
<polygon fill="none" stroke="black" points="106.5,-201.5 106.5,-220.5 223.5,-220.5 223.5,-201.5 106.5,-201.5"/>
<text text-anchor="middle" x="165" y="-208.5" font-family="Helvetica,sans-Serif" font-size="10.00">positions_dynamic.h</text>
</a>
</g>
</g>
<!-- Node1&#45;&gt;Node7 -->
<g id="edge7" class="edge">
<title>Node1&#45;&gt;Node7</title>
<path fill="none" stroke="midnightblue" d="M128.27,-257.08C134.54,-249.38 143.79,-238.03 151.43,-228.65"/>
<polygon fill="midnightblue" stroke="midnightblue" points="154.27,-230.71 157.87,-220.75 148.84,-226.29 154.27,-230.71"/>
</g>
<!-- Node3 -->
<g id="node3" class="node">
<title>Node3</title>
<g id="a_node3"><a xlink:href="fer__pct_8h.html" target="_top" xlink:title="class Pct to represent shutter opening percentage">
<polygon fill="none" stroke="black" points="92.5,-73 92.5,-92 199.5,-92 199.5,-73 92.5,-73"/>
<text text-anchor="middle" x="146" y="-80" font-family="Helvetica,sans-Serif" font-size="10.00">fernotron/fer_pct.h</text>
</a>
</g>
</g>
<!-- Node2&#45;&gt;Node3 -->
<g id="edge2" class="edge">
<title>Node2&#45;&gt;Node3</title>
<path fill="none" stroke="midnightblue" d="M87.17,-139.73C97.98,-129.4 116.15,-112.04 129.44,-99.33"/>
<polygon fill="midnightblue" stroke="midnightblue" points="132.16,-101.57 136.97,-92.13 127.33,-96.51 132.16,-101.57"/>
</g>
<!-- Node5 -->
<g id="node5" class="node">
<title>Node5</title>
<g id="a_node5"><a xlink:title=" ">
<polygon fill="none" stroke="#bfbfbf" points="0,-6 0,-25 62,-25 62,-6 0,-6"/>
<text text-anchor="middle" x="31" y="-13" font-family="Helvetica,sans-Serif" font-size="10.00">stdbool.h</text>
</a>
</g>
</g>
<!-- Node2&#45;&gt;Node5 -->
<g id="edge6" class="edge">
<title>Node2&#45;&gt;Node5</title>
<path fill="none" stroke="midnightblue" d="M74.92,-139.84C67.35,-118.58 47.72,-63.46 37.46,-34.65"/>
<polygon fill="midnightblue" stroke="midnightblue" points="40.69,-33.27 34.03,-25.02 34.09,-35.62 40.69,-33.27"/>
</g>
<!-- Node4 -->
<g id="node4" class="node">
<title>Node4</title>
<g id="a_node4"><a xlink:title=" ">
<polygon fill="none" stroke="#bfbfbf" points="230.5,-6 230.5,-25 283.5,-25 283.5,-6 230.5,-6"/>
<text text-anchor="middle" x="257" y="-13" font-family="Helvetica,sans-Serif" font-size="10.00">stdint.h</text>
</a>
</g>
</g>
<!-- Node3&#45;&gt;Node4 -->
<g id="edge3" class="edge">
<title>Node3&#45;&gt;Node4</title>
<path fill="none" stroke="midnightblue" d="M160.97,-72.73C179.61,-61.82 211.66,-43.05 233.57,-30.22"/>
<polygon fill="midnightblue" stroke="midnightblue" points="235.41,-33.2 242.27,-25.13 231.87,-27.16 235.41,-33.2"/>
</g>
<!-- Node3&#45;&gt;Node5 -->
<g id="edge4" class="edge">
<title>Node3&#45;&gt;Node5</title>
<path fill="none" stroke="midnightblue" d="M130.49,-72.73C111.09,-61.77 77.67,-42.88 54.97,-30.05"/>
<polygon fill="midnightblue" stroke="midnightblue" points="56.69,-27 46.26,-25.13 53.25,-33.09 56.69,-27"/>
</g>
<!-- Node6 -->
<g id="node6" class="node">
<title>Node6</title>
<g id="a_node6"><a xlink:title=" ">
<polygon fill="none" stroke="#bfbfbf" points="80,-6 80,-25 212,-25 212,-6 80,-6"/>
<text text-anchor="middle" x="146" y="-13" font-family="Helvetica,sans-Serif" font-size="10.00">utils_misc/int_macros.h</text>
</a>
</g>
</g>
<!-- Node3&#45;&gt;Node6 -->
<g id="edge5" class="edge">
<title>Node3&#45;&gt;Node6</title>
<path fill="none" stroke="midnightblue" d="M146,-72.73C146,-63.18 146,-47.62 146,-35.28"/>
<polygon fill="midnightblue" stroke="midnightblue" points="149.5,-35.13 146,-25.13 142.5,-35.13 149.5,-35.13"/>
</g>
<!-- Node7&#45;&gt;Node3 -->
<g id="edge8" class="edge">
<title>Node7&#45;&gt;Node3</title>
<path fill="none" stroke="midnightblue" d="M163.69,-201.31C160.64,-180.99 152.99,-130.05 148.82,-102.28"/>
<polygon fill="midnightblue" stroke="midnightblue" points="152.26,-101.62 147.32,-92.26 145.34,-102.66 152.26,-101.62"/>
</g>
<!-- Node8 -->
<g id="node8" class="node">
<title>Node8</title>
<g id="a_node8"><a xlink:href="fer__trx__c__api_8h.html" target="_top" xlink:title="C&#45;API for sending and receiving Fernotron RF messages.">
<polygon fill="none" stroke="black" points="300,-134.5 300,-164.5 416,-164.5 416,-134.5 300,-134.5"/>
<text text-anchor="start" x="308" y="-152.5" font-family="Helvetica,sans-Serif" font-size="10.00">fernotron_trx/fer_trx</text>
<text text-anchor="middle" x="358" y="-141.5" font-family="Helvetica,sans-Serif" font-size="10.00">_c_api.h</text>
</a>
</g>
</g>
<!-- Node7&#45;&gt;Node8 -->
<g id="edge9" class="edge">
<title>Node7&#45;&gt;Node8</title>
<path fill="none" stroke="midnightblue" d="M192.65,-201.48C221.23,-192.66 266.63,-178.67 302.63,-167.57"/>
<polygon fill="midnightblue" stroke="midnightblue" points="303.99,-170.81 312.51,-164.52 301.93,-164.12 303.99,-170.81"/>
</g>
<!-- Node9 -->
<g id="node9" class="node">
<title>Node9</title>
<g id="a_node9"><a xlink:title=" ">
<polygon fill="none" stroke="#bfbfbf" points="480.5,-73 480.5,-92 603.5,-92 603.5,-73 480.5,-73"/>
<text text-anchor="middle" x="542" y="-80" font-family="Helvetica,sans-Serif" font-size="10.00">utils_misc/int_types.h</text>
</a>
</g>
</g>
<!-- Node8&#45;&gt;Node9 -->
<g id="edge10" class="edge">
<title>Node8&#45;&gt;Node9</title>
<path fill="none" stroke="midnightblue" d="M397.93,-134.4C430.92,-122.74 477.25,-106.37 508.38,-95.38"/>
<polygon fill="midnightblue" stroke="midnightblue" points="509.66,-98.64 517.92,-92.01 507.32,-92.04 509.66,-98.64"/>
</g>
<!-- Node10 -->
<g id="node10" class="node">
<title>Node10</title>
<g id="a_node10"><a xlink:href="timer__data_8h.html" target="_top" xlink:title="vocabulary types to program Fernotron automatic (timers)">
<polygon fill="none" stroke="black" points="352,-67.5 352,-97.5 462,-97.5 462,-67.5 352,-67.5"/>
<text text-anchor="start" x="360" y="-85.5" font-family="Helvetica,sans-Serif" font-size="10.00">fernotron_trx/timer</text>
<text text-anchor="middle" x="407" y="-74.5" font-family="Helvetica,sans-Serif" font-size="10.00">_data.h</text>
</a>
</g>
</g>
<!-- Node8&#45;&gt;Node10 -->
<g id="edge11" class="edge">
<title>Node8&#45;&gt;Node10</title>
<path fill="none" stroke="midnightblue" d="M368.63,-134.4C374.92,-126.05 383.04,-115.29 390.18,-105.81"/>
<polygon fill="midnightblue" stroke="midnightblue" points="393.16,-107.67 396.39,-97.58 387.57,-103.45 393.16,-107.67"/>
</g>
<!-- Node16 -->
<g id="node16" class="node">
<title>Node16</title>
<g id="a_node16"><a xlink:title=" ">
<polygon fill="none" stroke="#bfbfbf" points="286,-73 286,-92 334,-92 334,-73 286,-73"/>
<text text-anchor="middle" x="310" y="-80" font-family="Helvetica,sans-Serif" font-size="10.00">time.h</text>
</a>
</g>
</g>
<!-- Node8&#45;&gt;Node16 -->
<g id="edge19" class="edge">
<title>Node8&#45;&gt;Node16</title>
<path fill="none" stroke="midnightblue" d="M347.58,-134.4C340.17,-124.36 330.19,-110.84 322.37,-100.25"/>
<polygon fill="midnightblue" stroke="midnightblue" points="325.18,-98.16 316.42,-92.19 319.55,-102.32 325.18,-98.16"/>
</g>
<!-- Node10&#45;&gt;Node4 -->
<g id="edge12" class="edge">
<title>Node10&#45;&gt;Node4</title>
<path fill="none" stroke="midnightblue" d="M374.45,-67.4C348.13,-55.99 311.41,-40.08 286.07,-29.1"/>
<polygon fill="midnightblue" stroke="midnightblue" points="287.2,-25.77 276.63,-25.01 284.42,-32.19 287.2,-25.77"/>
</g>
<!-- Node10&#45;&gt;Node5 -->
<g id="edge13" class="edge">
<title>Node10&#45;&gt;Node5</title>
<path fill="none" stroke="midnightblue" d="M351.91,-68.68C348.9,-68.09 345.92,-67.52 343,-67 222.97,-45.51 189.46,-59.95 71,-31 67.94,-30.25 64.79,-29.35 61.67,-28.37"/>
<polygon fill="midnightblue" stroke="midnightblue" points="62.51,-24.96 51.91,-25.04 60.25,-31.58 62.51,-24.96"/>
</g>
<!-- Node11 -->
<g id="node11" class="node">
<title>Node11</title>
<g id="a_node11"><a xlink:title=" ">
<polygon fill="none" stroke="#bfbfbf" points="517.5,-6 517.5,-25 570.5,-25 570.5,-6 517.5,-6"/>
<text text-anchor="middle" x="544" y="-13" font-family="Helvetica,sans-Serif" font-size="10.00">string.h</text>
</a>
</g>
</g>
<!-- Node10&#45;&gt;Node11 -->
<g id="edge14" class="edge">
<title>Node10&#45;&gt;Node11</title>
<path fill="none" stroke="midnightblue" d="M436.73,-67.4C460.55,-56.09 493.71,-40.36 516.83,-29.39"/>
<polygon fill="midnightblue" stroke="midnightblue" points="518.54,-32.46 526.07,-25.01 515.53,-26.13 518.54,-32.46"/>
</g>
<!-- Node12 -->
<g id="node12" class="node">
<title>Node12</title>
<g id="a_node12"><a xlink:title=" ">
<polygon fill="none" stroke="#bfbfbf" points="588.5,-6 588.5,-25 641.5,-25 641.5,-6 588.5,-6"/>
<text text-anchor="middle" x="615" y="-13" font-family="Helvetica,sans-Serif" font-size="10.00">ctype.h</text>
</a>
</g>
</g>
<!-- Node10&#45;&gt;Node12 -->
<g id="edge15" class="edge">
<title>Node10&#45;&gt;Node12</title>
<path fill="none" stroke="midnightblue" d="M460.86,-67.4C495.25,-58 540.6,-44.87 580,-31 581.91,-30.33 583.86,-29.61 585.82,-28.86"/>
<polygon fill="midnightblue" stroke="midnightblue" points="587.52,-31.95 595.52,-25.01 584.94,-25.45 587.52,-31.95"/>
</g>
<!-- Node13 -->
<g id="node13" class="node">
<title>Node13</title>
<g id="a_node13"><a xlink:title=" ">
<polygon fill="none" stroke="#bfbfbf" points="660,-6 660,-25 710,-25 710,-6 660,-6"/>
<text text-anchor="middle" x="685" y="-13" font-family="Helvetica,sans-Serif" font-size="10.00">stdio.h</text>
</a>
</g>
</g>
<!-- Node10&#45;&gt;Node13 -->
<g id="edge16" class="edge">
<title>Node10&#45;&gt;Node13</title>
<path fill="none" stroke="midnightblue" d="M462.3,-69.08C465.58,-68.37 468.83,-67.67 472,-67 551.38,-50.17 573.49,-55.04 651,-31 653.14,-30.34 655.33,-29.58 657.52,-28.78"/>
<polygon fill="midnightblue" stroke="midnightblue" points="658.92,-31.99 666.91,-25.03 656.32,-25.49 658.92,-31.99"/>
</g>
<!-- Node14 -->
<g id="node14" class="node">
<title>Node14</title>
<g id="a_node14"><a xlink:title=" ">
<polygon fill="none" stroke="#bfbfbf" points="302,-0.5 302,-30.5 404,-30.5 404,-0.5 302,-0.5"/>
<text text-anchor="start" x="310" y="-18.5" font-family="Helvetica,sans-Serif" font-size="10.00">utils_misc/cstring</text>
<text text-anchor="middle" x="353" y="-7.5" font-family="Helvetica,sans-Serif" font-size="10.00">_utils.hh</text>
</a>
</g>
</g>
<!-- Node10&#45;&gt;Node14 -->
<g id="edge17" class="edge">
<title>Node10&#45;&gt;Node14</title>
<path fill="none" stroke="midnightblue" d="M395.28,-67.4C388.28,-58.96 379.23,-48.07 371.29,-38.52"/>
<polygon fill="midnightblue" stroke="midnightblue" points="373.78,-36.03 364.69,-30.58 368.39,-40.51 373.78,-36.03"/>
</g>
<!-- Node15 -->
<g id="node15" class="node">
<title>Node15</title>
<g id="a_node15"><a xlink:title=" ">
<polygon fill="none" stroke="#bfbfbf" points="422.5,-6 422.5,-25 499.5,-25 499.5,-6 422.5,-6"/>
<text text-anchor="middle" x="461" y="-13" font-family="Helvetica,sans-Serif" font-size="10.00">debug/dbg.h</text>
</a>
</g>
</g>
<!-- Node10&#45;&gt;Node15 -->
<g id="edge18" class="edge">
<title>Node10&#45;&gt;Node15</title>
<path fill="none" stroke="midnightblue" d="M418.72,-67.4C427.14,-57.26 438.51,-43.57 447.34,-32.94"/>
<polygon fill="midnightblue" stroke="midnightblue" points="450.08,-35.12 453.78,-25.19 444.69,-30.65 450.08,-35.12"/>
</g>
</g>
</svg>
