<?xml version="1.0" encoding="UTF-8" standalone="no"?>
<!DOCTYPE svg PUBLIC "-//W3C//DTD SVG 1.1//EN"
 "http://www.w3.org/Graphics/SVG/1.1/DTD/svg11.dtd">
<!-- Generated by graphviz version 2.43.0 (0)
 -->
<!-- Title: timer_data.h Pages: 1 -->
<svg width="568pt" height="95pt"
 viewBox="0.00 0.00 568.00 95.00" xmlns="http://www.w3.org/2000/svg" xmlns:xlink="http://www.w3.org/1999/xlink">
<g id="graph0" class="graph" transform="scale(1 1) rotate(0) translate(4 91)">
<title>timer_data.h</title>
<!-- Node1 -->
<g id="node1" class="node">
<title>Node1</title>
<g id="a_node1"><a xlink:title="vocabulary types to program Fernotron automatic (timers)">
<polygon fill="#bfbfbf" stroke="black" points="210,-67.5 210,-86.5 289,-86.5 289,-67.5 210,-67.5"/>
<text text-anchor="middle" x="249.5" y="-74.5" font-family="Helvetica,sans-Serif" font-size="10.00">timer_data.h</text>
</a>
</g>
</g>
<!-- Node2 -->
<g id="node2" class="node">
<title>Node2</title>
<g id="a_node2"><a xlink:title=" ">
<polygon fill="none" stroke="#bfbfbf" points="0,-6 0,-25 53,-25 53,-6 0,-6"/>
<text text-anchor="middle" x="26.5" y="-13" font-family="Helvetica,sans-Serif" font-size="10.00">stdint.h</text>
</a>
</g>
</g>
<!-- Node1&#45;&gt;Node2 -->
<g id="edge1" class="edge">
<title>Node1&#45;&gt;Node2</title>
<path fill="none" stroke="midnightblue" d="M210,-68.26C171.83,-60.36 112.59,-47.02 62.5,-31 60.23,-30.27 57.89,-29.47 55.56,-28.62"/>
<polygon fill="midnightblue" stroke="midnightblue" points="56.71,-25.32 46.12,-25.01 54.2,-31.85 56.71,-25.32"/>
</g>
<!-- Node3 -->
<g id="node3" class="node">
<title>Node3</title>
<g id="a_node3"><a xlink:title=" ">
<polygon fill="none" stroke="#bfbfbf" points="71.5,-6 71.5,-25 133.5,-25 133.5,-6 71.5,-6"/>
<text text-anchor="middle" x="102.5" y="-13" font-family="Helvetica,sans-Serif" font-size="10.00">stdbool.h</text>
</a>
</g>
</g>
<!-- Node1&#45;&gt;Node3 -->
<g id="edge2" class="edge">
<title>Node1&#45;&gt;Node3</title>
<path fill="none" stroke="midnightblue" d="M228.44,-67.48C203.44,-57.36 161.56,-40.4 133.01,-28.85"/>
<polygon fill="midnightblue" stroke="midnightblue" points="134.11,-25.52 123.52,-25.01 131.48,-32.01 134.11,-25.52"/>
</g>
<!-- Node4 -->
<g id="node4" class="node">
<title>Node4</title>
<g id="a_node4"><a xlink:title=" ">
<polygon fill="none" stroke="#bfbfbf" points="152,-6 152,-25 205,-25 205,-6 152,-6"/>
<text text-anchor="middle" x="178.5" y="-13" font-family="Helvetica,sans-Serif" font-size="10.00">string.h</text>
</a>
</g>
</g>
<!-- Node1&#45;&gt;Node4 -->
<g id="edge3" class="edge">
<title>Node1&#45;&gt;Node4</title>
<path fill="none" stroke="midnightblue" d="M239.33,-67.48C228.15,-58.11 209.98,-42.88 196.41,-31.51"/>
<polygon fill="midnightblue" stroke="midnightblue" points="198.57,-28.75 188.65,-25.01 194.07,-34.11 198.57,-28.75"/>
</g>
<!-- Node5 -->
<g id="node5" class="node">
<title>Node5</title>
<g id="a_node5"><a xlink:title=" ">
<polygon fill="none" stroke="#bfbfbf" points="223,-6 223,-25 276,-25 276,-6 223,-6"/>
<text text-anchor="middle" x="249.5" y="-13" font-family="Helvetica,sans-Serif" font-size="10.00">ctype.h</text>
</a>
</g>
</g>
<!-- Node1&#45;&gt;Node5 -->
<g id="edge4" class="edge">
<title>Node1&#45;&gt;Node5</title>
<path fill="none" stroke="midnightblue" d="M249.5,-67.48C249.5,-59.08 249.5,-45.98 249.5,-35.16"/>
<polygon fill="midnightblue" stroke="midnightblue" points="253,-35.01 249.5,-25.01 246,-35.01 253,-35.01"/>
</g>
<!-- Node6 -->
<g id="node6" class="node">
<title>Node6</title>
<g id="a_node6"><a xlink:title=" ">
<polygon fill="none" stroke="#bfbfbf" points="294.5,-6 294.5,-25 344.5,-25 344.5,-6 294.5,-6"/>
<text text-anchor="middle" x="319.5" y="-13" font-family="Helvetica,sans-Serif" font-size="10.00">stdio.h</text>
</a>
</g>
</g>
<!-- Node1&#45;&gt;Node6 -->
<g id="edge5" class="edge">
<title>Node1&#45;&gt;Node6</title>
<path fill="none" stroke="midnightblue" d="M259.53,-67.48C270.55,-58.11 288.46,-42.88 301.84,-31.51"/>
<polygon fill="midnightblue" stroke="midnightblue" points="304.14,-34.15 309.49,-25.01 299.6,-28.82 304.14,-34.15"/>
</g>
<!-- Node7 -->
<g id="node7" class="node">
<title>Node7</title>
<g id="a_node7"><a xlink:title=" ">
<polygon fill="none" stroke="#bfbfbf" points="362.5,-0.5 362.5,-30.5 464.5,-30.5 464.5,-0.5 362.5,-0.5"/>
<text text-anchor="start" x="370.5" y="-18.5" font-family="Helvetica,sans-Serif" font-size="10.00">utils_misc/cstring</text>
<text text-anchor="middle" x="413.5" y="-7.5" font-family="Helvetica,sans-Serif" font-size="10.00">_utils.hh</text>
</a>
</g>
</g>
<!-- Node1&#45;&gt;Node7 -->
<g id="edge6" class="edge">
<title>Node1&#45;&gt;Node7</title>
<path fill="none" stroke="midnightblue" d="M273,-67.48C296.97,-58.78 334.87,-45.03 365.27,-34"/>
<polygon fill="midnightblue" stroke="midnightblue" points="366.64,-37.22 374.85,-30.52 364.25,-30.64 366.64,-37.22"/>
</g>
<!-- Node8 -->
<g id="node8" class="node">
<title>Node8</title>
<g id="a_node8"><a xlink:title=" ">
<polygon fill="none" stroke="#bfbfbf" points="483,-6 483,-25 560,-25 560,-6 483,-6"/>
<text text-anchor="middle" x="521.5" y="-13" font-family="Helvetica,sans-Serif" font-size="10.00">debug/dbg.h</text>
</a>
</g>
</g>
<!-- Node1&#45;&gt;Node8 -->
<g id="edge7" class="edge">
<title>Node1&#45;&gt;Node8</title>
<path fill="none" stroke="midnightblue" d="M289,-69.24C333.96,-61.27 409.44,-47.07 473.5,-31 477.33,-30.04 481.32,-28.96 485.27,-27.84"/>
<polygon fill="midnightblue" stroke="midnightblue" points="486.35,-31.17 494.97,-25.01 484.39,-24.45 486.35,-31.17"/>
</g>
</g>
</svg>
