<?xml version="1.0" encoding="UTF-8" standalone="no"?>
<!DOCTYPE svg PUBLIC "-//W3C//DTD SVG 1.1//EN"
 "http://www.w3.org/Graphics/SVG/1.1/DTD/svg11.dtd">
<!-- Generated by graphviz version 2.43.0 (0)
 -->
<!-- Title: fernotron_trx/include/fernotron_trx/timer_data.h Pages: 1 -->
<svg width="1082pt" height="362pt"
 viewBox="0.00 0.00 1082.00 362.00" xmlns="http://www.w3.org/2000/svg" xmlns:xlink="http://www.w3.org/1999/xlink">
<g id="graph0" class="graph" transform="scale(1 1) rotate(0) translate(4 358)">
<title>fernotron_trx/include/fernotron_trx/timer_data.h</title>
<!-- Node1 -->
<g id="node1" class="node">
<title>Node1</title>
<g id="a_node1"><a xlink:title="vocabulary types to program Fernotron automatic (timers)">
<polygon fill="#bfbfbf" stroke="black" points="181,-312.5 181,-353.5 300,-353.5 300,-312.5 181,-312.5"/>
<text text-anchor="start" x="189" y="-341.5" font-family="Helvetica,sans-Serif" font-size="10.00">fernotron_trx/include</text>
<text text-anchor="start" x="189" y="-330.5" font-family="Helvetica,sans-Serif" font-size="10.00">/fernotron_trx/timer</text>
<text text-anchor="middle" x="240.5" y="-319.5" font-family="Helvetica,sans-Serif" font-size="10.00">_data.h</text>
</a>
</g>
</g>
<!-- Node2 -->
<g id="node2" class="node">
<title>Node2</title>
<g id="a_node2"><a xlink:href="fau__tdata__store_8h.html" target="_top" xlink:title="Persistent timer data storage.">
<polygon fill="none" stroke="black" points="0,-234.5 0,-275.5 139,-275.5 139,-234.5 0,-234.5"/>
<text text-anchor="start" x="8" y="-263.5" font-family="Helvetica,sans-Serif" font-size="10.00">fernotron_app/include</text>
<text text-anchor="start" x="8" y="-252.5" font-family="Helvetica,sans-Serif" font-size="10.00">/fernotron/auto/fau_tdata</text>
<text text-anchor="middle" x="69.5" y="-241.5" font-family="Helvetica,sans-Serif" font-size="10.00">_store.h</text>
</a>
</g>
</g>
<!-- Node1&#45;&gt;Node2 -->
<g id="edge1" class="edge">
<title>Node1&#45;&gt;Node2</title>
<path fill="none" stroke="midnightblue" d="M187.24,-308.33C163.51,-297.78 135.9,-285.51 113.39,-275.51"/>
<polygon fill="midnightblue" stroke="midnightblue" points="185.9,-311.57 196.46,-312.43 188.75,-305.17 185.9,-311.57"/>
</g>
<!-- Node3 -->
<g id="node3" class="node">
<title>Node3</title>
<g id="a_node3"><a xlink:href="fau__tminutes_8h.html" target="_top" xlink:title="Represent when each kind of timer will be scheduled for a given day and g/m. Calculate the next event...">
<polygon fill="none" stroke="black" points="157.5,-240 157.5,-270 323.5,-270 323.5,-240 157.5,-240"/>
<text text-anchor="start" x="165.5" y="-258" font-family="Helvetica,sans-Serif" font-size="10.00">fernotron_app/include</text>
<text text-anchor="middle" x="240.5" y="-247" font-family="Helvetica,sans-Serif" font-size="10.00">/fernotron/auto/fau_tminutes.h</text>
</a>
</g>
</g>
<!-- Node1&#45;&gt;Node3 -->
<g id="edge2" class="edge">
<title>Node1&#45;&gt;Node3</title>
<path fill="none" stroke="midnightblue" d="M240.5,-302.28C240.5,-291.25 240.5,-279.25 240.5,-270.23"/>
<polygon fill="midnightblue" stroke="midnightblue" points="237,-302.43 240.5,-312.43 244,-302.43 237,-302.43"/>
</g>
<!-- Node6 -->
<g id="node6" class="node">
<title>Node6</title>
<g id="a_node6"><a xlink:href="fer__trx__c__api_8h.html" target="_top" xlink:title="C&#45;API for sending and receiving Fernotron RF messages.">
<polygon fill="none" stroke="black" points="499,-234.5 499,-275.5 618,-275.5 618,-234.5 499,-234.5"/>
<text text-anchor="start" x="507" y="-263.5" font-family="Helvetica,sans-Serif" font-size="10.00">fernotron_trx/include</text>
<text text-anchor="start" x="507" y="-252.5" font-family="Helvetica,sans-Serif" font-size="10.00">/fernotron_trx/fer_trx</text>
<text text-anchor="middle" x="558.5" y="-241.5" font-family="Helvetica,sans-Serif" font-size="10.00">_c_api.h</text>
</a>
</g>
</g>
<!-- Node1&#45;&gt;Node6 -->
<g id="edge5" class="edge">
<title>Node1&#45;&gt;Node6</title>
<path fill="none" stroke="midnightblue" d="M310.23,-315.33C366.71,-301.84 445.41,-283.03 498.95,-270.23"/>
<polygon fill="midnightblue" stroke="midnightblue" points="309.23,-311.98 300.31,-317.7 310.85,-318.78 309.23,-311.98"/>
</g>
<!-- Node4 -->
<g id="node4" class="node">
<title>Node4</title>
<g id="a_node4"><a xlink:href="fau__tevent_8hh_source.html" target="_top" xlink:title=" ">
<polygon fill="none" stroke="black" points="80.5,-162 80.5,-192 240.5,-192 240.5,-162 80.5,-162"/>
<text text-anchor="start" x="88.5" y="-180" font-family="Helvetica,sans-Serif" font-size="10.00">fernotron_app/include</text>
<text text-anchor="middle" x="160.5" y="-169" font-family="Helvetica,sans-Serif" font-size="10.00">/fernotron/auto/fau_tevent.hh</text>
</a>
</g>
</g>
<!-- Node3&#45;&gt;Node4 -->
<g id="edge3" class="edge">
<title>Node3&#45;&gt;Node4</title>
<path fill="none" stroke="midnightblue" d="M217.9,-232.53C204.32,-219.63 187.42,-203.57 175.48,-192.23"/>
<polygon fill="midnightblue" stroke="midnightblue" points="215.79,-235.35 225.45,-239.7 220.61,-230.28 215.79,-235.35"/>
</g>
<!-- Node5 -->
<g id="node5" class="node">
<title>Node5</title>
<g id="a_node5"><a xlink:href="fau__next__event_8hh_source.html" target="_top" xlink:title=" ">
<polygon fill="none" stroke="black" points="93,-78.5 93,-119.5 228,-119.5 228,-78.5 93,-78.5"/>
<text text-anchor="start" x="101" y="-107.5" font-family="Helvetica,sans-Serif" font-size="10.00">fernotron_app/include</text>
<text text-anchor="start" x="101" y="-96.5" font-family="Helvetica,sans-Serif" font-size="10.00">/fernotron/auto/fau_next</text>
<text text-anchor="middle" x="160.5" y="-85.5" font-family="Helvetica,sans-Serif" font-size="10.00">_event.hh</text>
</a>
</g>
</g>
<!-- Node4&#45;&gt;Node5 -->
<g id="edge4" class="edge">
<title>Node4&#45;&gt;Node5</title>
<path fill="none" stroke="midnightblue" d="M160.5,-151.66C160.5,-141.33 160.5,-129.44 160.5,-119.68"/>
<polygon fill="midnightblue" stroke="midnightblue" points="157,-151.7 160.5,-161.7 164,-151.71 157,-151.7"/>
</g>
<!-- Node7 -->
<g id="node7" class="node">
<title>Node7</title>
<g id="a_node7"><a xlink:href="positions__dynamic_8h.html" target="_top" xlink:title="Keep track of positions for a currently moving shutter.">
<polygon fill="none" stroke="black" points="911.5,-156.5 911.5,-197.5 1043.5,-197.5 1043.5,-156.5 911.5,-156.5"/>
<text text-anchor="start" x="919.5" y="-185.5" font-family="Helvetica,sans-Serif" font-size="10.00">fernotron_app/include</text>
<text text-anchor="start" x="919.5" y="-174.5" font-family="Helvetica,sans-Serif" font-size="10.00">/fernotron/pos/positions</text>
<text text-anchor="middle" x="977.5" y="-163.5" font-family="Helvetica,sans-Serif" font-size="10.00">_dynamic.h</text>
</a>
</g>
</g>
<!-- Node6&#45;&gt;Node7 -->
<g id="edge6" class="edge">
<title>Node6&#45;&gt;Node7</title>
<path fill="none" stroke="midnightblue" d="M628.27,-243.65C696.01,-233.29 801.63,-216.29 892.5,-198 898.59,-196.77 904.92,-195.43 911.24,-194.03"/>
<polygon fill="midnightblue" stroke="midnightblue" points="627.5,-240.23 618.14,-245.2 628.56,-247.15 627.5,-240.23"/>
</g>
<!-- Node10 -->
<g id="node10" class="node">
<title>Node10</title>
<g id="a_node10"><a xlink:href="set__endpos_8h.html" target="_top" xlink:title="Mode for setting shutter end positions.">
<polygon fill="none" stroke="black" points="560.5,-162 560.5,-192 712.5,-192 712.5,-162 560.5,-162"/>
<text text-anchor="start" x="568.5" y="-180" font-family="Helvetica,sans-Serif" font-size="10.00">fernotron_app/include</text>
<text text-anchor="middle" x="636.5" y="-169" font-family="Helvetica,sans-Serif" font-size="10.00">/fernotron/sep/set_endpos.h</text>
</a>
</g>
</g>
<!-- Node6&#45;&gt;Node10 -->
<g id="edge9" class="edge">
<title>Node6&#45;&gt;Node10</title>
<path fill="none" stroke="midnightblue" d="M585.88,-227.32C598.01,-215.51 611.78,-202.08 621.9,-192.23"/>
<polygon fill="midnightblue" stroke="midnightblue" points="583.31,-224.94 578.59,-234.43 588.19,-229.96 583.31,-224.94"/>
</g>
<!-- Node11 -->
<g id="node11" class="node">
<title>Node11</title>
<g id="a_node11"><a xlink:href="fer__trx__api_8hh.html" target="_top" xlink:title="C++&#45;API for sending and receiving Fernotron RF messages.">
<polygon fill="none" stroke="black" points="731,-156.5 731,-197.5 850,-197.5 850,-156.5 731,-156.5"/>
<text text-anchor="start" x="739" y="-185.5" font-family="Helvetica,sans-Serif" font-size="10.00">fernotron_trx/include</text>
<text text-anchor="start" x="739" y="-174.5" font-family="Helvetica,sans-Serif" font-size="10.00">/fernotron_trx/fer_trx</text>
<text text-anchor="middle" x="790.5" y="-163.5" font-family="Helvetica,sans-Serif" font-size="10.00">_api.hh</text>
</a>
</g>
</g>
<!-- Node6&#45;&gt;Node11 -->
<g id="edge10" class="edge">
<title>Node6&#45;&gt;Node11</title>
<path fill="none" stroke="midnightblue" d="M627.78,-231.3C660.62,-220.55 699.46,-207.82 730.96,-197.51"/>
<polygon fill="midnightblue" stroke="midnightblue" points="626.66,-227.99 618.25,-234.43 628.84,-234.64 626.66,-227.99"/>
</g>
<!-- Node13 -->
<g id="node13" class="node">
<title>Node13</title>
<g id="a_node13"><a xlink:href="fer__fsb_8h.html" target="_top" xlink:title="Plain raw message.">
<polygon fill="none" stroke="black" points="296.5,-84 296.5,-114 446.5,-114 446.5,-84 296.5,-84"/>
<text text-anchor="start" x="304.5" y="-102" font-family="Helvetica,sans-Serif" font-size="10.00">fernotron_trx/include</text>
<text text-anchor="middle" x="371.5" y="-91" font-family="Helvetica,sans-Serif" font-size="10.00">/fernotron_trx/raw/fer_fsb.h</text>
</a>
</g>
</g>
<!-- Node6&#45;&gt;Node13 -->
<g id="edge12" class="edge">
<title>Node6&#45;&gt;Node13</title>
<path fill="none" stroke="midnightblue" d="M488.89,-240.1C461.93,-231.74 432.55,-218.56 411.5,-198 387.71,-174.76 377.56,-135.39 373.66,-114.32"/>
<polygon fill="midnightblue" stroke="midnightblue" points="488.12,-243.52 498.7,-242.97 490.08,-236.8 488.12,-243.52"/>
</g>
<!-- Node14 -->
<g id="node14" class="node">
<title>Node14</title>
<g id="a_node14"><a xlink:href="fer__msg__tx_8h.html" target="_top" xlink:title="Send raw messages.">
<polygon fill="none" stroke="black" points="213,-0.5 213,-41.5 334,-41.5 334,-0.5 213,-0.5"/>
<text text-anchor="start" x="221" y="-29.5" font-family="Helvetica,sans-Serif" font-size="10.00">fernotron_trx/include</text>
<text text-anchor="start" x="221" y="-18.5" font-family="Helvetica,sans-Serif" font-size="10.00">/fernotron_trx/raw/fer</text>
<text text-anchor="middle" x="273.5" y="-7.5" font-family="Helvetica,sans-Serif" font-size="10.00">_msg_tx.h</text>
</a>
</g>
</g>
<!-- Node6&#45;&gt;Node14 -->
<g id="edge24" class="edge">
<title>Node6&#45;&gt;Node14</title>
<path fill="none" stroke="midnightblue" d="M489,-242.21C423.16,-226.84 328.45,-192.76 287.5,-120 273.76,-95.59 271.84,-62.53 272.26,-41.74"/>
<polygon fill="midnightblue" stroke="midnightblue" points="488.37,-245.66 498.89,-244.43 489.9,-238.83 488.37,-245.66"/>
</g>
<!-- Node16 -->
<g id="node16" class="node">
<title>Node16</title>
<g id="a_node16"><a xlink:href="fer__msg__plain_8h.html" target="_top" xlink:title="Data structure of plain messages or header of extended messages.">
<polygon fill="none" stroke="black" points="421,-156.5 421,-197.5 542,-197.5 542,-156.5 421,-156.5"/>
<text text-anchor="start" x="429" y="-185.5" font-family="Helvetica,sans-Serif" font-size="10.00">fernotron_trx/include</text>
<text text-anchor="start" x="429" y="-174.5" font-family="Helvetica,sans-Serif" font-size="10.00">/fernotron_trx/raw/fer</text>
<text text-anchor="middle" x="481.5" y="-163.5" font-family="Helvetica,sans-Serif" font-size="10.00">_msg_plain.h</text>
</a>
</g>
</g>
<!-- Node6&#45;&gt;Node16 -->
<g id="edge15" class="edge">
<title>Node6&#45;&gt;Node16</title>
<path fill="none" stroke="midnightblue" d="M531.35,-227.2C521.43,-217.42 510.41,-206.54 501.26,-197.51"/>
<polygon fill="midnightblue" stroke="midnightblue" points="529.09,-229.89 538.67,-234.43 534.01,-224.91 529.09,-229.89"/>
</g>
<!-- Node19 -->
<g id="node19" class="node">
<title>Node19</title>
<g id="a_node19"><a xlink:href="fer__radio__trx_8h.html" target="_top" xlink:title="RF transceiver.">
<polygon fill="none" stroke="black" points="784,-0.5 784,-41.5 905,-41.5 905,-0.5 784,-0.5"/>
<text text-anchor="start" x="792" y="-29.5" font-family="Helvetica,sans-Serif" font-size="10.00">fernotron_trx/include</text>
<text text-anchor="start" x="792" y="-18.5" font-family="Helvetica,sans-Serif" font-size="10.00">/fernotron_trx/raw/fer</text>
<text text-anchor="middle" x="844.5" y="-7.5" font-family="Helvetica,sans-Serif" font-size="10.00">_radio_trx.h</text>
</a>
</g>
</g>
<!-- Node6&#45;&gt;Node19 -->
<g id="edge25" class="edge">
<title>Node6&#45;&gt;Node19</title>
<path fill="none" stroke="midnightblue" d="M628.66,-251C708.24,-245.95 830.72,-232.62 859.5,-198 896.94,-152.95 870.16,-77.15 854.15,-41.57"/>
<polygon fill="midnightblue" stroke="midnightblue" points="627.98,-247.53 618.21,-251.63 628.4,-254.52 627.98,-247.53"/>
</g>
<!-- Node8 -->
<g id="node8" class="node">
<title>Node8</title>
<g id="a_node8"><a xlink:href="shutter__pct_8h.html" target="_top" xlink:title="include positions_static.h and positions_dynamic.h">
<polygon fill="none" stroke="black" points="914.5,-84 914.5,-114 1066.5,-114 1066.5,-84 914.5,-84"/>
<text text-anchor="start" x="922.5" y="-102" font-family="Helvetica,sans-Serif" font-size="10.00">fernotron_app/include</text>
<text text-anchor="middle" x="990.5" y="-91" font-family="Helvetica,sans-Serif" font-size="10.00">/fernotron/pos/shutter_pct.h</text>
</a>
</g>
</g>
<!-- Node7&#45;&gt;Node8 -->
<g id="edge7" class="edge">
<title>Node7&#45;&gt;Node8</title>
<path fill="none" stroke="midnightblue" d="M982.58,-146.28C984.47,-135.25 986.52,-123.25 988.07,-114.23"/>
<polygon fill="midnightblue" stroke="midnightblue" points="979.08,-145.98 980.85,-156.43 985.98,-147.16 979.08,-145.98"/>
</g>
<!-- Node9 -->
<g id="node9" class="node">
<title>Node9</title>
<g id="a_node9"><a xlink:href="commands_8h.html" target="_top" xlink:title="commands to move or stop a shutter with position support">
<polygon fill="none" stroke="black" points="923,-6 923,-36 1074,-36 1074,-6 923,-6"/>
<text text-anchor="start" x="931" y="-24" font-family="Helvetica,sans-Serif" font-size="10.00">fernotron_app/include</text>
<text text-anchor="middle" x="998.5" y="-13" font-family="Helvetica,sans-Serif" font-size="10.00">/fernotron/pos/commands.h</text>
</a>
</g>
</g>
<!-- Node8&#45;&gt;Node9 -->
<g id="edge8" class="edge">
<title>Node8&#45;&gt;Node9</title>
<path fill="none" stroke="midnightblue" d="M993.07,-73.59C994.37,-61.26 995.9,-46.72 997,-36.23"/>
<polygon fill="midnightblue" stroke="midnightblue" points="989.57,-73.39 992,-83.7 996.53,-74.13 989.57,-73.39"/>
</g>
<!-- Node12 -->
<g id="node12" class="node">
<title>Node12</title>
<g id="a_node12"><a xlink:href="fer__print_8h.html" target="_top" xlink:title="Print raw message as formatted text to standard output (for debug purposes).">
<polygon fill="none" stroke="black" points="643,-0.5 643,-41.5 766,-41.5 766,-0.5 643,-0.5"/>
<text text-anchor="start" x="651" y="-29.5" font-family="Helvetica,sans-Serif" font-size="10.00">fernotron_app/include</text>
<text text-anchor="start" x="651" y="-18.5" font-family="Helvetica,sans-Serif" font-size="10.00">/fernotron/txtio/fer</text>
<text text-anchor="middle" x="704.5" y="-7.5" font-family="Helvetica,sans-Serif" font-size="10.00">_print.h</text>
</a>
</g>
</g>
<!-- Node11&#45;&gt;Node12 -->
<g id="edge11" class="edge">
<title>Node11&#45;&gt;Node12</title>
<path fill="none" stroke="midnightblue" d="M790.7,-146.19C789.6,-125.74 785.63,-98.68 773.5,-78 764.91,-63.36 750.97,-50.96 737.85,-41.58"/>
<polygon fill="midnightblue" stroke="midnightblue" points="787.2,-146.33 791.04,-156.21 794.2,-146.1 787.2,-146.33"/>
</g>
<!-- Node13&#45;&gt;Node14 -->
<g id="edge13" class="edge">
<title>Node13&#45;&gt;Node14</title>
<path fill="none" stroke="midnightblue" d="M345.05,-77.49C330.7,-66.36 313.06,-52.68 298.88,-41.68"/>
<polygon fill="midnightblue" stroke="midnightblue" points="343.02,-80.34 353.07,-83.7 347.31,-74.81 343.02,-80.34"/>
</g>
<!-- Node15 -->
<g id="node15" class="node">
<title>Node15</title>
<g id="a_node15"><a xlink:href="fer__rawmsg__build_8h.html" target="_top" xlink:title="builder functions to construct (extended) raw messages">
<polygon fill="none" stroke="black" points="361,-0.5 361,-41.5 482,-41.5 482,-0.5 361,-0.5"/>
<text text-anchor="start" x="369" y="-29.5" font-family="Helvetica,sans-Serif" font-size="10.00">fernotron_trx/include</text>
<text text-anchor="start" x="369" y="-18.5" font-family="Helvetica,sans-Serif" font-size="10.00">/fernotron_trx/raw/fer</text>
<text text-anchor="middle" x="421.5" y="-7.5" font-family="Helvetica,sans-Serif" font-size="10.00">_rawmsg_build.h</text>
</a>
</g>
</g>
<!-- Node13&#45;&gt;Node15 -->
<g id="edge14" class="edge">
<title>Node13&#45;&gt;Node15</title>
<path fill="none" stroke="midnightblue" d="M386.45,-75.27C393.49,-64.58 401.79,-51.96 408.55,-41.68"/>
<polygon fill="midnightblue" stroke="midnightblue" points="383.48,-73.43 380.9,-83.7 389.32,-77.27 383.48,-73.43"/>
</g>
<!-- Node16&#45;&gt;Node9 -->
<g id="edge16" class="edge">
<title>Node16&#45;&gt;Node9</title>
<path fill="none" stroke="midnightblue" d="M551.9,-156.08C650.91,-135.06 680.6,-147.3 773.5,-120 848.1,-98.08 930.69,-57.61 971.96,-36.18"/>
<polygon fill="midnightblue" stroke="midnightblue" points="551.12,-152.66 542.09,-158.22 552.61,-159.5 551.12,-152.66"/>
</g>
<!-- Node16&#45;&gt;Node13 -->
<g id="edge18" class="edge">
<title>Node16&#45;&gt;Node13</title>
<path fill="none" stroke="midnightblue" d="M444.82,-150.66C427.26,-138.53 406.89,-124.45 392.09,-114.23"/>
<polygon fill="midnightblue" stroke="midnightblue" points="442.96,-153.62 453.17,-156.43 446.93,-147.86 442.96,-153.62"/>
</g>
<!-- Node17 -->
<g id="node17" class="node">
<title>Node17</title>
<g id="a_node17"><a xlink:href="repeater_8h_source.html" target="_top" xlink:title=" ">
<polygon fill="none" stroke="black" points="465,-84 465,-114 626,-114 626,-84 465,-84"/>
<text text-anchor="start" x="473" y="-102" font-family="Helvetica,sans-Serif" font-size="10.00">fernotron_app/include</text>
<text text-anchor="middle" x="545.5" y="-91" font-family="Helvetica,sans-Serif" font-size="10.00">/fernotron/repeater/repeater.h</text>
</a>
</g>
</g>
<!-- Node16&#45;&gt;Node17 -->
<g id="edge17" class="edge">
<title>Node16&#45;&gt;Node17</title>
<path fill="none" stroke="midnightblue" d="M504.53,-148.65C514.34,-137 525.38,-123.9 533.52,-114.23"/>
<polygon fill="midnightblue" stroke="midnightblue" points="501.75,-146.52 497.98,-156.43 507.1,-151.03 501.75,-146.52"/>
</g>
<!-- Node18 -->
<g id="node18" class="node">
<title>Node18</title>
<g id="a_node18"><a xlink:href="fer__msg__attachment_8h.html" target="_top" xlink:title="Extended messages.">
<polygon fill="none" stroke="black" points="644,-78.5 644,-119.5 765,-119.5 765,-78.5 644,-78.5"/>
<text text-anchor="start" x="652" y="-107.5" font-family="Helvetica,sans-Serif" font-size="10.00">fernotron_trx/include</text>
<text text-anchor="start" x="652" y="-96.5" font-family="Helvetica,sans-Serif" font-size="10.00">/fernotron_trx/raw/fer</text>
<text text-anchor="middle" x="704.5" y="-85.5" font-family="Helvetica,sans-Serif" font-size="10.00">_msg_attachment.h</text>
</a>
</g>
</g>
<!-- Node16&#45;&gt;Node18 -->
<g id="edge19" class="edge">
<title>Node16&#45;&gt;Node18</title>
<path fill="none" stroke="midnightblue" d="M548.5,-153.17C579.98,-142.44 617.12,-129.78 647.27,-119.51"/>
<polygon fill="midnightblue" stroke="midnightblue" points="547.26,-149.89 538.93,-156.43 549.52,-156.52 547.26,-149.89"/>
</g>
<!-- Node18&#45;&gt;Node12 -->
<g id="edge20" class="edge">
<title>Node18&#45;&gt;Node12</title>
<path fill="none" stroke="midnightblue" d="M704.5,-68.3C704.5,-59.3 704.5,-49.65 704.5,-41.51"/>
<polygon fill="midnightblue" stroke="midnightblue" points="701,-68.43 704.5,-78.43 708,-68.43 701,-68.43"/>
</g>
<!-- Node18&#45;&gt;Node15 -->
<g id="edge23" class="edge">
<title>Node18&#45;&gt;Node15</title>
<path fill="none" stroke="midnightblue" d="M634.15,-77.94C570.9,-60.89 553.68,-57.72 494.5,-42 490.44,-40.92 486.25,-39.8 482.03,-38.66"/>
<polygon fill="midnightblue" stroke="midnightblue" points="633.25,-81.32 643.82,-80.56 635.08,-74.57 633.25,-81.32"/>
</g>
<!-- Node18&#45;&gt;Node19 -->
<g id="edge21" class="edge">
<title>Node18&#45;&gt;Node19</title>
<path fill="none" stroke="midnightblue" d="M749.4,-73.63C768.53,-63.24 790.54,-51.29 808.57,-41.51"/>
<polygon fill="midnightblue" stroke="midnightblue" points="747.67,-70.58 740.55,-78.43 751.01,-76.73 747.67,-70.58"/>
</g>
<!-- Node20 -->
<g id="node20" class="node">
<title>Node20</title>
<g id="a_node20"><a xlink:href="fer__rawmsg__buffer_8h.html" target="_top" xlink:title="Global static buffers for raw messages.">
<polygon fill="none" stroke="black" points="504,-0.5 504,-41.5 625,-41.5 625,-0.5 504,-0.5"/>
<text text-anchor="start" x="512" y="-29.5" font-family="Helvetica,sans-Serif" font-size="10.00">fernotron_trx/include</text>
<text text-anchor="start" x="512" y="-18.5" font-family="Helvetica,sans-Serif" font-size="10.00">/fernotron_trx/raw/fer</text>
<text text-anchor="middle" x="564.5" y="-7.5" font-family="Helvetica,sans-Serif" font-size="10.00">_rawmsg_buffer.h</text>
</a>
</g>
</g>
<!-- Node18&#45;&gt;Node20 -->
<g id="edge22" class="edge">
<title>Node18&#45;&gt;Node20</title>
<path fill="none" stroke="midnightblue" d="M659.6,-73.63C640.47,-63.24 618.46,-51.29 600.43,-41.51"/>
<polygon fill="midnightblue" stroke="midnightblue" points="657.99,-76.73 668.45,-78.43 661.33,-70.58 657.99,-76.73"/>
</g>
</g>
</svg>
