<?xml version="1.0" encoding="UTF-8" standalone="no"?>
<!DOCTYPE svg PUBLIC "-//W3C//DTD SVG 1.1//EN"
 "http://www.w3.org/Graphics/SVG/1.1/DTD/svg11.dtd">
<!-- Generated by graphviz version 2.43.0 (0)
 -->
<!-- Title: timer_data.h Pages: 1 -->
<svg width="768pt" height="252pt"
 viewBox="0.00 0.00 767.50 252.00" xmlns="http://www.w3.org/2000/svg" xmlns:xlink="http://www.w3.org/1999/xlink">
<g id="graph0" class="graph" transform="scale(1 1) rotate(0) translate(4 248)">
<title>timer_data.h</title>
<!-- Node1 -->
<g id="node1" class="node">
<title>Node1</title>
<g id="a_node1"><a xlink:title="vocabulary types to program Fernotron automatic (timers)">
<polygon fill="#bfbfbf" stroke="black" points="125.5,-224.5 125.5,-243.5 204.5,-243.5 204.5,-224.5 125.5,-224.5"/>
<text text-anchor="middle" x="165" y="-231.5" font-family="Helvetica,sans-Serif" font-size="10.00">timer_data.h</text>
</a>
</g>
</g>
<!-- Node2 -->
<g id="node2" class="node">
<title>Node2</title>
<g id="a_node2"><a xlink:href="fau__tdata__store_8h.html" target="_top" xlink:title="Persistent timer data storage.">
<polygon fill="none" stroke="black" points="0,-168.5 0,-187.5 102,-187.5 102,-168.5 0,-168.5"/>
<text text-anchor="middle" x="51" y="-175.5" font-family="Helvetica,sans-Serif" font-size="10.00">fau_tdata_store.h</text>
</a>
</g>
</g>
<!-- Node1&#45;&gt;Node2 -->
<g id="edge1" class="edge">
<title>Node1&#45;&gt;Node2</title>
<path fill="none" stroke="midnightblue" d="M137.76,-220.1C116.46,-210.01 87.46,-196.27 68.98,-187.52"/>
<polygon fill="midnightblue" stroke="midnightblue" points="136.4,-223.33 146.94,-224.44 139.4,-217 136.4,-223.33"/>
</g>
<!-- Node3 -->
<g id="node3" class="node">
<title>Node3</title>
<g id="a_node3"><a xlink:href="fau__tminutes_8h.html" target="_top" xlink:title="Represent when each kind of timer will be scheduled for a given day and g/m. Calculate the next event...">
<polygon fill="none" stroke="black" points="120,-168.5 120,-187.5 210,-187.5 210,-168.5 120,-168.5"/>
<text text-anchor="middle" x="165" y="-175.5" font-family="Helvetica,sans-Serif" font-size="10.00">fau_tminutes.h</text>
</a>
</g>
</g>
<!-- Node1&#45;&gt;Node3 -->
<g id="edge2" class="edge">
<title>Node1&#45;&gt;Node3</title>
<path fill="none" stroke="midnightblue" d="M165,-213.8C165,-204.91 165,-194.78 165,-187.75"/>
<polygon fill="midnightblue" stroke="midnightblue" points="161.5,-214.08 165,-224.08 168.5,-214.08 161.5,-214.08"/>
</g>
<!-- Node6 -->
<g id="node6" class="node">
<title>Node6</title>
<g id="a_node6"><a xlink:href="fer__trx__c__api_8h.html" target="_top" xlink:title="C&#45;API for sending and receiving Fernotron RF messages.">
<polygon fill="none" stroke="black" points="335.5,-168.5 335.5,-187.5 424.5,-187.5 424.5,-168.5 335.5,-168.5"/>
<text text-anchor="middle" x="380" y="-175.5" font-family="Helvetica,sans-Serif" font-size="10.00">fer_trx_c_api.h</text>
</a>
</g>
</g>
<!-- Node1&#45;&gt;Node6 -->
<g id="edge5" class="edge">
<title>Node1&#45;&gt;Node6</title>
<path fill="none" stroke="midnightblue" d="M208.96,-221.96C249.57,-211.76 309.04,-196.82 346.09,-187.52"/>
<polygon fill="midnightblue" stroke="midnightblue" points="207.91,-218.61 199.07,-224.44 209.62,-225.4 207.91,-218.61"/>
</g>
<!-- Node4 -->
<g id="node4" class="node">
<title>Node4</title>
<g id="a_node4"><a xlink:href="fau__tevent_8hh_source.html" target="_top" xlink:title=" ">
<polygon fill="none" stroke="black" points="70,-112.5 70,-131.5 154,-131.5 154,-112.5 70,-112.5"/>
<text text-anchor="middle" x="112" y="-119.5" font-family="Helvetica,sans-Serif" font-size="10.00">fau_tevent.hh</text>
</a>
</g>
</g>
<!-- Node3&#45;&gt;Node4 -->
<g id="edge3" class="edge">
<title>Node3&#45;&gt;Node4</title>
<path fill="none" stroke="midnightblue" d="M149.02,-160.72C139.68,-151.2 128.25,-139.56 120.59,-131.75"/>
<polygon fill="midnightblue" stroke="midnightblue" points="146.75,-163.4 156.25,-168.08 151.74,-158.49 146.75,-163.4"/>
</g>
<!-- Node5 -->
<g id="node5" class="node">
<title>Node5</title>
<g id="a_node5"><a xlink:href="fau__next__event_8hh_source.html" target="_top" xlink:title=" ">
<polygon fill="none" stroke="black" points="52.5,-56.5 52.5,-75.5 159.5,-75.5 159.5,-56.5 52.5,-56.5"/>
<text text-anchor="middle" x="106" y="-63.5" font-family="Helvetica,sans-Serif" font-size="10.00">fau_next_event.hh</text>
</a>
</g>
</g>
<!-- Node4&#45;&gt;Node5 -->
<g id="edge4" class="edge">
<title>Node4&#45;&gt;Node5</title>
<path fill="none" stroke="midnightblue" d="M109.9,-102.1C108.9,-93.14 107.76,-82.86 106.97,-75.75"/>
<polygon fill="midnightblue" stroke="midnightblue" points="106.43,-102.53 111.01,-112.08 113.38,-101.76 106.43,-102.53"/>
</g>
<!-- Node7 -->
<g id="node7" class="node">
<title>Node7</title>
<g id="a_node7"><a xlink:href="positions__dynamic_8h.html" target="_top" xlink:title="Keep track of positions for a currently moving shutter.">
<polygon fill="none" stroke="black" points="642.5,-112.5 642.5,-131.5 759.5,-131.5 759.5,-112.5 642.5,-112.5"/>
<text text-anchor="middle" x="701" y="-119.5" font-family="Helvetica,sans-Serif" font-size="10.00">positions_dynamic.h</text>
</a>
</g>
</g>
<!-- Node6&#45;&gt;Node7 -->
<g id="edge6" class="edge">
<title>Node6&#45;&gt;Node7</title>
<path fill="none" stroke="midnightblue" d="M434.75,-167.79C495.19,-157.62 591.68,-141.39 650.4,-131.51"/>
<polygon fill="midnightblue" stroke="midnightblue" points="433.91,-164.38 424.63,-169.49 435.08,-171.28 433.91,-164.38"/>
</g>
<!-- Node10 -->
<g id="node10" class="node">
<title>Node10</title>
<g id="a_node10"><a xlink:href="set__endpos_8h.html" target="_top" xlink:title="Mode for setting shutter end positions.">
<polygon fill="none" stroke="black" points="392.5,-112.5 392.5,-131.5 473.5,-131.5 473.5,-112.5 392.5,-112.5"/>
<text text-anchor="middle" x="433" y="-119.5" font-family="Helvetica,sans-Serif" font-size="10.00">set_endpos.h</text>
</a>
</g>
</g>
<!-- Node6&#45;&gt;Node10 -->
<g id="edge9" class="edge">
<title>Node6&#45;&gt;Node10</title>
<path fill="none" stroke="midnightblue" d="M395.98,-160.72C405.32,-151.2 416.75,-139.56 424.41,-131.75"/>
<polygon fill="midnightblue" stroke="midnightblue" points="393.26,-158.49 388.75,-168.08 398.25,-163.4 393.26,-158.49"/>
</g>
<!-- Node11 -->
<g id="node11" class="node">
<title>Node11</title>
<g id="a_node11"><a xlink:href="fer__trx__api_8hh.html" target="_top" xlink:title="C++&#45;API for sending and receiving Fernotron RF messages.">
<polygon fill="none" stroke="black" points="492,-112.5 492,-131.5 576,-131.5 576,-112.5 492,-112.5"/>
<text text-anchor="middle" x="534" y="-119.5" font-family="Helvetica,sans-Serif" font-size="10.00">fer_trx_api.hh</text>
</a>
</g>
</g>
<!-- Node6&#45;&gt;Node11 -->
<g id="edge10" class="edge">
<title>Node6&#45;&gt;Node11</title>
<path fill="none" stroke="midnightblue" d="M414.11,-165.04C443.09,-154.88 483.96,-140.55 509.71,-131.52"/>
<polygon fill="midnightblue" stroke="midnightblue" points="412.68,-161.83 404.4,-168.44 415,-168.44 412.68,-161.83"/>
</g>
<!-- Node13 -->
<g id="node13" class="node">
<title>Node13</title>
<g id="a_node13"><a xlink:href="fer__fsb_8h.html" target="_top" xlink:title="Plain raw message.">
<polygon fill="none" stroke="black" points="216.5,-56.5 216.5,-75.5 275.5,-75.5 275.5,-56.5 216.5,-56.5"/>
<text text-anchor="middle" x="246" y="-63.5" font-family="Helvetica,sans-Serif" font-size="10.00">fer_fsb.h</text>
</a>
</g>
</g>
<!-- Node6&#45;&gt;Node13 -->
<g id="edge12" class="edge">
<title>Node6&#45;&gt;Node13</title>
<path fill="none" stroke="midnightblue" d="M327.9,-165.39C307.59,-158.6 285.52,-148.07 270,-132 254.62,-116.08 248.95,-89.47 246.98,-75.75"/>
<polygon fill="midnightblue" stroke="midnightblue" points="327.1,-168.81 337.68,-168.44 329.18,-162.13 327.1,-168.81"/>
</g>
<!-- Node14 -->
<g id="node14" class="node">
<title>Node14</title>
<g id="a_node14"><a xlink:href="fer__msg__tx_8h.html" target="_top" xlink:title="Send raw messages.">
<polygon fill="none" stroke="black" points="116,-0.5 116,-19.5 196,-19.5 196,-0.5 116,-0.5"/>
<text text-anchor="middle" x="156" y="-7.5" font-family="Helvetica,sans-Serif" font-size="10.00">fer_msg_tx.h</text>
</a>
</g>
</g>
<!-- Node6&#45;&gt;Node14 -->
<g id="edge24" class="edge">
<title>Node6&#45;&gt;Node14</title>
<path fill="none" stroke="midnightblue" d="M330.19,-165.79C305.77,-158.71 276.79,-147.86 254,-132 208.51,-100.35 173.03,-41.8 160.7,-19.73"/>
<polygon fill="midnightblue" stroke="midnightblue" points="329.42,-169.21 339.99,-168.5 331.29,-162.46 329.42,-169.21"/>
</g>
<!-- Node16 -->
<g id="node16" class="node">
<title>Node16</title>
<g id="a_node16"><a xlink:href="fer__msg__plain_8h.html" target="_top" xlink:title="Data structure of plain messages or header of extended messages.">
<polygon fill="none" stroke="black" points="279.5,-112.5 279.5,-131.5 374.5,-131.5 374.5,-112.5 279.5,-112.5"/>
<text text-anchor="middle" x="327" y="-119.5" font-family="Helvetica,sans-Serif" font-size="10.00">fer_msg_plain.h</text>
</a>
</g>
</g>
<!-- Node6&#45;&gt;Node16 -->
<g id="edge15" class="edge">
<title>Node6&#45;&gt;Node16</title>
<path fill="none" stroke="midnightblue" d="M364.02,-160.72C354.68,-151.2 343.25,-139.56 335.59,-131.75"/>
<polygon fill="midnightblue" stroke="midnightblue" points="361.75,-163.4 371.25,-168.08 366.74,-158.49 361.75,-163.4"/>
</g>
<!-- Node19 -->
<g id="node19" class="node">
<title>Node19</title>
<g id="a_node19"><a xlink:href="fer__radio__trx_8h.html" target="_top" xlink:title="RF transceiver.">
<polygon fill="none" stroke="black" points="566,-0.5 566,-19.5 654,-19.5 654,-0.5 566,-0.5"/>
<text text-anchor="middle" x="610" y="-7.5" font-family="Helvetica,sans-Serif" font-size="10.00">fer_radio_trx.h</text>
</a>
</g>
</g>
<!-- Node6&#45;&gt;Node19 -->
<g id="edge25" class="edge">
<title>Node6&#45;&gt;Node19</title>
<path fill="none" stroke="midnightblue" d="M434.64,-171.7C488.07,-165.38 564.31,-152.94 585,-132 615.9,-100.71 613.34,-41.94 611.1,-19.77"/>
<polygon fill="midnightblue" stroke="midnightblue" points="434.15,-168.23 424.62,-172.85 434.95,-175.19 434.15,-168.23"/>
</g>
<!-- Node8 -->
<g id="node8" class="node">
<title>Node8</title>
<g id="a_node8"><a xlink:href="shutter__pct_8h.html" target="_top" xlink:title="include positions_static.h and positions_dynamic.h">
<polygon fill="none" stroke="black" points="668,-56.5 668,-75.5 748,-75.5 748,-56.5 668,-56.5"/>
<text text-anchor="middle" x="708" y="-63.5" font-family="Helvetica,sans-Serif" font-size="10.00">shutter_pct.h</text>
</a>
</g>
</g>
<!-- Node7&#45;&gt;Node8 -->
<g id="edge7" class="edge">
<title>Node7&#45;&gt;Node8</title>
<path fill="none" stroke="midnightblue" d="M703.45,-102.1C704.61,-93.14 705.94,-82.86 706.87,-75.75"/>
<polygon fill="midnightblue" stroke="midnightblue" points="699.97,-101.72 702.16,-112.08 706.91,-102.62 699.97,-101.72"/>
</g>
<!-- Node9 -->
<g id="node9" class="node">
<title>Node9</title>
<g id="a_node9"><a xlink:href="commands_8h.html" target="_top" xlink:title="commands to move or stop a shutter with position support">
<polygon fill="none" stroke="black" points="672,-0.5 672,-19.5 752,-19.5 752,-0.5 672,-0.5"/>
<text text-anchor="middle" x="712" y="-7.5" font-family="Helvetica,sans-Serif" font-size="10.00">commands.h</text>
</a>
</g>
</g>
<!-- Node8&#45;&gt;Node9 -->
<g id="edge8" class="edge">
<title>Node8&#45;&gt;Node9</title>
<path fill="none" stroke="midnightblue" d="M709.4,-46.1C710.06,-37.14 710.83,-26.86 711.35,-19.75"/>
<polygon fill="midnightblue" stroke="midnightblue" points="705.91,-45.85 708.66,-56.08 712.89,-46.37 705.91,-45.85"/>
</g>
<!-- Node12 -->
<g id="node12" class="node">
<title>Node12</title>
<g id="a_node12"><a xlink:href="fer__print_8h.html" target="_top" xlink:title="Print raw message as formatted text to standard output (for debug purposes).">
<polygon fill="none" stroke="black" points="480.5,-0.5 480.5,-19.5 547.5,-19.5 547.5,-0.5 480.5,-0.5"/>
<text text-anchor="middle" x="514" y="-7.5" font-family="Helvetica,sans-Serif" font-size="10.00">fer_print.h</text>
</a>
</g>
</g>
<!-- Node11&#45;&gt;Node12 -->
<g id="edge11" class="edge">
<title>Node11&#45;&gt;Node12</title>
<path fill="none" stroke="midnightblue" d="M530.61,-102.35C526.23,-78.25 518.78,-37.31 515.56,-19.59"/>
<polygon fill="midnightblue" stroke="midnightblue" points="527.2,-103.16 532.43,-112.37 534.09,-101.9 527.2,-103.16"/>
</g>
<!-- Node13&#45;&gt;Node14 -->
<g id="edge13" class="edge">
<title>Node13&#45;&gt;Node14</title>
<path fill="none" stroke="midnightblue" d="M222.96,-51.18C206.4,-41.24 184.58,-28.15 170.42,-19.65"/>
<polygon fill="midnightblue" stroke="midnightblue" points="221.16,-54.18 231.54,-56.32 224.77,-48.18 221.16,-54.18"/>
</g>
<!-- Node15 -->
<g id="node15" class="node">
<title>Node15</title>
<g id="a_node15"><a xlink:href="fer__rawmsg__build_8h.html" target="_top" xlink:title="builder functions to construct (extended) raw messages">
<polygon fill="none" stroke="black" points="214.5,-0.5 214.5,-19.5 327.5,-19.5 327.5,-0.5 214.5,-0.5"/>
<text text-anchor="middle" x="271" y="-7.5" font-family="Helvetica,sans-Serif" font-size="10.00">fer_rawmsg_build.h</text>
</a>
</g>
</g>
<!-- Node13&#45;&gt;Node15 -->
<g id="edge14" class="edge">
<title>Node13&#45;&gt;Node15</title>
<path fill="none" stroke="midnightblue" d="M254.34,-46.98C258.58,-37.82 263.55,-27.09 266.95,-19.75"/>
<polygon fill="midnightblue" stroke="midnightblue" points="251.15,-45.54 250.13,-56.08 257.51,-48.48 251.15,-45.54"/>
</g>
<!-- Node16&#45;&gt;Node9 -->
<g id="edge16" class="edge">
<title>Node16&#45;&gt;Node9</title>
<path fill="none" stroke="midnightblue" d="M376.4,-110.26C414.27,-101.75 467.71,-89.15 514,-76 577.52,-57.96 651.1,-32.61 688.12,-19.54"/>
<polygon fill="midnightblue" stroke="midnightblue" points="375.64,-106.84 366.64,-112.44 377.16,-113.68 375.64,-106.84"/>
</g>
<!-- Node16&#45;&gt;Node13 -->
<g id="edge18" class="edge">
<title>Node16&#45;&gt;Node13</title>
<path fill="none" stroke="midnightblue" d="M305.43,-106.62C290.64,-96.76 271.49,-83.99 258.98,-75.65"/>
<polygon fill="midnightblue" stroke="midnightblue" points="303.72,-109.69 313.99,-112.32 307.61,-103.86 303.72,-109.69"/>
</g>
<!-- Node17 -->
<g id="node17" class="node">
<title>Node17</title>
<g id="a_node17"><a xlink:href="repeater_8h_source.html" target="_top" xlink:title=" ">
<polygon fill="none" stroke="black" points="294,-56.5 294,-75.5 360,-75.5 360,-56.5 294,-56.5"/>
<text text-anchor="middle" x="327" y="-63.5" font-family="Helvetica,sans-Serif" font-size="10.00">repeater.h</text>
</a>
</g>
</g>
<!-- Node16&#45;&gt;Node17 -->
<g id="edge17" class="edge">
<title>Node16&#45;&gt;Node17</title>
<path fill="none" stroke="midnightblue" d="M327,-101.8C327,-92.91 327,-82.78 327,-75.75"/>
<polygon fill="midnightblue" stroke="midnightblue" points="323.5,-102.08 327,-112.08 330.5,-102.08 323.5,-102.08"/>
</g>
<!-- Node18 -->
<g id="node18" class="node">
<title>Node18</title>
<g id="a_node18"><a xlink:href="fer__msg__attachment_8h.html" target="_top" xlink:title="Extended messages.">
<polygon fill="none" stroke="black" points="378.5,-56.5 378.5,-75.5 505.5,-75.5 505.5,-56.5 378.5,-56.5"/>
<text text-anchor="middle" x="442" y="-63.5" font-family="Helvetica,sans-Serif" font-size="10.00">fer_msg_attachment.h</text>
</a>
</g>
</g>
<!-- Node16&#45;&gt;Node18 -->
<g id="edge19" class="edge">
<title>Node16&#45;&gt;Node18</title>
<path fill="none" stroke="midnightblue" d="M354.48,-108.1C375.97,-98.01 405.22,-84.27 423.86,-75.52"/>
<polygon fill="midnightblue" stroke="midnightblue" points="352.79,-105.02 345.22,-112.44 355.76,-111.36 352.79,-105.02"/>
</g>
<!-- Node18&#45;&gt;Node12 -->
<g id="edge20" class="edge">
<title>Node18&#45;&gt;Node12</title>
<path fill="none" stroke="midnightblue" d="M461.87,-50.1C474.82,-40.38 491.3,-28.03 502.22,-19.83"/>
<polygon fill="midnightblue" stroke="midnightblue" points="459.47,-47.52 453.57,-56.32 463.67,-53.12 459.47,-47.52"/>
</g>
<!-- Node18&#45;&gt;Node15 -->
<g id="edge23" class="edge">
<title>Node18&#45;&gt;Node15</title>
<path fill="none" stroke="midnightblue" d="M404.96,-53.3C372.74,-43.13 326.81,-28.62 297.97,-19.52"/>
<polygon fill="midnightblue" stroke="midnightblue" points="404.31,-56.77 414.9,-56.44 406.42,-50.09 404.31,-56.77"/>
</g>
<!-- Node18&#45;&gt;Node19 -->
<g id="edge21" class="edge">
<title>Node18&#45;&gt;Node19</title>
<path fill="none" stroke="midnightblue" d="M478.39,-53.3C510.04,-43.13 555.17,-28.62 583.5,-19.52"/>
<polygon fill="midnightblue" stroke="midnightblue" points="477.07,-50.05 468.62,-56.44 479.21,-56.72 477.07,-50.05"/>
</g>
<!-- Node20 -->
<g id="node20" class="node">
<title>Node20</title>
<g id="a_node20"><a xlink:href="fer__rawmsg__buffer_8h.html" target="_top" xlink:title="Global static buffers for raw messages.">
<polygon fill="none" stroke="black" points="346,-0.5 346,-19.5 462,-19.5 462,-0.5 346,-0.5"/>
<text text-anchor="middle" x="404" y="-7.5" font-family="Helvetica,sans-Serif" font-size="10.00">fer_rawmsg_buffer.h</text>
</a>
</g>
</g>
<!-- Node18&#45;&gt;Node20 -->
<g id="edge22" class="edge">
<title>Node18&#45;&gt;Node20</title>
<path fill="none" stroke="midnightblue" d="M429.94,-47.86C423.36,-38.5 415.49,-27.33 410.16,-19.75"/>
<polygon fill="midnightblue" stroke="midnightblue" points="427.11,-49.92 435.73,-56.08 432.83,-45.89 427.11,-49.92"/>
</g>
</g>
</svg>
