<?xml version="1.0" encoding="UTF-8" standalone="no"?>
<!DOCTYPE svg PUBLIC "-//W3C//DTD SVG 1.1//EN"
 "http://www.w3.org/Graphics/SVG/1.1/DTD/svg11.dtd">
<!-- Generated by graphviz version 2.43.0 (0)
 -->
<!-- Title: fernotron_trx/timer_data.h Pages: 1 -->
<svg width="973pt" height="307pt"
 viewBox="0.00 0.00 972.50 307.00" xmlns="http://www.w3.org/2000/svg" xmlns:xlink="http://www.w3.org/1999/xlink">
<g id="graph0" class="graph" transform="scale(1 1) rotate(0) translate(4 303)">
<title>fernotron_trx/timer_data.h</title>
<!-- Node1 -->
<g id="node1" class="node">
<title>Node1</title>
<g id="a_node1"><a xlink:title="vocabulary types to program Fernotron automatic (timers)">
<polygon fill="#bfbfbf" stroke="black" points="120.5,-268.5 120.5,-298.5 230.5,-298.5 230.5,-268.5 120.5,-268.5"/>
<text text-anchor="start" x="128.5" y="-286.5" font-family="Helvetica,sans-Serif" font-size="10.00">fernotron_trx/timer</text>
<text text-anchor="middle" x="175.5" y="-275.5" font-family="Helvetica,sans-Serif" font-size="10.00">_data.h</text>
</a>
</g>
</g>
<!-- Node2 -->
<g id="node2" class="node">
<title>Node2</title>
<g id="a_node2"><a xlink:href="fau__tdata__store_8h.html" target="_top" xlink:title="Persistent timer data storage.">
<polygon fill="none" stroke="black" points="0,-201.5 0,-231.5 105,-231.5 105,-201.5 0,-201.5"/>
<text text-anchor="start" x="8" y="-219.5" font-family="Helvetica,sans-Serif" font-size="10.00">fernotron/auto/fau</text>
<text text-anchor="middle" x="52.5" y="-208.5" font-family="Helvetica,sans-Serif" font-size="10.00">_tdata_store.h</text>
</a>
</g>
</g>
<!-- Node1&#45;&gt;Node2 -->
<g id="edge1" class="edge">
<title>Node1&#45;&gt;Node2</title>
<path fill="none" stroke="midnightblue" d="M139.95,-263.71C120.55,-253.46 96.94,-240.98 79.14,-231.58"/>
<polygon fill="midnightblue" stroke="midnightblue" points="138.33,-266.82 148.81,-268.4 141.6,-260.63 138.33,-266.82"/>
</g>
<!-- Node3 -->
<g id="node3" class="node">
<title>Node3</title>
<g id="a_node3"><a xlink:href="fau__tminutes_8h.html" target="_top" xlink:title="Represent when each kind of timer will be scheduled for a given day and g/m. Calculate the next event...">
<polygon fill="none" stroke="black" points="123,-201.5 123,-231.5 228,-231.5 228,-201.5 123,-201.5"/>
<text text-anchor="start" x="131" y="-219.5" font-family="Helvetica,sans-Serif" font-size="10.00">fernotron/auto/fau</text>
<text text-anchor="middle" x="175.5" y="-208.5" font-family="Helvetica,sans-Serif" font-size="10.00">_tminutes.h</text>
</a>
</g>
</g>
<!-- Node1&#45;&gt;Node3 -->
<g id="edge2" class="edge">
<title>Node1&#45;&gt;Node3</title>
<path fill="none" stroke="midnightblue" d="M175.5,-258.11C175.5,-249.15 175.5,-239.32 175.5,-231.58"/>
<polygon fill="midnightblue" stroke="midnightblue" points="172,-258.4 175.5,-268.4 179,-258.4 172,-258.4"/>
</g>
<!-- Node6 -->
<g id="node6" class="node">
<title>Node6</title>
<g id="a_node6"><a xlink:href="fer__trx__c__api_8h.html" target="_top" xlink:title="C&#45;API for sending and receiving Fernotron RF messages.">
<polygon fill="none" stroke="black" points="376.5,-201.5 376.5,-231.5 492.5,-231.5 492.5,-201.5 376.5,-201.5"/>
<text text-anchor="start" x="384.5" y="-219.5" font-family="Helvetica,sans-Serif" font-size="10.00">fernotron_trx/fer_trx</text>
<text text-anchor="middle" x="434.5" y="-208.5" font-family="Helvetica,sans-Serif" font-size="10.00">_c_api.h</text>
</a>
</g>
</g>
<!-- Node1&#45;&gt;Node6 -->
<g id="edge5" class="edge">
<title>Node1&#45;&gt;Node6</title>
<path fill="none" stroke="midnightblue" d="M240.7,-266.14C283.15,-255.48 337.96,-241.73 378.45,-231.57"/>
<polygon fill="midnightblue" stroke="midnightblue" points="239.59,-262.81 230.74,-268.64 241.3,-269.6 239.59,-262.81"/>
</g>
<!-- Node4 -->
<g id="node4" class="node">
<title>Node4</title>
<g id="a_node4"><a xlink:href="fau__tevent_8hh_source.html" target="_top" xlink:title=" ">
<polygon fill="none" stroke="black" points="76,-134.5 76,-164.5 181,-164.5 181,-134.5 76,-134.5"/>
<text text-anchor="start" x="84" y="-152.5" font-family="Helvetica,sans-Serif" font-size="10.00">fernotron/auto/fau</text>
<text text-anchor="middle" x="128.5" y="-141.5" font-family="Helvetica,sans-Serif" font-size="10.00">_tevent.hh</text>
</a>
</g>
</g>
<!-- Node3&#45;&gt;Node4 -->
<g id="edge3" class="edge">
<title>Node3&#45;&gt;Node4</title>
<path fill="none" stroke="midnightblue" d="M159.34,-193.16C152.49,-183.68 144.71,-172.92 138.68,-164.58"/>
<polygon fill="midnightblue" stroke="midnightblue" points="156.61,-195.34 165.3,-201.4 162.28,-191.24 156.61,-195.34"/>
</g>
<!-- Node5 -->
<g id="node5" class="node">
<title>Node5</title>
<g id="a_node5"><a xlink:href="fau__next__event_8hh_source.html" target="_top" xlink:title=" ">
<polygon fill="none" stroke="black" points="76,-67.5 76,-97.5 181,-97.5 181,-67.5 76,-67.5"/>
<text text-anchor="start" x="84" y="-85.5" font-family="Helvetica,sans-Serif" font-size="10.00">fernotron/auto/fau</text>
<text text-anchor="middle" x="128.5" y="-74.5" font-family="Helvetica,sans-Serif" font-size="10.00">_next_event.hh</text>
</a>
</g>
</g>
<!-- Node4&#45;&gt;Node5 -->
<g id="edge4" class="edge">
<title>Node4&#45;&gt;Node5</title>
<path fill="none" stroke="midnightblue" d="M128.5,-124.11C128.5,-115.15 128.5,-105.32 128.5,-97.58"/>
<polygon fill="midnightblue" stroke="midnightblue" points="125,-124.4 128.5,-134.4 132,-124.4 125,-124.4"/>
</g>
<!-- Node7 -->
<g id="node7" class="node">
<title>Node7</title>
<g id="a_node7"><a xlink:href="positions__dynamic_8h.html" target="_top" xlink:title="Keep track of positions for a currently moving shutter.">
<polygon fill="none" stroke="black" points="804,-134.5 804,-164.5 933,-164.5 933,-134.5 804,-134.5"/>
<text text-anchor="start" x="812" y="-152.5" font-family="Helvetica,sans-Serif" font-size="10.00">fernotron/pos/positions</text>
<text text-anchor="middle" x="868.5" y="-141.5" font-family="Helvetica,sans-Serif" font-size="10.00">_dynamic.h</text>
</a>
</g>
</g>
<!-- Node6&#45;&gt;Node7 -->
<g id="edge6" class="edge">
<title>Node6&#45;&gt;Node7</title>
<path fill="none" stroke="midnightblue" d="M502.6,-205.3C585.01,-192.96 722.78,-172.32 803.69,-160.21"/>
<polygon fill="midnightblue" stroke="midnightblue" points="501.95,-201.86 492.58,-206.8 502.99,-208.78 501.95,-201.86"/>
</g>
<!-- Node10 -->
<g id="node10" class="node">
<title>Node10</title>
<g id="a_node10"><a xlink:href="set__endpos_8h.html" target="_top" xlink:title="Mode for setting shutter end positions.">
<polygon fill="none" stroke="black" points="436,-140 436,-159 585,-159 585,-140 436,-140"/>
<text text-anchor="middle" x="510.5" y="-147" font-family="Helvetica,sans-Serif" font-size="10.00">fernotron/sep/set_endpos.h</text>
</a>
</g>
</g>
<!-- Node6&#45;&gt;Node10 -->
<g id="edge9" class="edge">
<title>Node6&#45;&gt;Node10</title>
<path fill="none" stroke="midnightblue" d="M458.85,-194.67C472.89,-182.67 489.78,-168.22 500.33,-159.19"/>
<polygon fill="midnightblue" stroke="midnightblue" points="456.32,-192.24 450.99,-201.4 460.87,-197.56 456.32,-192.24"/>
</g>
<!-- Node11 -->
<g id="node11" class="node">
<title>Node11</title>
<g id="a_node11"><a xlink:href="fer__trx__api_8hh.html" target="_top" xlink:title="C++&#45;API for sending and receiving Fernotron RF messages.">
<polygon fill="none" stroke="black" points="602.5,-134.5 602.5,-164.5 718.5,-164.5 718.5,-134.5 602.5,-134.5"/>
<text text-anchor="start" x="610.5" y="-152.5" font-family="Helvetica,sans-Serif" font-size="10.00">fernotron_trx/fer_trx</text>
<text text-anchor="middle" x="660.5" y="-141.5" font-family="Helvetica,sans-Serif" font-size="10.00">_api.hh</text>
</a>
</g>
</g>
<!-- Node6&#45;&gt;Node11 -->
<g id="edge10" class="edge">
<title>Node6&#45;&gt;Node11</title>
<path fill="none" stroke="midnightblue" d="M493.33,-198.58C530.04,-188.02 576.73,-174.59 611.44,-164.61"/>
<polygon fill="midnightblue" stroke="midnightblue" points="491.9,-195.35 483.26,-201.48 493.84,-202.08 491.9,-195.35"/>
</g>
<!-- Node13 -->
<g id="node13" class="node">
<title>Node13</title>
<g id="a_node13"><a xlink:href="fer__fsb_8h.html" target="_top" xlink:title="Plain raw message.">
<polygon fill="none" stroke="black" points="237.5,-67.5 237.5,-97.5 355.5,-97.5 355.5,-67.5 237.5,-67.5"/>
<text text-anchor="start" x="245.5" y="-85.5" font-family="Helvetica,sans-Serif" font-size="10.00">fernotron_trx/raw/fer</text>
<text text-anchor="middle" x="296.5" y="-74.5" font-family="Helvetica,sans-Serif" font-size="10.00">_fsb.h</text>
</a>
</g>
</g>
<!-- Node6&#45;&gt;Node13 -->
<g id="edge12" class="edge">
<title>Node6&#45;&gt;Node13</title>
<path fill="none" stroke="midnightblue" d="M366.56,-208.8C338.22,-202.26 307.91,-189.55 290.5,-165 276.39,-145.09 283.95,-115.15 290.43,-97.64"/>
<polygon fill="midnightblue" stroke="midnightblue" points="365.98,-212.25 376.48,-210.86 367.4,-205.4 365.98,-212.25"/>
</g>
<!-- Node14 -->
<g id="node14" class="node">
<title>Node14</title>
<g id="a_node14"><a xlink:href="fer__msg__tx_8h.html" target="_top" xlink:title="Send raw messages.">
<polygon fill="none" stroke="black" points="150.5,-0.5 150.5,-30.5 268.5,-30.5 268.5,-0.5 150.5,-0.5"/>
<text text-anchor="start" x="158.5" y="-18.5" font-family="Helvetica,sans-Serif" font-size="10.00">fernotron_trx/raw/fer</text>
<text text-anchor="middle" x="209.5" y="-7.5" font-family="Helvetica,sans-Serif" font-size="10.00">_msg_tx.h</text>
</a>
</g>
</g>
<!-- Node6&#45;&gt;Node14 -->
<g id="edge24" class="edge">
<title>Node6&#45;&gt;Node14</title>
<path fill="none" stroke="midnightblue" d="M366.24,-202.74C337.61,-195.08 305.09,-183.18 279.5,-165 248.99,-143.33 244.43,-131.86 228.5,-98 218.05,-75.78 213.11,-47.38 210.97,-30.64"/>
<polygon fill="midnightblue" stroke="midnightblue" points="365.64,-206.2 376.19,-205.28 367.36,-199.41 365.64,-206.2"/>
</g>
<!-- Node16 -->
<g id="node16" class="node">
<title>Node16</title>
<g id="a_node16"><a xlink:href="fer__msg__plain_8h.html" target="_top" xlink:title="Data structure of plain messages or header of extended messages.">
<polygon fill="none" stroke="black" points="299.5,-134.5 299.5,-164.5 417.5,-164.5 417.5,-134.5 299.5,-134.5"/>
<text text-anchor="start" x="307.5" y="-152.5" font-family="Helvetica,sans-Serif" font-size="10.00">fernotron_trx/raw/fer</text>
<text text-anchor="middle" x="358.5" y="-141.5" font-family="Helvetica,sans-Serif" font-size="10.00">_msg_plain.h</text>
</a>
</g>
</g>
<!-- Node6&#45;&gt;Node16 -->
<g id="edge15" class="edge">
<title>Node6&#45;&gt;Node16</title>
<path fill="none" stroke="midnightblue" d="M410.39,-194.88C398.84,-185.01 385.31,-173.43 374.96,-164.58"/>
<polygon fill="midnightblue" stroke="midnightblue" points="408.13,-197.56 418.01,-201.4 412.68,-192.24 408.13,-197.56"/>
</g>
<!-- Node19 -->
<g id="node19" class="node">
<title>Node19</title>
<g id="a_node19"><a xlink:href="fer__radio__trx_8h.html" target="_top" xlink:title="RF transceiver.">
<polygon fill="none" stroke="black" points="680.5,-0.5 680.5,-30.5 798.5,-30.5 798.5,-0.5 680.5,-0.5"/>
<text text-anchor="start" x="688.5" y="-18.5" font-family="Helvetica,sans-Serif" font-size="10.00">fernotron_trx/raw/fer</text>
<text text-anchor="middle" x="739.5" y="-7.5" font-family="Helvetica,sans-Serif" font-size="10.00">_radio_trx.h</text>
</a>
</g>
</g>
<!-- Node6&#45;&gt;Node19 -->
<g id="edge25" class="edge">
<title>Node6&#45;&gt;Node19</title>
<path fill="none" stroke="midnightblue" d="M502.61,-213.13C579.59,-208.91 698.05,-197.23 727.5,-165 761.87,-127.38 750.45,-59.72 743.36,-30.53"/>
<polygon fill="midnightblue" stroke="midnightblue" points="502.31,-209.65 492.51,-213.66 502.67,-216.64 502.31,-209.65"/>
</g>
<!-- Node8 -->
<g id="node8" class="node">
<title>Node8</title>
<g id="a_node8"><a xlink:href="shutter__pct_8h.html" target="_top" xlink:title="include positions_static.h and positions_dynamic.h">
<polygon fill="none" stroke="black" points="823,-67.5 823,-97.5 942,-97.5 942,-67.5 823,-67.5"/>
<text text-anchor="start" x="831" y="-85.5" font-family="Helvetica,sans-Serif" font-size="10.00">fernotron/pos/shutter</text>
<text text-anchor="middle" x="882.5" y="-74.5" font-family="Helvetica,sans-Serif" font-size="10.00">_pct.h</text>
</a>
</g>
</g>
<!-- Node7&#45;&gt;Node8 -->
<g id="edge7" class="edge">
<title>Node7&#45;&gt;Node8</title>
<path fill="none" stroke="midnightblue" d="M873.69,-124.4C875.64,-115.37 877.78,-105.41 879.47,-97.58"/>
<polygon fill="midnightblue" stroke="midnightblue" points="870.22,-123.88 871.54,-134.4 877.06,-125.36 870.22,-123.88"/>
</g>
<!-- Node9 -->
<g id="node9" class="node">
<title>Node9</title>
<g id="a_node9"><a xlink:href="commands_8h.html" target="_top" xlink:title="commands to move or stop a shutter with position support">
<polygon fill="none" stroke="black" points="816.5,-6 816.5,-25 964.5,-25 964.5,-6 816.5,-6"/>
<text text-anchor="middle" x="890.5" y="-13" font-family="Helvetica,sans-Serif" font-size="10.00">fernotron/pos/commands.h</text>
</a>
</g>
</g>
<!-- Node8&#45;&gt;Node9 -->
<g id="edge8" class="edge">
<title>Node8&#45;&gt;Node9</title>
<path fill="none" stroke="midnightblue" d="M885.48,-57.25C886.87,-46.02 888.42,-33.38 889.43,-25.19"/>
<polygon fill="midnightblue" stroke="midnightblue" points="881.98,-57.04 884.24,-67.4 888.93,-57.9 881.98,-57.04"/>
</g>
<!-- Node12 -->
<g id="node12" class="node">
<title>Node12</title>
<g id="a_node12"><a xlink:href="fer__print_8h.html" target="_top" xlink:title="Print raw message as formatted text to standard output (for debug purposes).">
<polygon fill="none" stroke="black" points="558.5,-0.5 558.5,-30.5 662.5,-30.5 662.5,-0.5 558.5,-0.5"/>
<text text-anchor="start" x="566.5" y="-18.5" font-family="Helvetica,sans-Serif" font-size="10.00">fernotron/txtio/fer</text>
<text text-anchor="middle" x="610.5" y="-7.5" font-family="Helvetica,sans-Serif" font-size="10.00">_print.h</text>
</a>
</g>
</g>
<!-- Node11&#45;&gt;Node12 -->
<g id="edge11" class="edge">
<title>Node11&#45;&gt;Node12</title>
<path fill="none" stroke="midnightblue" d="M651.51,-124.75C641.1,-97.29 624.32,-52.99 615.81,-30.52"/>
<polygon fill="midnightblue" stroke="midnightblue" points="648.33,-126.26 655.15,-134.37 654.88,-123.78 648.33,-126.26"/>
</g>
<!-- Node13&#45;&gt;Node14 -->
<g id="edge13" class="edge">
<title>Node13&#45;&gt;Node14</title>
<path fill="none" stroke="midnightblue" d="M269.29,-61.17C255.98,-51.23 240.3,-39.51 228.34,-30.58"/>
<polygon fill="midnightblue" stroke="midnightblue" points="267.52,-64.21 277.62,-67.4 271.71,-58.61 267.52,-64.21"/>
</g>
<!-- Node15 -->
<g id="node15" class="node">
<title>Node15</title>
<g id="a_node15"><a xlink:href="fer__rawmsg__build_8h.html" target="_top" xlink:title="builder functions to construct (extended) raw messages">
<polygon fill="none" stroke="black" points="286.5,-0.5 286.5,-30.5 404.5,-30.5 404.5,-0.5 286.5,-0.5"/>
<text text-anchor="start" x="294.5" y="-18.5" font-family="Helvetica,sans-Serif" font-size="10.00">fernotron_trx/raw/fer</text>
<text text-anchor="middle" x="345.5" y="-7.5" font-family="Helvetica,sans-Serif" font-size="10.00">_rawmsg_build.h</text>
</a>
</g>
</g>
<!-- Node13&#45;&gt;Node15 -->
<g id="edge14" class="edge">
<title>Node13&#45;&gt;Node15</title>
<path fill="none" stroke="midnightblue" d="M313.34,-59.16C320.49,-49.68 328.6,-38.92 334.89,-30.58"/>
<polygon fill="midnightblue" stroke="midnightblue" points="310.36,-57.3 307.13,-67.4 315.95,-61.52 310.36,-57.3"/>
</g>
<!-- Node16&#45;&gt;Node9 -->
<g id="edge16" class="edge">
<title>Node16&#45;&gt;Node9</title>
<path fill="none" stroke="midnightblue" d="M427.72,-133.81C515.97,-116.82 540.65,-118.39 624.5,-98 714.84,-76.03 819.72,-41.02 866.2,-25"/>
<polygon fill="midnightblue" stroke="midnightblue" points="426.96,-130.39 417.82,-135.74 428.3,-137.26 426.96,-130.39"/>
</g>
<!-- Node16&#45;&gt;Node13 -->
<g id="edge18" class="edge">
<title>Node16&#45;&gt;Node13</title>
<path fill="none" stroke="midnightblue" d="M338.02,-127.02C328.78,-117.34 318.13,-106.17 309.93,-97.58"/>
<polygon fill="midnightblue" stroke="midnightblue" points="335.61,-129.58 345.05,-134.4 340.68,-124.74 335.61,-129.58"/>
</g>
<!-- Node17 -->
<g id="node17" class="node">
<title>Node17</title>
<g id="a_node17"><a xlink:href="repeater_8h_source.html" target="_top" xlink:title=" ">
<polygon fill="none" stroke="black" points="373.5,-67.5 373.5,-97.5 479.5,-97.5 479.5,-67.5 373.5,-67.5"/>
<text text-anchor="start" x="381.5" y="-85.5" font-family="Helvetica,sans-Serif" font-size="10.00">fernotron/repeater</text>
<text text-anchor="middle" x="426.5" y="-74.5" font-family="Helvetica,sans-Serif" font-size="10.00">/repeater.h</text>
</a>
</g>
</g>
<!-- Node16&#45;&gt;Node17 -->
<g id="edge17" class="edge">
<title>Node16&#45;&gt;Node17</title>
<path fill="none" stroke="midnightblue" d="M380.67,-127.31C390.87,-117.56 402.69,-106.26 411.77,-97.58"/>
<polygon fill="midnightblue" stroke="midnightblue" points="378.07,-124.96 373.25,-134.4 382.9,-130.02 378.07,-124.96"/>
</g>
<!-- Node18 -->
<g id="node18" class="node">
<title>Node18</title>
<g id="a_node18"><a xlink:href="fer__msg__attachment_8h.html" target="_top" xlink:title="Extended messages.">
<polygon fill="none" stroke="black" points="497.5,-67.5 497.5,-97.5 615.5,-97.5 615.5,-67.5 497.5,-67.5"/>
<text text-anchor="start" x="505.5" y="-85.5" font-family="Helvetica,sans-Serif" font-size="10.00">fernotron_trx/raw/fer</text>
<text text-anchor="middle" x="556.5" y="-74.5" font-family="Helvetica,sans-Serif" font-size="10.00">_msg_attachment.h</text>
</a>
</g>
</g>
<!-- Node16&#45;&gt;Node18 -->
<g id="edge19" class="edge">
<title>Node16&#45;&gt;Node18</title>
<path fill="none" stroke="midnightblue" d="M411.11,-131.23C443.14,-120.71 483.54,-107.45 513.62,-97.58"/>
<polygon fill="midnightblue" stroke="midnightblue" points="409.87,-127.95 401.46,-134.4 412.06,-134.6 409.87,-127.95"/>
</g>
<!-- Node18&#45;&gt;Node12 -->
<g id="edge20" class="edge">
<title>Node18&#45;&gt;Node12</title>
<path fill="none" stroke="midnightblue" d="M574.82,-59.45C582.75,-49.9 591.8,-39 598.81,-30.58"/>
<polygon fill="midnightblue" stroke="midnightblue" points="571.92,-57.47 568.22,-67.4 577.3,-61.94 571.92,-57.47"/>
</g>
<!-- Node18&#45;&gt;Node15 -->
<g id="edge23" class="edge">
<title>Node18&#45;&gt;Node15</title>
<path fill="none" stroke="midnightblue" d="M501.13,-64.44C466.93,-53.91 423.57,-40.55 391.31,-30.61"/>
<polygon fill="midnightblue" stroke="midnightblue" points="500.39,-67.88 510.98,-67.48 502.45,-61.19 500.39,-67.88"/>
</g>
<!-- Node18&#45;&gt;Node19 -->
<g id="edge21" class="edge">
<title>Node18&#45;&gt;Node19</title>
<path fill="none" stroke="midnightblue" d="M605.9,-63.96C635.37,-53.48 672.31,-40.37 699.87,-30.58"/>
<polygon fill="midnightblue" stroke="midnightblue" points="604.46,-60.75 596.21,-67.4 606.8,-67.35 604.46,-60.75"/>
</g>
<!-- Node20 -->
<g id="node20" class="node">
<title>Node20</title>
<g id="a_node20"><a xlink:href="fer__rawmsg__buffer_8h.html" target="_top" xlink:title="Global static buffers for raw messages.">
<polygon fill="none" stroke="black" points="422.5,-0.5 422.5,-30.5 540.5,-30.5 540.5,-0.5 422.5,-0.5"/>
<text text-anchor="start" x="430.5" y="-18.5" font-family="Helvetica,sans-Serif" font-size="10.00">fernotron_trx/raw/fer</text>
<text text-anchor="middle" x="481.5" y="-7.5" font-family="Helvetica,sans-Serif" font-size="10.00">_rawmsg_buffer.h</text>
</a>
</g>
</g>
<!-- Node18&#45;&gt;Node20 -->
<g id="edge22" class="edge">
<title>Node18&#45;&gt;Node20</title>
<path fill="none" stroke="midnightblue" d="M532.38,-60.6C521.06,-50.78 507.86,-39.34 497.74,-30.58"/>
<polygon fill="midnightblue" stroke="midnightblue" points="530.38,-63.49 540.23,-67.4 534.96,-58.2 530.38,-63.49"/>
</g>
</g>
</svg>
